<svg xmlns="http://www.w3.org/2000/svg" xmlns:xlink="http://www.w3.org/1999/xlink" version="1.1" class="marks" width="660" height="300" viewBox="0 0 660 300"><rect width="660" height="300" fill="#ffffff"/><g fill="none" stroke-miterlimit="10" transform="translate(26,0)"><g class="mark-group role-frame root" role="graphics-object" aria-roledescription="group mark container"><g transform="translate(0,0)"><path class="background" aria-hidden="true" d="M0.5,0.5h585v280h-585Z" stroke="#ddd"/><g><g class="mark-group role-axis" aria-hidden="true"><g transform="translate(0.5,280.5)"><path class="background" aria-hidden="true" d="M0,0h0v0h0Z" pointer-events="none"/><g><g class="mark-rule role-axis-grid" pointer-events="none"><line transform="translate(0,-280)" x2="0" y2="280" stroke="rgba(38, 39, 48, 0.2)" stroke-width="1" opacity="1"/><line transform="translate(45,-280)" x2="0" y2="280" stroke="rgba(38, 39, 48, 0.2)" stroke-width="1" opacity="1"/><line transform="translate(90,-280)" x2="0" y2="280" stroke="rgba(38, 39, 48, 0.2)" stroke-width="1" opacity="1"/><line transform="translate(135,-280)" x2="0" y2="280" stroke="rgba(38, 39, 48, 0.2)" stroke-width="1" opacity="1"/><line transform="translate(180,-280)" x2="0" y2="280" stroke="rgba(38, 39, 48, 0.2)" stroke-width="1" opacity="1"/><line transform="translate(225,-280)" x2="0" y2="280" stroke="rgba(38, 39, 48, 0.2)" stroke-width="1" opacity="1"/><line transform="translate(270,-280)" x2="0" y2="280" stroke="rgba(38, 39, 48, 0.2)" stroke-width="1" opacity="1"/><line transform="translate(315,-280)" x2="0" y2="280" stroke="rgba(38, 39, 48, 0.2)" stroke-width="1" opacity="1"/><line transform="translate(360,-280)" x2="0" y2="280" stroke="rgba(38, 39, 48, 0.2)" stroke-width="1" opacity="1"/><line transform="translate(405,-280)" x2="0" y2="280" stroke="rgba(38, 39, 48, 0.2)" stroke-width="1" opacity="1"/><line transform="translate(450,-280)" x2="0" y2="280" stroke="rgba(38, 39, 48, 0.2)" stroke-width="1" opacity="1"/><line transform="translate(495,-280)" x2="0" y2="280" stroke="rgba(38, 39, 48, 0.2)" stroke-width="1" opacity="1"/><line transform="translate(540,-280)" x2="0" y2="280" stroke="rgba(38, 39, 48, 0.2)" stroke-width="1" opacity="1"/><line transform="translate(585,-280)" x2="0" y2="280" stroke="rgba(38, 39, 48, 0.2)" stroke-width="1" opacity="1"/></g></g><path class="foreground" aria-hidden="true" d="" pointer-events="none" display="none"/></g></g><g class="mark-group role-axis" aria-hidden="true"><g transform="translate(0.5,0.5)"><path class="background" aria-hidden="true" d="M0,0h0v0h0Z" pointer-events="none"/><g><g class="mark-rule role-axis-grid" pointer-events="none"><line transform="translate(0,257)" x2="585" y2="0" stroke="rgba(38, 39, 48, 0.2)" stroke-width="1" opacity="1"/><line transform="translate(0,210)" x2="585" y2="0" stroke="rgba(38, 39, 48, 0.2)" stroke-width="1" opacity="1"/><line transform="translate(0,163)" x2="585" y2="0" stroke="rgba(38, 39, 48, 0.2)" stroke-width="1" opacity="1"/><line transform="translate(0,117)" x2="585" y2="0" stroke="rgba(38, 39, 48, 0.2)" stroke-width="1" opacity="1"/><line transform="translate(0,70)" x2="585" y2="0" stroke="rgba(38, 39, 48, 0.2)" stroke-width="1" opacity="1"/><line transform="translate(0,23)" x2="585" y2="0" stroke="rgba(38, 39, 48, 0.2)" stroke-width="1" opacity="1"/></g></g><path class="foreground" aria-hidden="true" d="" pointer-events="none" display="none"/></g></g><g class="mark-group role-axis" role="graphics-symbol" aria-roledescription="axis" aria-label="X-axis for a linear scale with values from 0 to 260"><g transform="translate(0.5,280.5)"><path class="background" aria-hidden="true" d="M0,0h0v0h0Z" pointer-events="none"/><g><g class="mark-rule role-axis-tick" pointer-events="none"><line transform="translate(0,0)" x2="0" y2="5" stroke="#888" stroke-width="1" opacity="1"/><line transform="translate(45,0)" x2="0" y2="5" stroke="#888" stroke-width="1" opacity="1"/><line transform="translate(90,0)" x2="0" y2="5" stroke="#888" stroke-width="1" opacity="1"/><line transform="translate(135,0)" x2="0" y2="5" stroke="#888" stroke-width="1" opacity="1"/><line transform="translate(180,0)" x2="0" y2="5" stroke="#888" stroke-width="1" opacity="1"/><line transform="translate(225,0)" x2="0" y2="5" stroke="#888" stroke-width="1" opacity="1"/><line transform="translate(270,0)" x2="0" y2="5" stroke="#888" stroke-width="1" opacity="1"/><line transform="translate(315,0)" x2="0" y2="5" stroke="#888" stroke-width="1" opacity="1"/><line transform="translate(360,0)" x2="0" y2="5" stroke="#888" stroke-width="1" opacity="1"/><line transform="translate(405,0)" x2="0" y2="5" stroke="#888" stroke-width="1" opacity="1"/><line transform="translate(450,0)" x2="0" y2="5" stroke="#888" stroke-width="1" opacity="1"/><line transform="translate(495,0)" x2="0" y2="5" stroke="#888" stroke-width="1" opacity="1"/><line transform="translate(540,0)" x2="0" y2="5" stroke="#888" stroke-width="1" opacity="1"/><line transform="translate(585,0)" x2="0" y2="5" stroke="#888" stroke-width="1" opacity="1"/></g><g class="mark-text role-axis-label" pointer-events="none"><text text-anchor="start" transform="translate(0,15)" font-family="IBM Plex Serif, serif" font-size="10px" fill="#262730" opacity="1">0</text><text text-anchor="middle" transform="translate(45,15)" font-family="IBM Plex Serif, serif" font-size="10px" fill="#262730" opacity="1">20</text><text text-anchor="middle" transform="translate(90,15)" font-family="IBM Plex Serif, serif" font-size="10px" fill="#262730" opacity="1">40</text><text text-anchor="middle" transform="translate(135,15)" font-family="IBM Plex Serif, serif" font-size="10px" fill="#262730" opacity="1">60</text><text text-anchor="middle" transform="translate(180,15)" font-family="IBM Plex Serif, serif" font-size="10px" fill="#262730" opacity="1">80</text><text text-anchor="middle" transform="translate(225,15)" font-family="IBM Plex Serif, serif" font-size="10px" fill="#262730" opacity="1">100</text><text text-anchor="middle" transform="translate(270,15)" font-family="IBM Plex Serif, serif" font-size="10px" fill="#262730" opacity="1">120</text><text text-anchor="middle" transform="translate(315,15)" font-family="IBM Plex Serif, serif" font-size="10px" fill="#262730" opacity="1">140</text><text text-anchor="middle" transform="translate(360,15)" font-family="IBM Plex Serif, serif" font-size="10px" fill="#262730" opacity="1">160</text><text text-anchor="middle" transform="translate(405,15)" font-family="IBM Plex Serif, serif" font-size="10px" fill="#262730" opacity="1">180</text><text text-anchor="middle" transform="translate(450,15)" font-family="IBM Plex Serif, serif" font-size="10px" fill="#262730" opacity="1">200</text><text text-anchor="middle" transform="translate(495,15)" font-family="IBM Plex Serif, serif" font-size="10px" fill="#262730" opacity="1">220</text><text text-anchor="middle" transform="translate(540,15)" font-family="IBM Plex Serif, serif" font-size="10px" fill="#262730" opacity="1">240</text><text text-anchor="end" transform="translate(585,15)" font-family="IBM Plex Serif, serif" font-size="10px" fill="#262730" opacity="1">260</text></g><g class="mark-rule role-axis-domain" pointer-events="none"><line transform="translate(0,0)" x2="585" y2="0" stroke="#888" stroke-width="1" opacity="1"/></g></g><path class="foreground" aria-hidden="true" d="" pointer-events="none" display="none"/></g></g><g class="mark-group role-axis" role="graphics-symbol" aria-roledescription="axis" aria-label="Y-axis for a linear scale with values from −0.5 to 0.7"><g transform="translate(0.5,0.5)"><path class="background" aria-hidden="true" d="M0,0h0v0h0Z" pointer-events="none"/><g><g class="mark-rule role-axis-tick" pointer-events="none"><line transform="translate(0,257)" x2="-5" y2="0" stroke="#888" stroke-width="1" opacity="1"/><line transform="translate(0,210)" x2="-5" y2="0" stroke="#888" stroke-width="1" opacity="1"/><line transform="translate(0,163)" x2="-5" y2="0" stroke="#888" stroke-width="1" opacity="1"/><line transform="translate(0,117)" x2="-5" y2="0" stroke="#888" stroke-width="1" opacity="1"/><line transform="translate(0,70)" x2="-5" y2="0" stroke="#888" stroke-width="1" opacity="1"/><line transform="translate(0,23)" x2="-5" y2="0" stroke="#888" stroke-width="1" opacity="1"/></g><g class="mark-text role-axis-label" pointer-events="none"><text text-anchor="end" transform="translate(-7,259.6666666666667)" font-family="IBM Plex Serif, serif" font-size="10px" fill="#262730" opacity="1">−0.4</text><text text-anchor="end" transform="translate(-7,213)" font-family="IBM Plex Serif, serif" font-size="10px" fill="#262730" opacity="1">−0.2</text><text text-anchor="end" transform="translate(-7,166.33333333333331)" font-family="IBM Plex Serif, serif" font-size="10px" fill="#262730" opacity="1">0.0</text><text text-anchor="end" transform="translate(-7,119.66666666666666)" font-family="IBM Plex Serif, serif" font-size="10px" fill="#262730" opacity="1">0.2</text><text text-anchor="end" transform="translate(-7,73)" font-family="IBM Plex Serif, serif" font-size="10px" fill="#262730" opacity="1">0.4</text><text text-anchor="end" transform="translate(-7,26.333333333333314)" font-family="IBM Plex Serif, serif" font-size="10px" fill="#262730" opacity="1">0.6</text></g><g class="mark-rule role-axis-domain" pointer-events="none"><line transform="translate(0,280)" x2="0" y2="-280" stroke="#888" stroke-width="1" opacity="1"/></g></g><path class="foreground" aria-hidden="true" d="" pointer-events="none" display="none"/></g></g><g class="mark-group role-scope pathgroup" role="graphics-object" aria-roledescription="group mark container"><g transform="translate(0,0)"><path class="background" aria-hidden="true" d="M0,0h585v280h-585Z"/><g><g class="mark-line role-mark marks" clip-path="url(#clip52)" role="graphics-object" aria-roledescription="line mark container"><path aria-label="variable: AZ; index: 0; value: 0.0826573596747" role="graphics-symbol" aria-roledescription="line mark" d="M0,144.0466160759075L2.25,140.42307963241652L4.5,133.67657775927765L6.75,129.672009648533L9,126.00364595007096L11.25,122.33528225160897L13.5,118.1289914934947L15.75,114.05718250029351L18,110.32904912853681L20.25,107.19861248972707L22.5,104.41932268152368L24.75,102.55152039106443L27,101.34865571600866L29.25,100.14579104095289L31.5,99.60786398130061L33.75,99.4808534255494L36,99.22683231404692L38.25,101.07222097702066L40.5,103.28369888892448L42.75,105.44287833669539L45,108.9991738977298L47.25,111.9801863533028L49.5,115.62613642427931L51.75,120.27322852294195L54,123.85940892062375L56.25,127.49041657327653L58.5,130.91223036939792L60.75,134.47599713959423L63,139.481707278025L65.25,144.09891454004034L67.5,148.14830990575607L69.75,152.12299317985332L72,155.88101138825735L74.25,160.43097776781616L76.5,164.46543071520819L78.75,168.0441399037281L81,171.5481370006297L83.25,175.50787785640338L85.5,179.74405345116497L87.75,183.6365534244821L90,186.9388278740141L92.25,190.30087199684075L94.5,193.8571675578752L96.75,197.35369344561494L99,200.43930282945362L101.25,203.25594868346622L103.5,206.37891411311412L105.75,209.31509931371605L108,212.35588144258372L110.25,214.66448507359138L112.5,217.21216739777788L114.75,219.38628926387244L117,221.14949462606597L119.25,222.93511361574502L121.5,224.9822249260884L123.75,226.23738806527703L126,227.67933143351158L128.25,228.98679303683306L130.5,230.92183620974888L132.75,232.67009915361874L135,234.2539954959282L137.25,235.29996477858538L139.5,237.31719125228142L141.75,238.92350122207634L144,240.04418259635193L146.25,240.54475361019502L148.5,241.36658661799706L150.74999999999997,242.04646665172424L153,242.86829965952631L155.25,243.40622671917862L157.5,244.10852038039127L159.74999999999997,244.98265185232623L162,246.21540136402933L164.25,247.17171613674452L166.5,248.2251566285635L168.74999999999997,249.48779097691394L171,250.28721035723052L173.25,251.183755456651L175.5,251.43777656815342L177.74999999999997,251.8935203270255L180,252.23719594847L182.25,252.63317003404737L184.5,252.7601805897986L186.75,252.93201840052086L189,252.59581398823818L191.25,252.81247905393147L193.5,252.77512300812225L195.75,252.9170759821972L198,252.83489268141696L200.25,252.86477751806433L202.5,252.76765179896046L204.75,252.9394896096827L207,252.52857310578165L209.25,252.04294451026223L211.5,251.32570843072588L213.75,250.86249346269202L216,250.12284375567012L218.25,249.18894261044048L220.5,248.28492630185818L222.75,247.47803571237984L225,246.58149061295933L227.25,245.98379388001237L229.5,245.34874110125625L231.75,244.6016201850725L234,244.29530060943722L236.25,244.0711643345821L238.5,244.08610675290575L240.75,243.77978717727044L243,243.24186011761816L245.25,242.61427854802383L247.5,242.21083325328465L249.75,241.68037740279425L252,240.77636109421195L254.25,239.86487357646786L256.5,239.3568313534629L258.75,238.89361638542903L261,238.0418985409796L263.25,237.17523827820648L265.5,236.54765670861218L267.75,236.2562795513005L270,236.06202811309277L272.25,235.42697533433662L274.5,234.903990693008L276.75,234.5528438624017L279,233.94767592029288L281.25,233.23791104991835L283.5,231.78849647252196L285.75,230.10000320194678L288,228.74024313449246L290.25,226.87244084403318L292.5,224.5563660038637L294.75,222.21040632704685L297,219.7224936761551L299.25,217.51848697341313L301.49999999999994,215.51620291804082L303.75,213.28231137865154L306,210.80934114608348L308.25,208.41108300513378L310.5,205.98294002753673L312.75,203.4800849583213L315,200.9398738432967L317.25,197.74219632203048L319.49999999999994,194.35026736255642L321.75,191.01810807637713L324,187.83537297343452L326.25,184.46585764144598L328.5,181.02910142700094L330.75,177.16648629033116L333,173.4831801735455L335.25,170.00159670412944L337.49999999999994,166.51254202555154L339.75,162.58268600642523L342,158.8097253796975L344.25,154.99940870716065L346.5,151.39828589115513L348.75,148.00635693168113L351,143.53857385290257L353.25,139.44435123221587L355.49999999999994,135.56679367722242L357.75,131.48751347485938L360,127.28122271674513L362.25,122.88815172958492L364.5,117.9197976369633L366.75,113.56408269561226L369,109.05894357102451L371.25,104.24001366163961L373.5,99.6228063996243L375.75000000000006,95.55099740642308L378,91.65102622394419L380.25,88.09473066290967L382.5,84.74015774924484L384.75,81.15397735156307L387,79.0844524137342L389.25,77.23159254159863L391.5,74.86321923729626L393.75000000000006,72.21841119400594L396,69.70061370646688L398.25,67.49660700372492L400.5,66.36845442028756L402.75,64.19433255419295L405,60.72022029393867L407.25,57.313348916141L409.5,54.60129999039412L411.75000000000006,52.038675247884015L414,49.98409272837887L416.25,47.6007770057528L418.5,44.85884324335869L420.75,42.9387424887665L423,40.59278281194964L425.25,37.97038839614479L427.5,35.31063793453087L429.75000000000006,32.27732701482504L432,29.034822238587694L434.25,25.814731089835945L436.5,23.199807883193007L438.75,21.01074359877468L441,19.6808683679677L443.25,19.606156276349296L445.5,19.912475851984702L447.74999999999994,20.427989284151444L450,22.034299253946376L452.25,23.864745498596495L454.5,26.121050665471195L456.75,29.049764656911385L459,31.664687863554324L461.25,34.43650646259589L463.5,37.477288591463626L465.74999999999994,40.86174634177581L468,44.76918873341653L470.25,48.94559465488351L472.5,52.03120403872223L474.75,55.71451015550785L477,59.636894965472294L479.25,64.22421739084025L481.5,69.12533060100537L483.74999999999994,73.4212758690617L486,78.71089195564235L488.25,84.64303203014099L490.5,90.50046001302124L492.75,96.4998409699764L495,102.23772960626727L497.25,107.8710213142924L499.5,113.85545985292393L501.74999999999994,119.60081969837661L504,126.07835804168937L506.25,132.02544053451166L508.5,137.78574279828797L510.75,143.46386176128416L513,148.67129454708464L515.25,154.155162071873L517.5,159.36259485767343L519.75,164.2039383945439L522,169.31424546124043L524.25,174.23030108972924L526.5,179.08658704492333L528.75,183.6813806794531L531,187.6336503260649L533.25,191.60833360016224L535.5,195.28416850778606L537.75,198.55655812067067L540,201.42550243881612L542.25,203.91341508970785L544.5,206.50592466886536L546.75,209.11337666634648L549,211.45186513400148L551.25,213.57368853596319L553.5,215.9121770036182L555.75,218.23572305294954L558,220.85811746875436L560.25,223.0098257073634" stroke="#4c78a8" stroke-width="2" opacity="1"/></g></g><path class="foreground" aria-hidden="true" d="" display="none"/></g><g transform="translate(0,0)"><path class="background" aria-hidden="true" d="M0,0h585v280h-585Z"/><g><g class="mark-line role-mark marks" clip-path="url(#clip53)" role="graphics-object" aria-roledescription="line mark container"><path aria-label="variable: TX; index: 0; value: −0.189749026133" role="graphics-symbol" aria-roledescription="line mark" d="M0,207.6081060976199L2.25,199.46459436499447L4.5,191.60763071830695L6.75,184.31451975685226L9,176.04468037343685L11.25,167.46364360636832L13.5,158.98120403016014L15.75,150.64357907802824L18,143.53533784943681L20.25,136.29460664562671L22.5,129.53761790947544L24.75,122.66970733360621L27,117.41016343364718L29.25,113.45703231258831L31.5,110.80415164600086L33.75,108.43781906535146L36,106.49668687028748L38.25,104.72501859701477L40.5,104.1642470739963L42.75,103.6589364708368L45,102.79929221302274L47.25,101.49904175855134L49.5,100.15565503307849L51.75,99.35147169512338L54,98.62739857474239L56.25,97.69996874821187L58.5,96.7016721907503L60.75,100.56853076980639L63,104.56787932408105L65.25,109.4884953804575L67.5,114.28586494825849L69.75,120.21402104873958L72,126.14217714922067L74.25,132.5325075818599L76.5,135.36409565688177L78.75,138.87662058128325L81,141.93929582238422L83.25,145.85545299687038L85.5,149.23548794605324L87.75,153.95582845849455L90,158.62378921329125L92.25,163.1161237218679L94.5,167.51294220179852L96.75,171.89743603287158L99,176.31274148608856L101.25,180.59863812630127L103.5,184.20359791713437L105.75,187.60520100181787L108,190.70485018949148L110.25,193.95239516345566L112.5,197.7853609581534L114.75,201.06987987869024L117,204.78884267145568L119.25,208.1195790252083L121.5,211.75843160039966L123.75,215.77318596574625L126,219.37198343215059L128.25,222.90299532983838L130.5,226.42784490309742L132.75,229.51208827969907L135,232.63638676508776L137.25,235.1506151320278L139.5,237.50154190160526L141.75,239.5258654764577L144,240.80146663321403L146.25,242.44372609348244L148.5,243.36807475779864L150.74999999999997,244.77616588977364L153,246.82821992455553L155.25,248.1931747855291L157.5,249.87240819237016L159.74999999999997,251.41298929956378L162,252.71940207846401L164.25,254.57426173152513L166.5,255.79440196842248L168.74999999999997,256.244251651723L171,257.44590491533404L173.25,258.53971750144154L175.5,259.55341986997496L177.74999999999997,260.45620039879043L180,261.2172474657441L182.25,261.95056407276826L184.5,262.74858508629455L186.75,263.0690259565908L189,263.23540871616774L191.25,263.364817529172L193.5,263.213840580667L195.75,262.95194179244413L198,262.53290373128743L200.25,262.3203035384947L202.5,262.18473240106164L204.75,261.72563923111795L207,261.7687755021194L209.25,261.7502885288331L211.5,261.79342479983444L213.75,261.87045385519417L216,261.5099578761109L218.25,261.06935167945346L220.5,260.5301482919357L222.75,259.40244292146997L225,258.27473755100425L227.25,256.94059431217454L229.5,255.61569455998801L231.75,253.91489301764625L234,251.88440711836506L236.25,249.99873584316003L238.5,247.82035415758824L240.75,245.80219290716457L243,243.808680954456L245.25,241.9476589769661L247.5,240.5642171427062L249.75,238.91579535800903L252,236.9099587564429L254.25,234.85174239723224L256.5,232.3344328680778L258.75,230.115996073719L261,227.09645710361946L263.25,224.1416225400221L265.5,221.29462865392824L267.75,218.6201798518401L270,216.59893743920205L272.25,214.86732427471642L274.5,212.70742956243092L276.75,211.21306588845312L279,209.69713407897459L281.25,208.3907213000744L283.5,207.7067032884804L285.75,206.57591675580028L288,205.21096189482674L290.25,204.06476955107468L292.5,202.866197449678L294.75,201.84017043228704L297,201.11917847412042L299.25,198.32456434567118L301.49999999999994,195.3327558355012L303.75,192.21153851232683L306,188.8746398341454L308.25,185.19573215016706L310.5,180.98994572752844L312.75,175.84132366728727L315,172.20863341652475L317.25,168.95184495591738L319.49999999999994,165.62110860216472L321.75,162.25031713962503L324,159.47727114667651L326.25,156.7504425869438L328.5,154.73536249873453L330.75,152.80347379031372L333,150.5727123470973L335.25,149.48198092320425L337.49999999999994,148.3974118237399L339.75,146.9800772051218L342,145.29468147385188L344.25,143.59387993151017L346.5,141.97935093117127L348.75,140.60823374576893L351,139.0768961252184L353.25,138.0940053788289L355.49999999999994,137.9491907547527L357.75,138.2881185983353L360,138.34666068040863L362.25,138.51920576441435L364.5,138.84580895913933L366.75,138.55617971098698L369,137.70577893981613L371.25,136.0142208841175L373.5,134.43050350592245L375.75000000000006,133.0624674827345L378,131.59891543090052L380.25,129.80259785991274L382.5,127.95390053128037L384.75,126.09287855379046L387,124.16407100758407L389.25,121.99185164644103L391.5,119.44373049514279L393.75000000000006,116.22083481889366L396,112.84388103192522L398.25,109.27281402545039L400.5,106.26251854199404L402.75,103.08892146117519L405,98.95400176946745L407.25,94.40620634103183L409.5,90.03711832103066L411.75000000000006,85.27980386201673L414,80.30988921021007L416.25,75.5464124267674L418.5,70.37930339323992L420.75,65.41863222807643L423,60.69521055342078L425.25,55.654429170683194L427.5,50.98338725367213L429.75000000000006,46.54651366495443L432,41.56735552650457L434.25,39.87887863302041L436.5,38.535491907547566L438.75,35.73163429245514L441,34.258838753978L443.25,33.43308728052221L445.5,33.33449008966181L447.74999999999994,33.35297706294815L450,31.4518999766712L452.25,30.031484195838694L454.5,30.925021238011002L456.75,31.65217552060639L459,33.15578268122732L461.25,35.0322104697892L463.5,36.94253104270935L465.74999999999994,39.496814518436366L468,42.802901574473886L470.25,46.12131327936897L472.5,49.43356265983532L474.75,53.081658721669804L477,57.28128281987969L479.25,62.93829664549467L481.5,68.11156800345088L483.74999999999994,73.38343655226751L486,79.08050548666955L488.25,85.14423272458372L490.5,90.86595095670087L492.75,96.17171228987574L495,100.84275420688684L497.25,105.67401655904605L499.5,110.82880094371598L501.74999999999994,115.76174164894998L504,120.88263324926166L506.25,125.78168117013739L508.5,130.87176114830513L510.75,135.68453652717804L513,140.4449321484064L515.25,145.3039249604951L517.5,150.66514721352894L519.75,155.45943561911554L522,158.72238640415162L524.25,161.3413742863808L526.5,163.9911737907539L528.75,166.95217067878L531,169.60197018315307L533.25,171.59548213586166L535.5,174.27917442459295L537.75,177.82251097113829L540,182.6660979721551L542.25,187.66682424610562L544.5,192.13450945696718L546.75,196.30332193303315L549,200.52451416674367L551.25,204.31434369044L553.5,208.8159216856598L555.75,212.26682336577358L558,215.3202551202313L560.25,218.32438827925893" stroke="#f58518" stroke-width="2" opacity="1"/></g></g><path class="foreground" aria-hidden="true" d="" display="none"/></g></g><g class="mark-group role-legend" role="graphics-symbol" aria-roledescription="legend" aria-label="Symbol legend for stroke color with 2 values: AZ, TX"><g transform="translate(603,0)"><path class="background" aria-hidden="true" d="M0,0h30v24h-30Z" pointer-events="none"/><g><g class="mark-group role-legend-entry"><g transform="translate(0,0)"><path class="background" aria-hidden="true" d="M0,0h0v0h0Z" pointer-events="none"/><g><g class="mark-group role-scope" role="graphics-object" aria-roledescription="group mark container"><g transform="translate(0,0)"><path class="background" aria-hidden="true" d="M0,0h29.330078125v11h-29.330078125Z" pointer-events="none" opacity="1"/><g><g class="mark-symbol role-legend-symbol" pointer-events="none"><path transform="translate(6,6)" d="M-5,0L5,0" stroke="#4c78a8" stroke-width="1.5" opacity="1"/></g><g class="mark-text role-legend-label" pointer-events="none"><text text-anchor="start" transform="translate(16,9)" font-family="IBM Plex Serif, serif" font-size="10px" fill="#262730" opacity="1">AZ</text></g></g><path class="foreground" aria-hidden="true" d="" pointer-events="none" display="none"/></g><g transform="translate(0,13)"><path class="background" aria-hidden="true" d="M0,0h29.330078125v11h-29.330078125Z" pointer-events="none" opacity="1"/><g><g class="mark-symbol role-legend-symbol" pointer-events="none"><path transform="translate(6,6)" d="M-5,0L5,0" stroke="#f58518" stroke-width="1.5" opacity="1"/></g><g class="mark-text role-legend-label" pointer-events="none"><text text-anchor="start" transform="translate(16,9)" font-family="IBM Plex Serif, serif" font-size="10px" fill="#262730" opacity="1">TX</text></g></g><path class="foreground" aria-hidden="true" d="" pointer-events="none" display="none"/></g></g></g><path class="foreground" aria-hidden="true" d="" pointer-events="none" display="none"/></g></g></g><path class="foreground" aria-hidden="true" d="" pointer-events="none" display="none"/></g></g></g><path class="foreground" aria-hidden="true" d="" display="none"/></g></g></g><defs><clipPath id="clip52"><rect x="0" y="0" width="585" height="280"/></clipPath><clipPath id="clip53"><rect x="0" y="0" width="585" height="280"/></clipPath></defs></svg>