<svg xmlns="http://www.w3.org/2000/svg" xmlns:xlink="http://www.w3.org/1999/xlink" version="1.1" class="marks" width="660" height="300" viewBox="0 0 660 300"><rect width="660" height="300" fill="#ffffff"/><g fill="none" stroke-miterlimit="10" transform="translate(28,0)"><g class="mark-group role-frame root" role="graphics-object" aria-roledescription="group mark container"><g transform="translate(0,0)"><path class="background" aria-hidden="true" d="M0.5,0.5h583v275h-583Z" stroke="#ddd"/><g><g class="mark-group role-axis" aria-hidden="true"><g transform="translate(0.5,275.5)"><path class="background" aria-hidden="true" d="M0,0h0v0h0Z" pointer-events="none"/><g><g class="mark-rule role-axis-grid" pointer-events="none"><line transform="translate(0,-275)" x2="0" y2="275" stroke="rgba(38, 39, 48, 0.2)" stroke-width="1" opacity="1"/><line transform="translate(45,-275)" x2="0" y2="275" stroke="rgba(38, 39, 48, 0.2)" stroke-width="1" opacity="1"/><line transform="translate(90,-275)" x2="0" y2="275" stroke="rgba(38, 39, 48, 0.2)" stroke-width="1" opacity="1"/><line transform="translate(135,-275)" x2="0" y2="275" stroke="rgba(38, 39, 48, 0.2)" stroke-width="1" opacity="1"/><line transform="translate(179,-275)" x2="0" y2="275" stroke="rgba(38, 39, 48, 0.2)" stroke-width="1" opacity="1"/><line transform="translate(224,-275)" x2="0" y2="275" stroke="rgba(38, 39, 48, 0.2)" stroke-width="1" opacity="1"/><line transform="translate(269,-275)" x2="0" y2="275" stroke="rgba(38, 39, 48, 0.2)" stroke-width="1" opacity="1"/><line transform="translate(314,-275)" x2="0" y2="275" stroke="rgba(38, 39, 48, 0.2)" stroke-width="1" opacity="1"/><line transform="translate(359,-275)" x2="0" y2="275" stroke="rgba(38, 39, 48, 0.2)" stroke-width="1" opacity="1"/><line transform="translate(404,-275)" x2="0" y2="275" stroke="rgba(38, 39, 48, 0.2)" stroke-width="1" opacity="1"/><line transform="translate(448,-275)" x2="0" y2="275" stroke="rgba(38, 39, 48, 0.2)" stroke-width="1" opacity="1"/><line transform="translate(493,-275)" x2="0" y2="275" stroke="rgba(38, 39, 48, 0.2)" stroke-width="1" opacity="1"/><line transform="translate(538,-275)" x2="0" y2="275" stroke="rgba(38, 39, 48, 0.2)" stroke-width="1" opacity="1"/><line transform="translate(583,-275)" x2="0" y2="275" stroke="rgba(38, 39, 48, 0.2)" stroke-width="1" opacity="1"/></g></g><path class="foreground" aria-hidden="true" d="" pointer-events="none" display="none"/></g></g><g class="mark-group role-axis" aria-hidden="true"><g transform="translate(0.5,0.5)"><path class="background" aria-hidden="true" d="M0,0h0v0h0Z" pointer-events="none"/><g><g class="mark-rule role-axis-grid" pointer-events="none"><line transform="translate(0,275)" x2="583" y2="0" stroke="rgba(38, 39, 48, 0.2)" stroke-width="1" opacity="1"/><line transform="translate(0,218)" x2="583" y2="0" stroke="rgba(38, 39, 48, 0.2)" stroke-width="1" opacity="1"/><line transform="translate(0,160)" x2="583" y2="0" stroke="rgba(38, 39, 48, 0.2)" stroke-width="1" opacity="1"/><line transform="translate(0,103)" x2="583" y2="0" stroke="rgba(38, 39, 48, 0.2)" stroke-width="1" opacity="1"/><line transform="translate(0,46)" x2="583" y2="0" stroke="rgba(38, 39, 48, 0.2)" stroke-width="1" opacity="1"/></g></g><path class="foreground" aria-hidden="true" d="" pointer-events="none" display="none"/></g></g><g class="mark-group role-axis" role="graphics-symbol" aria-roledescription="axis" aria-label="X-axis for a linear scale with values from 0 to 260"><g transform="translate(0.5,275.5)"><path class="background" aria-hidden="true" d="M0,0h0v0h0Z" pointer-events="none"/><g><g class="mark-rule role-axis-tick" pointer-events="none"><line transform="translate(0,0)" x2="0" y2="5" stroke="#888" stroke-width="1" opacity="1"/><line transform="translate(45,0)" x2="0" y2="5" stroke="#888" stroke-width="1" opacity="1"/><line transform="translate(90,0)" x2="0" y2="5" stroke="#888" stroke-width="1" opacity="1"/><line transform="translate(135,0)" x2="0" y2="5" stroke="#888" stroke-width="1" opacity="1"/><line transform="translate(179,0)" x2="0" y2="5" stroke="#888" stroke-width="1" opacity="1"/><line transform="translate(224,0)" x2="0" y2="5" stroke="#888" stroke-width="1" opacity="1"/><line transform="translate(269,0)" x2="0" y2="5" stroke="#888" stroke-width="1" opacity="1"/><line transform="translate(314,0)" x2="0" y2="5" stroke="#888" stroke-width="1" opacity="1"/><line transform="translate(359,0)" x2="0" y2="5" stroke="#888" stroke-width="1" opacity="1"/><line transform="translate(404,0)" x2="0" y2="5" stroke="#888" stroke-width="1" opacity="1"/><line transform="translate(448,0)" x2="0" y2="5" stroke="#888" stroke-width="1" opacity="1"/><line transform="translate(493,0)" x2="0" y2="5" stroke="#888" stroke-width="1" opacity="1"/><line transform="translate(538,0)" x2="0" y2="5" stroke="#888" stroke-width="1" opacity="1"/><line transform="translate(583,0)" x2="0" y2="5" stroke="#888" stroke-width="1" opacity="1"/></g><g class="mark-text role-axis-label" pointer-events="none"><text text-anchor="start" transform="translate(0,15)" font-family="IBM Plex Serif, serif" font-size="10px" fill="#262730" opacity="1">0</text><text text-anchor="middle" transform="translate(44.84615384615385,15)" font-family="IBM Plex Serif, serif" font-size="10px" fill="#262730" opacity="1">20</text><text text-anchor="middle" transform="translate(89.6923076923077,15)" font-family="IBM Plex Serif, serif" font-size="10px" fill="#262730" opacity="1">40</text><text text-anchor="middle" transform="translate(134.53846153846155,15)" font-family="IBM Plex Serif, serif" font-size="10px" fill="#262730" opacity="1">60</text><text text-anchor="middle" transform="translate(179.3846153846154,15)" font-family="IBM Plex Serif, serif" font-size="10px" fill="#262730" opacity="1">80</text><text text-anchor="middle" transform="translate(224.23076923076925,15)" font-family="IBM Plex Serif, serif" font-size="10px" fill="#262730" opacity="1">100</text><text text-anchor="middle" transform="translate(269.0769230769231,15)" font-family="IBM Plex Serif, serif" font-size="10px" fill="#262730" opacity="1">120</text><text text-anchor="middle" transform="translate(313.9230769230769,15)" font-family="IBM Plex Serif, serif" font-size="10px" fill="#262730" opacity="1">140</text><text text-anchor="middle" transform="translate(358.7692307692308,15)" font-family="IBM Plex Serif, serif" font-size="10px" fill="#262730" opacity="1">160</text><text text-anchor="middle" transform="translate(403.6153846153846,15)" font-family="IBM Plex Serif, serif" font-size="10px" fill="#262730" opacity="1">180</text><text text-anchor="middle" transform="translate(448.4615384615385,15)" font-family="IBM Plex Serif, serif" font-size="10px" fill="#262730" opacity="1">200</text><text text-anchor="middle" transform="translate(493.3076923076923,15)" font-family="IBM Plex Serif, serif" font-size="10px" fill="#262730" opacity="1">220</text><text text-anchor="middle" transform="translate(538.1538461538462,15)" font-family="IBM Plex Serif, serif" font-size="10px" fill="#262730" opacity="1">240</text><text text-anchor="end" transform="translate(583,15)" font-family="IBM Plex Serif, serif" font-size="10px" fill="#262730" opacity="1">260</text></g><g class="mark-rule role-axis-domain" pointer-events="none"><line transform="translate(0,0)" x2="583" y2="0" stroke="#888" stroke-width="1" opacity="1"/></g></g><path class="foreground" aria-hidden="true" d="" pointer-events="none" display="none"/></g></g><g class="mark-group role-axis" role="graphics-symbol" aria-roledescription="axis" aria-label="Y-axis for a linear scale with values from −1.0 to 1.4"><g transform="translate(0.5,0.5)"><path class="background" aria-hidden="true" d="M0,0h0v0h0Z" pointer-events="none"/><g><g class="mark-rule role-axis-tick" pointer-events="none"><line transform="translate(0,275)" x2="-5" y2="0" stroke="#888" stroke-width="1" opacity="1"/><line transform="translate(0,218)" x2="-5" y2="0" stroke="#888" stroke-width="1" opacity="1"/><line transform="translate(0,160)" x2="-5" y2="0" stroke="#888" stroke-width="1" opacity="1"/><line transform="translate(0,103)" x2="-5" y2="0" stroke="#888" stroke-width="1" opacity="1"/><line transform="translate(0,46)" x2="-5" y2="0" stroke="#888" stroke-width="1" opacity="1"/></g><g class="mark-text role-axis-label" pointer-events="none"><text text-anchor="end" transform="translate(-7,278)" font-family="IBM Plex Serif, serif" font-size="10px" fill="#262730" opacity="1">−1.0</text><text text-anchor="end" transform="translate(-7,220.70833333333331)" font-family="IBM Plex Serif, serif" font-size="10px" fill="#262730" opacity="1">−0.5</text><text text-anchor="end" transform="translate(-7,163.41666666666666)" font-family="IBM Plex Serif, serif" font-size="10px" fill="#262730" opacity="1">0.0</text><text text-anchor="end" transform="translate(-7,106.125)" font-family="IBM Plex Serif, serif" font-size="10px" fill="#262730" opacity="1">0.5</text><text text-anchor="end" transform="translate(-7,48.83333333333332)" font-family="IBM Plex Serif, serif" font-size="10px" fill="#262730" opacity="1">1.0</text></g><g class="mark-rule role-axis-domain" pointer-events="none"><line transform="translate(0,275)" x2="0" y2="-275" stroke="#888" stroke-width="1" opacity="1"/></g></g><path class="foreground" aria-hidden="true" d="" pointer-events="none" display="none"/></g></g><g class="mark-group role-scope pathgroup" role="graphics-object" aria-roledescription="group mark container"><g transform="translate(0,0)"><path class="background" aria-hidden="true" d="M0,0h583v275h-583Z"/><g><g class="mark-line role-mark marks" clip-path="url(#clip72)" role="graphics-object" aria-roledescription="line mark container"><path aria-label="variable: AZ; index: 0; value: 0.191150117852" role="graphics-symbol" aria-roledescription="line mark" d="M0,138.5140489961819L2.2423076923076923,132.19229263025164L4.484615384615385,125.70890417105598L6.726923076923077,119.88090703531006L8.96923076923077,113.52193673299823L11.211538461538462,106.42513044537506L13.453846153846154,102.92925219048588L15.696153846153846,101.50580447974723L17.93846153846154,99.21061466930335L20.180769230769233,94.97242239882206L22.423076923076923,91.72325530629261L24.665384615384617,89.51273260566438L26.907692307692308,88.84077848820846L29.150000000000002,89.18045085565686L31.392307692307693,91.47666020365793L33.63461538461539,93.44912930918129L35.87692307692308,92.12266710188278L38.11923076923077,97.27653721720631L40.361538461538466,99.28836413154418L42.603846153846156,99.16115790005448L44.84615384615385,102.41151398655794L47.088461538461544,105.09398071225827L49.330769230769235,107.684926475239L51.573076923076925,110.52893474493791L53.815384615384616,113.29825125530031L56.057692307692314,113.60120436117693L58.300000000000004,114.32629735317167L60.542307692307695,118.64469906843802L62.784615384615385,120.46478512149571L65.02692307692308,124.59931907536937L67.26923076923077,127.43600750499209L69.51153846153846,131.85355132377893L71.75384615384615,134.14542066509378L73.99615384615385,138.2307393104719L76.23846153846154,141.95743090306414L78.48076923076923,145.12192749007374L80.72307692307693,153.35721158377626L82.96538461538461,159.03222410558067L85.20769230769231,164.72991670738986L87.45,169.3424350884982L89.6923076923077,172.93525820432734L91.93461538461538,176.7842283091716L94.17692307692309,181.5403126601922L96.41923076923077,186.7337055368955L98.66153846153847,192.08131197420468L100.90384615384615,196.40067970213371L103.14615384615385,199.0524228030776L105.38846153846154,199.54823822936643L107.63076923076923,202.02327596413016L109.87307692307692,207.79002093959164L112.11538461538463,210.8703401454475L114.3576923076923,213.99573590942626L116.60000000000001,216.30138020574435L118.84230769230768,219.42735817654162L121.08461538461539,219.5254131243324L123.32692307692308,221.8572109783318L125.56923076923077,226.63217722932526L127.81153846153846,228.24327715996233L130.05384615384617,230.83364456747762L132.29615384615386,234.06874518882617L134.53846153846155,234.87943448857203L136.78076923076924,235.7035167103284L139.02307692307693,237.06404777573L141.26538461538462,240.86593254254535L143.5076923076923,241.50560985359934L145.75,242.6713512892594L147.9923076923077,243.36694036166728L150.23461538461538,243.6593541540725L152.47692307692307,243.89898806136722L154.71923076923076,244.4712375718924L156.96153846153845,244.9342988777629L159.20384615384614,246.87537751969663L161.44615384615386,250.00936167091234L163.68846153846155,250.46776392470105L165.93076923076922,251.89312091318425L168.1730769230769,252.4411804404092L170.41538461538462,254.23778239075486L172.65769230769232,255.32452789759884L174.9,255.16092038878216L177.14230769230767,253.41289693605643L179.3846153846154,253.66876385221576L181.62692307692308,252.9187396009051L183.86923076923077,252.1488091969068L186.11153846153846,251.54050703173814L188.35384615384618,251.820127555647L190.59615384615384,252.42855058231694L192.83846153846153,254.23588967647177L195.08076923076922,255.32248426991202L197.32307692307694,256.1144723117524L199.56538461538463,256.86872278577715L201.8076923076923,257.53319456057216L204.04999999999998,258.98399407143523L206.2923076923077,259.2558530871293L208.5346153846154,259.41664102697854L210.77692307692308,259.7054475270532L213.01923076923075,259.00741187065205L215.26153846153846,258.5125332370703L217.50384615384615,257.73562892554264L219.74615384615385,257.0457838864664L221.98846153846154,256.44013933051565L224.23076923076925,256.30574982683095L226.47307692307692,256.23671808828703L228.7153846153846,255.51253357572423L230.9576923076923,254.18275580295742L233.20000000000002,254.02174000385455L235.4423076923077,252.7876006583064L237.68461538461537,251.42144441352602L239.92692307692306,250.8429004712186L242.16923076923078,249.8160026843167L244.41153846153847,248.88595181653724L246.65384615384616,248.05261668895204L248.89615384615382,247.58462745144487L251.13846153846154,246.62118930896844L253.38076923076923,246.68032531972108L255.62307692307692,246.05393752799333L257.8653846153846,244.97725059361912L260.10769230769233,244.40408977201213L262.35,243.8280994052042L264.5923076923077,242.6133414191668L266.83461538461535,242.2255247543063L269.0769230769231,241.31266590599625L271.3192307692308,239.88488179284752L273.5615384615385,237.39673933949803L275.80384615384617,234.84431210160872L278.04615384615386,233.53772138215126L280.28846153846155,232.42978333027048L282.53076923076924,230.72085503817104L284.7730769230769,228.32638985631186L287.0153846153846,227.2071984085384L289.2576923076923,226.40158559546273L291.5,223.48367699732074L293.7423076923077,221.63334872155744L295.9846153846154,219.80402272470982L298.2269230769231,217.80695112678484L300.46923076923076,215.8494268783857L302.7115384615385,213.60664328513732L304.95384615384614,210.08116896745221L307.19615384615383,207.96663221124905L309.4384615384615,205.561532218274L311.6807692307692,203.397413298844L313.9230769230769,200.96402806955035L316.1653846153846,196.04213049359095L318.4076923076923,192.9027642165299L320.65000000000003,191.08078558495214L322.8923076923077,187.9191874444451L325.1346153846154,184.07954465684193L327.3769230769231,180.2668430771916L329.61923076923074,175.90610984212293L331.86153846153843,173.82088706861245L334.1038461538461,171.3671853918879L336.3461538461538,167.31383778167222L338.58846153846156,163.39353993121213L340.83076923076925,161.3109570302427L343.07307692307694,155.4593934214226L345.31538461538463,149.26439256275222L347.5576923076923,145.3406104926721L349.8,140.19116786841306L352.04230769230765,135.22355820461655L354.28461538461534,130.91886017280316L356.5269230769231,126.84840030566606L358.7692307692308,120.37444034098849L361.01153846153846,112.8758972840693L363.25384615384615,106.12875790699142L365.49615384615385,98.81941355789147L367.73846153846154,92.7395120801175L369.9807692307692,87.02140598542316L372.2230769230769,81.4303470655413L374.46538461538466,78.99530525243425L376.70769230769235,80.45574142438635L378.95,80.23199265897786L381.1923076923077,80.3105702149412L383.43461538461537,79.75313822673756L385.67692307692306,82.61751828866845L387.91923076923075,81.68467235108318L390.16153846153844,77.30394699415089L392.4038461538462,76.64967958355908L394.6461538461539,77.58100880527178L396.88846153846157,77.72065905786936L399.13076923076926,79.64176808839935L401.3730769230769,79.87469391060161L403.6153846153846,74.32003475733316L405.8576923076923,71.54532937883519L408.09999999999997,68.49328485195895L410.3423076923077,69.30461717634279L412.5846153846154,65.15376163263043L414.8269230769231,62.11450441287904L417.0692307692308,56.51490496571482L419.3115384615385,56.24899057967268L421.55384615384617,53.24326306472289L423.79615384615386,50.91807330415089L426.0384615384615,44.61401056967986L428.28076923076924,39.02446297303821L430.5230769230769,33.681922680409855L432.7653846153846,29.319164207882288L435.0076923076923,25.372813440657712L437.25,22.759724497771188L439.4923076923077,22.75880971784782L441.7346153846154,27.740266875769322L443.9769230769231,32.0208812199117L446.21923076923076,30.762897207964052L448.4615384615385,35.32380924202913L450.70384615384614,37.09622157240601L452.94615384615383,48.116817558723206L455.1884615384615,51.81543964935666L457.4307692307692,50.95155334994921L459.6730769230769,51.30921358798812L461.9153846153846,54.231632934376265L464.1576923076923,52.823575109239094L466.40000000000003,54.529592038693686L468.6423076923077,50.00520039048453L470.8846153846154,53.98391505158877L473.1269230769231,58.28666616448203L475.36923076923074,62.5749718973757L477.61153846153843,68.1515331826909L479.8538461538461,71.37047385360572L482.0961538461538,72.24486805832876L484.33846153846156,76.76309781502607L486.58076923076925,79.53260077431598L488.82307692307694,83.26326591636767L491.06538461538463,89.03199682787432L493.3076923076923,94.89901166853886L495.55,97.65281069544902L497.79230769230765,100.58407792472242L500.03461538461534,106.07595708317247L502.2769230769231,112.28314947486949L504.5192307692308,117.31051798839387L506.76153846153846,121.84573258514885L509.00384615384615,123.37001286695443L511.24615384615385,127.17222193452194L513.4884615384615,129.9250164079141L515.7307692307692,141.52692374891473L517.9730769230769,147.57645503327507L520.2153846153847,151.81769175664024L522.4576923076924,155.55023085073748L524.7,161.5099443922411L526.9423076923077,164.25505485083335L529.1846153846154,166.71292921244319L531.4269230769231,165.64359800987523L533.6692307692307,169.04313718353947L535.9115384615384,174.74442140603946L538.1538461538462,177.89227599203926L540.3961538461539,178.95569755663723L542.6384615384616,180.99046983628284L544.8807692307693,182.89622287037935L547.123076923077,186.45209241765141L549.3653846153846,188.07316674863253L551.6076923076923,192.23113640211537L553.85,194.118089656979L556.0923076923077,197.85698739271749L558.3346153846154,198.8055699001086" stroke="#4c78a8" stroke-width="2" opacity="1"/></g></g><path class="foreground" aria-hidden="true" d="" display="none"/></g><g transform="translate(0,0)"><path class="background" aria-hidden="true" d="M0,0h583v275h-583Z"/><g><g class="mark-line role-mark marks" clip-path="url(#clip73)" role="graphics-object" aria-roledescription="line mark container"><path aria-label="variable: FL; index: 0; value: −0.00448835584584" role="graphics-symbol" aria-roledescription="line mark" d="M0,160.93095744066954L2.2423076923076923,152.625527593779L4.484615384615385,145.01004692963275L6.726923076923077,136.32781469195186L8.96923076923077,129.0952926972351L11.211538461538462,124.43363736518243L13.453846153846154,120.53362962289951L15.696153846153846,115.26890442029713L17.93846153846154,110.95238022539378L20.180769230769233,106.65547553185732L22.423076923076923,101.3135403823379L24.665384615384617,96.72035427544715L26.907692307692308,94.98629328470133L29.150000000000002,93.38023466869046L31.392307692307693,91.32508678427963L33.63461538461539,90.8594459716208L35.87692307692308,87.68038997759325L38.11923076923077,85.84598526440399L40.361538461538466,80.83303467880953L42.603846153846156,75.79655883293529L44.84615384615385,74.35748590508017L47.088461538461544,72.05876589729839L49.330769230769235,71.65939549606396L51.573076923076925,70.45869776577258L53.815384615384616,68.5697882787422L56.057692307692314,69.05504522482084L58.300000000000004,70.4102570004214L60.542307692307695,70.75073754652175L62.784615384615385,70.29043109349993L65.02692307692308,70.37744769292158L67.26923076923077,69.43665636104248L69.51153846153846,69.96455130067203L71.75384615384615,72.35856032676014L73.99615384615385,74.9273766367421L76.23846153846154,76.99820502538572L78.48076923076923,80.95874064738092L80.72307692307693,89.02755781366753L82.96538461538461,95.55832145246045L85.20769230769231,98.8946728525888L87.45,100.95261879616861L89.6923076923077,103.03618812560958L91.93461538461538,106.54714266361522L94.17692307692309,110.18476030289197L96.41923076923077,111.24027087981334L98.66153846153847,112.04634725960844L100.90384615384615,114.134423299738L103.14615384615385,115.04662609345118L105.38846153846154,117.53283990388731L107.63076923076923,123.3315579567409L109.87307692307692,128.5865509525664L112.11538461538463,133.37526013030873L114.3576923076923,141.54816279152357L116.60000000000001,149.24608319367942L118.84230769230768,155.3333291833179L121.08461538461539,160.12925744951337L123.32692307692308,166.52188583396713L125.56923076923077,171.45228772253833L127.81153846153846,174.24286562693354L130.05384615384617,178.15090014711353L132.29615384615386,179.4603969863146L134.53846153846155,182.40853284579734L136.78076923076924,184.703107744049L139.02307692307693,186.56599927798163L141.26538461538462,189.75262271438132L143.5076923076923,191.37132754036065L145.75,192.10692197410285L147.9923076923077,196.33359862723918L150.23461538461538,196.0290176914825L152.47692307692307,198.47137244641016L154.71923076923076,205.33906254525036L156.96153846153845,204.99507435598233L159.20384615384614,205.16609419466215L161.44615384615386,204.31848982934437L163.68846153846155,204.52995695843194L165.93076923076922,206.8428824028782L168.1730769230769,207.7550275640781L170.41538461538462,205.82494056861069L172.65769230769232,210.03984200786098L174.9,214.60068336816718L177.14230769230767,218.03675827569947L179.3846153846154,220.46432481217118L181.62692307692308,220.94739908933326L183.86923076923077,222.22456379229644L186.11153846153846,224.9516617398932L188.35384615384618,224.55006845528138L190.59615384615384,224.55436357355578L192.83846153846153,225.86157799532916L195.08076923076922,224.5351159151148L197.32307692307694,224.29828260304248L199.56538461538463,224.9487213019615L201.8076923076923,225.30007933523254L204.04999999999998,228.0035028973154L206.2923076923077,230.89501847992892L208.5346153846154,232.22924215359524L210.77692307692308,233.99544781462268L213.01923076923075,233.14873029688388L215.26153846153846,232.03162318336967L217.50384615384615,234.18086350288496L219.74615384615385,236.38968306491205L221.98846153846154,235.6775277695364L224.23076923076925,235.68395451204532L226.47307692307692,238.78619948072873L228.7153846153846,233.7266373793991L230.9576923076923,233.44036215056866L233.20000000000002,231.41723585720118L235.4423076923077,234.06832475191794L237.68461538461537,235.44970003735716L239.92692307692306,236.29540484210077L242.16923076923078,232.17912409696936L244.41153846153847,237.02618071216324L246.65384615384616,236.65744433883552L248.89615384615382,237.66616678393197L251.13846153846154,239.4389747917709L253.38076923076923,238.61192913873217L255.62307692307692,239.08402009017038L257.8653846153846,239.36675963955912L260.10769230769233,240.34276950086877L262.35,241.01700554524504L264.5923076923077,241.673447195739L266.83461538461535,238.77615533445532L269.0769230769231,241.90502953558686L271.3192307692308,241.21839120791157L273.5615384615385,241.54974625533686L275.80384615384617,239.52413742535353L278.04615384615386,236.9476064523712L280.28846153846155,235.49234892855876L282.53076923076924,235.00294709355185L284.7730769230769,234.20126201611058L287.0153846153846,232.98618468149132L289.2576923076923,229.57537666953274L291.5,226.8463520556126L293.7423076923077,224.57194204003753L295.9846153846154,222.17774113123298L298.2269230769231,219.3303577822405L300.46923076923076,216.16760993208143L302.7115384615385,213.20314992545815L304.95384615384614,212.98069963598937L307.19615384615383,210.27121788202962L309.4384615384615,209.14435397552555L311.6807692307692,206.63903848486285L313.9230769230769,203.41160414984446L316.1653846153846,201.2998839051463L318.4076923076923,199.60058127896312L320.65000000000003,198.6790754509734L322.8923076923077,196.73806099645955L325.1346153846154,194.22639794610433L327.3769230769231,194.32601860495902L329.61923076923074,193.8758042841683L331.86153846153843,197.46616817686694L334.1038461538461,195.46098967670784L336.3461538461538,193.67211060161185L338.58846153846156,193.16119438793072L340.83076923076925,192.63723377882434L343.07307692307694,191.08667393698403L345.31538461538463,189.5141700645332L347.5576923076923,183.65258349600518L349.8,180.92058915751502L352.04230769230765,178.28384328984356L354.28461538461534,175.07168204827025L356.5269230769231,173.3158759230925L358.7692307692308,171.494627730031L361.01153846153846,170.64627275670148L363.25384615384615,168.4041725088735L365.49615384615385,167.6513725973585L367.73846153846154,167.5763594372541L369.9807692307692,167.29963115183583L372.2230769230769,165.2404647724702L374.46538461538466,163.8686413120744L376.70769230769235,160.695662146871L378.95,159.74764531548334L381.1923076923077,158.73537556564304L383.43461538461537,156.4712729158318L385.67692307692306,154.18979424185082L387.91923076923075,153.2265712469513L390.16153846153844,152.29242872003977L392.4038461538462,151.20041634042965L394.6461538461539,149.40062106805564L396.88846153846157,153.03936707391765L399.13076923076926,149.32286329549208L401.3730769230769,149.22547333962473L403.6153846153846,148.8799414796605L405.8576923076923,145.2885855659904L408.09999999999997,142.16503875893636L410.3423076923077,137.8346901200943L412.5846153846154,134.22364561844935L414.8269230769231,125.29869163946202L417.0692307692308,119.47084547223099L419.3115384615385,114.27293863127974L421.55384615384617,110.81995789791922L423.79615384615386,106.68854238732007L426.0384615384615,101.93091021230201L428.28076923076924,91.18217443564404L430.5230769230769,92.19498889890554L432.7653846153846,90.5032612944264L435.0076923076923,87.77258282228398L437.25,84.55851200252617L439.4923076923077,83.43605566822528L441.7346153846154,82.34502107111068L443.9769230769231,83.86292225813946L446.21923076923076,83.45820137243315L448.4615384615385,84.58265947212055L450.70384615384614,87.71119974982516L452.94615384615383,90.0377791861146L455.1884615384615,93.0540983893004L457.4307692307692,97.24384261322967L459.6730769230769,95.2153464459773L461.9153846153846,98.73810669803457L464.1576923076923,100.28329183888592L466.40000000000003,100.97799368699619L468.6423076923077,99.56524003838958L470.8846153846154,99.77767868505515L473.1269230769231,99.28943596110406L475.36923076923074,102.94397208620639L477.61153846153843,105.54063659298144L479.8538461538461,107.68415403576692L482.0961538461538,107.80847483116243L484.33846153846156,113.42355048657552L486.58076923076925,114.82503817792208L488.82307692307694,116.45536760956112L491.06538461538463,120.19556592178614L493.3076923076923,121.56168040128613L495.55,124.1294227221904L497.79230769230765,129.6491828218617L500.03461538461534,128.15122825498327L502.2769230769231,131.573461872533L504.5192307692308,136.05416132448255L506.76153846153846,138.55175484565072L509.00384615384615,141.03851449551863L511.24615384615385,143.04458864259715L513.4884615384615,143.75577684706542L515.7307692307692,146.19652120369082L517.9730769230769,147.78032100558423L520.2153846153847,149.42648683192147L522.4576923076924,149.4292099362132L524.7,150.21573928324432L526.9423076923077,151.37474187291778L529.1846153846154,152.56694017793612L531.4269230769231,156.3441110790781L533.6692307692307,158.50834319787262L535.9115384615384,160.5552761222381L538.1538461538462,164.88835542815286L540.3961538461539,166.27130535658117L542.6384615384616,166.14603886552771L544.8807692307693,168.01668829444193L547.123076923077,169.88561638877835L549.3653846153846,170.87024039434795L551.6076923076923,172.17872909894172L553.85,173.16680124927748L556.0923076923077,174.26636873289812L558.3346153846154,177.28910485639508" stroke="#f58518" stroke-width="2" opacity="1"/></g></g><path class="foreground" aria-hidden="true" d="" display="none"/></g><g transform="translate(0,0)"><path class="background" aria-hidden="true" d="M0,0h583v275h-583Z"/><g><g class="mark-line role-mark marks" clip-path="url(#clip74)" role="graphics-object" aria-roledescription="line mark container"><path aria-label="variable: SC; index: 0; value: 0.0307337614799" role="graphics-symbol" aria-roledescription="line mark" d="M0,156.8950898304283L2.2423076923076923,151.22043537430622L4.484615384615385,144.71647335775455L6.726923076923077,139.86090237568416L8.96923076923077,134.28651745466146L11.211538461538462,128.5469315045148L13.453846153846154,126.50088144631951L15.696153846153846,125.67726377655693L17.93846153846154,121.70632753766334L20.180769230769233,118.17224837914291L22.423076923076923,114.22382858857691L24.665384615384617,108.79757672470808L26.907692307692308,105.17627764367043L29.150000000000002,101.48841841150485L31.392307692307693,98.4850040162973L33.63461538461539,100.9428414293441L35.87692307692308,98.95408860609605L38.11923076923077,98.64565982045619L40.361538461538466,96.16109136106397L42.603846153846156,94.3062977247749L44.84615384615385,95.96146712366011L47.088461538461544,97.79388070017166L49.330769230769235,100.88079477042245L51.573076923076925,101.32474155018991L53.815384615384616,105.11515878031378L56.057692307692314,104.84476719215768L58.300000000000004,103.68223309054608L60.542307692307695,106.64674448309465L62.784615384615385,108.61778927130321L65.02692307692308,113.72138229262673L67.26923076923077,118.92050769702679L69.51153846153846,125.2581568135219L71.75384615384615,126.21183775842547L73.99615384615385,127.0405112666286L76.23846153846154,132.374210112117L78.48076923076923,133.9495321304268L80.72307692307693,137.6702038462818L82.96538461538461,139.28290984415005L85.20769230769231,141.3616899004853L87.45,140.9450610762039L89.6923076923077,142.36311221707837L91.93461538461538,148.94794670615343L94.17692307692309,152.64477088469286L96.41923076923077,157.15884514268538L98.66153846153847,158.15666985525525L100.90384615384615,165.06027221691102L103.14615384615385,171.40570337297765L105.38846153846154,176.3019199453371L107.63076923076923,180.12734484232072L109.87307692307692,184.7155844627223L112.11538461538463,192.8140054509698L114.3576923076923,193.00421826187355L116.60000000000001,198.56459689829245L118.84230769230768,196.27936091449988L121.08461538461539,192.85884629409648L123.32692307692308,188.98901275178682L125.56923076923077,185.43911729437727L127.81153846153846,185.60263532147735L130.05384615384617,186.3479012836757L132.29615384615386,183.59514472564965L134.53846153846155,184.69170236682496L136.78076923076924,188.0852034191128L139.02307692307693,193.50352355212584L141.26538461538462,199.0290430076051L143.5076923076923,201.1016764991902L145.75,204.53439376189993L147.9923076923077,212.26036393752935L150.23461538461538,213.89383677350196L152.47692307692307,214.83799333630031L154.71923076923076,216.74928753238345L156.96153846153845,218.10246664631862L159.20384615384614,221.4224023475863L161.44615384615386,221.9321911430799L163.68846153846155,223.05349759169565L165.93076923076922,224.1480856223682L168.1730769230769,225.19674537163024L170.41538461538462,222.8843657362104L172.65769230769232,221.3562924071261L174.9,222.99898914920817L177.14230769230767,221.800898393584L179.3846153846154,223.01276887234275L181.62692307692308,223.7326398505889L183.86923076923077,224.20377373473838L186.11153846153846,225.04055244649564L188.35384615384618,226.5504130564297L190.59615384615384,228.1623269966964L192.83846153846153,229.3720693620332L195.08076923076922,230.69479858824533L197.32307692307694,232.25941306357856L199.56538461538463,234.27309222856957L201.8076923076923,234.7065350175533L204.04999999999998,234.80021451139567L206.2923076923077,237.9322972679585L208.5346153846154,240.5931556604907L210.77692307692308,239.92551978661592L213.01923076923075,242.16271169792242L215.26153846153846,243.6226059646783L217.50384615384615,241.26509575538805L219.74615384615385,238.96164624259444L221.98846153846154,237.34142288962508L224.23076923076925,235.87161560321917L226.47307692307692,238.7567709396234L228.7153846153846,238.13591753198688L230.9576923076923,236.83002921276125L233.20000000000002,232.33042733740552L235.4423076923077,231.96135088460406L237.68461538461537,230.9147637424154L239.92692307692306,229.92674296490802L242.16923076923078,229.56653452845114L244.41153846153847,231.63667044148124L246.65384615384616,231.78668355296233L248.89615384615382,231.82176135339247L251.13846153846154,229.3259558976189L253.38076923076923,230.62800370287746L255.62307692307692,229.10569110225097L257.8653846153846,227.73924387178107L260.10769230769233,225.73146142624972L262.35,226.06978319001254L264.5923076923077,228.47148213737952L266.83461538461535,225.7932260812264L269.0769230769231,226.55686646982585L271.3192307692308,227.2672035826537L273.5615384615385,226.77602489943956L275.80384615384617,226.67893531947246L278.04615384615386,224.12425911164647L280.28846153846155,224.0499061433688L282.53076923076924,223.35324451033708L284.7730769230769,222.4076967292268L287.0153846153846,222.9263780675385L289.2576923076923,226.95282743494866L291.5,225.79101587667546L293.7423076923077,224.2067293040384L295.9846153846154,223.40515646375943L298.2269230769231,222.96652643038277L300.46923076923076,222.20556831269178L302.7115384615385,222.46091148004697L304.95384615384614,221.34113185518123L307.19615384615383,218.92002633098198L309.4384615384615,214.74736302687646L311.6807692307692,211.76630028428542L313.9230769230769,211.1089297470645L316.1653846153846,212.0465362714661L318.4076923076923,210.8462930951155L320.65000000000003,211.74662186567912L322.8923076923077,208.53256388177974L325.1346153846154,206.26477468247973L327.3769230769231,205.9754494270059L329.61923076923074,202.89808533609718L331.86153846153843,203.3454147661012L334.1038461538461,200.96329274084403L336.3461538461538,201.25833039875698L338.58846153846156,200.30391172254141L340.83076923076925,198.54460184136263L343.07307692307694,203.44484050678963L345.31538461538463,193.95004054331827L347.5576923076923,189.36084175713177L349.8,191.20801096155375L352.04230769230765,185.24456439984166L354.28461538461534,181.45759095382934L356.5269230769231,179.42193931865177L358.7692307692308,171.69765753586196L361.01153846153846,169.310496630987L363.25384615384615,164.3585803022464L365.49615384615385,163.22673850669995L367.73846153846154,158.2086042391454L369.9807692307692,156.4387943101771L372.2230769230769,152.28556328819295L374.46538461538466,158.98868475080957L376.70769230769235,159.03649088579525L378.95,144.826528646276L381.1923076923077,145.65705818606642L383.43461538461537,144.28169901487703L385.67692307692306,142.89407693661232L387.91923076923075,138.3828871514594L390.16153846153844,130.99633017784217L392.4038461538462,124.76389831170947L394.6461538461539,122.00948746469368L396.88846153846157,121.67918504544414L399.13076923076926,118.88803215754024L401.3730769230769,113.99549442358615L403.6153846153846,110.18270233527849L405.8576923076923,107.55277511812378L408.09999999999997,103.7366220015601L410.3423076923077,98.99655553872346L412.5846153846154,97.38976008984795L414.8269230769231,93.18764075639866L417.0692307692308,86.15207695962575L419.3115384615385,81.39773141774639L421.55384615384617,73.50895708053703L423.79615384615386,65.15658128798847L426.0384615384615,59.60498862922291L428.28076923076924,51.86851455916495L430.5230769230769,54.56638517100091L432.7653846153846,52.87852399632796L435.0076923076923,50.99690626636339L437.25,46.784093772893385L439.4923076923077,48.95347900120934L441.7346153846154,51.854587330944085L443.9769230769231,48.29195579849323L446.21923076923076,47.59335063151357L448.4615384615385,42.287054987172525L450.70384615384614,45.14310723240612L452.94615384615383,45.9074011960078L455.1884615384615,47.92118740115638L457.4307692307692,46.394070365799855L459.6730769230769,53.320065854302534L461.9153846153846,57.162622547774724L464.1576923076923,64.073642378452L466.40000000000003,64.63279951691561L468.6423076923077,63.48058058102356L470.8846153846154,65.03135346026369L473.1269230769231,60.467985075121874L475.36923076923074,62.49069576268159L477.61153846153843,67.52070312213597L479.8538461538461,70.99939991188101L482.0961538461538,69.65356317065547L484.33846153846156,69.50455749124293L486.58076923076925,74.53119814153409L488.82307692307694,85.14813611030608L491.06538461538463,87.47871996213892L493.3076923076923,89.63498355354437L495.55,92.4497586800186L497.79230769230765,104.10818482454084L500.03461538461534,107.95608776525808L502.2769230769231,113.21682103217545L504.5192307692308,116.17504575677457L506.76153846153846,120.81557162981251L509.00384615384615,124.98502122709812L511.24615384615385,122.53127978385979L513.4884615384615,125.99610053141024L515.7307692307692,125.97276818177382L517.9730769230769,130.95524562771922L520.2153846153847,136.7336778523009L522.4576923076924,138.1799761759465L524.7,140.83403796137935L526.9423076923077,144.3456512268447L529.1846153846154,147.7000991357058L531.4269230769231,147.9712416139494L533.6692307692307,150.42846588733815L535.9115384615384,152.55104190030607L538.1538461538462,156.81664970054916L540.3961538461539,158.07758393514615L542.6384615384616,164.4523722249632L544.8807692307693,167.6257354637356L547.123076923077,171.9404117560449L549.3653846153846,174.31393808397624L551.6076923076923,178.1720068363101L553.85,182.60417213250193L556.0923076923077,185.11957672729025L558.3346153846154,189.60226263170142" stroke="#e45756" stroke-width="2" opacity="1"/></g></g><path class="foreground" aria-hidden="true" d="" display="none"/></g><g transform="translate(0,0)"><path class="background" aria-hidden="true" d="M0,0h583v275h-583Z"/><g><g class="mark-line role-mark marks" clip-path="url(#clip75)" role="graphics-object" aria-roledescription="line mark container"><path aria-label="variable: TX; index: 0; value: −0.024286692357" role="graphics-symbol" aria-roledescription="line mark" d="M0,163.19951683257332L2.2423076923076923,159.20086940103687L4.484615384615385,155.1802180343614L6.726923076923077,150.91585557401868L8.96923076923077,147.96210070550597L11.211538461538462,143.79782861524686L13.453846153846154,138.30151850931225L15.696153846153846,133.7901824516301L17.93846153846154,129.4976260071202L20.180769230769233,125.26936698056514L22.423076923076923,121.03358046935185L24.665384615384617,117.23764983604265L26.907692307692308,114.30392029642451L29.150000000000002,112.53820444926276L31.392307692307693,111.11548999015329L33.63461538461539,109.99286849610955L35.87692307692308,107.44175453142388L38.11923076923077,105.94017312782817L40.361538461538466,105.1102798169079L42.603846153846156,103.50024569730965L44.84615384615385,101.63217918034164L47.088461538461544,99.50215548725062L49.330769230769235,97.73644072194257L51.573076923076925,97.62320203413893L53.815384615384616,97.60145108921033L56.057692307692314,96.86386259010541L58.300000000000004,93.2062890874718L60.542307692307695,97.81930899566699L62.784615384615385,99.35452613835398L65.02692307692308,103.44845451417397L67.26923076923077,104.20180460829938L69.51153846153846,104.69691745837306L71.75384615384615,107.39522643189576L73.99615384615385,120.79013756731833L76.23846153846154,121.06102868744414L78.48076923076923,125.74105184363276L80.72307692307693,123.14438422464815L82.96538461538461,129.3383479677155L85.20769230769231,131.80961582602055L87.45,133.75966439769198L89.6923076923077,138.5463228770857L91.93461538461538,141.82381203545037L94.17692307692309,143.7845163232532L96.41923076923077,148.45275980283236L98.66153846153847,152.67115755714988L100.90384615384615,156.7300741233697L103.14615384615385,158.1281064777983L105.38846153846154,157.7916320443722L107.63076923076923,161.09823106215896L109.87307692307692,165.75570972329405L112.11538461538463,171.810430512781L114.3576923076923,175.81512990508045L116.60000000000001,179.48245503278807L118.84230769230768,184.4323265195217L121.08461538461539,189.1567332130859L123.32692307692308,193.18010499886137L125.56923076923077,200.3092503584685L127.81153846153846,203.8131988492143L130.05384615384617,209.55094956002512L132.29615384615386,212.45462096560874L134.53846153846155,216.2992737935302L136.78076923076924,217.8881121405911L139.02307692307693,220.0241405687853L141.26538461538462,223.6130685519178L143.5076923076923,227.56138405534682L145.75,229.79035329502702L147.9923076923077,231.33326880790645L150.23461538461538,232.67778871205863L152.47692307692307,235.76928123009918L154.71923076923076,238.2776304344209L156.96153846153845,239.78811801158702L159.20384615384614,243.87792094624754L161.44615384615386,246.54741237561808L163.68846153846155,248.80174548066745L165.93076923076922,250.44704781688816L168.1730769230769,249.1410461382064L170.41538461538462,248.28285366201627L172.65769230769232,248.41478825551692L174.9,249.4750602963065L177.14230769230767,251.08144257048878L179.3846153846154,252.5091633020794L181.62692307692308,253.27655298472735L183.86923076923077,251.35680935290736L186.11153846153846,249.3317451606085L188.35384615384618,250.00505388718278L190.59615384615384,249.21792122652923L192.83846153846153,248.91030166809847L195.08076923076922,248.0104368686881L197.32307692307694,247.0049085497907L199.56538461538463,246.61186718477222L201.8076923076923,248.96012825506494L204.04999999999998,250.0219413119115L206.2923076923077,252.23958314637534L208.5346153846154,253.8603014793814L210.77692307692308,255.28040238097498L213.01923076923075,257.3004641097453L215.26153846153846,256.91887998646797L217.50384615384615,257.14188731696584L219.74615384615385,257.9529638385039L221.98846153846154,257.1190963684834L224.23076923076925,255.74671909106812L226.47307692307692,256.1584019872483L228.7153846153846,256.3657859204628L230.9576923076923,255.12090016168818L233.20000000000002,254.1903830935425L235.4423076923077,254.50534072368487L237.68461538461537,253.09917644539578L239.92692307692306,252.6455771613636L242.16923076923078,250.74655034119237L244.41153846153847,250.02009624609647L246.65384615384616,248.89497292027062L248.89615384615382,247.52794327202628L251.13846153846154,244.59422023021008L253.38076923076923,242.96160498802038L255.62307692307692,240.5210782579592L257.8653846153846,239.34498884054813L260.10769230769233,236.85533416688097L262.35,235.22068480761752L264.5923076923077,232.16364859363154L266.83461538461535,230.50105960268078L269.0769230769231,229.86017559620774L271.3192307692308,228.3811156942242L273.5615384615385,226.5632599045209L275.80384615384617,214.67588745779548L278.04615384615386,208.5434609937099L280.28846153846155,202.60281660409473L282.53076923076924,197.64500302276295L284.7730769230769,192.8540689685386L287.0153846153846,187.2531929551135L289.2576923076923,183.0591039442179L291.5,184.87143551205773L293.7423076923077,186.55376840181927L295.9846153846154,188.57849019207669L298.2269230769231,189.02594615053314L300.46923076923076,191.01448989369277L302.7115384615385,190.1908593687784L304.95384615384614,190.7957925017638L307.19615384615383,186.67282622031036L309.4384615384615,184.64672269989134L311.6807692307692,179.84783689884352L313.9230769230769,177.7010642384433L316.1653846153846,174.08958470775428L318.4076923076923,171.2817180141645L320.65000000000003,170.0509455979417L322.8923076923077,168.53076697717563L325.1346153846154,165.34133249402592L327.3769230769231,162.90164869696707L329.61923076923074,160.96174657349675L331.86153846153843,158.5054007856636L334.1038461538461,160.3316148312263L336.3461538461538,161.97152723502688L338.58846153846156,160.54241052752826L340.83076923076925,157.94604431474403L343.07307692307694,155.01235086811275L345.31538461538463,154.45095345614908L347.5576923076923,150.67199308551048L349.8,145.31417229330856L352.04230769230765,141.13165814213883L354.28461538461534,140.84965429943014L356.5269230769231,138.80370508603204L358.7692307692308,137.2072568786788L361.01153846153846,135.70091587677015L363.25384615384615,135.02958109681907L365.49615384615385,134.5838847349915L367.73846153846154,129.685368703293L369.9807692307692,125.83566860656364L372.2230769230769,122.79329427814963L374.46538461538466,119.23425338998051L376.70769230769235,117.10048933316672L378.95,114.54652931465147L381.1923076923077,114.44945954545366L383.43461538461537,116.29421344583318L385.67692307692306,117.42601783305646L387.91923076923075,117.10104391667066L390.16153846153844,117.21054573408061L392.4038461538462,113.84087363430591L394.6461538461539,113.61559242341005L396.88846153846157,116.24706112488697L399.13076923076926,122.14580716471502L401.3730769230769,123.86920652239228L403.6153846153846,120.6857627527413L405.8576923076923,116.8573205351786L408.09999999999997,115.5492018814628L410.3423076923077,111.26282264987056L412.5846153846154,105.88151026612806L414.8269230769231,102.41159766597275L417.0692307692308,95.2525352603502L419.3115384615385,88.48626671254985L421.55384615384617,84.84925464119753L423.79615384615386,79.82246997784017L426.0384615384615,76.5686052642557L428.28076923076924,73.78945322676994L430.5230769230769,65.27665101912041L432.7653846153846,62.81153967244881L435.0076923076923,62.7035737723236L437.25,55.655095580182454L439.4923076923077,52.42510013563835L441.7346153846154,52.11565276998064L443.9769230769231,52.408664648462285L446.21923076923076,54.61466920787896L448.4615384615385,56.0266698578733L450.70384615384614,56.30795836501585L452.94615384615383,57.800925342171745L455.1884615384615,56.261244967752866L457.4307692307692,58.99841968014038L459.6730769230769,61.41243941202022L461.9153846153846,63.498987321295104L464.1576923076923,66.9968400336458L466.40000000000003,68.21158959544543L468.6423076923077,68.56914938135532L470.8846153846154,67.15310087773014L473.1269230769231,70.17954512863429L475.36923076923074,74.96770380798255L477.61153846153843,80.25241795470518L479.8538461538461,82.21237907123442L482.0961538461538,84.96790021627027L484.33846153846156,87.07625571554414L486.58076923076925,91.44548082686279L488.82307692307694,94.30580648622228L491.06538461538463,97.11762580896136L493.3076923076923,98.79462946569633L495.55,100.26809855639831L497.79230769230765,106.31697257533466L500.03461538461534,106.67716189354437L502.2769230769231,111.16557056926955L504.5192307692308,115.61356207422766L506.76153846153846,122.71051372505367L509.00384615384615,127.71991165925188L511.24615384615385,133.15645327071817L513.4884615384615,135.73693345663034L515.7307692307692,142.88045009038953L517.9730769230769,151.5726842613479L520.2153846153847,154.254578285999L522.4576923076924,161.88442878929794L524.7,166.16425897888126L526.9423076923077,169.3493228898553L529.1846153846154,174.88746432807375L531.4269230769231,173.50681921386874L533.6692307692307,171.24703954033768L535.9115384615384,170.14026948889781L538.1538461538462,170.0363239297692L540.3961538461539,170.97458649230603L542.6384615384616,171.23883707021L544.8807692307693,170.80822148066864L547.123076923077,171.10765706189022L549.3653846153846,172.69571204974173L551.6076923076923,175.83754813308664L553.85,182.42198182959692L556.0923076923077,183.5771258841561L558.3346153846154,188.13832037713135" stroke="#72b7b2" stroke-width="2" opacity="1"/></g></g><path class="foreground" aria-hidden="true" d="" display="none"/></g></g><g class="mark-group role-legend" role="graphics-symbol" aria-roledescription="legend" aria-label="Symbol legend for stroke color with 4 values: AZ, FL, SC, TX"><g transform="translate(601,0)"><path class="background" aria-hidden="true" d="M0,0h30v50h-30Z" pointer-events="none"/><g><g class="mark-group role-legend-entry"><g transform="translate(0,0)"><path class="background" aria-hidden="true" d="M0,0h0v0h0Z" pointer-events="none"/><g><g class="mark-group role-scope" role="graphics-object" aria-roledescription="group mark container"><g transform="translate(0,0)"><path class="background" aria-hidden="true" d="M0,0h29.330078125v11h-29.330078125Z" pointer-events="none" opacity="1"/><g><g class="mark-symbol role-legend-symbol" pointer-events="none"><path transform="translate(6,6)" d="M-5,0L5,0" stroke="#4c78a8" stroke-width="1.5" opacity="1"/></g><g class="mark-text role-legend-label" pointer-events="none"><text text-anchor="start" transform="translate(16,9)" font-family="IBM Plex Serif, serif" font-size="10px" fill="#262730" opacity="1">AZ</text></g></g><path class="foreground" aria-hidden="true" d="" pointer-events="none" display="none"/></g><g transform="translate(0,13)"><path class="background" aria-hidden="true" d="M0,0h29.330078125v11h-29.330078125Z" pointer-events="none" opacity="1"/><g><g class="mark-symbol role-legend-symbol" pointer-events="none"><path transform="translate(6,6)" d="M-5,0L5,0" stroke="#f58518" stroke-width="1.5" opacity="1"/></g><g class="mark-text role-legend-label" pointer-events="none"><text text-anchor="start" transform="translate(16,9)" font-family="IBM Plex Serif, serif" font-size="10px" fill="#262730" opacity="1">FL</text></g></g><path class="foreground" aria-hidden="true" d="" pointer-events="none" display="none"/></g><g transform="translate(0,26)"><path class="background" aria-hidden="true" d="M0,0h29.330078125v11h-29.330078125Z" pointer-events="none" opacity="1"/><g><g class="mark-symbol role-legend-symbol" pointer-events="none"><path transform="translate(6,6)" d="M-5,0L5,0" stroke="#e45756" stroke-width="1.5" opacity="1"/></g><g class="mark-text role-legend-label" pointer-events="none"><text text-anchor="start" transform="translate(16,9)" font-family="IBM Plex Serif, serif" font-size="10px" fill="#262730" opacity="1">SC</text></g></g><path class="foreground" aria-hidden="true" d="" pointer-events="none" display="none"/></g><g transform="translate(0,39)"><path class="background" aria-hidden="true" d="M0,0h29.330078125v11h-29.330078125Z" pointer-events="none" opacity="1"/><g><g class="mark-symbol role-legend-symbol" pointer-events="none"><path transform="translate(6,6)" d="M-5,0L5,0" stroke="#72b7b2" stroke-width="1.5" opacity="1"/></g><g class="mark-text role-legend-label" pointer-events="none"><text text-anchor="start" transform="translate(16,9)" font-family="IBM Plex Serif, serif" font-size="10px" fill="#262730" opacity="1">TX</text></g></g><path class="foreground" aria-hidden="true" d="" pointer-events="none" display="none"/></g></g></g><path class="foreground" aria-hidden="true" d="" pointer-events="none" display="none"/></g></g></g><path class="foreground" aria-hidden="true" d="" pointer-events="none" display="none"/></g></g></g><path class="foreground" aria-hidden="true" d="" display="none"/></g></g></g><defs><clipPath id="clip72"><rect x="0" y="0" width="583" height="275"/></clipPath><clipPath id="clip73"><rect x="0" y="0" width="583" height="275"/></clipPath><clipPath id="clip74"><rect x="0" y="0" width="583" height="275"/></clipPath><clipPath id="clip75"><rect x="0" y="0" width="583" height="275"/></clipPath></defs></svg>