<svg xmlns="http://www.w3.org/2000/svg" xmlns:xlink="http://www.w3.org/1999/xlink" version="1.1" class="marks" width="660" height="300" viewBox="0 0 660 300"><rect width="660" height="300" fill="#ffffff"/><g fill="none" stroke-miterlimit="10" transform="translate(28,5)"><g class="mark-group role-frame root" role="graphics-object" aria-roledescription="group mark container"><g transform="translate(0,0)"><path class="background" aria-hidden="true" d="M0.5,0.5h580v270h-580Z" stroke="#ddd"/><g><g class="mark-group role-axis" aria-hidden="true"><g transform="translate(0.5,270.5)"><path class="background" aria-hidden="true" d="M0,0h0v0h0Z" pointer-events="none"/><g><g class="mark-rule role-axis-grid" pointer-events="none"><line transform="translate(0,-270)" x2="0" y2="270" stroke="rgba(38, 39, 48, 0.2)" stroke-width="1" opacity="1"/><line transform="translate(45,-270)" x2="0" y2="270" stroke="rgba(38, 39, 48, 0.2)" stroke-width="1" opacity="1"/><line transform="translate(89,-270)" x2="0" y2="270" stroke="rgba(38, 39, 48, 0.2)" stroke-width="1" opacity="1"/><line transform="translate(134,-270)" x2="0" y2="270" stroke="rgba(38, 39, 48, 0.2)" stroke-width="1" opacity="1"/><line transform="translate(178,-270)" x2="0" y2="270" stroke="rgba(38, 39, 48, 0.2)" stroke-width="1" opacity="1"/><line transform="translate(223,-270)" x2="0" y2="270" stroke="rgba(38, 39, 48, 0.2)" stroke-width="1" opacity="1"/><line transform="translate(268,-270)" x2="0" y2="270" stroke="rgba(38, 39, 48, 0.2)" stroke-width="1" opacity="1"/><line transform="translate(312,-270)" x2="0" y2="270" stroke="rgba(38, 39, 48, 0.2)" stroke-width="1" opacity="1"/><line transform="translate(357,-270)" x2="0" y2="270" stroke="rgba(38, 39, 48, 0.2)" stroke-width="1" opacity="1"/><line transform="translate(402,-270)" x2="0" y2="270" stroke="rgba(38, 39, 48, 0.2)" stroke-width="1" opacity="1"/><line transform="translate(446,-270)" x2="0" y2="270" stroke="rgba(38, 39, 48, 0.2)" stroke-width="1" opacity="1"/><line transform="translate(491,-270)" x2="0" y2="270" stroke="rgba(38, 39, 48, 0.2)" stroke-width="1" opacity="1"/><line transform="translate(535,-270)" x2="0" y2="270" stroke="rgba(38, 39, 48, 0.2)" stroke-width="1" opacity="1"/><line transform="translate(580,-270)" x2="0" y2="270" stroke="rgba(38, 39, 48, 0.2)" stroke-width="1" opacity="1"/></g></g><path class="foreground" aria-hidden="true" d="" pointer-events="none" display="none"/></g></g><g class="mark-group role-axis" aria-hidden="true"><g transform="translate(0.5,0.5)"><path class="background" aria-hidden="true" d="M0,0h0v0h0Z" pointer-events="none"/><g><g class="mark-rule role-axis-grid" pointer-events="none"><line transform="translate(0,270)" x2="580" y2="0" stroke="rgba(38, 39, 48, 0.2)" stroke-width="1" opacity="1"/><line transform="translate(0,245)" x2="580" y2="0" stroke="rgba(38, 39, 48, 0.2)" stroke-width="1" opacity="1"/><line transform="translate(0,221)" x2="580" y2="0" stroke="rgba(38, 39, 48, 0.2)" stroke-width="1" opacity="1"/><line transform="translate(0,196)" x2="580" y2="0" stroke="rgba(38, 39, 48, 0.2)" stroke-width="1" opacity="1"/><line transform="translate(0,172)" x2="580" y2="0" stroke="rgba(38, 39, 48, 0.2)" stroke-width="1" opacity="1"/><line transform="translate(0,147)" x2="580" y2="0" stroke="rgba(38, 39, 48, 0.2)" stroke-width="1" opacity="1"/><line transform="translate(0,123)" x2="580" y2="0" stroke="rgba(38, 39, 48, 0.2)" stroke-width="1" opacity="1"/><line transform="translate(0,98)" x2="580" y2="0" stroke="rgba(38, 39, 48, 0.2)" stroke-width="1" opacity="1"/><line transform="translate(0,74)" x2="580" y2="0" stroke="rgba(38, 39, 48, 0.2)" stroke-width="1" opacity="1"/><line transform="translate(0,49)" x2="580" y2="0" stroke="rgba(38, 39, 48, 0.2)" stroke-width="1" opacity="1"/><line transform="translate(0,25)" x2="580" y2="0" stroke="rgba(38, 39, 48, 0.2)" stroke-width="1" opacity="1"/><line transform="translate(0,0)" x2="580" y2="0" stroke="rgba(38, 39, 48, 0.2)" stroke-width="1" opacity="1"/></g></g><path class="foreground" aria-hidden="true" d="" pointer-events="none" display="none"/></g></g><g class="mark-group role-axis" role="graphics-symbol" aria-roledescription="axis" aria-label="X-axis for a linear scale with values from 0 to 260"><g transform="translate(0.5,270.5)"><path class="background" aria-hidden="true" d="M0,0h0v0h0Z" pointer-events="none"/><g><g class="mark-rule role-axis-tick" pointer-events="none"><line transform="translate(0,0)" x2="0" y2="5" stroke="#888" stroke-width="1" opacity="1"/><line transform="translate(45,0)" x2="0" y2="5" stroke="#888" stroke-width="1" opacity="1"/><line transform="translate(89,0)" x2="0" y2="5" stroke="#888" stroke-width="1" opacity="1"/><line transform="translate(134,0)" x2="0" y2="5" stroke="#888" stroke-width="1" opacity="1"/><line transform="translate(178,0)" x2="0" y2="5" stroke="#888" stroke-width="1" opacity="1"/><line transform="translate(223,0)" x2="0" y2="5" stroke="#888" stroke-width="1" opacity="1"/><line transform="translate(268,0)" x2="0" y2="5" stroke="#888" stroke-width="1" opacity="1"/><line transform="translate(312,0)" x2="0" y2="5" stroke="#888" stroke-width="1" opacity="1"/><line transform="translate(357,0)" x2="0" y2="5" stroke="#888" stroke-width="1" opacity="1"/><line transform="translate(402,0)" x2="0" y2="5" stroke="#888" stroke-width="1" opacity="1"/><line transform="translate(446,0)" x2="0" y2="5" stroke="#888" stroke-width="1" opacity="1"/><line transform="translate(491,0)" x2="0" y2="5" stroke="#888" stroke-width="1" opacity="1"/><line transform="translate(535,0)" x2="0" y2="5" stroke="#888" stroke-width="1" opacity="1"/><line transform="translate(580,0)" x2="0" y2="5" stroke="#888" stroke-width="1" opacity="1"/></g><g class="mark-text role-axis-label" pointer-events="none"><text text-anchor="start" transform="translate(0,15)" font-family="IBM Plex Serif, serif" font-size="10px" fill="#262730" opacity="1">0</text><text text-anchor="middle" transform="translate(44.61538461538462,15)" font-family="IBM Plex Serif, serif" font-size="10px" fill="#262730" opacity="1">20</text><text text-anchor="middle" transform="translate(89.23076923076924,15)" font-family="IBM Plex Serif, serif" font-size="10px" fill="#262730" opacity="1">40</text><text text-anchor="middle" transform="translate(133.84615384615384,15)" font-family="IBM Plex Serif, serif" font-size="10px" fill="#262730" opacity="1">60</text><text text-anchor="middle" transform="translate(178.46153846153848,15)" font-family="IBM Plex Serif, serif" font-size="10px" fill="#262730" opacity="1">80</text><text text-anchor="middle" transform="translate(223.0769230769231,15)" font-family="IBM Plex Serif, serif" font-size="10px" fill="#262730" opacity="1">100</text><text text-anchor="middle" transform="translate(267.6923076923077,15)" font-family="IBM Plex Serif, serif" font-size="10px" fill="#262730" opacity="1">120</text><text text-anchor="middle" transform="translate(312.3076923076923,15)" font-family="IBM Plex Serif, serif" font-size="10px" fill="#262730" opacity="1">140</text><text text-anchor="middle" transform="translate(356.92307692307696,15)" font-family="IBM Plex Serif, serif" font-size="10px" fill="#262730" opacity="1">160</text><text text-anchor="middle" transform="translate(401.53846153846155,15)" font-family="IBM Plex Serif, serif" font-size="10px" fill="#262730" opacity="1">180</text><text text-anchor="middle" transform="translate(446.1538461538462,15)" font-family="IBM Plex Serif, serif" font-size="10px" fill="#262730" opacity="1">200</text><text text-anchor="middle" transform="translate(490.7692307692308,15)" font-family="IBM Plex Serif, serif" font-size="10px" fill="#262730" opacity="1">220</text><text text-anchor="middle" transform="translate(535.3846153846154,15)" font-family="IBM Plex Serif, serif" font-size="10px" fill="#262730" opacity="1">240</text><text text-anchor="end" transform="translate(580,15)" font-family="IBM Plex Serif, serif" font-size="10px" fill="#262730" opacity="1">260</text></g><g class="mark-rule role-axis-domain" pointer-events="none"><line transform="translate(0,0)" x2="580" y2="0" stroke="#888" stroke-width="1" opacity="1"/></g></g><path class="foreground" aria-hidden="true" d="" pointer-events="none" display="none"/></g></g><g class="mark-group role-axis" role="graphics-symbol" aria-roledescription="axis" aria-label="Y-axis for a linear scale with values from −0.8 to 1.4"><g transform="translate(0.5,0.5)"><path class="background" aria-hidden="true" d="M0,0h0v0h0Z" pointer-events="none"/><g><g class="mark-rule role-axis-tick" pointer-events="none"><line transform="translate(0,270)" x2="-5" y2="0" stroke="#888" stroke-width="1" opacity="1"/><line transform="translate(0,245)" x2="-5" y2="0" stroke="#888" stroke-width="1" opacity="1"/><line transform="translate(0,221)" x2="-5" y2="0" stroke="#888" stroke-width="1" opacity="1"/><line transform="translate(0,196)" x2="-5" y2="0" stroke="#888" stroke-width="1" opacity="1"/><line transform="translate(0,172)" x2="-5" y2="0" stroke="#888" stroke-width="1" opacity="1"/><line transform="translate(0,147)" x2="-5" y2="0" stroke="#888" stroke-width="1" opacity="1"/><line transform="translate(0,123)" x2="-5" y2="0" stroke="#888" stroke-width="1" opacity="1"/><line transform="translate(0,98)" x2="-5" y2="0" stroke="#888" stroke-width="1" opacity="1"/><line transform="translate(0,74)" x2="-5" y2="0" stroke="#888" stroke-width="1" opacity="1"/><line transform="translate(0,49)" x2="-5" y2="0" stroke="#888" stroke-width="1" opacity="1"/><line transform="translate(0,25)" x2="-5" y2="0" stroke="#888" stroke-width="1" opacity="1"/><line transform="translate(0,0)" x2="-5" y2="0" stroke="#888" stroke-width="1" opacity="1"/></g><g class="mark-text role-axis-label" pointer-events="none"><text text-anchor="end" transform="translate(-7,273)" font-family="IBM Plex Serif, serif" font-size="10px" fill="#262730" opacity="1">−0.8</text><text text-anchor="end" transform="translate(-7,248.45454545454544)" font-family="IBM Plex Serif, serif" font-size="10px" fill="#262730" opacity="1">−0.6</text><text text-anchor="end" transform="translate(-7,223.9090909090909)" font-family="IBM Plex Serif, serif" font-size="10px" fill="#262730" opacity="1">−0.4</text><text text-anchor="end" transform="translate(-7,199.36363636363637)" font-family="IBM Plex Serif, serif" font-size="10px" fill="#262730" opacity="1">−0.2</text><text text-anchor="end" transform="translate(-7,174.8181818181818)" font-family="IBM Plex Serif, serif" font-size="10px" fill="#262730" opacity="1">0.0</text><text text-anchor="end" transform="translate(-7,150.27272727272725)" font-family="IBM Plex Serif, serif" font-size="10px" fill="#262730" opacity="1">0.2</text><text text-anchor="end" transform="translate(-7,125.7272727272727)" font-family="IBM Plex Serif, serif" font-size="10px" fill="#262730" opacity="1">0.4</text><text text-anchor="end" transform="translate(-7,101.18181818181822)" font-family="IBM Plex Serif, serif" font-size="10px" fill="#262730" opacity="1">0.6</text><text text-anchor="end" transform="translate(-7,76.63636363636363)" font-family="IBM Plex Serif, serif" font-size="10px" fill="#262730" opacity="1">0.8</text><text text-anchor="end" transform="translate(-7,52.09090909090911)" font-family="IBM Plex Serif, serif" font-size="10px" fill="#262730" opacity="1">1.0</text><text text-anchor="end" transform="translate(-7,27.545454545454554)" font-family="IBM Plex Serif, serif" font-size="10px" fill="#262730" opacity="1">1.2</text><text text-anchor="end" transform="translate(-7,3)" font-family="IBM Plex Serif, serif" font-size="10px" fill="#262730" opacity="1">1.4</text></g><g class="mark-rule role-axis-domain" pointer-events="none"><line transform="translate(0,270)" x2="0" y2="-270" stroke="#888" stroke-width="1" opacity="1"/></g></g><path class="foreground" aria-hidden="true" d="" pointer-events="none" display="none"/></g></g><g class="mark-group role-scope pathgroup" role="graphics-object" aria-roledescription="group mark container"><g transform="translate(0,0)"><path class="background" aria-hidden="true" d="M0,0h580v270h-580Z"/><g><g class="mark-line role-mark marks" clip-path="url(#clip69)" role="graphics-object" aria-roledescription="line mark container"><path aria-label="variable: MD; index: 0; value: −0.545533311119" role="graphics-symbol" aria-roledescription="line mark" d="M0,238.76999727364355L2.230769230769231,242.12918934505026L4.461538461538462,243.4166081445912L6.6923076923076925,244.16713027425934L8.923076923076923,245.1633632965199L11.153846153846155,246.76647173145943L13.384615384615385,245.91084486281304L15.615384615384617,248.53705131918957L17.846153846153847,247.07160315608212L20.076923076923077,248.86626701996605L22.30769230769231,249.6604003771724L24.53846153846154,249.48498341027815L26.76923076923077,248.84344995339424L29,248.38505543296804L31.230769230769234,245.99962970211345L33.46153846153846,245.19576726268542L35.69230769230769,246.13561356251284L37.92307692307693,243.75256836371773L40.15384615384615,243.56702665334223L42.38461538461539,242.4129253457716L44.61538461538462,240.61030816631887L46.84615384615385,239.99027231011587L49.07692307692308,240.11357599776682L51.307692307692314,237.31575681484878L53.53846153846154,233.69602562010442L55.769230769230774,233.69575836737374L58,233.06487024792224L60.23076923076923,233.4386498979697L62.46153846153847,230.09099618124793L64.6923076923077,228.81793860070255L66.92307692307692,230.65334746514435L69.15384615384616,228.89376699898716L71.38461538461539,228.20180436268961L73.61538461538461,226.93681318060771L75.84615384615385,226.73721835161768L78.07692307692308,229.84051139747336L80.3076923076923,228.61234167294774L82.53846153846153,228.1423212718631L84.76923076923077,229.94078924117323L87,230.63314067159808L89.23076923076924,232.84553818191802L91.46153846153845,232.73298855493437L93.6923076923077,234.01564101937012L95.92307692307692,237.20502319384602L98.15384615384616,239.1864480880303L100.38461538461539,241.41247826327503L102.61538461538463,241.86003856690635L104.84615384615384,244.79228276159574L107.07692307692308,246.93082566791523L109.3076923076923,246.3674476101115L111.53846153846155,246.69925557686554L113.76923076923077,248.80317058636666L116,248.63714400532163L118.23076923076923,248.43792354391746L120.46153846153847,247.32071263039984L122.6923076923077,247.3848685273448L124.92307692307693,246.16888532850498L127.15384615384615,246.4140934124039L129.3846153846154,244.7431369890341L131.6153846153846,244.61616557827665L133.84615384615384,244.45735866339118L136.07692307692307,244.66352124722403L138.30769230769232,245.15884591874405L140.53846153846155,246.15743334221196L142.76923076923077,244.92053574698147L145,245.604882940009L147.23076923076923,246.91758088956345L149.46153846153845,247.2594881106945L151.6923076923077,244.03392236434235L153.92307692307693,245.0652523175823L156.15384615384616,244.84954001420618L158.38461538461536,245.62322275025952L160.6153846153846,246.95429171156363L162.84615384615384,246.91870331528455L165.07692307692307,246.53047006579214L167.3076923076923,247.58221837355833L169.53846153846155,246.03416876246416L171.76923076923077,247.85698099831612L174,248.93523973436382L176.23076923076923,248.68624770751288L178.46153846153848,250.78004843465612L180.6923076923077,252.5865541170242L182.9230769230769,252.53176979413078L185.15384615384613,252.61171887841732L187.3846153846154,253.01762321727648L189.6153846153846,253.27109814666753L191.84615384615384,254.1739220834009L194.07692307692307,253.97650557458687L196.30769230769232,251.48024706615203L198.53846153846155,252.67587755822504L200.76923076923077,253.5897062583514L203,254.36452514551655L205.23076923076925,255.48254837053815L207.46153846153845,255.2920395658484L209.69230769230768,255.211624996876L211.9230769230769,256.23219542268913L214.15384615384616,254.2701925708049L216.3846153846154,253.597752543188L218.6153846153846,251.56535433454815L220.84615384615384,249.11442745955955L223.0769230769231,246.98741118158424L225.30769230769232,247.6031924129102L227.53846153846155,246.78616450341787L229.76923076923075,246.03022191922597L232,244.08313808966597L234.23076923076923,241.65745332692742L236.46153846153845,242.01597925538223L238.69230769230768,242.7284850877972L240.92307692307693,242.7973358033118L243.15384615384616,241.97684567025036L245.3846153846154,241.35900037087572L247.6153846153846,239.82703832091607L249.84615384615387,238.6846548089268L252.0769230769231,237.80227642278092L254.3076923076923,237.02330618949222L256.53846153846155,236.7774150984577L258.7692307692308,236.34384264875206L261,234.6694351682753L263.2307692307692,235.0037361251256L265.46153846153845,233.19917040128908L267.6923076923077,231.4000763233218L269.9230769230769,228.79465296983432L272.15384615384613,227.8076027669451L274.38461538461536,226.09389904577566L276.61538461538464,223.7193828419346L278.84615384615387,221.27039214674681L281.0769230769231,217.59316989130934L283.3076923076923,215.95314534369925L285.53846153846155,214.51616643872995L287.7692307692308,212.97834343542448L290,208.56109274871983L292.2307692307692,204.10594471427655L294.46153846153845,199.09167850333225L296.6923076923077,192.2951188134052L298.9230769230769,187.4711330088518L301.1538461538462,182.26621422224986L303.3846153846154,174.26407236890512L305.61538461538464,167.28522063105447L307.84615384615387,163.833982099277L310.0769230769231,154.7704264532523L312.3076923076923,148.69686800001946L314.5384615384615,143.95728190895227L316.7692307692307,137.57273018032325L319,132.55219984901802L321.2307692307692,130.0889442615706L323.46153846153845,123.81306741321124L325.6923076923077,117.79508105564021L327.9230769230769,113.50772510877036L330.15384615384613,107.19545141265583L332.38461538461536,106.97048878205405L334.6153846153846,102.71489771579202L336.84615384615387,99.78488537877213L339.0769230769231,99.99176128154932L341.3076923076923,97.12342877637633L343.53846153846155,93.23663842768566L345.7692307692308,87.12094313976763L348,82.87106649423728L350.2307692307692,78.91837948441709L352.46153846153845,74.06431013575407L354.69230769230774,72.8670548819398L356.92307692307696,67.79072261692134L359.1538461538462,63.26646110494036L361.3846153846154,62.08702522327514L363.6153846153846,57.274684887680536L365.8461538461538,57.4030589655366L368.07692307692304,56.68212927665311L370.30769230769226,57.57331363033619L372.53846153846155,53.56449594950438L374.7692307692308,52.13381264970934L377,53.48387059764226L379.2307692307692,55.323511456163L381.46153846153845,54.10164133602335L383.6923076923077,47.39095914273514L385.9230769230769,48.669472801251516L388.15384615384613,52.43636842216435L390.3846153846154,52.90564318522547L392.61538461538464,50.369186502940465L394.84615384615387,52.29249249843357L397.0769230769231,58.79183779533451L399.3076923076923,60.762203894138494L401.53846153846155,59.40511404477244L403.7692307692308,56.358115476796364L406,57.5824668459411L408.2307692307693,59.64662005706265L410.4615384615385,56.48739753527214L412.6923076923077,50.082789374998114L414.9230769230769,49.52281337894281L417.15384615384613,45.44846279616949L419.38461538461536,46.57687577548095L421.6153846153846,38.81710722848532L423.8461538461538,40.83768323073776L426.0769230769231,37.09409121152487L428.3076923076923,33.89363245787296L430.53846153846155,27.635929996174507L432.7692307692308,32.65157692948049L435,28.67416707546549L437.2307692307692,31.609691647399558L439.46153846153845,35.406696748976984L441.6923076923077,36.65595091778425L443.9230769230769,36.18218392775408L446.1538461538462,38.0008649217873L448.3846153846154,37.509619658851406L450.61538461538464,42.6536431459967L452.84615384615387,42.43312576467242L455.0769230769231,42.94122901516588L457.3076923076923,42.225694233484035L459.5384615384615,46.754726062644785L461.7692307692307,50.0516266791745L464,50.900767170031585L466.2307692307692,55.76109670775403L468.46153846153845,58.435843911340925L470.6923076923077,61.43020051006654L472.9230769230769,68.25393759047397L475.15384615384613,71.26760297591031L477.38461538461536,77.45916017831473L479.6153846153846,80.57714280724362L481.84615384615387,88.76568683411539L484.0769230769231,91.5763075381886L486.3076923076923,98.31644911348923L488.53846153846155,100.24823998370007L490.7692307692308,100.22745983348992L493,102.61185479438537L495.2307692307692,105.17577638167283L497.46153846153845,103.96274488006456L499.69230769230774,106.0173028223671L501.92307692307696,109.65956362747019L504.1538461538462,112.01118635045354L506.3846153846154,117.56977362276898L508.6153846153846,123.64483729590249L510.8461538461538,127.13700407308914L513.0769230769231,130.7219938130655L515.3076923076923,138.64869542385685L517.5384615384615,138.2404646024646L519.7692307692308,144.81501192724056L522,147.81855615176983L524.2307692307693,148.6284312495141L526.4615384615385,152.64623358958852L528.6923076923077,156.61285285414783L530.9230769230769,157.27634654486806L533.1538461538461,161.59135199302278L535.3846153846154,159.00165388098492L537.6153846153846,164.0226577008793L539.8461538461538,163.5854064631415L542.0769230769231,166.38963726621714L544.3076923076923,168.56135546917554L546.5384615384615,172.55456037677789L548.7692307692307,177.60314260470585L551,181.26111952013957L553.2307692307693,182.71448936660713L555.4615384615385,184.85588750373495" stroke="#4c78a8" stroke-width="2" opacity="1"/></g></g><path class="foreground" aria-hidden="true" d="" display="none"/></g><g transform="translate(0,0)"><path class="background" aria-hidden="true" d="M0,0h580v270h-580Z"/><g><g class="mark-line role-mark marks" clip-path="url(#clip70)" role="graphics-object" aria-roledescription="line mark container"><path aria-label="variable: ME; index: 0; value: −0.553792446598" role="graphics-symbol" aria-roledescription="line mark" d="M0,239.78361844613434L2.230769230769231,237.5428974909848L4.461538461538462,235.87778571742317L6.6923076923076925,236.40066499314102L8.923076923076923,237.3001608197523L11.153846153846155,238.60776754671733L13.384615384615385,239.51680445132968L15.615384615384617,240.8350170394874L17.846153846153847,242.72730811126965L20.076923076923077,243.98432220963105L22.30769230769231,246.14403970441415L24.53846153846154,246.87510877787008L26.76923076923077,247.6173564454496L29,249.27131851765242L31.230769230769234,248.2724406591108L33.46153846153846,247.1547507193709L35.69230769230769,246.54509144277375L37.92307692307693,250.13865328478371L40.15384615384615,249.60899265933259L42.38461538461539,248.4289703301689L44.61538461538462,250.11456915648253L46.84615384615385,250.15146320718083L49.07692307692308,249.76587278834694L51.307692307692314,249.18040445013767L53.53846153846154,250.36495125136344L55.769230769230774,248.28703078989196L58,249.5571373373539L60.23076923076923,251.55223041476611L62.46153846153847,250.02737734698007L64.6923076923077,249.75354376914527L66.92307692307692,249.96895034655495L69.15384615384616,251.26380080330563L71.38461538461539,251.42717471270453L73.61538461538461,252.0635290944731L75.84615384615385,254.02978280643114L78.07692307692308,251.77303076920674L80.3076923076923,253.09138594634945L82.53846153846153,252.08727826593702L84.76923076923077,253.19807651172917L87,254.01791894779905L89.23076923076924,254.88350073772858L91.46153846153845,254.36824042315706L93.6923076923077,254.7866454390686L95.92307692307692,253.7767151584017L98.15384615384616,255.67390360502768L100.38461538461539,255.90377511186242L102.61538461538463,255.20971625532746L104.84615384615384,253.4521053867264L107.07692307692308,251.75170089148213L109.3076923076923,253.02237529530677L111.53846153846155,253.33915660437032L113.76923076923077,252.4172728937888L116,252.2560549703152L118.23076923076923,251.44556908382788L120.46153846153847,248.9518610025208L122.6923076923077,248.88881223450062L124.92307692307693,248.95311772831946L127.15384615384615,249.8439666885073L129.3846153846154,248.58390389036458L131.6153846153846,250.94833250188367L133.84615384615384,249.48739834342726L136.07692307692307,249.29770319232702L138.30769230769232,248.1410851084665L140.53846153846155,247.61909447740814L142.76923076923077,248.12144711461593L145,247.3084325564368L147.23076923076923,249.10342297132215L149.46153846153845,249.01415564167536L151.6923076923077,247.91889325729397L153.92307692307693,245.64035780118866L156.15384615384616,245.2181924728453L158.38461538461536,244.74555324808782L160.6153846153846,245.41489173429972L162.84615384615384,244.51299057915077L165.07692307692307,243.79568558954912L167.3076923076923,243.63012046013924L169.53846153846155,243.23353957889884L171.76923076923077,242.73303907433453L174,242.20494515082842L176.23076923076923,241.37761092633215L178.46153846153848,241.35969235290105L180.6923076923077,241.69242681750274L182.9230769230769,239.62374886255608L185.15384615384613,240.72287385662696L187.3846153846154,242.2627457695473L189.6153846153846,242.1806123661078L191.84615384615384,241.09369231360665L194.07692307692307,242.1329163582168L196.30769230769232,241.11863416310536L198.53846153846155,241.8379721920622L200.76923076923077,239.55973808670876L203,237.22250941387773L205.23076923076925,240.49760799238197L207.46153846153845,239.87751011972472L209.69230769230768,239.45734508530137L211.9230769230769,238.9044912584605L214.15384615384616,239.07462796688435L216.3846153846154,239.2563065325989L218.6153846153846,238.12223031579373L220.84615384615384,239.11410214553644L223.0769230769231,236.06879966263554L225.30769230769232,235.8790852300557L227.53846153846155,235.76316530280025L229.76923076923075,235.58414493637852L232,236.6871374931676L234.23076923076923,236.27459529409822L236.46153846153845,234.4024879266897L238.69230769230768,234.3618698003466L240.92307692307693,233.51790020885426L243.15384615384616,232.9224542125518L245.3846153846154,236.20908460557504L247.6153846153846,235.02141587068246L249.84615384615387,235.27599964490065L252.0769230769231,235.43403778714952L254.3076923076923,235.62238737564303L256.53846153846155,235.73602819128672L258.7692307692308,234.97584180228196L261,230.1903534242319L263.2307692307692,229.12965838771305L265.46153846153845,226.01056216483815L267.6923076923077,225.86059667794294L269.9230769230769,223.9018517156065L272.15384615384613,221.93644550107948L274.38461538461536,220.59448348856108L276.61538461538464,216.43797097769814L278.84615384615387,212.34776936463652L281.0769230769231,207.88029158849739L283.3076923076923,200.82669019164967L285.53846153846155,199.7756521064554L287.7692307692308,196.83147419500065L290,194.80834640041303L292.2307692307692,190.96444359878254L294.46153846153845,187.63174892577456L296.6923076923077,186.04536655494786L298.9230769230769,181.26952340394217L301.1538461538462,175.78941966284012L303.3846153846154,170.39919073393486L305.61538461538464,167.625869486725L307.84615384615387,162.16284609798464L310.0769230769231,159.89306304695847L312.3076923076923,156.57029928281725L314.5384615384615,150.4762470500024L316.7692307692307,138.69154686216967L319,143.00086704806927L321.2307692307692,140.18320385295823L323.46153846153845,135.15525048524225L325.6923076923077,131.732255469273L327.9230769230769,129.06025489697512L330.15384615384613,127.38611791857822L332.38461538461536,123.45355881229709L334.6153846153846,123.27909888109512L336.84615384615387,121.81169758676089L339.0769230769231,119.13308058099739L341.3076923076923,117.38470473982849L343.53846153846155,115.60107762028986L345.7692307692308,111.418232807317L348,106.49542390310265L350.2307692307692,101.87133847561105L352.46153846153845,98.068976713291L354.69230769230774,90.21441019515328L356.92307692307696,93.70468145526468L359.1538461538462,96.47590794552511L361.3846153846154,91.06475076343163L363.6153846153846,85.23682236883484L365.8461538461538,81.38272751436952L368.07692307692304,81.48988667336782L370.30769230769226,69.64659255640736L372.53846153846155,70.9154380928413L374.7692307692308,77.13322296775203L377,69.92321983301473L379.2307692307692,66.99082483591172L381.46153846153845,63.69120621525275L383.6923076923077,60.368692219104254L385.9230769230769,64.02073663044867L388.15384615384613,62.67950965971637L390.3846153846154,55.5738912802511L392.61538461538464,55.75226931671157L394.84615384615387,56.773179403108266L397.0769230769231,55.87491178182206L399.3076923076923,52.081709185105055L401.53846153846155,55.505587227858044L403.7692307692308,56.0156757745289L406,58.55775847032009L408.2307692307693,55.34916081006664L410.4615384615385,58.142152379880706L412.6923076923077,47.47830850625413L414.9230769230769,47.502606346632675L417.15384615384613,46.33078679053888L419.38461538461536,41.784284547748L421.6153846153846,39.0367944995414L423.8461538461538,34.890489323234824L426.0769230769231,13.300001190129855L428.3076923076923,16.10535215607817L430.53846153846155,21.478256024388568L432.7692307692308,16.00817433607778L435,7.817291311566112L437.2307692307692,9.616960897940613L439.46153846153845,12.819527391529835L441.6923076923077,29.720123420211838L443.9230769230769,22.264741114860655L446.1538461538462,14.073967029528923L448.3846153846154,17.416851888039286L450.61538461538464,17.682238987217747L452.84615384615387,12.834874016645482L455.0769230769231,28.500186393760526L457.3076923076923,30.657455416320715L459.5384615384615,48.55900264879808L461.7692307692307,54.77663461579574L464,53.21602158566462L466.2307692307692,51.00597974662837L468.46153846153845,62.21140097138627L470.6923076923077,63.966514920221314L472.9230769230769,63.95741412461969L475.15384615384613,61.79656147400705L477.38461538461536,62.647753206884964L479.6153846153846,64.66908369072243L481.84615384615387,65.27497321747005L484.0769230769231,65.11167444643272L486.3076923076923,70.65688576461764L488.53846153846155,74.50115638653716L490.7692307692308,89.1438120970244L493,94.58943828224086L495.2307692307692,100.95790229875385L497.46153846153845,119.45886196200352L499.69230769230774,125.80441340553826L501.92307692307696,130.55327219056863L504.1538461538462,131.09852118689392L506.3846153846154,130.25586625366373L508.6153846153846,131.0472557173959L510.8461538461538,136.07506465277726L513.0769230769231,139.59625028746686L515.3076923076923,140.76743773405445L517.5384615384615,139.86755362036013L519.7692307692308,140.25979940947818L522,146.95416742403532L524.2307692307693,149.68760802544134L526.4615384615385,152.74468659213858L528.6923076923077,152.0296227376631L530.9230769230769,146.62257014881592L533.1538461538461,139.7284894162875L535.3846153846154,140.29310233671922L537.6153846153846,139.8024777400905L539.8461538461538,139.2678203454177L542.0769230769231,142.39101224350293L544.3076923076923,139.31059376288115L546.5384615384615,148.15395718456432L548.7692307692307,161.09158263964144L551,157.93133057883875L553.2307692307693,163.48071450851953L555.4615384615385,166.1260825570561" stroke="#f58518" stroke-width="2" opacity="1"/></g></g><path class="foreground" aria-hidden="true" d="" display="none"/></g><g transform="translate(0,0)"><path class="background" aria-hidden="true" d="M0,0h580v270h-580Z"/><g><g class="mark-line role-mark marks" clip-path="url(#clip71)" role="graphics-object" aria-roledescription="line mark container"><path aria-label="variable: NH; index: 0; value: −0.49713552206" role="graphics-symbol" aria-roledescription="line mark" d="M0,232.8302686164492L2.230769230769231,234.40761500395666L4.461538461538462,242.9932407461206L6.6923076923076925,242.3762104897479L8.923076923076923,243.92954667894702L11.153846153846155,242.56378064641984L13.384615384615385,242.44071412642356L15.615384615384617,244.3145106945861L17.846153846153847,244.9310929474798L20.076923076923077,245.52605966437946L22.30769230769231,245.31448448044222L24.53846153846154,244.49368987861288L26.76923076923077,246.53823177182923L29,246.83505252233093L31.230769230769234,247.22437410630164L33.46153846153846,247.36442474852345L35.69230769230769,246.77519135917726L37.92307692307693,248.11723216276727L40.15384615384615,247.42180030671403L42.38461538461539,247.6784232549098L44.61538461538462,247.10205800207132L46.84615384615385,246.8794315028158L49.07692307692308,246.80668501694356L51.307692307692314,246.2290892325017L53.53846153846154,243.43469060400176L55.769230769230774,244.42584277388383L58,244.07098943096415L60.23076923076923,242.92741038272234L62.46153846153847,243.85434804356316L64.6923076923077,244.10403019129387L66.92307692307692,243.9390842647285L69.15384615384616,244.92712099470702L71.38461538461539,245.0449440300047L73.61538461538461,244.50683399754422L75.84615384615385,244.36072126112242L78.07692307692308,243.67774796457022L80.3076923076923,244.40751807402825L82.53846153846153,245.970114315412L84.76923076923077,245.42129343761655L87,245.06040024442677L89.23076923076924,245.48082022204363L91.46153846153845,245.0622346445212L93.6923076923077,245.01703153988575L95.92307692307692,244.16549997272486L98.15384615384616,244.91698861065106L100.38461538461539,244.26928287669946L102.61538461538463,244.69339609139638L104.84615384615384,244.79591983174655L107.07692307692308,244.78410810983624L109.3076923076923,244.5092781295699L111.53846153846155,245.32644822288816L113.76923076923077,245.42227503069014L116,245.2486926306392L118.23076923076923,245.18745235666296L120.46153846153847,245.09111372843535L122.6923076923077,245.6375058219315L124.92307692307693,247.01414979861767L127.15384615384615,246.93415542950024L129.3846153846154,246.64600256728062L131.6153846153846,246.92439458545203L133.84615384615384,246.99146305356754L136.07692307692307,246.89036764217218L138.30769230769232,246.57368194164815L140.53846153846155,246.932920865354L142.76923076923077,246.74223732512883L145,246.91333072640367L147.23076923076923,246.15748324954234L149.46153846153845,245.36418350857008L151.6923076923077,244.89224772310567L153.92307692307693,244.6820755373772L156.15384615384616,244.72889989313737L158.38461538461536,243.47038784876423L160.6153846153846,242.7591607926159L162.84615384615384,242.04221440009675L165.07692307692307,241.63500375348283L167.3076923076923,241.2880180394147L169.53846153846155,240.03656608444817L171.76923076923077,239.468241499708L174,239.49011058307158L176.23076923076923,239.10857712721122L178.46153846153848,238.83125501427253L180.6923076923077,239.1146909199739L182.9230769230769,239.0833120299566L185.15384615384613,239.79618468019132L187.3846153846154,239.5319806230643L189.6153846153846,239.16413823540282L191.84615384615384,238.97805337754616L194.07692307692307,237.87470874552614L196.30769230769232,237.16532585274004L198.53846153846155,236.52983508827506L200.76923076923077,236.2006970640225L203,235.94476146784956L205.23076923076925,234.74466552296568L207.46153846153845,231.96588645216548L209.69230769230768,231.59862811541274L211.9230769230769,230.33694092391923L214.15384615384616,229.28147202478058L216.3846153846154,227.4808199655164L218.6153846153846,225.53635343752387L220.84615384615384,224.98302989579605L223.0769230769231,225.64885349590938L225.30769230769232,221.52300957023982L227.53846153846155,221.94764627418687L229.76923076923075,221.67387207270224L232,221.82356150742663L234.23076923076923,221.70866940339138L236.46153846153845,219.92740492690487L238.69230769230768,218.35297910630084L240.92307692307693,220.1531509346228L243.15384615384616,219.60189147117885L245.3846153846154,219.62570859850854L247.6153846153846,218.9807047464728L249.84615384615387,219.17803355867767L252.0769230769231,220.92845214050016L254.3076923076923,220.91303429031464L256.53846153846155,220.15800554541804L258.7692307692308,219.74281119627219L261,218.6583133535579L263.2307692307692,217.38119574258718L265.46153846153845,215.499520706775L267.6923076923077,213.06899880112684L269.9230769230769,212.13567080766776L272.15384615384613,210.42891753251638L274.38461538461536,208.7445229793L276.61538461538464,208.2756877392071L278.84615384615387,206.8132043219864L281.0769230769231,206.5567588615062L283.3076923076923,205.73381896354L285.53846153846155,202.8398717939068L287.7692307692308,201.1214000560003L290,199.2203736956986L292.2307692307692,197.0307016536793L294.46153846153845,194.6636740630868L296.6923076923077,191.13898744723537L298.9230769230769,188.198470535094L301.1538461538462,184.29262159908623L303.3846153846154,180.28274416565097L305.61538461538464,175.38341650490636L307.84615384615387,172.65742902950737L310.0769230769231,169.69645087911178L312.3076923076923,167.98349798624625L314.5384615384615,164.89885476211774L316.7692307692307,163.30934280977792L319,161.8014273920212L321.2307692307692,160.4085044101607L323.46153846153845,157.7184944899236L325.6923076923077,155.61798137965803L327.9230769230769,153.9342045905349L330.15384615384613,154.5308139280452L332.38461538461536,151.04072763977422L334.6153846153846,144.34171212612293L336.84615384615387,141.8526186175989L339.0769230769231,139.3598815571952L341.3076923076923,135.9252512299179L343.53846153846155,129.03868623209073L345.7692307692308,122.5587530099724L348,118.07714783041072L350.2307692307692,118.8209083236233L352.46153846153845,115.24187407133616L354.69230769230774,110.25195289924443L356.92307692307696,106.79134719040108L359.1538461538462,104.55722651237643L361.3846153846154,96.5674390845892L363.6153846153846,91.59500783461225L365.8461538461538,83.29072729235988L368.07692307692304,79.16471922927592L370.30769230769226,75.70665473951657L372.53846153846155,73.29116787620045L374.7692307692308,62.90636220269289L377,65.74913685875795L379.2307692307692,63.68947144365508L381.46153846153845,63.24093788172535L383.6923076923077,61.546993284800195L385.9230769230769,60.76599693853623L388.15384615384613,58.70980880279641L390.3846153846154,58.940458704386494L392.61538461538464,55.94329601208637L394.84615384615387,60.65315247227582L397.0769230769231,61.1736365530537L399.3076923076923,61.27972067743443L401.53846153846155,59.14000629457216L403.7692307692308,50.049280372131776L406,57.76474591987048L408.2307692307693,52.55002301722327L410.4615384615385,49.94433805492977L412.6923076923077,42.15914324496949L414.9230769230769,35.42110240990018L417.15384615384613,33.54834013696642L419.38461538461536,36.22714686219831L421.6153846153846,25.9300422200278L423.8461538461538,29.903893528737097L426.0769230769231,21.63934201731907L428.3076923076923,25.871650914844746L430.53846153846155,30.213145957855183L432.7692307692308,33.43011314597441L435,35.34188151877026L437.2307692307692,45.073368104643905L439.46153846153845,46.13683985547021L441.6923076923077,51.20519337135733L443.9230769230769,51.15926832027231L446.1538461538462,53.86346963685554L448.3846153846154,55.054550336734565L450.61538461538464,58.762289511173066L452.84615384615387,58.5713520546751L455.0769230769231,60.766767111673076L457.3076923076923,63.35189893961653L459.5384615384615,68.669295813859L461.7692307692307,68.78155046918508L464,68.62839362495353L466.2307692307692,71.86349455247678L468.46153846153845,73.97039919201717L470.6923076923077,74.10353056370802L472.9230769230769,74.30347652658831L475.15384615384613,78.35753449612491L477.38461538461536,77.30759651382199L479.6153846153846,80.32745367133755L481.84615384615387,80.1866856724054L484.0769230769231,82.94746373231126L486.3076923076923,88.01753104357074L488.53846153846155,93.60319622909822L490.7692307692308,95.02121822289092L493,100.4425378498256L495.2307692307692,101.28453003489689L497.46153846153845,105.42286182198207L499.69230769230774,109.18155640954427L501.92307692307696,115.66480066099324L504.1538461538462,115.8579651210831L506.3846153846154,118.9285596750194L508.6153846153846,122.33144978580464L510.8461538461538,124.06878558782692L513.0769230769231,126.17626020060548L515.3076923076923,123.68556842038849L517.5384615384615,122.52518108002938L519.7692307692308,126.71322770212825L522,128.43589337099317L524.2307692307693,129.51593382770858L526.4615384615385,130.48265704697067L528.6923076923077,129.6502202736524L530.9230769230769,135.57292658540578L533.1538461538461,135.51403195424564L535.3846153846154,135.23174816908315L537.6153846153846,135.520596010054L539.8461538461538,137.41176036917258L542.0769230769231,138.86722066447052L544.3076923076923,141.63766645646876L546.5384615384615,141.6706872693716L548.7692307692307,143.39585228264326L551,146.43116863315856L553.2307692307693,145.89002843357216L555.4615384615385,145.21636951224295" stroke="#e45756" stroke-width="2" opacity="1"/></g></g><path class="foreground" aria-hidden="true" d="" display="none"/></g></g><g class="mark-group role-legend" role="graphics-symbol" aria-roledescription="legend" aria-label="Symbol legend for stroke color with 3 values: MD, ME, NH"><g transform="translate(598,0)"><path class="background" aria-hidden="true" d="M0,0h33v37h-33Z" pointer-events="none"/><g><g class="mark-group role-legend-entry"><g transform="translate(0,0)"><path class="background" aria-hidden="true" d="M0,0h0v0h0Z" pointer-events="none"/><g><g class="mark-group role-scope" role="graphics-object" aria-roledescription="group mark container"><g transform="translate(0,0)"><path class="background" aria-hidden="true" d="M0,0h32.11328125v11h-32.11328125Z" pointer-events="none" opacity="1"/><g><g class="mark-symbol role-legend-symbol" pointer-events="none"><path transform="translate(6,6)" d="M-5,0L5,0" stroke="#4c78a8" stroke-width="1.5" opacity="1"/></g><g class="mark-text role-legend-label" pointer-events="none"><text text-anchor="start" transform="translate(16,9)" font-family="IBM Plex Serif, serif" font-size="10px" fill="#262730" opacity="1">MD</text></g></g><path class="foreground" aria-hidden="true" d="" pointer-events="none" display="none"/></g><g transform="translate(0,13)"><path class="background" aria-hidden="true" d="M0,0h32.11328125v11h-32.11328125Z" pointer-events="none" opacity="1"/><g><g class="mark-symbol role-legend-symbol" pointer-events="none"><path transform="translate(6,6)" d="M-5,0L5,0" stroke="#f58518" stroke-width="1.5" opacity="1"/></g><g class="mark-text role-legend-label" pointer-events="none"><text text-anchor="start" transform="translate(16,9)" font-family="IBM Plex Serif, serif" font-size="10px" fill="#262730" opacity="1">ME</text></g></g><path class="foreground" aria-hidden="true" d="" pointer-events="none" display="none"/></g><g transform="translate(0,26)"><path class="background" aria-hidden="true" d="M0,0h32.11328125v11h-32.11328125Z" pointer-events="none" opacity="1"/><g><g class="mark-symbol role-legend-symbol" pointer-events="none"><path transform="translate(6,6)" d="M-5,0L5,0" stroke="#e45756" stroke-width="1.5" opacity="1"/></g><g class="mark-text role-legend-label" pointer-events="none"><text text-anchor="start" transform="translate(16,9)" font-family="IBM Plex Serif, serif" font-size="10px" fill="#262730" opacity="1">NH</text></g></g><path class="foreground" aria-hidden="true" d="" pointer-events="none" display="none"/></g></g></g><path class="foreground" aria-hidden="true" d="" pointer-events="none" display="none"/></g></g></g><path class="foreground" aria-hidden="true" d="" pointer-events="none" display="none"/></g></g></g><path class="foreground" aria-hidden="true" d="" display="none"/></g></g></g><defs><clipPath id="clip69"><rect x="0" y="0" width="580" height="270"/></clipPath><clipPath id="clip70"><rect x="0" y="0" width="580" height="270"/></clipPath><clipPath id="clip71"><rect x="0" y="0" width="580" height="270"/></clipPath></defs></svg>