<svg xmlns="http://www.w3.org/2000/svg" xmlns:xlink="http://www.w3.org/1999/xlink" version="1.1" class="marks" width="660" height="300" viewBox="0 0 660 300"><rect width="660" height="300" fill="#ffffff"/><g fill="none" stroke-miterlimit="10" transform="translate(26,5)"><g class="mark-group role-frame root" role="graphics-object" aria-roledescription="group mark container"><g transform="translate(0,0)"><path class="background" aria-hidden="true" d="M0.5,0.5h582v270h-582Z" stroke="#ddd"/><g><g class="mark-group role-axis" aria-hidden="true"><g transform="translate(0.5,270.5)"><path class="background" aria-hidden="true" d="M0,0h0v0h0Z" pointer-events="none"/><g><g class="mark-rule role-axis-grid" pointer-events="none"><line transform="translate(0,-270)" x2="0" y2="270" stroke="rgba(38, 39, 48, 0.2)" stroke-width="1" opacity="1"/><line transform="translate(45,-270)" x2="0" y2="270" stroke="rgba(38, 39, 48, 0.2)" stroke-width="1" opacity="1"/><line transform="translate(90,-270)" x2="0" y2="270" stroke="rgba(38, 39, 48, 0.2)" stroke-width="1" opacity="1"/><line transform="translate(134,-270)" x2="0" y2="270" stroke="rgba(38, 39, 48, 0.2)" stroke-width="1" opacity="1"/><line transform="translate(179,-270)" x2="0" y2="270" stroke="rgba(38, 39, 48, 0.2)" stroke-width="1" opacity="1"/><line transform="translate(224,-270)" x2="0" y2="270" stroke="rgba(38, 39, 48, 0.2)" stroke-width="1" opacity="1"/><line transform="translate(269,-270)" x2="0" y2="270" stroke="rgba(38, 39, 48, 0.2)" stroke-width="1" opacity="1"/><line transform="translate(313,-270)" x2="0" y2="270" stroke="rgba(38, 39, 48, 0.2)" stroke-width="1" opacity="1"/><line transform="translate(358,-270)" x2="0" y2="270" stroke="rgba(38, 39, 48, 0.2)" stroke-width="1" opacity="1"/><line transform="translate(403,-270)" x2="0" y2="270" stroke="rgba(38, 39, 48, 0.2)" stroke-width="1" opacity="1"/><line transform="translate(448,-270)" x2="0" y2="270" stroke="rgba(38, 39, 48, 0.2)" stroke-width="1" opacity="1"/><line transform="translate(492,-270)" x2="0" y2="270" stroke="rgba(38, 39, 48, 0.2)" stroke-width="1" opacity="1"/><line transform="translate(537,-270)" x2="0" y2="270" stroke="rgba(38, 39, 48, 0.2)" stroke-width="1" opacity="1"/><line transform="translate(582,-270)" x2="0" y2="270" stroke="rgba(38, 39, 48, 0.2)" stroke-width="1" opacity="1"/></g></g><path class="foreground" aria-hidden="true" d="" pointer-events="none" display="none"/></g></g><g class="mark-group role-axis" aria-hidden="true"><g transform="translate(0.5,0.5)"><path class="background" aria-hidden="true" d="M0,0h0v0h0Z" pointer-events="none"/><g><g class="mark-rule role-axis-grid" pointer-events="none"><line transform="translate(0,270)" x2="582" y2="0" stroke="rgba(38, 39, 48, 0.2)" stroke-width="1" opacity="1"/><line transform="translate(0,225)" x2="582" y2="0" stroke="rgba(38, 39, 48, 0.2)" stroke-width="1" opacity="1"/><line transform="translate(0,180)" x2="582" y2="0" stroke="rgba(38, 39, 48, 0.2)" stroke-width="1" opacity="1"/><line transform="translate(0,135)" x2="582" y2="0" stroke="rgba(38, 39, 48, 0.2)" stroke-width="1" opacity="1"/><line transform="translate(0,90)" x2="582" y2="0" stroke="rgba(38, 39, 48, 0.2)" stroke-width="1" opacity="1"/><line transform="translate(0,45)" x2="582" y2="0" stroke="rgba(38, 39, 48, 0.2)" stroke-width="1" opacity="1"/><line transform="translate(0,0)" x2="582" y2="0" stroke="rgba(38, 39, 48, 0.2)" stroke-width="1" opacity="1"/></g></g><path class="foreground" aria-hidden="true" d="" pointer-events="none" display="none"/></g></g><g class="mark-group role-axis" role="graphics-symbol" aria-roledescription="axis" aria-label="X-axis for a linear scale with values from 0 to 260"><g transform="translate(0.5,270.5)"><path class="background" aria-hidden="true" d="M0,0h0v0h0Z" pointer-events="none"/><g><g class="mark-rule role-axis-tick" pointer-events="none"><line transform="translate(0,0)" x2="0" y2="5" stroke="#888" stroke-width="1" opacity="1"/><line transform="translate(45,0)" x2="0" y2="5" stroke="#888" stroke-width="1" opacity="1"/><line transform="translate(90,0)" x2="0" y2="5" stroke="#888" stroke-width="1" opacity="1"/><line transform="translate(134,0)" x2="0" y2="5" stroke="#888" stroke-width="1" opacity="1"/><line transform="translate(179,0)" x2="0" y2="5" stroke="#888" stroke-width="1" opacity="1"/><line transform="translate(224,0)" x2="0" y2="5" stroke="#888" stroke-width="1" opacity="1"/><line transform="translate(269,0)" x2="0" y2="5" stroke="#888" stroke-width="1" opacity="1"/><line transform="translate(313,0)" x2="0" y2="5" stroke="#888" stroke-width="1" opacity="1"/><line transform="translate(358,0)" x2="0" y2="5" stroke="#888" stroke-width="1" opacity="1"/><line transform="translate(403,0)" x2="0" y2="5" stroke="#888" stroke-width="1" opacity="1"/><line transform="translate(448,0)" x2="0" y2="5" stroke="#888" stroke-width="1" opacity="1"/><line transform="translate(492,0)" x2="0" y2="5" stroke="#888" stroke-width="1" opacity="1"/><line transform="translate(537,0)" x2="0" y2="5" stroke="#888" stroke-width="1" opacity="1"/><line transform="translate(582,0)" x2="0" y2="5" stroke="#888" stroke-width="1" opacity="1"/></g><g class="mark-text role-axis-label" pointer-events="none"><text text-anchor="start" transform="translate(0,15)" font-family="IBM Plex Serif, serif" font-size="10px" fill="#262730" opacity="1">0</text><text text-anchor="middle" transform="translate(44.769230769230774,15)" font-family="IBM Plex Serif, serif" font-size="10px" fill="#262730" opacity="1">20</text><text text-anchor="middle" transform="translate(89.53846153846155,15)" font-family="IBM Plex Serif, serif" font-size="10px" fill="#262730" opacity="1">40</text><text text-anchor="middle" transform="translate(134.30769230769232,15)" font-family="IBM Plex Serif, serif" font-size="10px" fill="#262730" opacity="1">60</text><text text-anchor="middle" transform="translate(179.0769230769231,15)" font-family="IBM Plex Serif, serif" font-size="10px" fill="#262730" opacity="1">80</text><text text-anchor="middle" transform="translate(223.84615384615387,15)" font-family="IBM Plex Serif, serif" font-size="10px" fill="#262730" opacity="1">100</text><text text-anchor="middle" transform="translate(268.61538461538464,15)" font-family="IBM Plex Serif, serif" font-size="10px" fill="#262730" opacity="1">120</text><text text-anchor="middle" transform="translate(313.38461538461536,15)" font-family="IBM Plex Serif, serif" font-size="10px" fill="#262730" opacity="1">140</text><text text-anchor="middle" transform="translate(358.1538461538462,15)" font-family="IBM Plex Serif, serif" font-size="10px" fill="#262730" opacity="1">160</text><text text-anchor="middle" transform="translate(402.9230769230769,15)" font-family="IBM Plex Serif, serif" font-size="10px" fill="#262730" opacity="1">180</text><text text-anchor="middle" transform="translate(447.69230769230774,15)" font-family="IBM Plex Serif, serif" font-size="10px" fill="#262730" opacity="1">200</text><text text-anchor="middle" transform="translate(492.46153846153845,15)" font-family="IBM Plex Serif, serif" font-size="10px" fill="#262730" opacity="1">220</text><text text-anchor="middle" transform="translate(537.2307692307693,15)" font-family="IBM Plex Serif, serif" font-size="10px" fill="#262730" opacity="1">240</text><text text-anchor="end" transform="translate(582,15)" font-family="IBM Plex Serif, serif" font-size="10px" fill="#262730" opacity="1">260</text></g><g class="mark-rule role-axis-domain" pointer-events="none"><line transform="translate(0,0)" x2="582" y2="0" stroke="#888" stroke-width="1" opacity="1"/></g></g><path class="foreground" aria-hidden="true" d="" pointer-events="none" display="none"/></g></g><g class="mark-group role-axis" role="graphics-symbol" aria-roledescription="axis" aria-label="Y-axis for a linear scale with values from −0.4 to 0.8"><g transform="translate(0.5,0.5)"><path class="background" aria-hidden="true" d="M0,0h0v0h0Z" pointer-events="none"/><g><g class="mark-rule role-axis-tick" pointer-events="none"><line transform="translate(0,270)" x2="-5" y2="0" stroke="#888" stroke-width="1" opacity="1"/><line transform="translate(0,225)" x2="-5" y2="0" stroke="#888" stroke-width="1" opacity="1"/><line transform="translate(0,180)" x2="-5" y2="0" stroke="#888" stroke-width="1" opacity="1"/><line transform="translate(0,135)" x2="-5" y2="0" stroke="#888" stroke-width="1" opacity="1"/><line transform="translate(0,90)" x2="-5" y2="0" stroke="#888" stroke-width="1" opacity="1"/><line transform="translate(0,45)" x2="-5" y2="0" stroke="#888" stroke-width="1" opacity="1"/><line transform="translate(0,0)" x2="-5" y2="0" stroke="#888" stroke-width="1" opacity="1"/></g><g class="mark-text role-axis-label" pointer-events="none"><text text-anchor="end" transform="translate(-7,273)" font-family="IBM Plex Serif, serif" font-size="10px" fill="#262730" opacity="1">−0.4</text><text text-anchor="end" transform="translate(-7,228)" font-family="IBM Plex Serif, serif" font-size="10px" fill="#262730" opacity="1">−0.2</text><text text-anchor="end" transform="translate(-7,183.00000000000003)" font-family="IBM Plex Serif, serif" font-size="10px" fill="#262730" opacity="1">0.0</text><text text-anchor="end" transform="translate(-7,138)" font-family="IBM Plex Serif, serif" font-size="10px" fill="#262730" opacity="1">0.2</text><text text-anchor="end" transform="translate(-7,93.00000000000001)" font-family="IBM Plex Serif, serif" font-size="10px" fill="#262730" opacity="1">0.4</text><text text-anchor="end" transform="translate(-7,48.00000000000002)" font-family="IBM Plex Serif, serif" font-size="10px" fill="#262730" opacity="1">0.6</text><text text-anchor="end" transform="translate(-7,3)" font-family="IBM Plex Serif, serif" font-size="10px" fill="#262730" opacity="1">0.8</text></g><g class="mark-rule role-axis-domain" pointer-events="none"><line transform="translate(0,270)" x2="0" y2="-270" stroke="#888" stroke-width="1" opacity="1"/></g></g><path class="foreground" aria-hidden="true" d="" pointer-events="none" display="none"/></g></g><g class="mark-group role-scope pathgroup" role="graphics-object" aria-roledescription="group mark container"><g transform="translate(0,0)"><path class="background" aria-hidden="true" d="M0,0h582v270h-582Z"/><g><g class="mark-line role-mark marks" clip-path="url(#clip31)" role="graphics-object" aria-roledescription="line mark container"><path aria-label="variable: CO; index: 0; value: −0.263315169862" role="graphics-symbol" aria-roledescription="line mark" d="M0,239.24591321897068L2.2384615384615385,238.81074672048436L4.476923076923077,237.9782542885974L6.7153846153846155,237.07008072653886L8.953846153846154,236.0862260343088L11.192307692307693,235.02669021190718L13.430769230769231,233.17250252270435L15.66923076923077,231.7913218970737L17.907692307692308,230.88314833501516L20.146153846153847,229.78577194752776L22.384615384615387,229.01004036326947L24.623076923076926,228.29106962663977L26.861538461538462,227.32613521695257L29.1,226.70176589303736L31.33846153846154,225.68007063572148L33.57692307692308,223.90156407669022L35.815384615384616,222.65282542885976L38.05384615384616,221.19596367305755L40.292307692307695,219.81478304742683L42.53076923076923,219.66342078708377L44.769230769230774,219.56881937436933L47.00769230769231,220.28779011099903L49.24615384615385,221.3473259334006L51.48461538461539,222.04737638748742L53.723076923076924,223.2393541876892L55.96153846153847,223.84480322906157L58.2,224.35565085771947L60.43846153846154,224.7340565085772L62.67692307692308,224.92325933400608L64.91538461538462,225.0367810292634L67.15384615384616,225.1692230070636L69.3923076923077,225.22598385469223L71.63076923076923,226.30443995963674L73.86923076923077,226.66392532795157L76.10769230769232,227.00449041372352L78.34615384615384,227.40181634712414L80.58461538461539,228.02618567103937L82.82307692307693,228.65055499495458L85.06153846153846,228.44243188698283L87.3,228.23430877901112L89.53846153846155,228.8208375378406L91.77692307692307,229.1992431886983L94.01538461538462,229.80469223007066L96.25384615384615,230.78854692230072L98.4923076923077,232.3210898082745L100.73076923076923,234.40232088799192L102.96923076923078,235.89702320887994L105.20769230769231,237.10792129162465L107.44615384615385,238.11069626639758L109.68461538461538,239.0567103935419L111.92307692307693,239.5675580221998L114.16153846153846,239.5675580221998L116.4,239.1513118062563L118.63846153846154,239.43511604439962L120.87692307692308,239.47295660948538L123.11538461538461,239.83244197780022L125.35384615384616,239.54863773965695L127.59230769230768,240.02164480322907L129.83076923076925,240.2297679112008L132.06923076923076,240.58925327951565L134.30769230769232,240.30544904137236L136.54615384615386,240.34328960645814L138.7846153846154,240.4757315842583L141.02307692307693,240.58925327951565L143.26153846153846,240.62709384460143L145.5,240.74061553985877L147.73846153846154,241.10010090817357L149.97692307692307,241.34606458123108L152.21538461538464,241.42174571140262L154.45384615384614,241.7623107971746L156.69230769230768,242.1596367305752L158.93076923076922,241.6109485368315L161.16923076923078,241.364984863774L163.40769230769232,241.25146316851664L165.64615384615385,241.23254288597377L167.88461538461536,241.19470232088798L170.12307692307692,240.1540867810293L172.36153846153846,239.73784056508578L174.6,240.2486881937437L176.83846153846153,240.2865287588295L179.0769230769231,240.07840565085775L181.31538461538463,239.87028254288597L183.55384615384614,239.87028254288597L185.79230769230767,240.68385469223008L188.03076923076924,240.4757315842583L190.26923076923077,239.62431886982847L192.5076923076923,239.28375378405653L194.74615384615385,239.07563067608478L196.9846153846154,238.6215438950555L199.22307692307692,238.4891019172553L201.46153846153845,237.77013118062567L203.7,237.6755297679112L205.93846153846155,237.22144298688195L208.1769230769231,236.16190716448034L210.41538461538462,235.2537336024218L212.65384615384613,234.49692230070636L214.8923076923077,233.0022199798184L217.13076923076923,231.58319878910194L219.36923076923077,229.59656912209888L221.6076923076923,228.19646821392533L223.84615384615387,226.758526740666L226.08461538461538,225.45302724520687L228.3230769230769,223.939404641776L230.56153846153845,223.08799192734614L232.8,222.29334006054492L235.03846153846155,221.61220988900104L237.27692307692308,220.40131180625633L239.5153846153846,219.37961654894048L241.75384615384615,218.18763874873866L243.9923076923077,217.01458123107972L246.23076923076923,215.21715438950557L248.46923076923076,212.7385973763875L250.70769230769233,210.335721493441L252.94615384615386,207.93284561049447L255.18461538461537,205.7380928355197L257.4230769230769,202.5027245206862L259.6615384615385,199.83496468213926L261.90000000000003,197.45100908173563L264.1384615384615,194.9535317860747L266.37692307692305,191.3775983854692L268.61538461538464,187.68814328960647L270.8538461538462,183.31755802219982L273.0923076923077,179.74162462159438L275.33076923076925,175.9197275479314L277.5692307692308,170.86801210898082L279.8076923076923,165.6270938446014L282.04615384615386,160.91594349142284L284.2846153846154,155.73178607467204L286.5230769230769,150.81251261352173L288.76153846153846,145.1553481331988L291,138.60893037336027L293.23846153846154,132.63012108980828L295.4769230769231,126.10262361251262L297.7153846153846,119.7832492431887L299.95384615384614,113.99364278506559L302.19230769230774,108.80948536831485L304.4307692307693,104.30645812310796L306.66923076923075,98.95201816347125L308.9076923076923,94.22194752774976L311.1461538461538,89.05671039354188L313.38461538461536,83.58874873864784L315.6230769230769,78.46135216952571L317.86153846153843,70.74187689202823L320.1,63.590010090817366L322.33846153846156,58.80317860746722L324.5769230769231,53.37305751765894L326.81538461538463,49.664682139253294L329.05384615384617,45.861705348133206L331.2923076923077,42.38037336024217L333.5307692307692,40.98027245206859L335.7692307692307,38.1611503531786L338.0076923076923,34.81226034308782L340.24615384615385,30.47951564076686L342.4846153846154,25.976488395560015L344.7230769230769,22.173511604439987L346.96153846153845,18.786781029263445L349.2,17.159636730575226L351.4384615384615,17.916448032290624L353.67692307692306,19.75171543895052L355.91538461538465,22.79788092835524L358.1538461538462,26.998183652875877L360.3923076923077,32.88239152371343L362.63076923076926,38.501715438950605L364.86923076923074,42.437134207870834L367.1076923076923,46.31579212916249L369.3461538461538,48.9646316851665L371.58461538461535,52.635166498486385L373.82307692307694,56.438143289606444L376.0615384615385,58.89778002018168L378.3,61.73582240161454L380.53846153846155,65.50095862764888L382.7769230769231,68.793087790111L385.0153846153846,72.80418768920285L387.25384615384615,76.56932391523715L389.4923076923077,80.27769929364277L391.7307692307693,84.40232088799189L393.9692307692308,89.11347124117057L396.2076923076923,94.92199798183655L398.44615384615383,99.93587285570135L400.68461538461537,103.94697275479314L402.9230769230769,107.97699293642783L405.16153846153844,111.19344096871848L407.4,114.71261352169525L409.63846153846157,118.00474268415742L411.8769230769231,120.3697780020182L414.11538461538464,123.24566094853685L416.3538461538462,126.9351160443996L418.5923076923077,129.92452068617558L420.83076923076925,133.70857719475282L423.0692307692307,136.7736629667003L425.30769230769226,139.27114026236126L427.54615384615386,141.71185671039356L429.7846153846154,143.62280524722502L432.0230769230769,145.8553985872856L434.26153846153846,147.76634712411703L436.5,148.86372351160446L438.73846153846154,150.79359233097878L440.9769230769231,151.758526740666L443.2153846153846,152.21261352169526L445.45384615384614,152.2882946518668L447.69230769230774,152.1747729566095L449.9307692307693,153.1586276488396L452.16923076923075,155.88314833501514L454.4076923076923,156.99944500504543L456.6461538461538,159.26987891019172L458.88461538461536,161.5213925327952L461.1230769230769,165.21084762865792L463.36153846153843,167.89752774974772L465.6,170.26256306760848L467.83846153846156,171.13289606458125L470.0769230769231,173.0816851664985L472.31538461538463,174.61422805247227L474.55384615384617,176.8846619576186L476.7923076923077,178.0955600403633L479.0307692307692,179.7037840565086L481.2692307692307,182.08773965691225L483.5076923076923,184.75549949545916L485.74615384615385,187.63138244197782L487.9846153846154,189.6558526740666L490.2230769230769,191.3208375378406L492.46153846153845,193.4777497477296L494.7,195.8427850655903L496.9384615384615,197.28072653884965L499.17692307692306,198.43486377396573L501.41538461538465,199.15383451059535L503.6538461538462,200.81881937436935L505.8923076923077,202.5973259334006L508.13076923076926,203.67578203834512L510.36923076923074,204.4704339051463L512.6076923076923,205.851614530777L514.8461538461538,207.68688193743697L517.0846153846154,208.670736629667L519.323076923077,209.52214934409687L521.5615384615385,209.8816347124117L523.8000000000001,210.7141271442987L526.0384615384615,211.56553985872858L528.276923076923,212.11422805247227L530.5153846153846,212.00070635721497L532.7538461538461,213.0413218970737L534.9923076923077,213.987336024218L537.2307692307693,214.78198789101918L539.4692307692308,215.61448032290616L541.7076923076924,216.29561049445005L543.9461538461538,216.4091321897074L546.1846153846154,217.39298688193745L548.4230769230769,218.11195761856712L550.6615384615385,219.19041372351163L552.9,220.1931886982846L555.1384615384616,221.46084762865792L557.376923076923,222.93662966700305" stroke="#4c78a8" stroke-width="2" opacity="1"/></g></g><path class="foreground" aria-hidden="true" d="" display="none"/></g><g transform="translate(0,0)"><path class="background" aria-hidden="true" d="M0,0h582v270h-582Z"/><g><g class="mark-line role-mark marks" clip-path="url(#clip32)" role="graphics-object" aria-roledescription="line mark container"><path aria-label="variable: IL; index: 0; value: −0.239531584006" role="graphics-symbol" aria-roledescription="line mark" d="M0,233.89460640125813L2.2384615384615385,233.73078894487L4.476923076923077,234.82508955354285L6.7153846153846155,235.9390482569823L8.953846153846154,236.84332061624488L11.192307692307693,237.53790663133066L13.430769230769231,238.68462882604774L15.66923076923077,239.51026880624403L17.907692307692308,240.4538573550398L20.146153846153847,239.883772606809L22.384615384615387,239.54303229752165L24.623076923076926,239.43818912543324L26.861538461538462,239.65442816786558L29.1,239.45129452194425L31.33846153846154,238.99915834231297L33.57692307692308,239.47750531496638L35.815384615384616,239.51026880624403L38.05384615384616,239.759271339954L40.292307692307695,239.66753356437664L42.53076923076923,239.35300404811136L44.769230769230774,239.02536913533507L47.00769230769231,239.01226373882403L49.24615384615385,238.75670850685853L51.48461538461539,238.49460057663748L53.723076923076924,237.98349011270642L55.96153846153847,237.73448757899644L58.2,237.68861869120775L60.43846153846154,238.23249264641643L62.67692307692308,238.00314820747303L64.91538461538462,238.14075487083906L67.15384615384616,238.8091300929027L69.3923076923077,239.4054256341556L71.63076923076923,239.32024055683374L73.86923076923077,239.31368785857825L76.10769230769232,238.57323295570376L78.34615384615384,238.1735183621167L80.58461538461539,237.7475929755075L82.82307692307693,236.98092727961094L85.06153846153846,235.72936191280542L87.3,235.19859335410786L89.53846153846155,234.78577336400969L91.77692307692307,235.02822319946415L94.01538461538462,235.20514605236338L96.25384615384615,234.47779654599998L98.4923076923077,233.65215656580366L100.73076923076923,233.65215656580366L102.96923076923078,233.04275562803974L105.20769230769231,232.6299356379416L107.44615384615385,232.29574802690976L109.68461538461538,232.3350642164429L111.92307692307693,233.0493083262953L114.16153846153846,233.6128403762705L116.4,233.9404752890468L118.63846153846154,234.80543145877627L120.87692307692308,234.90372193260916L123.11538461538461,234.64816670064366L125.35384615384616,234.2943209948452L127.59230769230768,233.56041879022632L129.83076923076925,233.42936482511578L132.06923076923076,232.93791245595133L134.30769230769232,232.78720039607424L136.54615384615386,233.02965023152868L138.7846153846154,233.26554736872765L141.02307692307693,233.11483530885053L143.26153846153846,233.18691498966132L145.5,232.69546262049684L147.73846153846154,232.7806476978187L149.97692307692307,232.57096135364185L152.21538461538464,232.62338293968608L154.45384615384614,232.6823572239858L156.69230769230768,232.78720039607424L158.93076923076922,232.859280076885L161.16923076923078,232.87238547339606L163.40769230769232,233.14104610187266L165.64615384615385,233.67836735882577L167.88461538461536,234.02566036636867L170.12307692307692,233.50144450592657L172.36153846153846,233.59973497975946L174.6,233.93392259079133L176.83846153846153,234.8381949500539L179.0769230769231,235.10030288027497L181.31538461538463,235.1330663715526L183.55384615384614,235.10030288027497L185.79230769230767,235.9456009552378L188.03076923076924,235.95870635174884L190.26923076923077,234.94303812214233L192.5076923076923,233.92081719428023L194.74615384615385,233.0820718175729L196.9846153846154,232.6299356379416L199.22307692307692,232.26953723388766L201.46153846153845,231.7453213734456L203.7,231.29318519381425L205.93846153846155,231.8042956577453L208.1769230769231,231.53563502926875L210.41538461538462,231.94190232111137L212.65384615384613,231.71255788216797L214.8923076923077,230.79518012639429L217.13076923076923,229.89090776713167L219.36923076923077,229.58293094912196L221.6076923076923,228.79660715845884L223.84615384615387,227.91854559221832L226.08461538461538,226.1362116667152L228.3230769230769,224.46527361155609L230.56153846153845,223.59376474357109L232.8,222.44704254885403L235.03846153846155,220.51399656347385L237.27692307692308,219.35416897224567L239.5153846153846,218.01741852811836L241.75384615384615,216.27440079214844L243.9923076923077,214.72796400384428L246.23076923076923,212.55246818300964L248.46923076923076,209.84620380347735L250.70769230769233,207.46102163846584L252.94615384615386,203.98153886478144L255.18461538461537,200.82313830561785L257.4230769230769,197.2650231528672L259.6615384615385,193.3792730873402L261.90000000000003,189.82771063284505L264.1384615384615,186.5710195998486L266.37692307692305,183.14395841220843L268.61538461538464,179.42857850132512L270.8538461538462,175.5362757375426L273.0923076923077,171.52602440516063L275.33076923076925,167.01121530710316L277.5692307692308,162.2080874858025L279.8076923076923,156.7300317441827L282.04615384615386,150.83260331420922L284.2846153846154,145.1907301162012L286.5230769230769,138.65113725718618L288.76153846153846,131.95427964003846L291,125.34260710021262L293.23846153846154,118.54090631097654L295.4769230769231,111.01840871363255L297.7153846153846,102.62440224830358L299.95384615384614,93.66686373299939L302.19230769230774,85.33183155197018L304.4307692307693,77.69793808428231L306.66923076923075,70.02472842706122L308.9076923076923,62.34496607158459L311.1461538461538,54.84212656900722L313.38461538461536,48.87261845822293L315.6230769230769,43.76806651716814L317.86153846153843,38.860095523779L320.1,33.88004484957917L322.33846153846156,29.961531292774563L324.5769230769231,26.09543932201417L326.81538461538463,24.476922852899236L329.05384615384617,23.297437166904533L331.2923076923077,23.330200658182182L333.5307692307692,25.178061566240483L335.7692307692307,27.799140868450966L338.0076923076923,29.201418295133497L340.24615384615385,31.311387133412907L342.4846153846154,33.2706439118153L344.7230769230769,35.688589568104376L346.96153846153845,38.172062206948745L349.2,40.63587675102658L351.4384615384615,43.54527477648016L353.67692307692306,48.119058158837404L355.91538461538465,52.437286309229144L358.1538461538462,56.60480239974375L360.3923076923077,59.75009756239624L362.63076923076926,63.12473716399225L364.86923076923074,65.16917901971635L367.1076923076923,67.02359262603026L369.3461538461538,67.59367737426103L371.58461538461535,69.15977225733181L373.82307692307694,70.69310364912488L376.0615384615385,73.91047849258824L378.3,76.09907970993392L380.53846153846155,79.05434662317616L382.7769230769231,81.83269068351923L385.0153846153846,86.31473629029914L387.25384615384615,89.53211113376243L389.4923076923077,92.11387424643972L391.7307692307693,93.42441389754497L393.9692307692308,95.49506654629121L396.2076923076923,97.70987855665902L398.44615384615383,101.66115560474125L400.68461538461537,103.66628127093226L402.9230769230769,105.08821679238139L405.16153846153844,106.77881294230714L407.4,109.06570463348575L409.63846153846157,111.65402044441859L411.8769230769231,114.01299181640793L414.11538461538464,115.46769082913477L416.3538461538462,117.2107085651047L418.5923076923077,119.14375455048493L420.83076923076925,121.81725543873956L423.0692307692307,123.88790808748584L425.30769230769226,125.0149721874363L427.54615384615386,126.4238023123744L429.7846153846154,127.79986894603492L432.0230769230769,129.7001514401375L434.26153846153846,132.37365232839213L436.5,134.6802021143373L438.73846153846154,136.5542738154178L440.9769230769231,139.2408801001835L443.2153846153846,141.40982322276264L445.45384615384614,142.60896700352393L447.69230769230774,143.38873809593153L449.9307692307693,144.66651425575913L452.16923076923075,146.09500247546384L454.4076923076923,148.44086845094216L456.6461538461538,149.9479890497132L458.88461538461536,151.69755948393865L461.1230769230769,153.56507848676355L463.36153846153843,156.2778955645514L465.6,158.7875789964179L467.83846153846156,160.97618021376363L470.0769230769231,163.28928269796432L472.31538461538463,166.42802516236134L474.55384615384617,169.3374231878149L476.7923076923077,172.75137897894402L479.0307692307692,176.20465095960628L481.2692307692307,179.9724524565338L483.5076923076923,183.6026472900952L485.74615384615385,186.62999388414832L487.9846153846154,189.65078777994586L490.2230769230769,192.38326295250025L492.46153846153845,194.53910067856836L494.7,196.3673034918601L496.9384615384615,197.84821329760902L499.17692307692306,200.01060372193263L501.41538461538465,202.54649794682123L503.6538461538462,205.08239217170984L505.8923076923077,207.7558930599645L508.13076923076926,210.23936569880888L510.36923076923074,212.9325246818301L512.6076923076923,215.37012843288582L514.8461538461538,217.93223345079656L517.0846153846154,220.31086291755253L519.323076923077,222.27011969595483L521.5615384615385,224.32766694819003L523.8000000000001,226.56213705332442L526.0384615384615,228.586920814282L528.276923076923,230.45443981710693L530.5153846153846,232.01398200192213L532.7538461538461,233.37694323907158L534.9923076923077,234.6350613041326L537.2307692307693,235.96525905000436L539.4692307692308,237.26269330459854L541.7076923076924,238.59289105047037L543.9461538461538,240.008273873664L546.1846153846154,241.69231732533422L548.4230769230769,243.33704458747124L550.6615384615385,245.06040422867463L552.9,246.54786673267904L555.1384615384616,247.48490258321928L557.376923076923,248.2974371669045" stroke="#f58518" stroke-width="2" opacity="1"/></g></g><path class="foreground" aria-hidden="true" d="" display="none"/></g><g transform="translate(0,0)"><path class="background" aria-hidden="true" d="M0,0h582v270h-582Z"/><g><g class="mark-line role-mark marks" clip-path="url(#clip33)" role="graphics-object" aria-roledescription="line mark container"><path aria-label="variable: MI; index: 0; value: −0.287222953977" role="graphics-symbol" aria-roledescription="line mark" d="M0,244.62516464471398L2.2384615384615385,244.70315424610052L4.476923076923077,244.78114384748702L6.7153846153846155,244.85913344887348L8.953846153846154,244.93712305025997L11.192307692307693,245.38772963604853L13.430769230769231,245.0931022530329L15.66923076923077,244.79847487001732L17.907692307692308,245.1710918544194L20.146153846153847,245.5437088388215L22.384615384615387,245.91632582322356L24.623076923076926,246.28894280762563L26.861538461538462,245.9596533795494L29.1,245.63036395147313L31.33846153846154,245.30107452339686L33.57692307692308,243.78461005199307L35.815384615384616,242.26814558058925L38.05384615384616,240.75168110918543L40.292307692307695,239.23521663778163L42.53076923076923,238.04804159445408L44.769230769230774,236.8608665511265L47.00769230769231,235.67369150779894L49.24615384615385,235.67369150779894L51.48461538461539,235.05844020797227L53.723076923076924,234.44318890814557L55.96153846153847,234.44318890814557L58.2,234.52984402079724L60.43846153846154,234.61649913344888L62.67692307692308,234.70315424610052L64.91538461538462,234.2958752166378L67.15384615384616,234.50384748700174L69.3923076923077,234.71181975736565L71.63076923076923,234.30454072790292L73.86923076923077,234.09656845753898L76.10769230769232,233.88859618717504L78.34615384615384,233.6806239168111L80.58461538461539,233.9665857885615L82.82307692307693,234.25254766031196L85.06153846153846,234.5385095320624L87.3,234.82447140381282L89.53846153846155,235.2924090121317L91.77692307692307,235.76034662045063L94.01538461538462,236.22828422876947L96.25384615384615,236.06363951473136L98.4923076923077,235.89899480069323L100.73076923076923,235.7343500866551L102.96923076923078,235.56970537261697L105.20769230769231,235.45705372616985L107.44615384615385,235.3444020797227L109.68461538461538,235.23175043327555L111.92307692307693,235.8123396880416L114.16153846153846,236.39292894280763L116.4,236.97351819757367L118.63846153846154,237.55410745233968L120.87692307692308,237.6927556325823L123.11538461538461,237.83140381282493L125.35384615384616,237.97005199306759L127.59230769230768,237.7707452339688L129.83076923076925,237.57143847487004L132.06923076923076,237.37213171577122L134.30769230769232,237.17282495667243L136.54615384615386,237.24214904679377L138.7846153846154,237.31147313691508L141.02307692307693,237.3807972270364L143.26153846153846,237.84006932409014L145.5,238.29934142114382L147.73846153846154,238.75861351819756L149.97692307692307,239.21788561525128L152.21538461538464,239.33053726169845L154.45384615384614,239.44318890814557L156.69230769230768,239.55584055459272L158.93076923076922,239.46051993067593L161.16923076923078,239.36519930675908L163.40769230769232,239.26987868284226L165.64615384615385,239.17455805892547L167.88461538461536,239.39986135181974L170.12307692307692,239.62516464471403L172.36153846153846,239.85046793760833L174.6,240.17109185441942L176.83846153846153,240.77767764298093L179.0769230769231,241.38426343154245L181.31538461538463,241.99084922010397L183.55384615384614,242.76207972270365L185.79230769230767,243.5333102253033L188.03076923076924,244.30454072790292L190.26923076923077,244.58183708838823L192.5076923076923,244.57317157712305L194.74615384615385,244.56450606585787L196.9846153846154,244.55584055459272L199.22307692307692,244.07057192374347L201.46153846153845,243.58530329289428L203.7,243.10003466204503L205.93846153846155,242.0601733102253L208.1769230769231,241.02031195840553L210.41538461538462,239.98045060658575L212.65384615384613,238.94058925476602L214.8923076923077,237.8920623916811L217.13076923076923,236.8435355285962L219.36923076923077,235.71701906412477L221.6076923076923,234.12256499133449L223.84615384615387,232.52811091854417L226.08461538461538,230.9336568457539L228.3230769230769,229.33920277296357L230.56153846153845,227.4241247833622L232.8,225.50904679376083L235.03846153846155,223.67195840554592L237.27692307692308,222.47611785095322L239.5153846153846,221.28027729636048L241.75384615384615,220.08443674176775L243.9923076923077,218.88859618717504L246.23076923076923,217.58010398613519L248.46923076923076,216.27161178509533L250.70769230769233,214.96311958405545L252.94615384615386,213.3859965337955L255.18461538461537,211.80887348353554L257.4230769230769,210.23175043327558L259.6615384615385,208.6546273830156L261.90000000000003,206.21095320623917L264.1384615384615,203.76727902946274L266.37692307692305,201.32360485268634L268.61538461538464,200.0237781629116L270.8538461538462,195.2924090121317L273.0923076923077,190.56103986135182L275.33076923076925,185.82967071057195L277.5692307692308,180.33573656845752L279.8076923076923,174.03590987868287L282.04615384615386,166.38426343154248L284.2846153846154,158.1693587521664L286.5230769230769,152.12949740034665L288.76153846153846,146.0896360485269L291,140.04977469670712L293.23846153846154,132.69275563258233L295.4769230769231,124.89379549393416L297.7153846153846,117.28547660311963L299.95384615384614,109.23521663778163L302.19230769230774,102.16415944540728L304.4307692307693,95.09310225303297L306.66923076923075,88.02204506065861L308.9076923076923,81.39292894280761L311.1461538461538,74.52117850953208L313.38461538461536,68.463986135182L315.6230769230769,63.13469670710575L317.86153846153843,57.5367764298094L320.1,51.93885615251304L322.33846153846156,46.34093587521666L324.5769230769231,42.294142114384755L326.81538461538463,39.39119584055463L329.05384615384617,37.04284228769504L331.2923076923077,34.97178509532062L333.5307692307692,33.15202772963605L335.7692307692307,31.332270363951462L338.0076923076923,29.51251299826696L340.24615384615385,27.094835355285973L342.4846153846154,25.162426343154255L344.7230769230769,23.403327556325863L346.96153846153845,22.432790294627424L349.2,22.051507798960156L351.4384615384615,21.67022530329289L353.67692307692306,21.288942807625652L355.91538461538465,23.056707105719234L358.1538461538462,24.954454072790288L360.3923076923077,27.909393414211493L362.63076923076926,30.353067590987923L364.86923076923074,32.50211438474871L367.1076923076923,34.651161178509554L369.3461538461538,36.80020797227037L371.58461538461535,39.573171577123055L373.82307692307694,43.18668977469671L376.0615384615385,46.25428076256504L378.3,50.56970537261705L380.53846153846155,55.84700173310228L382.7769230769231,61.12429809358751L385.0153846153846,66.40159445407284L387.25384615384615,71.80020797227041L389.4923076923077,76.28894280762569L391.7307692307693,80.30107452339689L393.9692307692308,82.78807625649915L396.2076923076923,84.31320623916812L398.44615384615383,85.83833622183711L400.68461538461537,87.36346620450608L402.9230769230769,90.55237435008667L405.16153846153844,92.71875216637783L407.4,95.75168110918547L409.63846153846157,98.78461005199307L411.8769230769231,101.81753899480074L414.11538461538464,104.85046793760834L416.3538461538462,107.88339688041594L418.5923076923077,108.86259965337958L420.83076923076925,110.14509532062392L423.0692307692307,111.02031195840559L425.30769230769226,112.5801039861352L427.54615384615386,114.989116117851L429.7846153846154,117.39812824956675L432.0230769230769,119.8071403812825L434.26153846153846,122.42412478336223L436.5,125.15376083188909L438.73846153846154,128.71528596187179L440.9769230769231,131.66155979202773L443.2153846153846,133.89726169844025L445.45384615384614,136.13296360485268L447.69230769230774,138.3686655112652L449.9307692307693,140.58703639514735L452.16923076923075,143.9492547660312L454.4076923076923,145.413726169844L456.6461538461538,148.28201039861352L458.88461538461536,151.56623916811094L461.1230769230769,154.85046793760836L463.36153846153843,158.13469670710572L465.6,162.22481802426344L467.83846153846156,165.8383362218371L470.0769230769231,170.02377816291164L472.31538461538463,173.2386828422877L474.55384615384617,176.39292894280763L476.7923076923077,179.54717504332754L479.0307692307692,182.70142114384748L481.2692307692307,184.94578856152515L483.5076923076923,186.97351819757364L485.74615384615385,188.86259965337953L487.9846153846154,190.2490814558059L490.2230769230769,191.834870017331L492.46153846153845,193.42065857885615L494.7,195.0064471403813L496.9384615384615,196.72221837088387L499.17692307692306,198.70662045060658L501.41538461538465,200.44838821490467L503.6538461538462,203.17802426343155L505.8923076923077,205.5350433275563L508.13076923076926,207.8920623916811L510.36923076923074,210.2490814558059L512.6076923076923,212.4501213171577L514.8461538461538,214.49518197573656L517.0846153846154,216.62689774696707L519.323076923077,218.22135181975736L521.5615384615385,219.64249566724436L523.8000000000001,221.06363951473136L526.0384615384615,222.48478336221837L528.276923076923,223.48998266897746L530.5153846153846,223.90592720970537L532.7538461538461,224.54717504332757L534.9923076923077,225.03244367417676L537.2307692307693,225.19708838821492L539.4692307692308,225.36173310225303L541.7076923076924,225.52637781629116L543.9461538461538,225.0757712305026L546.1846153846154,224.48651646447138L548.4230769230769,224.25254766031193L550.6615384615385,223.6546273830156L552.9,223.43798960138648L555.1384615384616,223.22135181975736L557.376923076923,223.00471403812824" stroke="#e45756" stroke-width="2" opacity="1"/></g></g><path class="foreground" aria-hidden="true" d="" display="none"/></g><g transform="translate(0,0)"><path class="background" aria-hidden="true" d="M0,0h582v270h-582Z"/><g><g class="mark-line role-mark marks" clip-path="url(#clip34)" role="graphics-object" aria-roledescription="line mark container"><path aria-label="variable: MN; index: 0; value: −0.209677232385" role="graphics-symbol" aria-roledescription="line mark" d="M0,227.17737728672347L2.2384615384615385,228.44073537402647L4.476923076923077,229.76522369136026L6.7153846153846155,230.3765259916682L8.953846153846154,231.0897120086941L11.192307692307693,231.49724687556602L13.430769230769231,231.55837710559683L15.66923076923077,231.45649338887884L17.907692307692308,231.92515848578157L20.146153846153847,232.80135844955626L22.384615384615387,233.39228400652058L24.623076923076926,233.43303749320776L26.861538461538462,233.65718166998735L29.1,234.28886071363885L31.33846153846154,234.51300489041842L33.57692307692308,234.55375837710562L35.815384615384616,234.0443397935157L38.05384615384616,233.55529795326936L40.292307692307695,233.41266074986416L42.53076923076923,233.41266074986416L44.769230769230774,232.80135844955626L47.00769230769231,232.4142003260279L49.24615384615385,231.7417677956892L51.48461538461539,231.2119724687557L53.723076923076924,230.76368411519653L55.96153846153847,230.45803296504258L58.2,230.25426553160662L60.43846153846154,229.68371671798587L62.67692307692308,228.9297772142728L64.91538461538462,228.60374932077525L67.15384615384616,227.91094004709294L69.3923076923077,227.299637746785L71.63076923076923,226.7087121898207L73.86923076923077,225.79175873935884L76.10769230769232,225.09894946567655L78.34615384615384,225.20083318239452L80.58461538461539,224.77292157217897L82.82307692307693,225.01744249230214L85.06153846153846,225.18045643905091L87.3,224.97668900561493L89.53846153846155,224.6099076254302L91.77692307692307,224.42651693533782L94.01538461538462,223.81521463502992L96.25384615384615,224.03935881180945L98.4923076923077,223.77446114834268L100.73076923076923,223.81521463502992L102.96923076923078,224.26350298858904L105.20769230769231,224.95631226227133L107.44615384615385,225.62874479261006L109.68461538461538,225.9140191994204L111.92307692307693,225.89364245607683L114.16153846153846,226.24004709291796L116.4,226.0566564028256L118.63846153846154,225.83251222604602L120.87692307692308,225.3434703857997L123.11538461538461,225.18045643905091L125.35384615384616,225.52686107589207L127.59230769230768,225.60836804926646L129.83076923076925,225.50648433254847L132.06923076923076,225.56761456257925L134.30769230769232,225.28234015576888L136.54615384615386,225.3638471291433L138.7846153846154,225.73062850932803L141.02307692307693,225.8732657127332L143.26153846153846,226.5456982430719L145.5,227.09587031334905L147.73846153846154,227.78867958703134L149.97692307692307,228.42035863068287L152.21538461538464,229.05203767433437L154.45384615384614,229.80597717804747L156.69230769230768,230.49878645172979L158.93076923076922,230.80443760188373L161.16923076923078,231.23234921209925L163.40769230769232,231.8844049990944L165.64615384615385,232.76060496286902L167.88461538461536,233.61642818330012L170.12307692307692,234.00358630682848L172.36153846153846,234.39074443035685L174.6,234.6963955805108L176.83846153846153,234.75752581054158L179.0769230769231,234.87978627060318L181.31538461538463,234.73714906719798L183.55384615384614,234.28886071363885L185.79230769230767,233.2292700597718L188.03076923076924,232.02704220249956L190.26923076923077,230.78406085854013L192.5076923076923,229.70409346132948L194.74615384615385,227.68679587031335L196.9846153846154,225.81213548270242L199.22307692307692,224.08011229849666L201.46153846153845,223.06127513131682L203.7,222.3073356276037L205.93846153846155,221.5533961238906L208.1769230769231,220.7994566201775L210.41538461538462,219.4613838072813L212.65384615384613,218.1233109943851L214.8923076923077,216.78523818148886L217.13076923076923,215.44716536859266L219.36923076923077,214.10909255569646L221.6076923076923,212.7710197428002L223.84615384615387,211.432946929904L226.08461538461538,210.0948741170078L228.3230769230769,208.75680130411158L230.56153846153845,207.14703857996741L232.8,204.82408983879733L235.03846153846155,202.37888063756566L237.27692307692308,202.62340155768882L239.5153846153846,202.35850389422208L241.75384615384615,202.09360623075528L243.9923076923077,201.82870856728854L246.23076923076923,200.0763086397392L248.46923076923076,198.32390871218985L250.70769230769233,196.26585763448654L252.94615384615386,193.4334903097265L255.18461538461537,191.39581597536682L257.4230769230769,189.3581416410071L259.6615384615385,187.32046730664737L261.90000000000003,185.64957435247237L264.1384615384615,183.79529070820504L266.37692307692305,181.9206303205941L268.61538461538464,176.1540119543561L270.8538461538462,173.01599347944216L273.0923076923077,169.87797500452817L275.33076923076925,166.7399565296142L277.5692307692308,163.47967759463867L279.8076923076923,159.52658938598083L282.04615384615386,154.88069190364067L284.2846153846154,153.57658032965045L286.5230769230769,147.46355732657128L288.76153846153846,141.35053432349213L291,135.23751132041298L293.23846153846154,128.92072088389787L295.4769230769231,121.34057236007972L297.7153846153846,113.37326571273321L299.95384615384614,105.26332186198155L302.19230769230774,97.39789893135303L304.4307692307693,89.53247600072454L306.66923076923075,81.66705307009603L308.9076923076923,72.00847672523096L311.1461538461538,62.94082593733019L313.38461538461536,54.64749139648613L315.6230769230769,46.04850570548815L317.86153846153843,38.71287810179317L320.1,31.377250498098196L322.33846153846156,24.041622894403222L324.5769230769231,19.558739358811817L326.81538461538463,16.318837167179858L329.05384615384617,14.158902372758602L331.2923076923077,12.915921028799215L333.5307692307692,12.89554428545556L335.7692307692307,12.875167542111909L338.0076923076923,12.854790798768345L340.24615384615385,11.591432711465364L342.4846153846154,11.346911791342219L344.7230769230769,13.54760007245069L346.96153846153845,14.40342329288178L349.2,16.563358087303005L351.4384615384615,18.72329288172432L353.67692307692306,20.883227676145665L355.91538461538465,26.44607860894765L358.1538461538462,31.254990038036578L360.3923076923077,34.49489222966854L362.63076923076926,39.14078971200868L364.86923076923074,43.58291976091287L367.1076923076923,48.025049809817126L369.3461538461538,52.46717985872125L371.58461538461535,58.25417496830283L373.82307692307694,64.26531425466408L376.0615384615385,69.72628147074806L378.3,76.2468393406992L380.53846153846155,82.70626698061946L382.7769230769231,89.16569462053978L385.0153846153846,95.62512226046005L387.25384615384615,100.57667089295421L389.4923076923077,105.6504799855099L391.7307692307693,109.80733562760373L393.9692307692308,113.35288896938965L396.2076923076923,115.30905633037491L398.44615384615383,117.26522369136029L400.68461538461537,119.2213910523456L402.9230769230769,122.52242347400836L405.16153846153844,124.4378373483065L407.4,127.43321861981528L409.63846153846157,130.55086035138564L411.8769230769231,133.66850208295602L414.11538461538464,136.78614381452635L416.3538461538462,139.90378554609677L418.5923076923077,141.28940409346134L420.83076923076925,143.8161202680674L423.0692307692307,146.03718529251947L425.30769230769226,148.237873573628L427.54615384615386,151.0091106683572L429.7846153846154,153.7803477630864L432.0230769230769,156.5515848578156L434.26153846153846,159.07830103242168L436.5,162.13481253396122L438.73846153846154,165.23207752218804L440.9769230769231,168.1255750769788L443.2153846153846,171.12095634848757L445.45384615384614,174.1163376199964L447.69230769230774,177.11171889150518L449.9307692307693,178.6195978989314L452.16923076923075,180.82028618003986L454.4076923076923,182.7560767976816L456.6461538461538,184.52885346857454L458.88461538461536,185.6291976091288L461.1230769230769,187.035192899837L463.36153846153843,188.44118819054523L465.6,189.84718348125338L467.83846153846156,191.64033689548995L470.0769230769231,193.53537402644452L472.31538461538463,195.18589023727586L474.55384615384617,197.3865785183844L476.7923076923077,199.2816156493389L479.0307692307692,201.17665278029344L481.2692307692307,204.3554247418946L483.5076923076923,206.43385256294152L485.74615384615385,208.43077341061402L487.9846153846154,210.63146169172254L490.2230769230769,212.42461510595908L492.46153846153845,214.21776852019562L494.7,216.01092193443216L496.9384615384615,217.17239630501723L499.17692307692306,218.65989856909982L501.41538461538465,219.92325665640283L503.6538461538462,220.9217170802391L505.8923076923077,221.65527984060859L508.13076923076926,222.3888426009781L510.36923076923074,223.1224053613476L512.6076923076923,223.20391233472196L514.8461538461538,223.3261727947836L517.0846153846154,223.38730302481437L519.323076923077,224.05973555515305L521.5615384615385,224.95631226227133L523.8000000000001,225.8528889693896L526.0384615384615,226.7494656765079L528.276923076923,228.60374932077525L530.5153846153846,229.54107951458073L532.7538461538461,229.98936786813985L534.9923076923077,230.43765622169897L537.2307692307693,230.82481434522734L539.4692307692308,231.2119724687557L541.7076923076924,231.599130592284L543.9461538461538,231.701014309002L546.1846153846154,232.23080963593551L548.4230769230769,233.2292700597718L550.6615384615385,233.9628328201413L552.9,234.75752581054158L555.1384615384616,235.5522188009419L557.376923076923,236.34691179134217" stroke="#72b7b2" stroke-width="2" opacity="1"/></g></g><path class="foreground" aria-hidden="true" d="" display="none"/></g><g transform="translate(0,0)"><path class="background" aria-hidden="true" d="M0,0h582v270h-582Z"/><g><g class="mark-line role-mark marks" clip-path="url(#clip35)" role="graphics-object" aria-roledescription="line mark container"><path aria-label="variable: NE; index: 0; value: −0.278897406622" role="graphics-symbol" aria-roledescription="line mark" d="M0,242.7519164899689L2.2384615384615385,243.26569890719296L4.476923076923077,243.44919262763005L6.7153846153846155,243.96297504485403L8.953846153846154,244.47675746207798L11.192307692307693,245.06393736747677L13.430769230769231,245.50432229652588L15.66923076923077,246.16489969009953L17.907692307692308,246.89887457184798L20.146153846153847,247.66954819768392L22.384615384615387,248.25672810308268L24.623076923076926,248.77051052030663L26.861538461538462,248.88060675256892L29.1,249.17419670526834L31.33846153846154,248.88060675256892L33.57692307692308,248.66041428804436L35.815384615384616,248.80720926439406L38.05384615384616,248.44022182351983L40.292307692307695,247.77964442994622L42.53076923076923,246.93557331593541L44.769230769230774,246.42179089871146L47.00769230769231,246.1282009460121L49.24615384615385,245.32082857608873L51.48461538461539,244.219866253466L53.723076923076924,243.59598760397978L55.96153846153847,243.96297504485403L58.2,244.40335997390312L60.43846153846154,244.3299624857283L62.67692307692308,244.18316750937856L64.91538461538462,243.74278258032948L67.15384615384616,242.8620127222313L69.3923076923077,241.76105039960856L71.63076923076923,240.329799380199L73.86923076923077,239.04534333713914L76.10769230769232,237.76088729407925L78.34615384615384,236.69662371554398L80.58461538461539,236.29293753058232L82.82307692307693,236.25623878649486L85.06153846153846,236.10944381014514L87.3,235.92595008970804L89.53846153846155,235.85255260153323L91.77692307692307,235.48556516065895L94.01538461538462,235.2653726961344L96.25384615384615,235.11857771978472L98.4923076923077,235.2653726961344L100.73076923076923,235.66905888109608L102.96923076923078,235.77915511335837L105.20769230769231,235.77915511335837L107.44615384615385,235.92595008970804L109.68461538461538,235.8158538574458L111.92307692307693,235.66905888109608L114.16153846153846,235.7057576251835L116.4,235.8892513456206L118.63846153846154,236.07274506605776L120.87692307692308,236.07274506605776L123.11538461538461,236.21954004240746L125.35384615384616,235.92595008970804L127.59230769230768,235.5589626488338L129.83076923076925,234.5313978143859L132.06923076923076,233.50383297993804L134.30769230769232,232.292774425053L136.54615384615386,231.33860707877997L138.7846153846154,231.08171587016798L141.02307692307693,231.30190833469254L143.26153846153846,231.08171587016798L145.5,231.52210079921713L147.73846153846154,231.30190833469254L149.97692307692307,231.15511335834285L152.21538461538464,231.04501712608058L154.45384615384614,230.64133094111892L156.69230769230768,230.01745229163268L158.93076923076922,229.65046485075845L161.16923076923078,229.06328494535964L163.40769230769232,229.35687489805906L165.64615384615385,229.83395857119558L167.88461538461536,230.0541510357201L170.12307692307692,229.90735605937044L172.36153846153846,230.34774098841953L174.6,230.5679334529441L176.83846153846153,230.2009460120698L179.0769230769231,229.50366987440876L181.31538461538463,229.09998368944707L183.55384615384614,229.06328494535964L185.79230769230767,228.73299624857285L188.03076923076924,227.63203392595008L190.26923076923077,226.7512640678519L192.5076923076923,225.17321807209265L194.74615384615385,223.7052683085957L196.9846153846154,221.79693361604959L199.22307692307692,219.81520143532867L201.46153846153845,218.75093785679334L203.7,218.09036046321972L205.93846153846155,217.13619311694669L208.1769230769231,217.2829880932964L210.41538461538462,217.02609688468442L212.65384615384613,216.18202577067362L214.8923076923077,215.264557168488L217.13076923076923,213.17272875550483L219.36923076923077,211.44788778339586L221.6076923076923,209.17256564997555L223.84615384615387,206.75044854020553L226.08461538461538,204.29163268634807L228.3230769230769,202.2365030174523L230.56153846153845,200.21807209264395L232.8,199.19050725819608L235.03846153846155,197.24547382156257L237.27692307692308,196.4014027075518L239.5153846153846,195.3004403849291L241.75384615384615,194.45636927091832L243.9923076923077,193.90588810960693L246.23076923076923,192.47463709019738L248.46923076923076,189.502038819116L250.70769230769233,187.1166204534334L252.94615384615386,183.85043222965263L255.18461538461537,181.42831511988257L257.4230769230769,177.61164573479044L259.6615384615385,173.35459142064917L261.90000000000003,169.9783069646061L264.1384615384615,168.25346599249718L266.37692307692305,166.1983363236014L268.61538461538464,163.15234056434514L270.8538461538462,158.05121513619312L273.0923076923077,152.25281357038006L275.33076923076925,145.79383461099334L277.5692307692308,139.26145816343177L279.8076923076923,131.37122818463544L282.04615384615386,122.67362583591587L284.2846153846154,114.78339585711959L286.5230769230769,107.73723699233405L288.76153846153846,101.71864296199637L291,96.28722883705758L293.23846153846154,89.64475615723372L295.4769230769231,83.11237970967215L297.7153846153846,76.24971456532379L299.95384615384614,69.38704942097539L302.19230769230774,62.59778176480184L304.4307692307693,56.35899526993963L306.66923076923075,51.62485728266189L308.9076923076923,47.221007992170954L311.1461538461538,42.89055618985482L313.38461538461536,38.56010438753871L315.6230769230769,35.77099983689449L317.86153846153843,32.90849779807536L320.1,30.37628445604307L322.33846153846156,27.660577393573615L324.5769230769231,25.38525526015334L326.81538461538463,24.17419670526832L329.05384615384617,25.71554395694018L331.2923076923077,26.853205023650258L333.5307692307692,28.761539716196413L335.7692307692307,30.816669385092098L338.0076923076923,32.7250040776382L340.24615384615385,35.66090360463221L342.4846153846154,38.00962322622737L344.7230769230769,40.468439080084806L346.96153846153845,43.29424237481645L349.2,46.45033436633503L351.4384615384615,50.560593704126575L353.67692307692306,56.285597781764835L355.91538461538465,60.98303702495515L358.1538461538462,64.54281520143533L360.3923076923077,67.55211221660414L362.63076923076926,70.19442179089872L364.86923076923074,72.61653890066873L367.1076923076923,74.81846354591423L369.3461538461538,76.43320828576091L371.58461538461535,79.22231283640514L373.82307692307694,83.51606589463385L376.0615384615385,87.55292774425054L378.3,92.50725819605287L380.53846153846155,99.002935899527L382.7769230769231,104.39765128037837L385.0153846153846,108.5446093622574L387.25384615384615,112.58147121187407L389.4923076923077,116.65503180557825L391.7307692307693,120.72859239928235L393.9692307692308,123.44429946175177L396.2076923076923,125.79301908334693L398.44615384615383,129.71978470070135L400.68461538461537,133.20616538900674L402.9230769230769,135.22459631381506L405.16153846153844,136.98613603001144L407.4,138.78437449029522L409.63846153846157,139.81193932474312L411.8769230769231,139.95873430109282L414.11538461538464,139.5183493720437L416.3538461538462,139.5183493720437L418.5923076923077,140.10552927744249L420.83076923076925,140.36242048605448L423.0692307692307,140.43581797422937L425.30769230769226,141.83037024955152L427.54615384615386,143.40841624531075L429.7846153846154,144.72957103245798L432.0230769230769,145.9039308432556L434.26153846153846,147.22508563040287L436.5,148.8031316261621L438.73846153846154,150.93165878323276L440.9769230769231,153.023487196216L443.2153846153846,153.977654542489L445.45384615384614,154.85842440058715L447.69230769230774,155.37220681781113L449.9307692307693,157.06034904583265L452.16923076923075,159.07877997064105L454.4076923076923,159.7760561083021L456.6461538461538,160.36323601370088L458.88461538461536,161.97798075354757L461.1230769230769,163.5560267493068L463.36153846153843,166.01484260316425L465.6,167.37269613439895L467.83846153846156,169.42782580329475L470.0769230769231,172.29032784211387L472.31538461538463,175.5932148099821L474.55384615384617,178.52911433697605L476.7923076923077,181.79530256075682L479.0307692307692,184.36421464687652L481.2692307692307,187.30011417387047L483.5076923076923,189.7956287718154L485.74615384615385,191.81405969662373L487.9846153846154,194.19947806230633L490.2230769230769,196.2546077312021L492.46153846153845,198.08954493557331L494.7,199.85108465176972L496.9384615384615,202.12640678519003L499.17692307692306,203.8879465013864L501.41538461538465,206.273364867069L503.6538461538462,208.0349045832654L505.8923076923077,210.56711792529768L508.13076923076926,213.2828249877671L510.36923076923074,216.03523079432395L512.6076923076923,218.0536617191323L514.8461538461538,220.98956124612624L517.0846153846154,223.0079921709346L519.323076923077,224.54933942260644L521.5615384615385,225.68700048931657L523.8000000000001,226.82466155602677L526.0384615384615,228.0724188549992L528.276923076923,229.32017615397163L530.5153846153846,229.7238623389333L532.7538461538461,229.98075354754528L534.9923076923077,231.00831838199318L537.2307692307693,231.70559451965426L539.4692307692308,232.292774425053L541.7076923076924,232.73315935410213L543.9461538461538,232.8432555863644L546.1846153846154,233.28364051541348L548.4230769230769,234.31120534986135L550.6615384615385,234.6414940466482L552.9,235.48556516065895L555.1384615384616,236.1461425542326L557.376923076923,236.65992497145655" stroke="#54a24b" stroke-width="2" opacity="1"/></g></g><path class="foreground" aria-hidden="true" d="" display="none"/></g><g transform="translate(0,0)"><path class="background" aria-hidden="true" d="M0,0h582v270h-582Z"/><g><g class="mark-line role-mark marks" clip-path="url(#clip36)" role="graphics-object" aria-roledescription="line mark container"><path aria-label="variable: WY; index: 0; value: −0.298454545455" role="graphics-symbol" aria-roledescription="line mark" d="M0,247.15227272727262L2.2384615384615385,246.86818181818182L4.476923076923077,246.44204545454545L6.7153846153846155,246.01590909090908L8.953846153846154,245.58977272727273L11.192307692307693,245.3056818181818L13.430769230769231,244.7375L15.66923076923077,244.16931818181817L17.907692307692308,243.74318181818182L20.146153846153847,243.175L22.384615384615387,242.60681818181817L24.623076923076926,242.03863636363639L26.861538461538462,240.9022727272727L29.1,240.33409090909092L31.33846153846154,239.7659090909091L33.57692307692308,238.91363636363636L35.815384615384616,237.91931818181817L38.05384615384616,237.35113636363636L40.292307692307695,236.64090909090908L42.53076923076923,237.2090909090909L44.769230769230774,237.35113636363636L47.00769230769231,237.91931818181817L49.24615384615385,238.34545454545454L51.48461538461539,239.0556818181818L53.723076923076924,239.33977272727273L55.96153846153847,239.7659090909091L58.2,239.19772727272726L60.43846153846154,238.91363636363636L62.67692307692308,238.4875L64.91538461538462,238.06136363636364L67.15384615384616,237.49318181818182L69.3923076923077,236.92499999999998L71.63076923076923,236.35681818181817L73.86923076923077,236.07272727272726L76.10769230769232,235.78863636363636L78.34615384615384,235.78863636363636L80.58461538461539,236.07272727272726L82.82307692307693,236.21477272727273L85.06153846153846,236.35681818181817L87.3,236.49886363636364L89.53846153846155,237.06704545454545L91.77692307692307,237.35113636363636L94.01538461538462,237.49318181818182L96.25384615384615,237.77727272727273L98.4923076923077,238.34545454545454L100.73076923076923,238.91363636363636L102.96923076923078,239.48181818181817L105.20769230769231,239.7659090909091L107.44615384615385,240.19204545454545L109.68461538461538,240.61818181818182L111.92307692307693,240.04999999999998L114.16153846153846,239.19772727272726L116.4,238.34545454545454L118.63846153846154,237.49318181818182L120.87692307692308,236.49886363636364L123.11538461538461,235.6465909090909L125.35384615384616,234.93636363636364L127.59230769230768,235.6465909090909L129.83076923076925,236.21477272727273L132.06923076923076,236.78295454545452L134.30769230769232,237.35113636363636L136.54615384615386,237.91931818181817L138.7846153846154,238.62954545454545L141.02307692307693,239.0556818181818L143.26153846153846,238.7715909090909L145.5,238.7715909090909L147.73846153846154,238.7715909090909L149.97692307692307,238.7715909090909L152.21538461538464,238.91363636363636L154.45384615384614,238.34545454545454L156.69230769230768,238.62954545454545L158.93076923076922,239.0556818181818L161.16923076923078,239.48181818181817L163.40769230769232,239.90795454545454L165.64615384615385,240.33409090909092L167.88461538461536,240.61818181818182L170.12307692307692,240.76022727272726L172.36153846153846,240.19204545454545L174.6,239.62386363636364L176.83846153846153,239.0556818181818L179.0769230769231,238.4875L181.31538461538463,237.91931818181817L183.55384615384614,236.49886363636364L185.79230769230767,235.78863636363636L188.03076923076924,235.07840909090908L190.26923076923077,234.6522727272727L192.5076923076923,233.79999999999998L194.74615384615385,232.94772727272726L196.9846153846154,232.09545454545454L199.22307692307692,232.2375L201.46153846153845,232.09545454545454L203.7,231.66931818181817L205.93846153846155,230.53295454545452L208.1769230769231,229.1125L210.41538461538462,227.69204545454545L212.65384615384613,226.2715909090909L214.8923076923077,224.28295454545454L217.13076923076923,221.15795454545454L219.36923076923077,217.89090909090908L221.6076923076923,213.7715909090909L223.84615384615387,210.6465909090909L226.08461538461538,207.5215909090909L228.3230769230769,204.3965909090909L230.56153846153845,202.26590909090908L232.8,201.9818181818182L235.03846153846155,202.26590909090908L237.27692307692308,202.97613636363639L239.5153846153846,203.40227272727273L241.75384615384615,203.8284090909091L243.9923076923077,204.25454545454548L246.23076923076923,201.83977272727273L248.46923076923076,198.99886363636364L250.70769230769233,196.0159090909091L252.94615384615386,191.75454545454545L255.18461538461537,187.20909090909092L257.4230769230769,182.66363636363636L259.6615384615385,176.41363636363636L261.90000000000003,171.5840909090909L264.1384615384615,166.0443181818182L266.37692307692305,160.64659090909092L268.61538461538464,156.66931818181817L270.8538461538462,151.41363636363639L273.0923076923077,146.15795454545457L275.33076923076925,143.03295454545457L277.5692307692308,138.77159090909092L279.8076923076923,136.0727272727273L282.04615384615386,131.24318181818182L284.2846153846154,127.69204545454545L286.5230769230769,123.85681818181823L288.76153846153846,120.0215909090909L291,115.61818181818181L293.23846153846154,109.93636363636367L295.4769230769231,102.26590909090912L297.7153846153846,96.58409090909089L299.95384615384614,88.34545454545453L302.19230769230774,81.52727272727276L304.4307692307693,73.71477272727272L306.66923076923075,67.8909090909091L308.9076923076923,65.19204545454548L311.1461538461538,61.49886363636367L313.38461538461536,56.95340909090909L315.6230769230769,54.538636363636414L317.86153846153843,51.12954545454549L320.1,48.71477272727276L322.33846153846156,42.180681818181846L324.5769230769231,37.49318181818183L326.81538461538463,34.08409090909092L329.05384615384617,31.811363636363698L331.2923076923077,29.396590909090932L333.5307692307692,28.686363636363698L335.7692307692307,27.834090909090886L338.0076923076923,29.25454545454547L340.24615384615385,25.987499999999986L342.4846153846154,24.425000000000033L344.7230769230769,23.288636363636364L346.96153846153845,22.152272727272695L349.2,22.43636363636373L351.4384615384615,22.862499999999986L353.67692307692306,24.709090909090918L355.91538461538465,30.53295454545457L358.1538461538462,35.64659090909096L360.3923076923077,40.04999999999997L362.63076923076926,44.02727272727272L364.86923076923074,46.157954545454594L367.1076923076923,51.12954545454549L369.3461538461538,55.10681818181821L371.58461538461535,58.23181818181821L373.82307692307694,61.78295454545456L376.0615384615385,66.04431818181823L378.3,71.30000000000004L380.53846153846155,78.40227272727273L382.7769230769231,82.66363636363637L385.0153846153846,86.49886363636367L387.25384615384615,89.62386363636364L389.4923076923077,92.03863636363637L391.7307692307693,93.74318181818181L393.9692307692308,94.87954545454548L396.2076923076923,96.4420454545455L398.44615384615383,98.00454545454548L400.68461538461537,99.56704545454546L402.9230769230769,106.24318181818184L405.16153846153844,112.20909090909092L407.4,119.02727272727275L409.63846153846157,125.84545454545459L411.8769230769231,130.53295454545457L414.11538461538464,137.7772727272727L416.3538461538462,144.45340909090908L418.5923076923077,144.59545454545454L420.83076923076925,145.30568181818182L423.0692307692307,145.4477272727273L425.30769230769226,145.58977272727276L427.54615384615386,146.30000000000004L429.7846153846154,144.45340909090908L432.0230769230769,143.175L434.26153846153846,145.4477272727273L436.5,146.58409090909092L438.73846153846154,150.84545454545454L440.9769230769231,154.1125L443.2153846153846,156.81136363636364L445.45384615384614,159.93636363636367L447.69230769230774,163.34545454545454L449.9307692307693,165.19204545454548L452.16923076923075,167.74886363636364L454.4076923076923,167.8909090909091L456.6461538461538,168.60113636363639L458.88461538461536,170.58977272727276L461.1230769230769,172.15227272727273L463.36153846153843,174.85113636363639L465.6,177.54999999999998L467.83846153846156,179.9647727272727L470.0769230769231,181.52727272727273L472.31538461538463,184.3681818181818L474.55384615384617,187.35113636363639L476.7923076923077,190.33409090909092L479.0307692307692,191.89659090909092L481.2692307692307,193.74318181818182L483.5076923076923,196.3L485.74615384615385,199.56704545454545L487.9846153846154,201.83977272727273L490.2230769230769,203.26022727272726L492.46153846153845,204.68068181818182L494.7,206.10113636363639L496.9384615384615,207.80568181818182L499.17692307692306,210.78863636363636L501.41538461538465,211.07272727272726L503.6538461538462,212.06704545454545L505.8923076923077,212.06704545454545L508.13076923076926,212.06704545454545L510.36923076923074,212.06704545454545L512.6076923076923,211.64090909090908L514.8461538461538,211.3568181818182L517.0846153846154,213.2034090909091L519.323076923077,214.62386363636364L521.5615384615385,216.47045454545454L523.8000000000001,218.31704545454545L526.0384615384615,220.16363636363636L528.276923076923,223.4306818181818L530.5153846153846,225.27727272727273L532.7538461538461,226.2715909090909L534.9923076923077,227.83409090909092L537.2307692307693,228.68636363636364L539.4692307692308,229.53863636363636L541.7076923076924,230.39090909090908L543.9461538461538,229.39659090909092L546.1846153846154,228.97045454545454L548.4230769230769,229.1125L550.6615384615385,228.68636363636364L552.9,229.25454545454545L555.1384615384616,229.82272727272726L557.376923076923,230.39090909090908" stroke="#eeca3b" stroke-width="2" opacity="1"/></g></g><path class="foreground" aria-hidden="true" d="" display="none"/></g></g><g class="mark-group role-legend" role="graphics-symbol" aria-roledescription="legend" aria-label="Symbol legend for stroke color with 6 values: CO, IL, MI, MN, NE, WY"><g transform="translate(600,0)"><path class="background" aria-hidden="true" d="M0,0h33v76h-33Z" pointer-events="none"/><g><g class="mark-group role-legend-entry"><g transform="translate(0,0)"><path class="background" aria-hidden="true" d="M0,0h0v0h0Z" pointer-events="none"/><g><g class="mark-group role-scope" role="graphics-object" aria-roledescription="group mark container"><g transform="translate(0,0)"><path class="background" aria-hidden="true" d="M0,0h32.11997985839844v11h-32.11997985839844Z" pointer-events="none" opacity="1"/><g><g class="mark-symbol role-legend-symbol" pointer-events="none"><path transform="translate(6,6)" d="M-5,0L5,0" stroke="#4c78a8" stroke-width="1.5" opacity="1"/></g><g class="mark-text role-legend-label" pointer-events="none"><text text-anchor="start" transform="translate(16,9)" font-family="IBM Plex Serif, serif" font-size="10px" fill="#262730" opacity="1">CO</text></g></g><path class="foreground" aria-hidden="true" d="" pointer-events="none" display="none"/></g><g transform="translate(0,13)"><path class="background" aria-hidden="true" d="M0,0h32.11997985839844v11h-32.11997985839844Z" pointer-events="none" opacity="1"/><g><g class="mark-symbol role-legend-symbol" pointer-events="none"><path transform="translate(6,6)" d="M-5,0L5,0" stroke="#f58518" stroke-width="1.5" opacity="1"/></g><g class="mark-text role-legend-label" pointer-events="none"><text text-anchor="start" transform="translate(16,9)" font-family="IBM Plex Serif, serif" font-size="10px" fill="#262730" opacity="1">IL</text></g></g><path class="foreground" aria-hidden="true" d="" pointer-events="none" display="none"/></g><g transform="translate(0,26)"><path class="background" aria-hidden="true" d="M0,0h32.11997985839844v11h-32.11997985839844Z" pointer-events="none" opacity="1"/><g><g class="mark-symbol role-legend-symbol" pointer-events="none"><path transform="translate(6,6)" d="M-5,0L5,0" stroke="#e45756" stroke-width="1.5" opacity="1"/></g><g class="mark-text role-legend-label" pointer-events="none"><text text-anchor="start" transform="translate(16,9)" font-family="IBM Plex Serif, serif" font-size="10px" fill="#262730" opacity="1">MI</text></g></g><path class="foreground" aria-hidden="true" d="" pointer-events="none" display="none"/></g><g transform="translate(0,39)"><path class="background" aria-hidden="true" d="M0,0h32.11997985839844v11h-32.11997985839844Z" pointer-events="none" opacity="1"/><g><g class="mark-symbol role-legend-symbol" pointer-events="none"><path transform="translate(6,6)" d="M-5,0L5,0" stroke="#72b7b2" stroke-width="1.5" opacity="1"/></g><g class="mark-text role-legend-label" pointer-events="none"><text text-anchor="start" transform="translate(16,9)" font-family="IBM Plex Serif, serif" font-size="10px" fill="#262730" opacity="1">MN</text></g></g><path class="foreground" aria-hidden="true" d="" pointer-events="none" display="none"/></g><g transform="translate(0,52)"><path class="background" aria-hidden="true" d="M0,0h32.11997985839844v11h-32.11997985839844Z" pointer-events="none" opacity="1"/><g><g class="mark-symbol role-legend-symbol" pointer-events="none"><path transform="translate(6,6)" d="M-5,0L5,0" stroke="#54a24b" stroke-width="1.5" opacity="1"/></g><g class="mark-text role-legend-label" pointer-events="none"><text text-anchor="start" transform="translate(16,9)" font-family="IBM Plex Serif, serif" font-size="10px" fill="#262730" opacity="1">NE</text></g></g><path class="foreground" aria-hidden="true" d="" pointer-events="none" display="none"/></g><g transform="translate(0,65)"><path class="background" aria-hidden="true" d="M0,0h32.11997985839844v11h-32.11997985839844Z" pointer-events="none" opacity="1"/><g><g class="mark-symbol role-legend-symbol" pointer-events="none"><path transform="translate(6,6)" d="M-5,0L5,0" stroke="#eeca3b" stroke-width="1.5" opacity="1"/></g><g class="mark-text role-legend-label" pointer-events="none"><text text-anchor="start" transform="translate(16,9)" font-family="IBM Plex Serif, serif" font-size="10px" fill="#262730" opacity="1">WY</text></g></g><path class="foreground" aria-hidden="true" d="" pointer-events="none" display="none"/></g></g></g><path class="foreground" aria-hidden="true" d="" pointer-events="none" display="none"/></g></g></g><path class="foreground" aria-hidden="true" d="" pointer-events="none" display="none"/></g></g></g><path class="foreground" aria-hidden="true" d="" display="none"/></g></g></g><defs><clipPath id="clip31"><rect x="0" y="0" width="582" height="270"/></clipPath><clipPath id="clip32"><rect x="0" y="0" width="582" height="270"/></clipPath><clipPath id="clip33"><rect x="0" y="0" width="582" height="270"/></clipPath><clipPath id="clip34"><rect x="0" y="0" width="582" height="270"/></clipPath><clipPath id="clip35"><rect x="0" y="0" width="582" height="270"/></clipPath><clipPath id="clip36"><rect x="0" y="0" width="582" height="270"/></clipPath></defs></svg>