<svg xmlns="http://www.w3.org/2000/svg" xmlns:xlink="http://www.w3.org/1999/xlink" version="1.1" class="marks" width="660" height="300" viewBox="0 0 660 300"><rect width="660" height="300" fill="#ffffff"/><g fill="none" stroke-miterlimit="10" transform="translate(26,5)"><g class="mark-group role-frame root" role="graphics-object" aria-roledescription="group mark container"><g transform="translate(0,0)"><path class="background" aria-hidden="true" d="M0.5,0.5h582v270h-582Z" stroke="#ddd"/><g><g class="mark-group role-axis" aria-hidden="true"><g transform="translate(0.5,270.5)"><path class="background" aria-hidden="true" d="M0,0h0v0h0Z" pointer-events="none"/><g><g class="mark-rule role-axis-grid" pointer-events="none"><line transform="translate(0,-270)" x2="0" y2="270" stroke="rgba(38, 39, 48, 0.2)" stroke-width="1" opacity="1"/><line transform="translate(45,-270)" x2="0" y2="270" stroke="rgba(38, 39, 48, 0.2)" stroke-width="1" opacity="1"/><line transform="translate(90,-270)" x2="0" y2="270" stroke="rgba(38, 39, 48, 0.2)" stroke-width="1" opacity="1"/><line transform="translate(134,-270)" x2="0" y2="270" stroke="rgba(38, 39, 48, 0.2)" stroke-width="1" opacity="1"/><line transform="translate(179,-270)" x2="0" y2="270" stroke="rgba(38, 39, 48, 0.2)" stroke-width="1" opacity="1"/><line transform="translate(224,-270)" x2="0" y2="270" stroke="rgba(38, 39, 48, 0.2)" stroke-width="1" opacity="1"/><line transform="translate(269,-270)" x2="0" y2="270" stroke="rgba(38, 39, 48, 0.2)" stroke-width="1" opacity="1"/><line transform="translate(313,-270)" x2="0" y2="270" stroke="rgba(38, 39, 48, 0.2)" stroke-width="1" opacity="1"/><line transform="translate(358,-270)" x2="0" y2="270" stroke="rgba(38, 39, 48, 0.2)" stroke-width="1" opacity="1"/><line transform="translate(403,-270)" x2="0" y2="270" stroke="rgba(38, 39, 48, 0.2)" stroke-width="1" opacity="1"/><line transform="translate(448,-270)" x2="0" y2="270" stroke="rgba(38, 39, 48, 0.2)" stroke-width="1" opacity="1"/><line transform="translate(492,-270)" x2="0" y2="270" stroke="rgba(38, 39, 48, 0.2)" stroke-width="1" opacity="1"/><line transform="translate(537,-270)" x2="0" y2="270" stroke="rgba(38, 39, 48, 0.2)" stroke-width="1" opacity="1"/><line transform="translate(582,-270)" x2="0" y2="270" stroke="rgba(38, 39, 48, 0.2)" stroke-width="1" opacity="1"/></g></g><path class="foreground" aria-hidden="true" d="" pointer-events="none" display="none"/></g></g><g class="mark-group role-axis" aria-hidden="true"><g transform="translate(0.5,0.5)"><path class="background" aria-hidden="true" d="M0,0h0v0h0Z" pointer-events="none"/><g><g class="mark-rule role-axis-grid" pointer-events="none"><line transform="translate(0,270)" x2="582" y2="0" stroke="rgba(38, 39, 48, 0.2)" stroke-width="1" opacity="1"/><line transform="translate(0,225)" x2="582" y2="0" stroke="rgba(38, 39, 48, 0.2)" stroke-width="1" opacity="1"/><line transform="translate(0,180)" x2="582" y2="0" stroke="rgba(38, 39, 48, 0.2)" stroke-width="1" opacity="1"/><line transform="translate(0,135)" x2="582" y2="0" stroke="rgba(38, 39, 48, 0.2)" stroke-width="1" opacity="1"/><line transform="translate(0,90)" x2="582" y2="0" stroke="rgba(38, 39, 48, 0.2)" stroke-width="1" opacity="1"/><line transform="translate(0,45)" x2="582" y2="0" stroke="rgba(38, 39, 48, 0.2)" stroke-width="1" opacity="1"/><line transform="translate(0,0)" x2="582" y2="0" stroke="rgba(38, 39, 48, 0.2)" stroke-width="1" opacity="1"/></g></g><path class="foreground" aria-hidden="true" d="" pointer-events="none" display="none"/></g></g><g class="mark-group role-axis" role="graphics-symbol" aria-roledescription="axis" aria-label="X-axis for a linear scale with values from 0 to 260"><g transform="translate(0.5,270.5)"><path class="background" aria-hidden="true" d="M0,0h0v0h0Z" pointer-events="none"/><g><g class="mark-rule role-axis-tick" pointer-events="none"><line transform="translate(0,0)" x2="0" y2="5" stroke="#888" stroke-width="1" opacity="1"/><line transform="translate(45,0)" x2="0" y2="5" stroke="#888" stroke-width="1" opacity="1"/><line transform="translate(90,0)" x2="0" y2="5" stroke="#888" stroke-width="1" opacity="1"/><line transform="translate(134,0)" x2="0" y2="5" stroke="#888" stroke-width="1" opacity="1"/><line transform="translate(179,0)" x2="0" y2="5" stroke="#888" stroke-width="1" opacity="1"/><line transform="translate(224,0)" x2="0" y2="5" stroke="#888" stroke-width="1" opacity="1"/><line transform="translate(269,0)" x2="0" y2="5" stroke="#888" stroke-width="1" opacity="1"/><line transform="translate(313,0)" x2="0" y2="5" stroke="#888" stroke-width="1" opacity="1"/><line transform="translate(358,0)" x2="0" y2="5" stroke="#888" stroke-width="1" opacity="1"/><line transform="translate(403,0)" x2="0" y2="5" stroke="#888" stroke-width="1" opacity="1"/><line transform="translate(448,0)" x2="0" y2="5" stroke="#888" stroke-width="1" opacity="1"/><line transform="translate(492,0)" x2="0" y2="5" stroke="#888" stroke-width="1" opacity="1"/><line transform="translate(537,0)" x2="0" y2="5" stroke="#888" stroke-width="1" opacity="1"/><line transform="translate(582,0)" x2="0" y2="5" stroke="#888" stroke-width="1" opacity="1"/></g><g class="mark-text role-axis-label" pointer-events="none"><text text-anchor="start" transform="translate(0,15)" font-family="IBM Plex Serif, serif" font-size="10px" fill="#262730" opacity="1">0</text><text text-anchor="middle" transform="translate(44.769230769230774,15)" font-family="IBM Plex Serif, serif" font-size="10px" fill="#262730" opacity="1">20</text><text text-anchor="middle" transform="translate(89.53846153846155,15)" font-family="IBM Plex Serif, serif" font-size="10px" fill="#262730" opacity="1">40</text><text text-anchor="middle" transform="translate(134.30769230769232,15)" font-family="IBM Plex Serif, serif" font-size="10px" fill="#262730" opacity="1">60</text><text text-anchor="middle" transform="translate(179.0769230769231,15)" font-family="IBM Plex Serif, serif" font-size="10px" fill="#262730" opacity="1">80</text><text text-anchor="middle" transform="translate(223.84615384615387,15)" font-family="IBM Plex Serif, serif" font-size="10px" fill="#262730" opacity="1">100</text><text text-anchor="middle" transform="translate(268.61538461538464,15)" font-family="IBM Plex Serif, serif" font-size="10px" fill="#262730" opacity="1">120</text><text text-anchor="middle" transform="translate(313.38461538461536,15)" font-family="IBM Plex Serif, serif" font-size="10px" fill="#262730" opacity="1">140</text><text text-anchor="middle" transform="translate(358.1538461538462,15)" font-family="IBM Plex Serif, serif" font-size="10px" fill="#262730" opacity="1">160</text><text text-anchor="middle" transform="translate(402.9230769230769,15)" font-family="IBM Plex Serif, serif" font-size="10px" fill="#262730" opacity="1">180</text><text text-anchor="middle" transform="translate(447.69230769230774,15)" font-family="IBM Plex Serif, serif" font-size="10px" fill="#262730" opacity="1">200</text><text text-anchor="middle" transform="translate(492.46153846153845,15)" font-family="IBM Plex Serif, serif" font-size="10px" fill="#262730" opacity="1">220</text><text text-anchor="middle" transform="translate(537.2307692307693,15)" font-family="IBM Plex Serif, serif" font-size="10px" fill="#262730" opacity="1">240</text><text text-anchor="end" transform="translate(582,15)" font-family="IBM Plex Serif, serif" font-size="10px" fill="#262730" opacity="1">260</text></g><g class="mark-rule role-axis-domain" pointer-events="none"><line transform="translate(0,0)" x2="582" y2="0" stroke="#888" stroke-width="1" opacity="1"/></g></g><path class="foreground" aria-hidden="true" d="" pointer-events="none" display="none"/></g></g><g class="mark-group role-axis" role="graphics-symbol" aria-roledescription="axis" aria-label="Y-axis for a linear scale with values from −0.4 to 0.8"><g transform="translate(0.5,0.5)"><path class="background" aria-hidden="true" d="M0,0h0v0h0Z" pointer-events="none"/><g><g class="mark-rule role-axis-tick" pointer-events="none"><line transform="translate(0,270)" x2="-5" y2="0" stroke="#888" stroke-width="1" opacity="1"/><line transform="translate(0,225)" x2="-5" y2="0" stroke="#888" stroke-width="1" opacity="1"/><line transform="translate(0,180)" x2="-5" y2="0" stroke="#888" stroke-width="1" opacity="1"/><line transform="translate(0,135)" x2="-5" y2="0" stroke="#888" stroke-width="1" opacity="1"/><line transform="translate(0,90)" x2="-5" y2="0" stroke="#888" stroke-width="1" opacity="1"/><line transform="translate(0,45)" x2="-5" y2="0" stroke="#888" stroke-width="1" opacity="1"/><line transform="translate(0,0)" x2="-5" y2="0" stroke="#888" stroke-width="1" opacity="1"/></g><g class="mark-text role-axis-label" pointer-events="none"><text text-anchor="end" transform="translate(-7,273)" font-family="IBM Plex Serif, serif" font-size="10px" fill="#262730" opacity="1">−0.4</text><text text-anchor="end" transform="translate(-7,228)" font-family="IBM Plex Serif, serif" font-size="10px" fill="#262730" opacity="1">−0.2</text><text text-anchor="end" transform="translate(-7,183.00000000000003)" font-family="IBM Plex Serif, serif" font-size="10px" fill="#262730" opacity="1">0.0</text><text text-anchor="end" transform="translate(-7,138)" font-family="IBM Plex Serif, serif" font-size="10px" fill="#262730" opacity="1">0.2</text><text text-anchor="end" transform="translate(-7,93.00000000000001)" font-family="IBM Plex Serif, serif" font-size="10px" fill="#262730" opacity="1">0.4</text><text text-anchor="end" transform="translate(-7,48.00000000000002)" font-family="IBM Plex Serif, serif" font-size="10px" fill="#262730" opacity="1">0.6</text><text text-anchor="end" transform="translate(-7,3)" font-family="IBM Plex Serif, serif" font-size="10px" fill="#262730" opacity="1">0.8</text></g><g class="mark-rule role-axis-domain" pointer-events="none"><line transform="translate(0,270)" x2="0" y2="-270" stroke="#888" stroke-width="1" opacity="1"/></g></g><path class="foreground" aria-hidden="true" d="" pointer-events="none" display="none"/></g></g><g class="mark-group role-scope pathgroup" role="graphics-object" aria-roledescription="group mark container"><g transform="translate(0,0)"><path class="background" aria-hidden="true" d="M0,0h582v270h-582Z"/><g><g class="mark-line role-mark marks" clip-path="url(#clip40)" role="graphics-object" aria-roledescription="line mark container"><path aria-label="variable: DE; index: 0; value: −0.229314041434" role="graphics-symbol" aria-roledescription="line mark" d="M0,231.59565932259127L2.2384615384615385,233.51936862874055L4.476923076923077,235.07313383755343L6.7153846153846155,237.21880960210456L8.953846153846154,239.06853008878656L11.192307692307693,240.4003288391976L13.430769230769231,240.9922393949359L15.66923076923077,241.80611640907597L17.907692307692308,242.10207168694507L20.146153846153847,242.0280828674778L22.384615384615387,241.21420585333772L24.623076923076926,240.84426175600134L26.861538461538462,241.21420585333772L29.1,241.80611640907597L31.33846153846154,242.25004932587967L33.57692307692308,243.2119039789543L35.815384615384616,243.43387043735615L38.05384615384616,244.46971390989805L40.292307692307695,245.28359092403818L42.53076923076923,245.43156856297273L44.769230769230774,244.6916803682999L47.00769230769231,243.9517921736271L49.24615384615385,243.50785925682342L51.48461538461539,243.50785925682342L53.723076923076924,243.2119039789543L55.96153846153847,242.4720157842815L58.2,241.28819467280502L60.43846153846154,240.9922393949359L62.67692307692308,240.47431765866492L64.91538461538462,239.51246300559026L67.15384615384616,240.1783623807958L69.3923076923077,240.91825057546862L71.63076923076923,241.95409404801052L73.86923076923077,243.65583689575797L76.10769230769232,245.13561328510357L78.34615384615384,246.68937849391645L80.58461538461539,248.4651101611312L82.82307692307693,249.13100953633673L85.06153846153846,249.79690891154223L87.3,250.3148306478132L89.53846153846155,250.7587635646169L91.77692307692307,251.27668530088786L94.01538461538462,252.16455113449524L96.25384615384615,252.75646169023346L98.4923076923077,252.6824728707662L100.73076923076923,252.97842814863534L102.96923076923078,253.422361065439L105.20769230769231,253.7923051627754L107.44615384615385,254.01427162117724L109.68461538461538,254.23623807957907L111.92307692307693,254.01427162117724L114.16153846153846,254.08826044064452L116.4,253.20039460703717L118.63846153846154,252.16455113449524L120.87692307692308,251.49865175928971L123.11538461538461,250.90674120355146L125.35384615384616,249.5749424531404L127.59230769230768,248.31713252219663L129.83076923076925,246.83735613285106L132.06923076923076,245.57954620190728L134.30769230769232,244.76566918776717L136.54615384615386,243.28589279842157L138.7846153846154,241.51016113120684L141.02307692307693,240.62229529759946L143.26153846153846,240.4003288391976L145.5,240.32634001973034L147.73846153846154,240.54830647813216L149.97692307692307,240.0303847418612L152.21538461538464,240.4003288391976L154.45384615384614,241.21420585333772L156.69230769230768,241.88010522854324L158.93076923076922,241.43617231173954L161.16923076923078,240.84426175600134L163.40769230769232,240.25235120026306L165.64615384615385,239.8084182834594L167.88461538461536,238.99454126931928L170.12307692307692,238.40263071358106L172.36153846153846,238.03268661624466L174.6,238.03268661624466L176.83846153846153,238.62459717198288L179.0769230769231,239.58645182505757L181.31538461538463,240.1783623807958L183.55384615384614,240.9922393949359L185.79230769230767,240.91825057546862L188.03076923076924,240.69628411706677L190.26923076923077,241.3621834922723L192.5076923076923,241.73212758960867L194.74615384615385,241.43617231173954L196.9846153846154,241.43617231173954L199.22307692307692,240.91825057546862L201.46153846153845,240.77027293653404L203.7,239.95639592239397L205.93846153846155,238.40263071358106L208.1769230769231,236.18296612956266L210.41538461538462,234.25925682341335L212.65384615384613,232.63150279513317L214.8923076923077,231.0777375863203L217.13076923076923,229.37599473857284L219.36923076923077,228.11818480762906L221.6076923076923,226.4164419598816L223.84615384615387,224.86267675106873L226.08461538461538,223.38290036172313L228.3230769230769,221.45919105557383L230.56153846153845,219.6834593883591L232.8,217.8337389016771L235.03846153846155,215.8360407760605L237.27692307692308,215.0961525813877L239.5153846153846,215.0961525813877L241.75384615384615,215.24413022032226L243.9923076923077,215.3921078592568L246.23076923076923,215.24413022032226L248.46923076923076,215.61407431765866L250.70769230769233,216.87188424860244L252.94615384615386,216.94587306806972L255.18461538461537,216.79789542913517L257.4230769230769,216.6499177902006L259.6615384615385,216.87188424860244L261.90000000000003,216.79789542913517L264.1384615384615,217.8337389016771L266.37692307692305,218.35166063794804L268.61538461538464,219.16553765208815L270.8538461538462,219.53548174942455L273.0923076923077,220.57132522196645L275.33076923076925,220.64531404143378L277.5692307692308,220.4233475830319L279.8076923076923,219.38750411049L282.04615384615386,217.75975008220982L284.2846153846154,216.7239066096679L286.5230769230769,215.76205195659324L288.76153846153846,213.83834265044393L291,212.802499177902L293.23846153846154,212.21058862216375L295.4769230769231,210.73081223281815L297.7153846153846,209.84294639921077L299.95384615384614,208.88109174613615L302.19230769230774,207.69727063465965L304.4307692307693,206.4394607037159L306.66923076923075,209.0290693850707L308.9076923076923,207.40131535679052L311.1461538461538,205.47760605064124L313.38461538461536,203.47990792502466L315.6230769230769,200.59434396580073L317.86153846153843,197.63479118710953L320.1,194.6752384084183L322.33846153846156,187.57231173955935L324.5769230769231,184.83472541926997L326.81538461538463,182.46708319631702L329.05384615384617,180.2474186122986L331.2923076923077,178.02775402828019L333.5307692307692,176.7699440973364L335.7692307692307,174.55027951331797L338.0076923076923,172.03465965143047L340.24615384615385,167.22538638605724L342.4846153846154,162.71206839855313L344.7230769230769,156.05307464649786L346.96153846153845,149.98599145018088L349.2,142.51312068398553L351.4384615384615,134.81828345938837L353.67692307692306,127.12344623479126L355.91538461538465,121.27832949687607L358.1538461538462,114.47135810588624L360.3923076923077,108.92219664584024L362.63076923076926,103.59500164419602L364.86923076923074,98.04584018415L367.1076923076923,94.93830976652424L369.3461538461538,91.83077934889843L371.58461538461535,88.05734955606714L373.82307692307694,85.24577441631048L376.0615384615385,81.39835580401189L378.3,77.1070042749096L380.53846153846155,73.85149621834924L382.7769230769231,69.19020059191061L385.0153846153846,65.26879316014477L387.25384615384615,61.865307464649824L389.4923076923077,57.64794475501485L391.7307692307693,53.652548503781674L393.9692307692308,52.2467609339034L396.2076923076923,52.468727392305205L398.44615384615383,53.282604406445294L400.68461538461537,53.800526142716315L402.9230769230769,53.13462676751074L405.16153846153844,53.578559684314456L407.4,55.724235448865535L409.63846153846157,56.83406774087476L411.8769230769231,56.24215718513653L414.11538461538464,55.354291351529156L416.3538461538462,54.02249260111811L418.5923076923077,53.72653732324898L420.83076923076925,53.43058204537987L423.0692307692307,50.9889510029596L425.30769230769226,47.88142058533382L427.54615384615386,44.995856626109834L429.7846153846154,41.148438013811294L432.0230769230769,37.375008220980035L434.26153846153846,34.48944426175599L436.5,31.381913844130207L438.73846153846154,30.198092732653738L440.9769230769231,29.236238079579124L443.2153846153846,29.236238079579124L445.45384615384614,30.937980927326613L447.69230769230774,32.56573495560679L449.9307692307693,35.30332127589614L452.16923076923075,36.709108845774466L454.4076923076923,38.04090759618551L456.6461538461538,39.37270634659653L458.88461538461536,41.666359750082286L461.1230769230769,44.62591252877352L463.36153846153843,49.21321933574484L465.6,52.83867148964164L467.83846153846156,58.09187767181853L470.0769230769231,65.56474843801384L472.31538461538463,74.07346267675109L474.55384615384617,81.47234462347916L476.7923076923077,88.72324893127264L479.0307692307692,94.12443275238411L481.2692307692307,98.85971719829008L483.5076923076923,103.07707990792508L485.74615384615385,104.77882275567248L487.9846153846154,106.11062150608359L490.2230769230769,108.330286090102L492.46153846153845,110.99388359092407L494.7,114.84130220322268L496.9384615384615,120.61243012167056L499.17692307692306,125.93962512331476L501.41538461538465,131.85873068069716L503.6538461538462,136.44603748766858L505.8923076923077,139.62755672476163L508.13076923076926,138.51772443275246L510.36923076923074,141.99519894771458L512.6076923076923,145.17671818480767L514.8461538461538,150.20795790858273L517.0846153846154,154.42532061821768L519.323076923077,158.56869450838542L521.5615384615385,164.04386714896418L523.8000000000001,171.73870437356135L526.0384615384615,174.77224597171985L528.276923076923,176.1040447221309L530.5153846153846,176.4739888194673L532.7538461538461,177.43584347254193L534.9923076923077,179.87747451496222L537.2307692307693,181.13528444590597L539.4692307692308,182.5410720157843L541.7076923076924,184.98270305820455L543.9461538461538,187.27635646169026L546.1846153846154,189.49602104570863L548.4230769230769,192.97349556067087L550.6615384615385,195.4891154225584L552.9,197.63479118710953L555.1384615384616,200.96428806313713L557.376923076923,203.77586320289382" stroke="#4c78a8" stroke-width="2" opacity="1"/></g></g><path class="foreground" aria-hidden="true" d="" display="none"/></g><g transform="translate(0,0)"><path class="background" aria-hidden="true" d="M0,0h582v270h-582Z"/><g><g class="mark-line role-mark marks" clip-path="url(#clip41)" role="graphics-object" aria-roledescription="line mark container"><path aria-label="variable: MA; index: 0; value: −0.0880797147053" role="graphics-symbol" aria-roledescription="line mark" d="M0,199.81793580868475L2.2384615384615385,202.03631214600378L4.476923076923077,204.16028949024545L6.7153846153846155,206.1898678414097L8.953846153846154,207.95198237885464L11.192307692307693,210.45355569540592L13.430769230769231,212.21567023285087L15.66923076923077,213.75752045311518L17.907692307692308,214.48124606670862L20.146153846153847,214.85884203901827L22.384615384615387,215.92869729389554L24.623076923076926,216.76255506607933L26.861538461538462,217.28174952800504L29.1,218.24147262429202L31.33846153846154,219.5315921963499L33.57692307692308,220.7587791063562L35.815384615384616,222.59955947136564L38.05384615384616,223.74808055380743L40.292307692307695,225.08539962240405L42.53076923076923,226.45418502202642L44.769230769230774,227.1936438011328L47.00769230769231,227.94883574575206L49.24615384615385,231.1898678414097L51.48461538461539,233.04638137193206L53.723076923076924,235.0602265575834L55.96153846153847,237.16847073631214L58.2,239.260981749528L60.43846153846154,241.6052234109503L62.67692307692308,243.83933291378227L64.91538461538462,243.58760226557584L67.15384615384616,244.3742605412209L69.3923076923077,244.40572687224673L71.63076923076923,243.74493392070485L73.86923076923077,243.35160478288233L76.10769230769232,243.50893643801135L78.34615384615384,243.41453744493393L80.58461538461539,242.8481434864695L82.82307692307693,242.17161736941475L85.06153846153846,241.90415355569542L87.3,242.39188168659535L89.53846153846155,242.31321585903083L91.77692307692307,241.79402139710513L94.01538461538462,241.3849590937697L96.25384615384615,241.41642542479548L98.4923076923077,241.2905601006923L100.73076923076923,241.46362492133417L102.96923076923078,241.51082441787287L105.20769230769231,241.7153555695406L107.44615384615385,241.91988672120831L109.68461538461538,242.8166771554437L111.92307692307693,243.1628067967275L114.16153846153846,244.35852737570804L116.4,245.3025173064821L118.63846153846154,246.19930774071744L120.87692307692308,247.1275645059786L123.11538461538461,247.867023285085L125.35384615384616,248.00862177470108L127.59230769230768,248.73234738829453L129.83076923076925,248.88967904342354L132.06923076923076,249.04701069855255L134.30769230769232,249.44033983637507L136.54615384615386,249.34594084329768L138.7846153846154,249.456073001888L141.02307692307693,250.21126494650724L143.26153846153846,250.54166142227817L145.5,250.21126494650724L147.73846153846154,249.89660163624922L149.97692307692307,249.5504719949654L152.21538461538464,249.4246066708622L154.45384615384614,249.298741346759L156.69230769230768,248.82674638137192L158.93076923076922,248.15022026431717L161.16923076923078,248.1974197608559L163.40769230769232,248.10302076777847L165.64615384615385,248.0872876022656L167.88461538461536,248.40195091252363L170.12307692307692,248.68514789175583L172.36153846153846,248.46488357457523L174.6,248.1187539332914L176.83846153846153,247.99288860918819L179.0769230769231,247.50516047828825L181.31538461538463,246.70276903713028L183.55384615384614,245.6801132787917L185.79230769230767,244.72039018250473L188.03076923076924,244.57879169288861L190.26923076923077,244.61025802391444L192.5076923076923,243.80786658275645L194.74615384615385,243.93373190685966L196.9846153846154,243.24147262429202L199.22307692307692,242.43908118313408L201.46153846153845,241.2905601006923L203.7,240.07910635619888L205.93846153846155,239.1193832599119L208.1769230769231,238.61592196349906L210.41538461538462,237.64046570169918L212.65384615384613,237.16847073631214L214.8923076923077,236.30314663310259L217.13076923076923,235.51648835745755L219.36923076923077,234.30503461296414L221.6076923076923,233.5498426683449L223.84615384615387,232.30692259282569L226.08461538461538,230.49760855884205L228.3230769230769,229.34908747640029L230.56153846153845,228.908558842039L232.8,228.59389553178102L235.03846153846155,228.84562617998742L237.27692307692308,228.54669603524232L239.5153846153846,228.34216488357458L241.75384615384615,228.82989301447452L243.9923076923077,229.27042164883574L246.23076923076923,229.28615481434866L248.46923076923076,229.23895531780997L250.70769230769233,228.92429200755194L252.94615384615386,228.6410950283197L255.18461538461537,227.74430459408435L257.4230769230769,226.9419131529264L259.6615384615385,226.0765890497168L261.90000000000003,225.28993077407176L264.1384615384615,224.5032724984267L266.37692307692305,223.51208307111392L268.61538461538464,222.88275645059787L270.8538461538462,222.86702328508497L273.0923076923077,221.73423536815608L275.33076923076925,220.5542479546885L277.5692307692308,221.8286343612335L279.8076923076923,223.1187539332914L282.04615384615386,224.37740717432348L284.2846153846154,225.36859660163626L286.5230769230769,226.28112020138454L288.76153846153846,227.66563876651983L291,228.37363121460038L293.23846153846154,226.50138451856512L295.4769230769231,224.40887350534928L297.7153846153846,221.9387665198238L299.95384615384614,219.37426054122093L302.19230769230774,216.6366897419761L304.4307692307693,213.96205160478289L306.66923076923075,211.30314663310259L308.9076923076923,208.26664568911266L311.1461538461538,204.8525487728131L313.38461538461536,201.29685336689744L315.6230769230769,197.26916299559474L317.86153846153843,193.85506607929517L320.1,190.92869729389554L322.33846153846156,188.47432347388295L324.5769230769231,186.2559471365639L326.81538461538463,184.38370044052866L329.05384615384617,183.4869100062933L331.2923076923077,183.09358086847075L333.5307692307692,181.80346129641282L335.7692307692307,179.38055380742608L338.0076923076923,176.42271869100065L340.24615384615385,172.45796098174955L342.4846153846154,168.72920075519195L344.7230769230769,163.74178728760228L346.96153846153845,157.73171806167403L349.2,151.31258653241034L351.4384615384615,145.2867841409692L353.67692307692306,140.01617369414728L355.91538461538465,134.6354310887351L358.1538461538462,128.95575833857777L360.3923076923077,123.96834487098803L362.63076923076926,119.51585903083705L364.86923076923074,116.19616110761487L367.1076923076923,112.38873505349278L369.3461538461538,107.81038388923852L371.58461538461535,103.53096286972938L373.82307692307694,99.09421019509128L376.0615384615385,94.76758967904345L378.3,90.61403398363754L380.53846153846155,86.38181246066715L382.7769230769231,82.33838892385151L385.0153846153846,79.00295783511645L387.25384615384615,75.8091252359975L389.4923076923077,73.13448709880429L391.7307692307693,69.75185651353056L393.9692307692308,66.2276274386407L396.2076923076923,62.75059786028948L398.44615384615383,60.390623033354345L400.68461538461537,56.661862806796755L402.9230769230769,52.90163624921339L405.16153846153844,48.889679043423556L407.4,45.88464443045943L409.63846153846157,43.11560730018882L411.8769230769231,40.34657016991824L414.11538461538464,37.15273757079926L416.3538461538462,35.02876022655761L418.5923076923077,33.31384518565139L420.83076923076925,30.65494021397112L423.0692307692307,28.15336689741974L425.30769230769226,26.34405286343616L427.54615384615386,25.714726242920094L429.7846153846154,25.541661422278196L432.0230769230769,26.580050346129674L434.26153846153846,28.59389553178105L436.5,31.882127123977387L438.73846153846154,35.28049087476404L440.9769230769231,37.79779735682822L443.2153846153846,39.52844556324735L445.45384615384614,41.00736312146005L447.69230769230774,41.95135305223414L449.9307692307693,42.03001887979864L452.16923076923075,42.12441787287604L454.4076923076923,41.982819383259944L456.6461538461538,43.14707363121465L458.88461538461536,44.767589679043446L461.1230769230769,47.001699181875445L463.36153846153843,50.447262429200826L465.6,54.39628697293901L467.83846153846156,58.51837633731912L470.0769230769231,62.90792951541852L472.31538461538463,67.21881686595349L474.55384615384617,72.08036500943992L476.7923076923077,77.05204531151672L479.0307692307692,81.30000000000003L481.2692307692307,85.68955317809943L483.5076923076923,90.72416614222786L485.74615384615385,95.36544996853368L487.9846153846154,100.46299559471369L490.2230769230769,104.96268093140341L492.46153846153845,109.49383259911896L494.7,114.0092511013216L496.9384615384615,118.55613593455004L499.17692307692306,122.17476400251732L501.41538461538465,126.53285084959097L503.6538461538462,130.32454373820013L505.8923076923077,134.72983008181248L508.13076923076926,139.48124606670865L510.36923076923074,143.63480176211456L512.6076923076923,148.04008810572688L514.8461538461538,152.83870358716177L517.0846153846154,157.08665827564508L519.323076923077,161.55487728130902L521.5615384615385,165.220704845815L523.8000000000001,168.0369414726243L526.0384615384615,171.15210824417872L528.276923076923,174.59767149150412L530.5153846153846,178.01176840780366L532.7538461538461,181.3629326620516L534.9923076923077,184.13196979232225L537.2307692307693,187.01113908118316L539.4692307692308,189.9217747010699L541.7076923076924,192.54921334172434L543.9461538461538,194.1225298930145L546.1846153846154,195.7587791063562L548.4230769230769,197.64675896790436L550.6615384615385,199.40887350534928L552.9,200.8405915670233L555.1384615384616,202.38244178728763L557.376923076923,203.87709251101322" stroke="#f58518" stroke-width="2" opacity="1"/></g></g><path class="foreground" aria-hidden="true" d="" display="none"/></g><g transform="translate(0,0)"><path class="background" aria-hidden="true" d="M0,0h582v270h-582Z"/><g><g class="mark-line role-mark marks" clip-path="url(#clip42)" role="graphics-object" aria-roledescription="line mark container"><path aria-label="variable: NH; index: 0; value: −0.203606617647" role="graphics-symbol" aria-roledescription="line mark" d="M0,225.81148897058824L2.2384615384615385,227.56930147058821L4.476923076923077,227.67270220588233L6.7153846153846155,228.39650735294114L8.953846153846154,229.43051470588233L11.192307692307693,230.3611213235294L13.430769230769231,231.29172794117645L15.66923076923077,232.63593749999998L17.907692307692308,233.66994485294114L20.146153846153847,234.39374999999998L22.384615384615387,234.9107536764706L24.623076923076926,235.2209558823529L26.861538461538462,235.5311580882353L29.1,235.6345588235294L31.33846153846154,235.73795955882352L33.57692307692308,235.5311580882353L35.815384615384616,235.5311580882353L38.05384615384616,235.1175551470588L40.292307692307695,235.6345588235294L42.53076923076923,236.15156249999998L44.769230769230774,236.56516544117645L47.00769230769231,236.56516544117645L49.24615384615385,236.56516544117645L51.48461538461539,236.35836397058821L53.723076923076924,236.0481617647059L55.96153846153847,235.73795955882352L58.2,235.42775735294117L60.43846153846154,235.32435661764703L62.67692307692308,235.5311580882353L64.91538461538462,235.73795955882352L67.15384615384616,236.2549632352941L69.3923076923077,236.7719669117647L71.63076923076923,236.56516544117645L73.86923076923077,236.15156249999998L76.10769230769232,235.94476102941175L78.34615384615384,235.73795955882352L80.58461538461539,235.94476102941175L82.82307692307693,235.94476102941175L85.06153846153846,235.73795955882352L87.3,235.6345588235294L89.53846153846155,236.0481617647059L91.77692307692307,236.2549632352941L94.01538461538462,236.7719669117647L96.25384615384615,237.2889705882353L98.4923076923077,237.90937499999998L100.73076923076923,238.83998161764706L102.96923076923078,239.87398897058821L105.20769230769231,240.3909926470588L107.44615384615385,241.32159926470587L109.68461538461538,241.94200367647056L111.92307692307693,242.35560661764706L114.16153846153846,242.76920955882352L116.4,242.8726102941176L118.63846153846154,242.97601102941172L120.87692307692308,243.38961397058821L123.11538461538461,243.8032169117647L125.35384615384616,244.21681985294114L127.59230769230768,244.4236213235294L129.83076923076925,244.73382352941175L132.06923076923076,245.4576286764706L134.30769230769232,246.0780330882353L136.54615384615386,246.59503676470587L138.7846153846154,246.59503676470587L141.02307692307693,246.59503676470587L143.26153846153846,246.49163602941175L145.5,246.38823529411764L147.73846153846154,246.1814338235294L149.97692307692307,245.7678308823529L152.21538461538464,245.6644301470588L154.45384615384614,245.7678308823529L156.69230769230768,245.87123161764703L158.93076923076922,246.1814338235294L161.16923076923078,246.38823529411764L163.40769230769232,246.69843749999998L165.64615384615385,247.00863970588233L167.88461538461536,247.00863970588233L170.12307692307692,246.8018382352941L172.36153846153846,246.69843749999998L174.6,246.69843749999998L176.83846153846153,246.69843749999998L179.0769230769231,246.49163602941175L181.31538461538463,246.1814338235294L183.55384615384614,245.7678308823529L185.79230769230767,245.56102941176468L188.03076923076924,244.63042279411764L190.26923076923077,243.6998161764706L192.5076923076923,242.76920955882352L194.74615384615385,241.73520220588233L196.9846153846154,240.70119485294117L199.22307692307692,240.1841911764706L201.46153846153845,239.97738970588236L203.7,240.28759191176468L205.93846153846155,240.3909926470588L208.1769230769231,239.97738970588236L210.41538461538462,240.08079044117648L212.65384615384613,239.7705882352941L214.8923076923077,239.1501838235294L217.13076923076923,238.4263786764706L219.36923076923077,238.0127757352941L221.6076923076923,238.11617647058821L223.84615384615387,238.73658088235294L226.08461538461538,238.32297794117645L228.3230769230769,238.5297794117647L230.56153846153845,238.5297794117647L232.8,238.83998161764706L235.03846153846155,238.73658088235294L237.27692307692308,238.32297794117645L239.5153846153846,238.11617647058821L241.75384615384615,238.4263786764706L243.9923076923077,238.83998161764706L246.23076923076923,239.46038602941175L248.46923076923076,239.56378676470587L250.70769230769233,240.08079044117648L252.94615384615386,240.08079044117648L255.18461538461537,240.1841911764706L257.4230769230769,240.08079044117648L259.6615384615385,239.46038602941175L261.90000000000003,238.5297794117647L264.1384615384615,236.97876838235294L266.37692307692305,235.42775735294117L268.61538461538464,234.18694852941175L270.8538461538462,232.63593749999998L273.0923076923077,230.2577205882353L275.33076923076925,228.7067095588235L277.5692307692308,227.0522977941176L279.8076923076923,226.01829044117645L282.04615384615386,224.6740808823529L284.2846153846154,223.22647058823526L286.5230769230769,221.36525735294117L288.76153846153846,220.64145220588233L291,218.88363970588236L293.23846153846154,217.3326286764706L295.4769230769231,214.9544117647059L297.7153846153846,212.1625919117647L299.95384615384614,209.57757352941178L302.19230769230774,207.4061580882353L304.4307692307693,205.44154411764706L306.66923076923075,203.9939338235294L308.9076923076923,202.1327205882353L311.1461538461538,200.78851102941175L313.38461538461536,198.51369485294117L315.6230769230769,195.51507352941175L317.86153846153843,191.48244485294117L320.1,186.5192095588235L322.33846153846156,181.55597426470587L324.5769230769231,176.69613970588236L326.81538461538463,172.14650735294114L329.05384615384617,168.63088235294117L331.2923076923077,165.8390625L333.5307692307692,163.46084558823532L335.7692307692307,161.7030330882353L338.0076923076923,158.70441176470587L340.24615384615385,154.6717830882353L342.4846153846154,150.63915441176468L344.7230769230769,146.81332720588233L346.96153846153845,143.60790441176474L349.2,140.7126838235294L351.4384615384615,139.36847426470587L353.67692307692306,136.99025735294117L355.91538461538465,134.40523897058827L358.1538461538462,129.13180147058827L360.3923076923077,121.89375000000003L362.63076923076926,112.38088235294121L364.86923076923074,102.14420955882352L367.1076923076923,91.70073529411766L369.3461538461538,83.221875L371.58461538461535,75.88042279411766L373.82307692307694,71.64099264705884L376.0615384615385,66.05735294117649L378.3,62.33492647058826L380.53846153846155,60.78391544117646L382.7769230769231,59.646507352941185L385.0153846153846,58.61250000000002L387.25384615384615,56.33768382352943L389.4923076923077,51.68465073529414L391.7307692307693,49.720036764705895L393.9692307692308,48.27242647058824L396.2076923076923,45.687408088235316L398.44615384615383,43.7227941176471L400.68461538461537,42.79218749999999L402.9230769230769,43.7227941176471L405.16153846153844,43.92959558823533L407.4,43.826194852941214L409.63846153846157,41.86158088235297L411.8769230769231,39.89696691176472L414.11538461538464,33.89972426470596L416.3538461538462,28.21268382352947L418.5923076923077,23.042647058823587L420.83076923076925,22.00863970588236L423.0692307692307,22.52564338235299L425.30769230769226,22.835845588235298L427.54615384615386,24.903860294117628L429.7846153846154,31.831709558823597L432.0230769230769,38.34595588235296L434.26153846153846,43.7227941176471L436.5,45.58400735294121L438.73846153846154,48.27242647058824L440.9769230769231,52.82205882352945L443.2153846153846,57.16488970588237L445.45384615384614,58.81930147058831L447.69230769230774,60.78391544117646L449.9307692307693,63.88593750000005L452.16923076923075,67.29816176470595L454.4076923076923,69.46957720588236L456.6461538461538,72.57159926470591L458.88461538461536,73.19200367647059L461.1230769230769,75.5702205882353L463.36153846153843,75.98382352941178L465.6,76.7076286764706L467.83846153846156,80.94705882352945L470.0769230769231,84.15248161764708L472.31538461538463,86.01369485294119L474.55384615384617,89.63272058823532L476.7923076923077,90.87352941176474L479.0307692307692,94.90615808823534L481.2692307692307,98.73198529411766L483.5076923076923,99.86939338235297L485.74615384615385,101.52380514705884L487.9846153846154,102.86801470588237L490.2230769230769,104.52242647058826L492.46153846153845,108.03805147058827L494.7,109.48566176470588L496.9384615384615,110.93327205882353L499.17692307692306,115.37950367647059L501.41538461538465,122.10055147058827L503.6538461538462,129.4420036764706L505.8923076923077,136.36985294117648L508.13076923076926,142.05689338235294L510.36923076923074,148.2609375L512.6076923076923,153.84457720588233L514.8461538461538,157.98060661764706L517.0846153846154,159.63501838235297L519.323076923077,160.87582720588236L521.5615384615385,162.4268382352941L523.8000000000001,164.39145220588236L526.0384615384615,166.14926470588236L528.276923076923,167.80367647058821L530.5153846153846,168.52748161764706L532.7538461538461,170.90569852941175L534.9923076923077,173.90431985294117L537.2307692307693,176.07573529411764L539.4692307692308,177.73014705882352L541.7076923076924,180.00496323529413L543.9461538461538,181.96957720588236L546.1846153846154,184.45119485294117L548.4230769230769,185.89880514705882L550.6615384615385,186.4158088235294L552.9,186.93281249999998L555.1384615384616,187.24301470588236L557.376923076923,189.20762867647056" stroke="#e45756" stroke-width="2" opacity="1"/></g></g><path class="foreground" aria-hidden="true" d="" display="none"/></g></g><g class="mark-group role-legend" role="graphics-symbol" aria-roledescription="legend" aria-label="Symbol legend for stroke color with 3 values: DE, MA, NH"><g transform="translate(600,0)"><path class="background" aria-hidden="true" d="M0,0h33v37h-33Z" pointer-events="none"/><g><g class="mark-group role-legend-entry"><g transform="translate(0,0)"><path class="background" aria-hidden="true" d="M0,0h0v0h0Z" pointer-events="none"/><g><g class="mark-group role-scope" role="graphics-object" aria-roledescription="group mark container"><g transform="translate(0,0)"><path class="background" aria-hidden="true" d="M0,0h32.11328125v11h-32.11328125Z" pointer-events="none" opacity="1"/><g><g class="mark-symbol role-legend-symbol" pointer-events="none"><path transform="translate(6,6)" d="M-5,0L5,0" stroke="#4c78a8" stroke-width="1.5" opacity="1"/></g><g class="mark-text role-legend-label" pointer-events="none"><text text-anchor="start" transform="translate(16,9)" font-family="IBM Plex Serif, serif" font-size="10px" fill="#262730" opacity="1">DE</text></g></g><path class="foreground" aria-hidden="true" d="" pointer-events="none" display="none"/></g><g transform="translate(0,13)"><path class="background" aria-hidden="true" d="M0,0h32.11328125v11h-32.11328125Z" pointer-events="none" opacity="1"/><g><g class="mark-symbol role-legend-symbol" pointer-events="none"><path transform="translate(6,6)" d="M-5,0L5,0" stroke="#f58518" stroke-width="1.5" opacity="1"/></g><g class="mark-text role-legend-label" pointer-events="none"><text text-anchor="start" transform="translate(16,9)" font-family="IBM Plex Serif, serif" font-size="10px" fill="#262730" opacity="1">MA</text></g></g><path class="foreground" aria-hidden="true" d="" pointer-events="none" display="none"/></g><g transform="translate(0,26)"><path class="background" aria-hidden="true" d="M0,0h32.11328125v11h-32.11328125Z" pointer-events="none" opacity="1"/><g><g class="mark-symbol role-legend-symbol" pointer-events="none"><path transform="translate(6,6)" d="M-5,0L5,0" stroke="#e45756" stroke-width="1.5" opacity="1"/></g><g class="mark-text role-legend-label" pointer-events="none"><text text-anchor="start" transform="translate(16,9)" font-family="IBM Plex Serif, serif" font-size="10px" fill="#262730" opacity="1">NH</text></g></g><path class="foreground" aria-hidden="true" d="" pointer-events="none" display="none"/></g></g></g><path class="foreground" aria-hidden="true" d="" pointer-events="none" display="none"/></g></g></g><path class="foreground" aria-hidden="true" d="" pointer-events="none" display="none"/></g></g></g><path class="foreground" aria-hidden="true" d="" display="none"/></g></g></g><defs><clipPath id="clip40"><rect x="0" y="0" width="582" height="270"/></clipPath><clipPath id="clip41"><rect x="0" y="0" width="582" height="270"/></clipPath><clipPath id="clip42"><rect x="0" y="0" width="582" height="270"/></clipPath></defs></svg>