<svg xmlns="http://www.w3.org/2000/svg" xmlns:xlink="http://www.w3.org/1999/xlink" version="1.1" class="marks" width="660" height="300" viewBox="0 0 660 300"><rect width="660" height="300" fill="#ffffff"/><g fill="none" stroke-miterlimit="10" transform="translate(26,0)"><g class="mark-group role-frame root" role="graphics-object" aria-roledescription="group mark container"><g transform="translate(0,0)"><path class="background" aria-hidden="true" d="M0.5,0.5h584v280h-584Z" stroke="#ddd"/><g><g class="mark-group role-axis" aria-hidden="true"><g transform="translate(0.5,280.5)"><path class="background" aria-hidden="true" d="M0,0h0v0h0Z" pointer-events="none"/><g><g class="mark-rule role-axis-grid" pointer-events="none"><line transform="translate(0,-280)" x2="0" y2="280" stroke="rgba(38, 39, 48, 0.2)" stroke-width="1" opacity="1"/><line transform="translate(45,-280)" x2="0" y2="280" stroke="rgba(38, 39, 48, 0.2)" stroke-width="1" opacity="1"/><line transform="translate(90,-280)" x2="0" y2="280" stroke="rgba(38, 39, 48, 0.2)" stroke-width="1" opacity="1"/><line transform="translate(135,-280)" x2="0" y2="280" stroke="rgba(38, 39, 48, 0.2)" stroke-width="1" opacity="1"/><line transform="translate(180,-280)" x2="0" y2="280" stroke="rgba(38, 39, 48, 0.2)" stroke-width="1" opacity="1"/><line transform="translate(225,-280)" x2="0" y2="280" stroke="rgba(38, 39, 48, 0.2)" stroke-width="1" opacity="1"/><line transform="translate(270,-280)" x2="0" y2="280" stroke="rgba(38, 39, 48, 0.2)" stroke-width="1" opacity="1"/><line transform="translate(314,-280)" x2="0" y2="280" stroke="rgba(38, 39, 48, 0.2)" stroke-width="1" opacity="1"/><line transform="translate(359,-280)" x2="0" y2="280" stroke="rgba(38, 39, 48, 0.2)" stroke-width="1" opacity="1"/><line transform="translate(404,-280)" x2="0" y2="280" stroke="rgba(38, 39, 48, 0.2)" stroke-width="1" opacity="1"/><line transform="translate(449,-280)" x2="0" y2="280" stroke="rgba(38, 39, 48, 0.2)" stroke-width="1" opacity="1"/><line transform="translate(494,-280)" x2="0" y2="280" stroke="rgba(38, 39, 48, 0.2)" stroke-width="1" opacity="1"/><line transform="translate(539,-280)" x2="0" y2="280" stroke="rgba(38, 39, 48, 0.2)" stroke-width="1" opacity="1"/><line transform="translate(584,-280)" x2="0" y2="280" stroke="rgba(38, 39, 48, 0.2)" stroke-width="1" opacity="1"/></g></g><path class="foreground" aria-hidden="true" d="" pointer-events="none" display="none"/></g></g><g class="mark-group role-axis" aria-hidden="true"><g transform="translate(0.5,0.5)"><path class="background" aria-hidden="true" d="M0,0h0v0h0Z" pointer-events="none"/><g><g class="mark-rule role-axis-grid" pointer-events="none"><line transform="translate(0,257)" x2="584" y2="0" stroke="rgba(38, 39, 48, 0.2)" stroke-width="1" opacity="1"/><line transform="translate(0,210)" x2="584" y2="0" stroke="rgba(38, 39, 48, 0.2)" stroke-width="1" opacity="1"/><line transform="translate(0,163)" x2="584" y2="0" stroke="rgba(38, 39, 48, 0.2)" stroke-width="1" opacity="1"/><line transform="translate(0,117)" x2="584" y2="0" stroke="rgba(38, 39, 48, 0.2)" stroke-width="1" opacity="1"/><line transform="translate(0,70)" x2="584" y2="0" stroke="rgba(38, 39, 48, 0.2)" stroke-width="1" opacity="1"/><line transform="translate(0,23)" x2="584" y2="0" stroke="rgba(38, 39, 48, 0.2)" stroke-width="1" opacity="1"/></g></g><path class="foreground" aria-hidden="true" d="" pointer-events="none" display="none"/></g></g><g class="mark-group role-axis" role="graphics-symbol" aria-roledescription="axis" aria-label="X-axis for a linear scale with values from 0 to 260"><g transform="translate(0.5,280.5)"><path class="background" aria-hidden="true" d="M0,0h0v0h0Z" pointer-events="none"/><g><g class="mark-rule role-axis-tick" pointer-events="none"><line transform="translate(0,0)" x2="0" y2="5" stroke="#888" stroke-width="1" opacity="1"/><line transform="translate(45,0)" x2="0" y2="5" stroke="#888" stroke-width="1" opacity="1"/><line transform="translate(90,0)" x2="0" y2="5" stroke="#888" stroke-width="1" opacity="1"/><line transform="translate(135,0)" x2="0" y2="5" stroke="#888" stroke-width="1" opacity="1"/><line transform="translate(180,0)" x2="0" y2="5" stroke="#888" stroke-width="1" opacity="1"/><line transform="translate(225,0)" x2="0" y2="5" stroke="#888" stroke-width="1" opacity="1"/><line transform="translate(270,0)" x2="0" y2="5" stroke="#888" stroke-width="1" opacity="1"/><line transform="translate(314,0)" x2="0" y2="5" stroke="#888" stroke-width="1" opacity="1"/><line transform="translate(359,0)" x2="0" y2="5" stroke="#888" stroke-width="1" opacity="1"/><line transform="translate(404,0)" x2="0" y2="5" stroke="#888" stroke-width="1" opacity="1"/><line transform="translate(449,0)" x2="0" y2="5" stroke="#888" stroke-width="1" opacity="1"/><line transform="translate(494,0)" x2="0" y2="5" stroke="#888" stroke-width="1" opacity="1"/><line transform="translate(539,0)" x2="0" y2="5" stroke="#888" stroke-width="1" opacity="1"/><line transform="translate(584,0)" x2="0" y2="5" stroke="#888" stroke-width="1" opacity="1"/></g><g class="mark-text role-axis-label" pointer-events="none"><text text-anchor="start" transform="translate(0,15)" font-family="IBM Plex Serif, serif" font-size="10px" fill="#262730" opacity="1">0</text><text text-anchor="middle" transform="translate(44.92307692307693,15)" font-family="IBM Plex Serif, serif" font-size="10px" fill="#262730" opacity="1">20</text><text text-anchor="middle" transform="translate(89.84615384615385,15)" font-family="IBM Plex Serif, serif" font-size="10px" fill="#262730" opacity="1">40</text><text text-anchor="middle" transform="translate(134.76923076923077,15)" font-family="IBM Plex Serif, serif" font-size="10px" fill="#262730" opacity="1">60</text><text text-anchor="middle" transform="translate(179.6923076923077,15)" font-family="IBM Plex Serif, serif" font-size="10px" fill="#262730" opacity="1">80</text><text text-anchor="middle" transform="translate(224.61538461538464,15)" font-family="IBM Plex Serif, serif" font-size="10px" fill="#262730" opacity="1">100</text><text text-anchor="middle" transform="translate(269.53846153846155,15)" font-family="IBM Plex Serif, serif" font-size="10px" fill="#262730" opacity="1">120</text><text text-anchor="middle" transform="translate(314.46153846153845,15)" font-family="IBM Plex Serif, serif" font-size="10px" fill="#262730" opacity="1">140</text><text text-anchor="middle" transform="translate(359.3846153846154,15)" font-family="IBM Plex Serif, serif" font-size="10px" fill="#262730" opacity="1">160</text><text text-anchor="middle" transform="translate(404.3076923076923,15)" font-family="IBM Plex Serif, serif" font-size="10px" fill="#262730" opacity="1">180</text><text text-anchor="middle" transform="translate(449.2307692307693,15)" font-family="IBM Plex Serif, serif" font-size="10px" fill="#262730" opacity="1">200</text><text text-anchor="middle" transform="translate(494.15384615384613,15)" font-family="IBM Plex Serif, serif" font-size="10px" fill="#262730" opacity="1">220</text><text text-anchor="middle" transform="translate(539.0769230769231,15)" font-family="IBM Plex Serif, serif" font-size="10px" fill="#262730" opacity="1">240</text><text text-anchor="end" transform="translate(584,15)" font-family="IBM Plex Serif, serif" font-size="10px" fill="#262730" opacity="1">260</text></g><g class="mark-rule role-axis-domain" pointer-events="none"><line transform="translate(0,0)" x2="584" y2="0" stroke="#888" stroke-width="1" opacity="1"/></g></g><path class="foreground" aria-hidden="true" d="" pointer-events="none" display="none"/></g></g><g class="mark-group role-axis" role="graphics-symbol" aria-roledescription="axis" aria-label="Y-axis for a linear scale with values from −0.5 to 0.7"><g transform="translate(0.5,0.5)"><path class="background" aria-hidden="true" d="M0,0h0v0h0Z" pointer-events="none"/><g><g class="mark-rule role-axis-tick" pointer-events="none"><line transform="translate(0,257)" x2="-5" y2="0" stroke="#888" stroke-width="1" opacity="1"/><line transform="translate(0,210)" x2="-5" y2="0" stroke="#888" stroke-width="1" opacity="1"/><line transform="translate(0,163)" x2="-5" y2="0" stroke="#888" stroke-width="1" opacity="1"/><line transform="translate(0,117)" x2="-5" y2="0" stroke="#888" stroke-width="1" opacity="1"/><line transform="translate(0,70)" x2="-5" y2="0" stroke="#888" stroke-width="1" opacity="1"/><line transform="translate(0,23)" x2="-5" y2="0" stroke="#888" stroke-width="1" opacity="1"/></g><g class="mark-text role-axis-label" pointer-events="none"><text text-anchor="end" transform="translate(-7,259.6666666666667)" font-family="IBM Plex Serif, serif" font-size="10px" fill="#262730" opacity="1">−0.4</text><text text-anchor="end" transform="translate(-7,213)" font-family="IBM Plex Serif, serif" font-size="10px" fill="#262730" opacity="1">−0.2</text><text text-anchor="end" transform="translate(-7,166.33333333333331)" font-family="IBM Plex Serif, serif" font-size="10px" fill="#262730" opacity="1">0.0</text><text text-anchor="end" transform="translate(-7,119.66666666666666)" font-family="IBM Plex Serif, serif" font-size="10px" fill="#262730" opacity="1">0.2</text><text text-anchor="end" transform="translate(-7,73)" font-family="IBM Plex Serif, serif" font-size="10px" fill="#262730" opacity="1">0.4</text><text text-anchor="end" transform="translate(-7,26.333333333333314)" font-family="IBM Plex Serif, serif" font-size="10px" fill="#262730" opacity="1">0.6</text></g><g class="mark-rule role-axis-domain" pointer-events="none"><line transform="translate(0,280)" x2="0" y2="-280" stroke="#888" stroke-width="1" opacity="1"/></g></g><path class="foreground" aria-hidden="true" d="" pointer-events="none" display="none"/></g></g><g class="mark-group role-scope pathgroup" role="graphics-object" aria-roledescription="group mark container"><g transform="translate(0,0)"><path class="background" aria-hidden="true" d="M0,0h584v280h-584Z"/><g><g class="mark-line role-mark marks" clip-path="url(#clip50)" role="graphics-object" aria-roledescription="line mark container"><path aria-label="variable: LA; index: 0; value: −0.257479156638" role="graphics-symbol" aria-roledescription="line mark" d="M0,223.4118032155579L2.246153846153846,219.21103944032606L4.492307692307692,215.79651487436217L6.7384615384615385,212.38199030839834L8.984615384615385,207.64209107538272L11.230769230769232,202.54276820384456L13.476923076923077,197.06155771637626L15.723076923076924,192.0520907544687L17.96923076923077,187.51436731812203L20.215384615384618,181.56141330509288L22.461538461538463,174.1483007605661L24.70769230769231,167.02721992233882L26.953846153846154,159.2996116941048L29.200000000000003,151.7292513077244L31.446153846153848,143.93425114726745L33.69230769230769,135.86968325791855L35.93846153846154,129.2203459452521L38.184615384615384,124.03116716408333L40.430769230769236,118.95430826995279L42.67692307692308,114.46151278842142L44.92307692307693,110.754956516158L47.16923076923077,105.99259330573473L49.41538461538462,101.85922146272581L51.66153846153846,97.65845768749398L53.90769230769231,93.45769391226213L56.15384615384616,91.48086390038829L58.400000000000006,89.41417797888384L60.64615384615385,88.15619524405503L62.892307692307696,88.98736240813834L65.13846153846154,90.35766503000544L67.38461538461539,91.57071981001894L69.63076923076923,92.78377459003244L71.87692307692308,93.3004460704085L74.12307692307692,95.63669972080484L76.36923076923077,97.79324155193994L78.61538461538461,99.43311190269888L80.86153846153847,100.93819838901194L83.1076923076923,104.08315522608392L85.35384615384616,107.22811206315588L87.6,110.62017265171207L89.84615384615385,113.18106607618498L92.09230769230768,116.59559064214882L94.33846153846154,119.98765123070504L96.58461538461538,123.94131125445267L98.83076923076923,127.60293957190076L101.07692307692308,131.26456788934885L103.32307692307693,135.4653316645807L105.56923076923077,138.96971214017523L107.81538461538462,141.91249318057828L110.06153846153846,145.5067295658034L112.30769230769232,149.86474118288888L114.55384615384615,154.177824845159L116.80000000000001,158.49090850742917L119.04615384615384,164.2192227463817L121.2923076923077,170.66638426237927L123.53846153846153,176.82151407207726L125.78461538461539,182.3476525143609L128.03076923076924,187.08755174737652L130.27692307692308,190.4796123359327L132.52307692307693,193.87167292448896L134.76923076923077,194.7477680433876L137.01538461538462,196.05067873303167L139.26153846153846,196.49995828118483L141.5076923076923,197.42098135489877L143.75384615384615,197.98258079009022L146,200.0492667115946L148.24615384615385,202.11595263309906L150.4923076923077,204.63191810275666L152.73846153846154,206.7435319790764L154.98461538461538,209.23703347132636L157.23076923076923,211.28125541542315L159.47692307692307,213.2805494047046L161.72307692307695,215.18998748435547L163.96923076923076,217.0994255640063L166.2153846153846,219.57046307884855L168.46153846153845,222.3335322999904L170.70769230769233,225.2987773178011L172.95384615384614,227.63503096819744L175.2,229.8589647315555L177.44615384615383,231.56622701453742L179.6923076923077,233.27348929751935L181.93846153846155,235.16046339976253L184.18461538461537,236.89018966015215L186.43076923076922,239.0467314912872L188.6769230769231,240.9786335483457L190.92307692307693,242.95546356021953L193.16923076923075,244.6851898206091L195.4153846153846,246.4149160809987L197.66153846153847,247.29101119989733L199.90769230769232,247.83014665768113L202.15384615384616,247.6728988158275L204.39999999999998,248.54899393472613L206.64615384615385,249.47001700844004L208.8923076923077,250.2337922403004L211.13846153846154,250.99756747216074L213.38461538461536,251.87366259105937L215.63076923076923,252.23308622958186L217.87692307692308,252.4801899810661L220.12307692307692,252.50265395847373L222.36923076923077,251.82873463624404L224.61538461538464,250.7953916754918L226.86153846153846,249.7620487147396L229.1076923076923,248.751169731395L231.35384615384615,248.0772504091653L233.60000000000002,247.9424665447194L235.84615384615384,247.26854722248967L238.09230769230768,247.22361926767437L240.33846153846153,247.7852187028658L242.5846153846154,248.3468181380572L244.83076923076925,248.63884984435674L247.07692307692307,249.1779853021405L249.3230769230769,248.88595359584096L251.56923076923078,248.3018901832419L253.81538461538463,247.5830429061969L256.0615384615385,246.16781232951448L258.3076923076923,244.75258175283207L260.55384615384617,243.71923879207986L262.8,242.46125605725103L265.04615384615386,242.14676037354386L267.2923076923077,242.0344404865056L269.53846153846155,241.71994480279838L271.7846153846154,241.89965662205964L274.03076923076924,242.0793684413209L276.2769230769231,242.0344404865056L278.5230769230769,242.32647219280514L280.7692307692308,241.89965662205964L283.0153846153846,241.67501684798307L285.26153846153846,241.1358813901993L287.5076923076923,240.41703411315427L289.75384615384615,239.69818683610927L292,239.15905137832547L294.24615384615385,237.90106864349667L296.4923076923077,236.44091011199902L298.73846153846154,235.0706074901319L300.9846153846154,234.17204839382563L303.2307692307693,233.09377747825806L305.4769230769231,232.01550656269058L307.7230769230769,229.07272552228747L309.96923076923076,225.3437052726164L312.2153846153846,221.0755495651616L314.46153846153845,216.53782612881488L316.7076923076923,210.85443984467764L318.95384615384614,204.5645261705337L321.20000000000005,198.27461249638972L323.4461538461539,193.4673213311511L325.6923076923077,189.10930971406566L327.9384615384615,185.1107217355027L330.18461538461537,180.8201020506402L332.4307692307692,177.495433394307L334.67692307692306,175.20410769872598L336.9230769230769,172.91278200314494L339.1692307692308,167.7685311767915L341.41538461538465,162.62428035043806L343.6615384615385,157.50249350149227L345.9076923076923,152.76259426847662L348.15384615384613,147.19152787137767L350.4,140.83422226501074L352.6461538461538,134.47691665864383L354.89230769230767,130.07397708674304L357.13846153846157,125.98553319854949L359.3846153846154,120.68403453034239L361.63076923076926,115.09050415583583L363.8769230769231,110.50785276467379L366.1230769230769,105.29621000609735L368.36923076923074,100.08456724752091L370.6153846153846,96.91714643304128L372.86153846153843,94.58089278264494L375.10769230769233,92.76131061262478L377.3538461538462,91.70550367446484L379.6,90.06563332370594L381.84615384615387,91.00912037482753L384.0923076923077,91.95260742594913L386.3384615384615,91.9301434485414L388.58461538461535,90.51491287185907L390.8307692307692,89.39171400147619L393.0769230769231,87.34749205737937L395.32307692307694,86.65110875774202L397.5692307692308,84.71920670068356L399.81538461538463,82.78730464362502L402.0615384615385,82.87716055325565L404.3076923076923,82.71991271140209L406.5538461538461,81.7764256602805L408.79999999999995,80.8329386091589L411.04615384615386,78.63146882320852L413.2923076923077,76.42999903725811L415.53846153846155,74.22852925130773L417.7846153846154,67.42194409678767L420.03076923076924,60.817534738936516L422.2769230769231,54.41530117775426L424.5230769230769,48.215243413240884L426.7692307692307,41.431122236128445L429.0153846153846,33.838297872340405L431.26153846153846,26.245473508552372L433.5076923076923,23.39254837777993L435.75384615384615,21.348326433683056L438,19.978023811816055L440.24615384615385,19.169320625140365L442.4923076923077,20.472231314784523L444.73846153846154,21.999781778505117L446.9846153846154,23.527332242225746L449.2307692307693,24.201251564455557L451.4769230769231,26.17808157632937L453.7230769230769,29.098398639324778L455.96923076923076,32.93973877603409L458.2153846153846,36.870934822374096L460.46153846153845,42.576785083919006L462.7076923076923,48.28263534546388L464.95384615384614,54.77472481627676L467.20000000000005,60.52550303263695L469.4461538461539,66.34367318122008L471.6923076923077,71.57777991720418L473.9384615384615,76.29521517281215L476.18461538461537,80.81047463175122L478.4307692307692,85.32573409069025L480.67692307692306,90.38012900741312L482.9230769230769,95.6591636982125L485.1692307692308,100.28674304418985L487.41538461538465,105.65563364461988L489.6615384615385,112.2825069798787L491.9076923076923,118.37024485735377L494.15384615384613,124.45798273482876L496.4,130.07397708674304L498.6461538461538,135.8921472353262L500.89230769230767,143.03569205096113L503.13846153846157,149.9995250473348L505.3846153846154,155.45827155739545L507.63076923076926,161.6134013670935L509.8769230769231,167.7685311767915L512.123076923077,174.30554860241966L514.3692307692307,180.93242193767853L516.6153846153846,187.06508776996887L518.8615384615384,192.16441064150703L521.1076923076923,197.30866146786047L523.3538461538461,201.68913706235358L525.6,206.06961265684672L527.8461538461538,208.74282596835792L530.0923076923077,211.19139950579253L532.3384615384615,214.20157247841854L534.5846153846154,217.84073681845896L536.8307692307692,221.0755495651616L539.0769230769231,224.55746606334841L541.323076923077,228.03938256153526L543.5692307692308,230.86984371490004L545.8153846153846,233.36334520715L548.0615384615385,235.29524726420848L550.3076923076923,237.51918102756656L552.5538461538462,240.32717820352363L554.8,242.86560765058888L557.0461538461539,245.40403709765414L559.2923076923078,247.60550688360453" stroke="#4c78a8" stroke-width="2" opacity="1"/></g></g><path class="foreground" aria-hidden="true" d="" display="none"/></g><g transform="translate(0,0)"><path class="background" aria-hidden="true" d="M0,0h584v280h-584Z"/><g><g class="mark-line role-mark marks" clip-path="url(#clip51)" role="graphics-object" aria-roledescription="line mark container"><path aria-label="variable: MS; index: 0; value: −0.179104039845" role="graphics-symbol" aria-roledescription="line mark" d="M0,205.12427596384418L2.246153846153846,201.6378343479063L4.492307692307692,198.60333886736765L6.7384615384615385,194.0515956465597L8.984615384615385,187.72434975096849L11.230769230769232,184.30247186865898L13.476923076923077,180.8805939863494L15.723076923076924,177.74925290536805L17.96923076923077,175.23126729385723L20.215384615384618,171.42200700977682L22.461538461538463,168.4843571296809L24.70769230769231,165.54670724958495L26.953846153846154,159.251743220808L29.200000000000003,153.63469839513004L31.446153846153848,146.661815163254L33.69230769230769,140.9802066039476L35.93846153846154,137.91342925659475L38.184615384615384,134.2655783065855L40.430769230769236,128.90678841542154L42.67692307692308,125.71088360081167L44.92307692307693,122.64410625345879L47.16923076923077,120.5135030437189L49.41538461538462,117.60813503043724L51.66153846153846,113.08867367644349L53.90769230769231,109.98961446227636L56.15384615384616,108.60149418926402L58.400000000000006,106.66458218040954L60.64615384615385,105.69612617598233L62.892307692307696,104.21116030252722L65.13846153846154,102.98444936358611L67.38461538461539,102.56478509500091L69.63076923076923,102.56478509500091L71.87692307692308,102.56478509500091L74.12307692307692,102.79075816270064L76.36923076923077,103.43639549898545L78.61538461538461,104.46941523704115L80.86153846153847,106.43860911270986L83.1076923076923,109.44082272643428L85.35384615384616,110.11874192953334L87.6,110.79666113263237L89.84615384615385,113.96028408042802L92.09230769230768,115.57437742114001L94.33846153846154,116.57511529238151L96.58461538461538,118.12464489946507L98.83076923076923,119.06081903707806L101.07692307692308,119.8678657074341L103.32307692307693,120.6749123777901L105.56923076923077,120.44893931009041L107.81538461538462,121.22370411363221L110.06153846153846,123.64484412470027L112.30769230769232,127.22813134108097L114.55384615384615,130.7791366906475L116.80000000000001,135.4277255118982L119.04615384615384,140.07631433314893L121.2923076923077,145.82248662608376L123.53846153846153,151.31040398450475L125.78461538461539,157.6053680132817L128.03076923076924,163.99717764250138L130.27692307692308,169.5496587345508L132.52307692307693,174.81160302527212L134.76923076923077,180.07354731599335L137.01538461538462,183.33401586423167L139.26153846153846,187.27240361556915L141.5076923076923,187.9826046854824L143.75384615384615,188.46683268769604L146,189.6289798930087L148.24615384615385,191.5981737686774L150.4923076923077,193.5673676443461L152.73846153846154,194.98776978417266L154.98461538461538,196.27904445674235L157.23076923076923,201.86380741560598L159.47692307692307,206.51239623685672L161.72307692307695,214.38917173953146L163.96923076923076,221.36205497140753L166.2153846153846,228.33493820328357L168.46153846153845,236.24399557277258L170.70769230769233,239.1816454528685L172.95384615384614,240.8280206603948L175.2,242.31298653384985L177.44615384615383,239.56902785463942L179.6923076923077,236.7282235749862L181.93846153846155,233.88741929533302L184.18461538461537,230.400977679395L186.43076923076922,231.208024349751L188.6769230769231,231.59540675152186L190.92307692307693,231.3048699501937L193.16923076923075,231.98278915329277L195.4153846153846,232.91896329090574L197.66153846153847,233.85513742851876L199.90769230769232,234.5007747648036L202.15384615384616,237.01876037631436L204.39999999999998,239.08479985242582L206.64615384615385,242.31298653384985L208.8923076923077,244.83097214536068L211.13846153846154,247.6072126913854L213.38461538461536,250.38345323741012L215.63076923076923,251.90070097767943L217.87692307692308,252.22351964582185L220.12307692307692,251.73929164360823L222.36923076923077,249.31815163254015L224.61538461538464,246.219092418373L226.86153846153846,243.47513373916252L229.1076923076923,240.73117505995208L231.35384615384615,239.246209186497L233.60000000000002,237.76124331304192L235.84615384615384,235.75976757055898L238.09230769230768,236.01802250507288L240.33846153846153,237.01876037631436L242.5846153846154,236.7282235749862L244.83076923076925,236.43768677365804L247.07692307692307,234.72674783250324L249.3230769230769,232.66070835639184L251.56923076923078,230.14272274488104L253.81538461538463,227.01138166389964L256.0615384615385,223.6217856484044L258.3076923076923,221.23292750415058L260.55384615384617,218.84406935989674L262.8,218.00474082272646L265.04615384615386,217.5527946873271L267.2923076923077,219.00547869396794L269.53846153846155,218.87635122671097L271.7846153846154,218.5212506917543L274.03076923076924,218.84406935989674L276.2769230769231,219.16688802803912L278.5230769230769,219.87708909795245L280.7692307692308,220.07078029883786L283.0153846153846,219.32829736211033L285.26153846153846,221.23292750415058L287.5076923076923,221.78171923999267L289.75384615384615,220.58729016786572L292,219.19916989485338L294.24615384615385,217.22997601918468L296.4923076923077,215.13165467625902L298.73846153846154,212.96876959970484L300.9846153846154,208.64299944659658L303.2307692307693,206.31870503597125L305.4769230769231,204.12353809260287L307.7230769230769,202.83226342003323L309.96923076923076,199.95917727356579L312.2153846153846,195.7302527209002L314.46153846153845,189.53213429256596L316.7076923076923,184.62529053680137L318.95384615384614,178.23348090758165L321.20000000000005,171.0991883416344L323.4461538461539,163.25469470577383L325.6923076923077,156.57234827522598L327.9384615384615,150.98758531636233L330.18461538461537,148.04993543626637L332.4307692307692,144.40208448625714L334.67692307692306,142.01322634200335L336.9230769230769,140.10859619996316L339.1692307692308,138.20396605792294L341.41538461538465,134.9434975096846L343.6615384615385,131.1665190924184L345.9076923076923,128.0674598782513L348.15384615384613,124.16135399372811L350.4,119.35135583840618L352.6461538461538,116.15545102379635L354.89230769230767,112.95954620918654L357.13846153846157,110.60296993174693L359.3846153846154,108.53693045563556L361.63076923076926,105.11505257332597L363.8769230769231,101.04753735473156L366.1230769230769,98.49726987640658L368.36923076923074,95.0431101272828L370.6153846153846,91.58895037815907L372.86153846153843,89.4260653016049L375.10769230769233,86.29472422062352L377.3538461538462,83.87358420955545L379.6,83.64761114185573L381.84615384615387,82.00123593432949L384.0923076923077,80.22573325954623L386.3384615384615,78.45023058476295L388.58461538461535,76.77157351042247L390.8307692307692,76.0936543073234L393.0769230769231,74.12446043165471L395.32307692307694,71.41278361925843L397.5692307692308,69.50815347721829L399.81538461538463,67.6358052019923L402.0615384615385,65.76345692676631L404.3076923076923,65.18238332410998L406.5538461538461,62.95493451392732L408.79999999999995,60.178693967902674L411.04615384615386,57.40245342187787L413.2923076923077,54.85218594355288L415.53846153846155,52.30191846522789L417.7846153846154,49.751650986902774L420.03076923076924,46.29749123777904L422.2769230769231,42.778767755026806L424.5230769230769,41.74574801697104L426.7692307692307,40.71272827891528L429.0153846153846,39.93796347537358L431.26153846153846,39.80883600811659L433.5076923076923,39.67970854085968L435.75384615384615,39.93796347537358L438,41.61662054971409L440.24615384615385,43.19843202361191L442.4923076923077,44.55427042980997L444.73846153846154,46.910846707249576L446.9846153846154,50.913798192215495L449.2307692307693,54.91674967718134L451.4769230769231,60.566076369673524L453.7230769230769,66.57050359712233L455.96923076923076,73.51110496218413L458.2153846153846,81.29103486441619L460.46153846153845,90.2976757055894L462.7076923076923,97.85163254012178L464.95384615384614,105.40558937465416L467.20000000000005,112.5398819406014L469.4461538461539,120.83632171186132L471.6923076923077,126.25967533665376L473.9384615384615,131.19880095923264L476.18461538461537,135.3631617782697L478.4307692307692,140.17315993359165L480.67692307692306,144.9831580889135L482.9230769230769,147.56570743405277L485.1692307692308,150.2128205128205L487.41538461538465,154.50630879911458L489.6615384615385,159.7359712230216L491.9076923076923,164.28771444382957L494.15384615384613,167.87100166021028L496.4,171.45428887659105L498.6461538461538,174.8761667589006L500.89230769230767,181.2679763881203L503.13846153846157,187.30468548238335L505.3846153846154,193.9870319129312L507.63076923076926,200.41112340896515L509.8769230769231,206.67380557092793L512.123076923077,212.9364877328906L514.3692307692307,220.7809813687512L516.6153846153846,225.33272458955918L518.8615384615384,230.3686958125807L521.1076923076923,234.40392916436085L523.3538461538461,237.59983397897068L525.6,240.34379265818117L527.8461538461538,243.08775133739164L530.0923076923077,244.34674414314705L532.3384615384615,245.3474820143885L534.5846153846154,246.41278361925845L536.8307692307692,247.41352149049993L539.0769230769231,248.64023242944108L541.323076923077,250.93224497325218L543.5692307692308,253.2242575170633L545.8153846153846,256.6138535325586L548.0615384615385,260.29398634938207L550.3076923076923,263.0379450285925L552.5538461538462,265.8141855746173L554.8,268.2998893193138L557.0461538461539,270.6564655967534L559.2923076923078,273.013041874193" stroke="#f58518" stroke-width="2" opacity="1"/></g></g><path class="foreground" aria-hidden="true" d="" display="none"/></g></g><g class="mark-group role-legend" role="graphics-symbol" aria-roledescription="legend" aria-label="Symbol legend for stroke color with 2 values: LA, MS"><g transform="translate(602,0)"><path class="background" aria-hidden="true" d="M0,0h31v24h-31Z" pointer-events="none"/><g><g class="mark-group role-legend-entry"><g transform="translate(0,0)"><path class="background" aria-hidden="true" d="M0,0h0v0h0Z" pointer-events="none"/><g><g class="mark-group role-scope" role="graphics-object" aria-roledescription="group mark container"><g transform="translate(0,0)"><path class="background" aria-hidden="true" d="M0,0h30.453125v11h-30.453125Z" pointer-events="none" opacity="1"/><g><g class="mark-symbol role-legend-symbol" pointer-events="none"><path transform="translate(6,6)" d="M-5,0L5,0" stroke="#4c78a8" stroke-width="1.5" opacity="1"/></g><g class="mark-text role-legend-label" pointer-events="none"><text text-anchor="start" transform="translate(16,9)" font-family="IBM Plex Serif, serif" font-size="10px" fill="#262730" opacity="1">LA</text></g></g><path class="foreground" aria-hidden="true" d="" pointer-events="none" display="none"/></g><g transform="translate(0,13)"><path class="background" aria-hidden="true" d="M0,0h30.453125v11h-30.453125Z" pointer-events="none" opacity="1"/><g><g class="mark-symbol role-legend-symbol" pointer-events="none"><path transform="translate(6,6)" d="M-5,0L5,0" stroke="#f58518" stroke-width="1.5" opacity="1"/></g><g class="mark-text role-legend-label" pointer-events="none"><text text-anchor="start" transform="translate(16,9)" font-family="IBM Plex Serif, serif" font-size="10px" fill="#262730" opacity="1">MS</text></g></g><path class="foreground" aria-hidden="true" d="" pointer-events="none" display="none"/></g></g></g><path class="foreground" aria-hidden="true" d="" pointer-events="none" display="none"/></g></g></g><path class="foreground" aria-hidden="true" d="" pointer-events="none" display="none"/></g></g></g><path class="foreground" aria-hidden="true" d="" display="none"/></g></g></g><defs><clipPath id="clip50"><rect x="0" y="0" width="584" height="280"/></clipPath><clipPath id="clip51"><rect x="0" y="0" width="584" height="280"/></clipPath></defs></svg>