<svg xmlns="http://www.w3.org/2000/svg" xmlns:xlink="http://www.w3.org/1999/xlink" version="1.1" class="marks" width="660" height="300" viewBox="0 0 660 300"><rect width="660" height="300" fill="#ffffff"/><g fill="none" stroke-miterlimit="10" transform="translate(26,0)"><g class="mark-group role-frame root" role="graphics-object" aria-roledescription="group mark container"><g transform="translate(0,0)"><path class="background" aria-hidden="true" d="M0.5,0.5h584v275h-584Z" stroke="#ddd"/><g><g class="mark-group role-axis" aria-hidden="true"><g transform="translate(0.5,275.5)"><path class="background" aria-hidden="true" d="M0,0h0v0h0Z" pointer-events="none"/><g><g class="mark-rule role-axis-grid" pointer-events="none"><line transform="translate(0,-275)" x2="0" y2="275" stroke="rgba(38, 39, 48, 0.2)" stroke-width="1" opacity="1"/><line transform="translate(45,-275)" x2="0" y2="275" stroke="rgba(38, 39, 48, 0.2)" stroke-width="1" opacity="1"/><line transform="translate(90,-275)" x2="0" y2="275" stroke="rgba(38, 39, 48, 0.2)" stroke-width="1" opacity="1"/><line transform="translate(135,-275)" x2="0" y2="275" stroke="rgba(38, 39, 48, 0.2)" stroke-width="1" opacity="1"/><line transform="translate(180,-275)" x2="0" y2="275" stroke="rgba(38, 39, 48, 0.2)" stroke-width="1" opacity="1"/><line transform="translate(225,-275)" x2="0" y2="275" stroke="rgba(38, 39, 48, 0.2)" stroke-width="1" opacity="1"/><line transform="translate(270,-275)" x2="0" y2="275" stroke="rgba(38, 39, 48, 0.2)" stroke-width="1" opacity="1"/><line transform="translate(314,-275)" x2="0" y2="275" stroke="rgba(38, 39, 48, 0.2)" stroke-width="1" opacity="1"/><line transform="translate(359,-275)" x2="0" y2="275" stroke="rgba(38, 39, 48, 0.2)" stroke-width="1" opacity="1"/><line transform="translate(404,-275)" x2="0" y2="275" stroke="rgba(38, 39, 48, 0.2)" stroke-width="1" opacity="1"/><line transform="translate(449,-275)" x2="0" y2="275" stroke="rgba(38, 39, 48, 0.2)" stroke-width="1" opacity="1"/><line transform="translate(494,-275)" x2="0" y2="275" stroke="rgba(38, 39, 48, 0.2)" stroke-width="1" opacity="1"/><line transform="translate(539,-275)" x2="0" y2="275" stroke="rgba(38, 39, 48, 0.2)" stroke-width="1" opacity="1"/><line transform="translate(584,-275)" x2="0" y2="275" stroke="rgba(38, 39, 48, 0.2)" stroke-width="1" opacity="1"/></g></g><path class="foreground" aria-hidden="true" d="" pointer-events="none" display="none"/></g></g><g class="mark-group role-axis" aria-hidden="true"><g transform="translate(0.5,0.5)"><path class="background" aria-hidden="true" d="M0,0h0v0h0Z" pointer-events="none"/><g><g class="mark-rule role-axis-grid" pointer-events="none"><line transform="translate(0,275)" x2="584" y2="0" stroke="rgba(38, 39, 48, 0.2)" stroke-width="1" opacity="1"/><line transform="translate(0,225)" x2="584" y2="0" stroke="rgba(38, 39, 48, 0.2)" stroke-width="1" opacity="1"/><line transform="translate(0,175)" x2="584" y2="0" stroke="rgba(38, 39, 48, 0.2)" stroke-width="1" opacity="1"/><line transform="translate(0,125)" x2="584" y2="0" stroke="rgba(38, 39, 48, 0.2)" stroke-width="1" opacity="1"/><line transform="translate(0,75)" x2="584" y2="0" stroke="rgba(38, 39, 48, 0.2)" stroke-width="1" opacity="1"/><line transform="translate(0,25)" x2="584" y2="0" stroke="rgba(38, 39, 48, 0.2)" stroke-width="1" opacity="1"/></g></g><path class="foreground" aria-hidden="true" d="" pointer-events="none" display="none"/></g></g><g class="mark-group role-axis" role="graphics-symbol" aria-roledescription="axis" aria-label="X-axis for a linear scale with values from 0 to 260"><g transform="translate(0.5,275.5)"><path class="background" aria-hidden="true" d="M0,0h0v0h0Z" pointer-events="none"/><g><g class="mark-rule role-axis-tick" pointer-events="none"><line transform="translate(0,0)" x2="0" y2="5" stroke="#888" stroke-width="1" opacity="1"/><line transform="translate(45,0)" x2="0" y2="5" stroke="#888" stroke-width="1" opacity="1"/><line transform="translate(90,0)" x2="0" y2="5" stroke="#888" stroke-width="1" opacity="1"/><line transform="translate(135,0)" x2="0" y2="5" stroke="#888" stroke-width="1" opacity="1"/><line transform="translate(180,0)" x2="0" y2="5" stroke="#888" stroke-width="1" opacity="1"/><line transform="translate(225,0)" x2="0" y2="5" stroke="#888" stroke-width="1" opacity="1"/><line transform="translate(270,0)" x2="0" y2="5" stroke="#888" stroke-width="1" opacity="1"/><line transform="translate(314,0)" x2="0" y2="5" stroke="#888" stroke-width="1" opacity="1"/><line transform="translate(359,0)" x2="0" y2="5" stroke="#888" stroke-width="1" opacity="1"/><line transform="translate(404,0)" x2="0" y2="5" stroke="#888" stroke-width="1" opacity="1"/><line transform="translate(449,0)" x2="0" y2="5" stroke="#888" stroke-width="1" opacity="1"/><line transform="translate(494,0)" x2="0" y2="5" stroke="#888" stroke-width="1" opacity="1"/><line transform="translate(539,0)" x2="0" y2="5" stroke="#888" stroke-width="1" opacity="1"/><line transform="translate(584,0)" x2="0" y2="5" stroke="#888" stroke-width="1" opacity="1"/></g><g class="mark-text role-axis-label" pointer-events="none"><text text-anchor="start" transform="translate(0,15)" font-family="IBM Plex Serif, serif" font-size="10px" fill="#262730" opacity="1">0</text><text text-anchor="middle" transform="translate(44.92307692307693,15)" font-family="IBM Plex Serif, serif" font-size="10px" fill="#262730" opacity="1">20</text><text text-anchor="middle" transform="translate(89.84615384615385,15)" font-family="IBM Plex Serif, serif" font-size="10px" fill="#262730" opacity="1">40</text><text text-anchor="middle" transform="translate(134.76923076923077,15)" font-family="IBM Plex Serif, serif" font-size="10px" fill="#262730" opacity="1">60</text><text text-anchor="middle" transform="translate(179.6923076923077,15)" font-family="IBM Plex Serif, serif" font-size="10px" fill="#262730" opacity="1">80</text><text text-anchor="middle" transform="translate(224.61538461538464,15)" font-family="IBM Plex Serif, serif" font-size="10px" fill="#262730" opacity="1">100</text><text text-anchor="middle" transform="translate(269.53846153846155,15)" font-family="IBM Plex Serif, serif" font-size="10px" fill="#262730" opacity="1">120</text><text text-anchor="middle" transform="translate(314.46153846153845,15)" font-family="IBM Plex Serif, serif" font-size="10px" fill="#262730" opacity="1">140</text><text text-anchor="middle" transform="translate(359.3846153846154,15)" font-family="IBM Plex Serif, serif" font-size="10px" fill="#262730" opacity="1">160</text><text text-anchor="middle" transform="translate(404.3076923076923,15)" font-family="IBM Plex Serif, serif" font-size="10px" fill="#262730" opacity="1">180</text><text text-anchor="middle" transform="translate(449.2307692307693,15)" font-family="IBM Plex Serif, serif" font-size="10px" fill="#262730" opacity="1">200</text><text text-anchor="middle" transform="translate(494.15384615384613,15)" font-family="IBM Plex Serif, serif" font-size="10px" fill="#262730" opacity="1">220</text><text text-anchor="middle" transform="translate(539.0769230769231,15)" font-family="IBM Plex Serif, serif" font-size="10px" fill="#262730" opacity="1">240</text><text text-anchor="end" transform="translate(584,15)" font-family="IBM Plex Serif, serif" font-size="10px" fill="#262730" opacity="1">260</text></g><g class="mark-rule role-axis-domain" pointer-events="none"><line transform="translate(0,0)" x2="584" y2="0" stroke="#888" stroke-width="1" opacity="1"/></g></g><path class="foreground" aria-hidden="true" d="" pointer-events="none" display="none"/></g></g><g class="mark-group role-axis" role="graphics-symbol" aria-roledescription="axis" aria-label="Y-axis for a linear scale with values from −0.4 to 0.7"><g transform="translate(0.5,0.5)"><path class="background" aria-hidden="true" d="M0,0h0v0h0Z" pointer-events="none"/><g><g class="mark-rule role-axis-tick" pointer-events="none"><line transform="translate(0,275)" x2="-5" y2="0" stroke="#888" stroke-width="1" opacity="1"/><line transform="translate(0,225)" x2="-5" y2="0" stroke="#888" stroke-width="1" opacity="1"/><line transform="translate(0,175)" x2="-5" y2="0" stroke="#888" stroke-width="1" opacity="1"/><line transform="translate(0,125)" x2="-5" y2="0" stroke="#888" stroke-width="1" opacity="1"/><line transform="translate(0,75)" x2="-5" y2="0" stroke="#888" stroke-width="1" opacity="1"/><line transform="translate(0,25)" x2="-5" y2="0" stroke="#888" stroke-width="1" opacity="1"/></g><g class="mark-text role-axis-label" pointer-events="none"><text text-anchor="end" transform="translate(-7,278)" font-family="IBM Plex Serif, serif" font-size="10px" fill="#262730" opacity="1">−0.4</text><text text-anchor="end" transform="translate(-7,227.99999999999997)" font-family="IBM Plex Serif, serif" font-size="10px" fill="#262730" opacity="1">−0.2</text><text text-anchor="end" transform="translate(-7,178)" font-family="IBM Plex Serif, serif" font-size="10px" fill="#262730" opacity="1">0.0</text><text text-anchor="end" transform="translate(-7,127.99999999999999)" font-family="IBM Plex Serif, serif" font-size="10px" fill="#262730" opacity="1">0.2</text><text text-anchor="end" transform="translate(-7,78)" font-family="IBM Plex Serif, serif" font-size="10px" fill="#262730" opacity="1">0.4</text><text text-anchor="end" transform="translate(-7,28.000000000000007)" font-family="IBM Plex Serif, serif" font-size="10px" fill="#262730" opacity="1">0.6</text></g><g class="mark-rule role-axis-domain" pointer-events="none"><line transform="translate(0,275)" x2="0" y2="-275" stroke="#888" stroke-width="1" opacity="1"/></g></g><path class="foreground" aria-hidden="true" d="" pointer-events="none" display="none"/></g></g><g class="mark-group role-scope pathgroup" role="graphics-object" aria-roledescription="group mark container"><g transform="translate(0,0)"><path class="background" aria-hidden="true" d="M0,0h584v275h-584Z"/><g><g class="mark-line role-mark marks" clip-path="url(#clip48)" role="graphics-object" aria-roledescription="line mark container"><path aria-label="variable: DC; index: 0; value: −0.0630106100796" role="graphics-symbol" aria-roledescription="line mark" d="M0,190.7526525198939L2.246153846153846,196.8866047745358L4.492307692307692,203.0205570291777L6.7384615384615385,209.81763925729442L8.984615384615385,216.28315649867375L11.230769230769232,221.75397877984082L13.476923076923077,227.72214854111405L15.723076923076924,233.19297082228118L17.96923076923077,237.83488063660474L20.215384615384618,240.15583554376656L22.461538461538463,240.65318302387266L24.70769230769231,239.32692307692307L26.953846153846154,238.49801061007958L29.200000000000003,238.33222811671087L31.446153846153848,236.84018567639257L33.69230769230769,237.83488063660474L35.93846153846154,239.32692307692307L38.184615384615384,239.99005305039788L40.430769230769236,240.65318302387266L42.67692307692308,242.3110079575597L44.92307692307693,243.63726790450926L47.16923076923077,245.95822281167108L49.41538461538462,245.12931034482756L51.66153846153846,243.47148541114058L53.90769230769231,241.97944297082228L56.15384615384616,242.97413793103448L58.400000000000006,239.82427055702914L60.64615384615385,236.01127320954907L62.892307692307696,235.67970822281166L65.13846153846154,236.34283819628646L67.38461538461539,238.16644562334216L69.63076923076923,237.66909814323608L71.87692307692308,234.8507957559682L74.12307692307692,234.51923076923075L76.36923076923077,235.51392572944297L78.61538461538461,233.19297082228118L80.86153846153847,231.3693633952255L83.1076923076923,230.70623342175065L85.35384615384616,234.02188328912464L87.6,238.16644562334216L89.84615384615385,242.97413793103448L92.09230769230768,245.7924403183024L94.33846153846154,247.7818302387268L96.58461538461538,250.26856763925727L98.83076923076923,251.2632625994695L101.07692307692308,251.0974801061008L103.32307692307693,250.76591511936337L105.56923076923077,249.6054376657825L107.81538461538462,250.26856763925727L110.06153846153846,250.434350132626L112.30769230769232,251.2632625994695L114.55384615384615,252.2579575596817L116.80000000000001,252.2579575596817L119.04615384615384,252.092175066313L121.2923076923077,251.5948275862069L123.53846153846153,250.26856763925727L125.78461538461539,251.42904509283818L128.03076923076924,250.60013262599466L130.27692307692308,249.77122015915117L132.52307692307693,250.60013262599466L134.76923076923077,252.42374005305038L137.01538461538462,254.91047745358088L139.26153846153846,257.5629973474801L141.5076923076923,258.2261273209549L143.75384615384615,259.3866047745358L146,260.7128647214854L148.24615384615385,260.0497347480106L150.4923076923077,258.2261273209549L152.73846153846154,255.7393899204244L154.98461538461538,253.41843501326258L157.23076923076923,250.1027851458886L159.47692307692307,248.27917771883287L161.72307692307695,244.96352785145888L163.96923076923076,241.97944297082228L166.2153846153846,240.65318302387266L168.46153846153845,239.65848806366049L170.70769230769233,238.99535809018565L172.95384615384614,239.32692307692307L175.2,237.17175066312998L177.44615384615383,237.83488063660474L179.6923076923077,239.99005305039788L181.93846153846155,240.32161803713527L184.18461538461537,240.81896551724137L186.43076923076922,239.82427055702914L188.6769230769231,239.65848806366049L190.92307692307693,240.15583554376656L193.16923076923075,238.49801061007958L195.4153846153846,235.84549071618036L197.66153846153847,234.18766578249338L199.90769230769232,233.85610079575596L202.15384615384616,234.18766578249338L204.39999999999998,233.69031830238725L206.64615384615385,233.52453580901854L208.8923076923077,233.52453580901854L211.13846153846154,236.01127320954907L213.38461538461536,236.17705570291776L215.63076923076923,235.34814323607426L217.87692307692308,233.35875331564984L220.12307692307692,232.03249336870027L222.36923076923077,231.70092838196283L224.61538461538464,232.03249336870027L226.86153846153846,229.87732095490716L229.1076923076923,231.3693633952255L231.35384615384615,232.69562334217505L233.60000000000002,235.51392572944297L235.84615384615384,238.33222811671087L238.09230769230768,240.32161803713527L240.33846153846153,242.47679045092835L242.5846153846154,244.96352785145888L244.83076923076925,246.28978779840847L247.07692307692307,246.78713527851457L249.3230769230769,247.28448275862067L251.56923076923078,245.6266578249337L253.81538461538463,244.46618037135275L256.0615384615385,243.63726790450926L258.3076923076923,242.14522546419096L260.55384615384617,239.32692307692307L262.8,237.00596816976125L265.04615384615386,233.52453580901854L267.2923076923077,232.69562334217505L269.53846153846155,231.53514588859414L271.7846153846154,229.71153846153845L274.03076923076924,227.39058355437666L276.2769230769231,226.39588859416443L278.5230769230769,227.22480106100795L280.7692307692308,229.37997347480106L283.0153846153846,230.87201591511936L285.26153846153846,234.02188328912464L287.5076923076923,237.83488063660474L289.75384615384615,242.80835543766577L292,246.78713527851457L294.24615384615385,244.96352785145888L296.4923076923077,242.3110079575597L298.73846153846154,238.99535809018565L300.9846153846154,234.68501326259943L303.2307692307693,228.71684350132625L305.4769230769231,222.74867374005305L307.7230769230769,218.27254641909812L309.96923076923076,218.76989389920425L312.2153846153846,218.27254641909812L314.46153846153845,215.78580901856765L316.7076923076923,212.80172413793102L318.95384615384614,210.97811671087533L321.20000000000005,209.48607427055703L323.4461538461539,204.18103448275863L325.6923076923077,198.5444297082228L327.9384615384615,194.89721485411138L330.18461538461537,193.73673740053047L332.4307692307692,190.58687002652522L334.67692307692306,186.77387267904507L336.9230769230769,180.97148541114058L339.1692307692308,179.47944297082228L341.41538461538465,175.66644562334218L343.6615384615385,171.35610079575596L345.9076923076923,166.21684350132625L348.15384615384613,159.75132625994692L350.4,152.29111405835545L352.6461538461538,146.32294429708222L354.89230769230767,142.01259946949602L357.13846153846157,139.0285145888594L359.3846153846154,131.56830238726792L361.63076923076926,125.26856763925731L363.8769230769231,119.96352785145892L366.1230769230769,114.99005305039788L368.36923076923074,108.85610079575595L370.6153846153846,99.90384615384617L372.86153846153843,89.45954907161806L375.10769230769233,86.30968169761276L377.3538461538462,79.34681697612731L379.6,74.53912466843504L381.84615384615387,70.39456233421754L384.0923076923077,67.41047745358091L386.3384615384615,65.75265251989393L388.58461538461535,65.91843501326261L390.8307692307692,60.61339522546421L393.0769230769231,59.28713527851463L395.32307692307694,58.624005305039816L397.5692307692308,58.45822281167111L399.81538461538463,59.121352785145895L402.0615384615385,59.61870026525201L404.3076923076923,60.61339522546421L406.5538461538461,64.4263925729443L408.79999999999995,66.58156498673745L411.04615384615386,69.23408488063664L413.2923076923077,73.21286472148546L415.53846153846155,74.37334217506636L417.7846153846154,72.21816976127326L420.03076923076924,69.0683023872679L422.2769230769231,64.59217506631303L424.5230769230769,60.447612732095536L426.7692307692307,53.153183023872685L429.0153846153846,45.69297082228119L431.26153846153846,38.564323607427134L433.5076923076923,30.772546419098166L435.75384615384615,22.980769230769262L438,19.167771883289177L440.24615384615385,14.525862068965568L442.4923076923077,13.033819628647256L444.73846153846154,10.712864721485483L446.9846153846154,10.712864721485483L449.2307692307693,11.541777188328945L451.4769230769231,15.35477453580909L453.7230769230769,17.012599469496077L455.96923076923076,22.151856763925736L458.2153846153846,27.29111405835549L460.46153846153845,32.26458885941648L462.7076923076923,36.24336870026529L464.95384615384614,41.71419098143243L467.20000000000005,46.190318302387304L469.4461538461539,51.6611405835544L471.6923076923077,53.153183023872685L473.9384615384615,53.318965517241416L476.18461538461537,55.63992042440319L478.4307692307692,57.1319628647215L480.67692307692306,57.62931034482759L482.9230769230769,58.95557029177722L485.1692307692308,60.2818302387268L487.41538461538465,62.934350132626044L489.6615384615385,64.09482758620695L491.9076923076923,62.4370026525199L494.15384615384613,63.763262599469506L496.4,65.58687002652523L498.6461538461538,66.08421750663128L500.89230769230767,64.59217506631303L503.13846153846157,66.41578249336872L505.3846153846154,70.22877984084883L507.63076923076926,77.52320954907165L509.8769230769231,85.48076923076924L512.123076923077,92.60941644562335L514.3692307692307,99.40649867374006L516.6153846153846,105.54045092838197L518.8615384615384,108.85610079575595L521.1076923076923,111.17705570291778L523.3538461538461,110.84549071618038L525.6,108.35875331564986L527.8461538461538,108.5245358090186L530.0923076923077,106.70092838196288L532.3384615384615,105.54045092838197L534.5846153846154,104.71153846153845L536.8307692307692,105.70623342175065L539.0769230769231,110.6797082228117L541.323076923077,116.48209549071618L543.5692307692308,121.9529177718833L545.8153846153846,128.4184350132626L548.0615384615385,134.05503978779842L550.3076923076923,139.69164456233423L552.5538461538462,145.4940318302387L554.8,148.64389920424404L557.0461538461539,152.12533156498677L559.2923076923078,154.2805039787798" stroke="#4c78a8" stroke-width="2" opacity="1"/></g></g><path class="foreground" aria-hidden="true" d="" display="none"/></g><g transform="translate(0,0)"><path class="background" aria-hidden="true" d="M0,0h584v275h-584Z"/><g><g class="mark-line role-mark marks" clip-path="url(#clip49)" role="graphics-object" aria-roledescription="line mark container"><path aria-label="variable: NY; index: 0; value: −0.271082429863" role="graphics-symbol" aria-roledescription="line mark" d="M0,242.77060746572369L2.246153846153846,243.26265136604727L4.492307692307692,243.6546185408813L6.7384615384615385,243.92148980885344L8.984615384615385,244.0757747606498L11.230769230769232,244.22588984888415L13.476923076923077,244.45523234479768L15.723076923076924,244.6136871601561L17.96923076923077,244.72627347633184L20.215384615384618,244.85553924675585L22.461538461538463,245.04318310704872L24.70769230769231,245.17244887747273L26.953846153846154,245.2766954665243L29.200000000000003,245.34341328351735L31.446153846153848,245.38511191913798L33.69230769230769,245.54356673449644L35.93846153846154,245.79792841178235L38.184615384615384,246.03144077125796L40.430769230769236,246.36085999266103L42.67692307692308,246.67776962337788L44.92307692307693,247.07807652533606L47.16923076923077,247.5659505620976L49.41538461538462,248.01212596323847L51.66153846153846,248.49166027287583L53.90769230769231,248.8961370383961L56.15384615384616,249.25057544117155L58.400000000000006,249.5591453447643L60.64615384615385,249.8760549754812L62.892307692307696,250.2721920138773L65.13846153846154,250.772575641325L67.38461538461539,251.08114554491777L69.63076923076923,251.3521866764519L71.87692307692308,251.68994562497912L74.12307692307692,252.13195116255793L76.36923076923077,252.46554024752308L78.61538461538461,252.6948827434366L80.86153846153847,252.76160056042963L83.1076923076923,252.74909096974343L85.35384615384616,252.78244987823996L87.6,252.81580878673648L89.84615384615385,252.81997865029854L92.09230769230768,252.93673483003633L94.33846153846154,252.96175401140871L96.58461538461538,253.0243019648397L98.83076923076923,253.12854855389128L101.07692307692308,253.3370417319945L103.32307692307693,253.42460886679785L105.56923076923077,253.42877873035994L107.81538461538462,253.44128832104613L110.06153846153846,253.4829869566668L112.30769230769232,253.63727190846313L114.55384615384615,253.90414317643524L116.80000000000001,254.07093771891783L119.04615384615384,254.30028021483133L121.2923076923077,254.5171131200587L123.53846153846153,254.72143643459984L125.78461538461539,254.95494879407542L128.03076923076924,255.07170497381324L130.27692307692308,255.12174333655798L132.52307692307693,255.2259899256096L134.76923076923077,255.4052940587784L137.01538461538462,255.6721653267505L139.26153846153846,255.9056776862261L141.5076923076923,256.1016612736431L143.75384615384615,256.351853087367L146,256.5603462654702L148.24615384615385,256.6979517630183L150.4923076923077,256.77717917069754L152.73846153846154,256.79802848850784L154.98461538461538,256.743820262201L157.23076923076923,256.6687627180838L159.47692307692307,256.4519298128565L161.72307692307695,256.26011608900154L163.96923076923076,256.08498181939484L166.2153846153846,255.8598091870434L168.46153846153845,255.64714614537812L170.70769230769233,255.49703105714377L172.95384615384614,255.4136337859025L175.2,255.39695433165426L177.44615384615383,255.38027487740598L179.6923076923077,255.38027487740598L181.93846153846155,255.36359542315773L184.18461538461537,255.34691596890949L186.43076923076922,255.39278446809217L188.6769230769231,255.36359542315773L190.92307692307693,255.30521733328882L193.16923076923075,255.1676118357407L195.4153846153846,254.91742002201684L197.66153846153847,254.61301998198618L199.90769230769232,254.30028021483133L202.15384615384616,254.00421990192478L204.39999999999998,253.5246855922874L206.64615384615385,253.0576608733362L208.8923076923077,252.48638956533338L211.13846153846154,251.9860059378857L213.38461538461536,251.66492644360676L215.63076923076923,251.27712913233478L217.87692307692308,250.59327150815625L220.12307692307692,249.99698101878104L222.36923076923077,249.40486039296792L224.61538461538464,248.8586082663375L226.86153846153846,248.11220268872802L229.1076923076923,247.269890249191L231.35384615384615,246.2607832671715L233.60000000000002,245.35175301064146L235.84615384615384,244.55947893384928L238.09230769230768,243.9631884444741L240.33846153846153,243.38357740934714L242.5846153846154,242.95408146245452L244.83076923076925,242.56628415118257L247.07692307692307,242.33277179170696L249.3230769230769,242.25354438402772L251.56923076923078,242.20350602128298L253.81538461538463,241.83238816425927L256.0615384615385,241.3945524902425L258.3076923076923,240.91084831704305L260.55384615384617,240.4855222337125L262.8,239.96428928845447L265.04615384615386,239.3763385262034L267.2923076923077,238.81340694532477L269.53846153846155,238.40059045268038L271.7846153846154,238.14205891183238L274.03076923076924,237.82514928111553L276.2769230769231,237.36646428928844L278.5230769230769,236.98283684157855L280.7692307692308,236.38237648864128L283.0153846153846,235.68183941021448L285.26153846153846,234.88122560629816L287.5076923076923,233.89713780565097L289.75384615384615,232.8129732795143L292,231.68294025419488L294.24615384615385,230.46117023051002L296.4923076923077,229.12264402708743L298.73846153846154,227.55894519131334L300.9846153846154,225.89099976648765L303.2307692307693,224.15633652466892L305.4769230769231,222.45920205490876L307.7230769230769,220.5869333155419L309.96923076923076,218.40192480902024L312.2153846153846,216.00008339727123L314.46153846153845,213.60658171264635L316.7076923076923,211.10883343896987L318.95384615384614,208.56104680254862L321.20000000000005,205.82978616939656L323.4461538461539,202.83999399539647L325.6923076923077,199.6875771424759L327.9384615384615,196.63523701504488L330.18461538461537,193.38274343663477L332.4307692307692,190.13024985822463L334.67692307692306,186.98200286886615L336.9230769230769,183.46263802248387L339.1692307692308,180.08504853721186L341.41538461538465,176.71579877906396L343.6615384615385,172.88786402908897L345.9076923076923,168.95985255362447L348.15384615384613,164.76079994662578L350.4,160.09472262067587L352.6461538461538,155.7955932881876L354.89230769230767,151.33383927677883L357.13846153846157,146.87208526537015L359.3846153846154,142.44786002601998L361.63076923076926,137.9902758781733L363.8769230769231,133.39925609634057L366.1230769230769,128.81657604163198L368.36923076923074,124.47574807352302L370.6153846153846,120.43932014544488L372.86153846153843,115.81077159155352L375.10769230769233,111.02793808586586L377.3538461538462,106.4244087133469L379.6,102.32543283183774L381.84615384615387,99.15633652466893L384.0923076923077,95.6161223604764L386.3384615384615,92.38447809987659L388.58461538461535,89.80333255495881L390.8307692307692,86.97199519631718L393.0769230769231,83.7737098442139L395.32307692307694,80.51704640224177L397.5692307692308,76.89343496680793L399.81538461538463,74.07460719885249L402.0615384615385,69.91308336391239L404.3076923076923,64.79249090969746L406.5538461538461,59.98463822263737L408.79999999999995,55.69801848083534L411.04615384615386,51.498965873836674L413.2923076923077,47.59597357974449L415.53846153846155,43.7180004670248L417.7846153846154,40.46550688861466L420.03076923076924,37.57996130366618L422.2769230769231,34.344147179504326L424.5230769230769,31.120842646028656L426.7692307692307,28.56471628248329L429.0153846153846,25.750058378089903L431.26153846153846,22.77694565833809L433.5076923076923,20.60444674250262L435.75384615384615,18.961520499049357L438,17.560446342195775L440.24615384615385,16.459602361810777L442.4923076923077,15.3128898822431L444.73846153846154,14.282933582413227L446.9846153846154,12.777612836508093L449.2307692307693,11.58086199419562L451.4769230769231,10.650982419855307L453.7230769230769,9.35832471561536L455.96923076923076,7.923891650265288L458.2153846153846,6.95648330386634L460.46153846153845,6.798028488507909L462.7076923076923,7.156636754845397L464.95384615384614,7.815475197651592L467.20000000000005,8.390916369216473L469.4461538461539,10.079711111852449L471.6923076923077,12.172982620008716L473.9384615384615,14.403859625713114L476.18461538461537,16.4429229075625L478.4307692307692,19.053257497414776L480.67692307692306,21.709460586449673L482.9230769230769,24.74095139607036L485.1692307692308,27.926727157487424L487.41538461538465,30.799763151749712L489.6615384615385,33.10569770157122L491.9076923076923,34.85704039763825L494.15384615384613,36.408229642726155L496.4,37.771775027521166L498.6461538461538,38.96852586983358L500.89230769230767,39.7691396737499L503.13846153846157,41.80820295559931L505.3846153846154,44.4143676818895L507.63076923076926,48.03797911732332L509.8769230769231,51.85757414017414L512.123076923077,56.260950061714L514.3692307692307,60.81861093505024L516.6153846153846,66.05178970544087L518.8615384615384,70.30088067518435L521.1076923076923,74.08711678953867L523.3538461538461,77.89420222170334L525.6,81.69294792674386L527.8461538461538,85.14976481969512L530.0923076923077,88.56488307702574L532.3384615384615,91.24610534743306L534.5846153846154,94.15667011375392L536.8307692307692,97.20484037762287L539.0769230769231,99.41069820195486L541.323076923077,101.62906561697304L543.5692307692308,103.73484671581546L545.8153846153846,105.8072689061614L548.0615384615385,108.34254595189647L550.3076923076923,110.64848050171801L552.5538461538462,112.84182873536378L554.8,115.31038796410584L557.0461538461539,117.35779097307936L559.2923076923078,119.31762684724956" stroke="#f58518" stroke-width="2" opacity="1"/></g></g><path class="foreground" aria-hidden="true" d="" display="none"/></g></g><g class="mark-group role-legend" role="graphics-symbol" aria-roledescription="legend" aria-label="Symbol legend for stroke color with 2 values: DC, NY"><g transform="translate(602,0)"><path class="background" aria-hidden="true" d="M0,0h31v24h-31Z" pointer-events="none"/><g><g class="mark-group role-legend-entry"><g transform="translate(0,0)"><path class="background" aria-hidden="true" d="M0,0h0v0h0Z" pointer-events="none"/><g><g class="mark-group role-scope" role="graphics-object" aria-roledescription="group mark container"><g transform="translate(0,0)"><path class="background" aria-hidden="true" d="M0,0h30.443359375v11h-30.443359375Z" pointer-events="none" opacity="1"/><g><g class="mark-symbol role-legend-symbol" pointer-events="none"><path transform="translate(6,6)" d="M-5,0L5,0" stroke="#4c78a8" stroke-width="1.5" opacity="1"/></g><g class="mark-text role-legend-label" pointer-events="none"><text text-anchor="start" transform="translate(16,9)" font-family="IBM Plex Serif, serif" font-size="10px" fill="#262730" opacity="1">DC</text></g></g><path class="foreground" aria-hidden="true" d="" pointer-events="none" display="none"/></g><g transform="translate(0,13)"><path class="background" aria-hidden="true" d="M0,0h30.443359375v11h-30.443359375Z" pointer-events="none" opacity="1"/><g><g class="mark-symbol role-legend-symbol" pointer-events="none"><path transform="translate(6,6)" d="M-5,0L5,0" stroke="#f58518" stroke-width="1.5" opacity="1"/></g><g class="mark-text role-legend-label" pointer-events="none"><text text-anchor="start" transform="translate(16,9)" font-family="IBM Plex Serif, serif" font-size="10px" fill="#262730" opacity="1">NY</text></g></g><path class="foreground" aria-hidden="true" d="" pointer-events="none" display="none"/></g></g></g><path class="foreground" aria-hidden="true" d="" pointer-events="none" display="none"/></g></g></g><path class="foreground" aria-hidden="true" d="" pointer-events="none" display="none"/></g></g></g><path class="foreground" aria-hidden="true" d="" display="none"/></g></g></g><defs><clipPath id="clip48"><rect x="0" y="0" width="584" height="275"/></clipPath><clipPath id="clip49"><rect x="0" y="0" width="584" height="275"/></clipPath></defs></svg>