<svg xmlns="http://www.w3.org/2000/svg" xmlns:xlink="http://www.w3.org/1999/xlink" version="1.1" class="marks" width="660" height="300" viewBox="0 0 660 300"><rect width="660" height="300" fill="#ffffff"/><g fill="none" stroke-miterlimit="10" transform="translate(28,0)"><g class="mark-group role-frame root" role="graphics-object" aria-roledescription="group mark container"><g transform="translate(0,0)"><path class="background" aria-hidden="true" d="M0.5,0.5h580v280h-580Z" stroke="#ddd"/><g><g class="mark-group role-axis" aria-hidden="true"><g transform="translate(0.5,280.5)"><path class="background" aria-hidden="true" d="M0,0h0v0h0Z" pointer-events="none"/><g><g class="mark-rule role-axis-grid" pointer-events="none"><line transform="translate(0,-280)" x2="0" y2="280" stroke="rgba(38, 39, 48, 0.2)" stroke-width="1" opacity="1"/><line transform="translate(45,-280)" x2="0" y2="280" stroke="rgba(38, 39, 48, 0.2)" stroke-width="1" opacity="1"/><line transform="translate(89,-280)" x2="0" y2="280" stroke="rgba(38, 39, 48, 0.2)" stroke-width="1" opacity="1"/><line transform="translate(134,-280)" x2="0" y2="280" stroke="rgba(38, 39, 48, 0.2)" stroke-width="1" opacity="1"/><line transform="translate(178,-280)" x2="0" y2="280" stroke="rgba(38, 39, 48, 0.2)" stroke-width="1" opacity="1"/><line transform="translate(223,-280)" x2="0" y2="280" stroke="rgba(38, 39, 48, 0.2)" stroke-width="1" opacity="1"/><line transform="translate(268,-280)" x2="0" y2="280" stroke="rgba(38, 39, 48, 0.2)" stroke-width="1" opacity="1"/><line transform="translate(312,-280)" x2="0" y2="280" stroke="rgba(38, 39, 48, 0.2)" stroke-width="1" opacity="1"/><line transform="translate(357,-280)" x2="0" y2="280" stroke="rgba(38, 39, 48, 0.2)" stroke-width="1" opacity="1"/><line transform="translate(402,-280)" x2="0" y2="280" stroke="rgba(38, 39, 48, 0.2)" stroke-width="1" opacity="1"/><line transform="translate(446,-280)" x2="0" y2="280" stroke="rgba(38, 39, 48, 0.2)" stroke-width="1" opacity="1"/><line transform="translate(491,-280)" x2="0" y2="280" stroke="rgba(38, 39, 48, 0.2)" stroke-width="1" opacity="1"/><line transform="translate(535,-280)" x2="0" y2="280" stroke="rgba(38, 39, 48, 0.2)" stroke-width="1" opacity="1"/><line transform="translate(580,-280)" x2="0" y2="280" stroke="rgba(38, 39, 48, 0.2)" stroke-width="1" opacity="1"/></g></g><path class="foreground" aria-hidden="true" d="" pointer-events="none" display="none"/></g></g><g class="mark-group role-axis" aria-hidden="true"><g transform="translate(0.5,0.5)"><path class="background" aria-hidden="true" d="M0,0h0v0h0Z" pointer-events="none"/><g><g class="mark-rule role-axis-grid" pointer-events="none"><line transform="translate(0,257)" x2="580" y2="0" stroke="rgba(38, 39, 48, 0.2)" stroke-width="1" opacity="1"/><line transform="translate(0,210)" x2="580" y2="0" stroke="rgba(38, 39, 48, 0.2)" stroke-width="1" opacity="1"/><line transform="translate(0,163)" x2="580" y2="0" stroke="rgba(38, 39, 48, 0.2)" stroke-width="1" opacity="1"/><line transform="translate(0,117)" x2="580" y2="0" stroke="rgba(38, 39, 48, 0.2)" stroke-width="1" opacity="1"/><line transform="translate(0,70)" x2="580" y2="0" stroke="rgba(38, 39, 48, 0.2)" stroke-width="1" opacity="1"/><line transform="translate(0,23)" x2="580" y2="0" stroke="rgba(38, 39, 48, 0.2)" stroke-width="1" opacity="1"/></g></g><path class="foreground" aria-hidden="true" d="" pointer-events="none" display="none"/></g></g><g class="mark-group role-axis" role="graphics-symbol" aria-roledescription="axis" aria-label="X-axis for a linear scale with values from 0 to 260"><g transform="translate(0.5,280.5)"><path class="background" aria-hidden="true" d="M0,0h0v0h0Z" pointer-events="none"/><g><g class="mark-rule role-axis-tick" pointer-events="none"><line transform="translate(0,0)" x2="0" y2="5" stroke="#888" stroke-width="1" opacity="1"/><line transform="translate(45,0)" x2="0" y2="5" stroke="#888" stroke-width="1" opacity="1"/><line transform="translate(89,0)" x2="0" y2="5" stroke="#888" stroke-width="1" opacity="1"/><line transform="translate(134,0)" x2="0" y2="5" stroke="#888" stroke-width="1" opacity="1"/><line transform="translate(178,0)" x2="0" y2="5" stroke="#888" stroke-width="1" opacity="1"/><line transform="translate(223,0)" x2="0" y2="5" stroke="#888" stroke-width="1" opacity="1"/><line transform="translate(268,0)" x2="0" y2="5" stroke="#888" stroke-width="1" opacity="1"/><line transform="translate(312,0)" x2="0" y2="5" stroke="#888" stroke-width="1" opacity="1"/><line transform="translate(357,0)" x2="0" y2="5" stroke="#888" stroke-width="1" opacity="1"/><line transform="translate(402,0)" x2="0" y2="5" stroke="#888" stroke-width="1" opacity="1"/><line transform="translate(446,0)" x2="0" y2="5" stroke="#888" stroke-width="1" opacity="1"/><line transform="translate(491,0)" x2="0" y2="5" stroke="#888" stroke-width="1" opacity="1"/><line transform="translate(535,0)" x2="0" y2="5" stroke="#888" stroke-width="1" opacity="1"/><line transform="translate(580,0)" x2="0" y2="5" stroke="#888" stroke-width="1" opacity="1"/></g><g class="mark-text role-axis-label" pointer-events="none"><text text-anchor="start" transform="translate(0,15)" font-family="IBM Plex Serif, serif" font-size="10px" fill="#262730" opacity="1">0</text><text text-anchor="middle" transform="translate(44.61538461538462,15)" font-family="IBM Plex Serif, serif" font-size="10px" fill="#262730" opacity="1">20</text><text text-anchor="middle" transform="translate(89.23076923076924,15)" font-family="IBM Plex Serif, serif" font-size="10px" fill="#262730" opacity="1">40</text><text text-anchor="middle" transform="translate(133.84615384615384,15)" font-family="IBM Plex Serif, serif" font-size="10px" fill="#262730" opacity="1">60</text><text text-anchor="middle" transform="translate(178.46153846153848,15)" font-family="IBM Plex Serif, serif" font-size="10px" fill="#262730" opacity="1">80</text><text text-anchor="middle" transform="translate(223.0769230769231,15)" font-family="IBM Plex Serif, serif" font-size="10px" fill="#262730" opacity="1">100</text><text text-anchor="middle" transform="translate(267.6923076923077,15)" font-family="IBM Plex Serif, serif" font-size="10px" fill="#262730" opacity="1">120</text><text text-anchor="middle" transform="translate(312.3076923076923,15)" font-family="IBM Plex Serif, serif" font-size="10px" fill="#262730" opacity="1">140</text><text text-anchor="middle" transform="translate(356.92307692307696,15)" font-family="IBM Plex Serif, serif" font-size="10px" fill="#262730" opacity="1">160</text><text text-anchor="middle" transform="translate(401.53846153846155,15)" font-family="IBM Plex Serif, serif" font-size="10px" fill="#262730" opacity="1">180</text><text text-anchor="middle" transform="translate(446.1538461538462,15)" font-family="IBM Plex Serif, serif" font-size="10px" fill="#262730" opacity="1">200</text><text text-anchor="middle" transform="translate(490.7692307692308,15)" font-family="IBM Plex Serif, serif" font-size="10px" fill="#262730" opacity="1">220</text><text text-anchor="middle" transform="translate(535.3846153846154,15)" font-family="IBM Plex Serif, serif" font-size="10px" fill="#262730" opacity="1">240</text><text text-anchor="end" transform="translate(580,15)" font-family="IBM Plex Serif, serif" font-size="10px" fill="#262730" opacity="1">260</text></g><g class="mark-rule role-axis-domain" pointer-events="none"><line transform="translate(0,0)" x2="580" y2="0" stroke="#888" stroke-width="1" opacity="1"/></g></g><path class="foreground" aria-hidden="true" d="" pointer-events="none" display="none"/></g></g><g class="mark-group role-axis" role="graphics-symbol" aria-roledescription="axis" aria-label="Y-axis for a linear scale with values from −0.5 to 0.7"><g transform="translate(0.5,0.5)"><path class="background" aria-hidden="true" d="M0,0h0v0h0Z" pointer-events="none"/><g><g class="mark-rule role-axis-tick" pointer-events="none"><line transform="translate(0,257)" x2="-5" y2="0" stroke="#888" stroke-width="1" opacity="1"/><line transform="translate(0,210)" x2="-5" y2="0" stroke="#888" stroke-width="1" opacity="1"/><line transform="translate(0,163)" x2="-5" y2="0" stroke="#888" stroke-width="1" opacity="1"/><line transform="translate(0,117)" x2="-5" y2="0" stroke="#888" stroke-width="1" opacity="1"/><line transform="translate(0,70)" x2="-5" y2="0" stroke="#888" stroke-width="1" opacity="1"/><line transform="translate(0,23)" x2="-5" y2="0" stroke="#888" stroke-width="1" opacity="1"/></g><g class="mark-text role-axis-label" pointer-events="none"><text text-anchor="end" transform="translate(-7,259.6666666666667)" font-family="IBM Plex Serif, serif" font-size="10px" fill="#262730" opacity="1">−0.4</text><text text-anchor="end" transform="translate(-7,213)" font-family="IBM Plex Serif, serif" font-size="10px" fill="#262730" opacity="1">−0.2</text><text text-anchor="end" transform="translate(-7,166.33333333333331)" font-family="IBM Plex Serif, serif" font-size="10px" fill="#262730" opacity="1">0.0</text><text text-anchor="end" transform="translate(-7,119.66666666666666)" font-family="IBM Plex Serif, serif" font-size="10px" fill="#262730" opacity="1">0.2</text><text text-anchor="end" transform="translate(-7,73)" font-family="IBM Plex Serif, serif" font-size="10px" fill="#262730" opacity="1">0.4</text><text text-anchor="end" transform="translate(-7,26.333333333333314)" font-family="IBM Plex Serif, serif" font-size="10px" fill="#262730" opacity="1">0.6</text></g><g class="mark-rule role-axis-domain" pointer-events="none"><line transform="translate(0,280)" x2="0" y2="-280" stroke="#888" stroke-width="1" opacity="1"/></g></g><path class="foreground" aria-hidden="true" d="" pointer-events="none" display="none"/></g></g><g class="mark-group role-scope pathgroup" role="graphics-object" aria-roledescription="group mark container"><g transform="translate(0,0)"><path class="background" aria-hidden="true" d="M0,0h580v280h-580Z"/><g><g class="mark-line role-mark marks" clip-path="url(#clip1)" role="graphics-object" aria-roledescription="line mark container"><path aria-label="variable: CT; index: 0; value: −0.32867367912" role="graphics-symbol" aria-roledescription="line mark" d="M0,240.02385846129042L2.230769230769231,240.61628984806353L4.461538461538462,241.519042437432L6.6923076923076925,241.8293636400274L8.923076923076923,242.05505178736954L11.153846153846155,242.90138233990248L13.384615384615385,243.32454761616893L15.615384615384617,243.66307983718212L17.846153846153847,243.97340103977754L20.076923076923077,244.48119937129732L22.30769230769231,244.98899770281707L24.53846153846154,245.49679603433685L26.76923076923077,245.355740942248L29,245.83532825535L31.230769230769234,246.42775964212308L33.46153846153846,247.10482408414944L35.69230769230769,247.41514528674486L37.92307692307693,247.72546648934028L40.15384615384615,248.03578769193567L42.38461538461539,248.60000806029097L44.61538461538462,248.71285213396203L46.84615384615385,248.82569620763311L49.07692307692308,248.6564300971265L51.307692307692314,248.51537500503767L53.53846153846154,248.37431991294886L55.769230769230774,248.23326482086003L58,248.0922097287712L60.23076923076923,248.31789787611334L62.46153846153847,248.60000806029097L64.6923076923077,248.7692741707976L66.92307692307692,248.82569620763311L69.15384615384616,248.88211824446864L71.38461538461539,248.93854028130417L73.61538461538461,249.02317333655745L75.84615384615385,248.85390722605086L78.07692307692308,248.68464111554428L80.3076923076923,248.68464111554428L82.53846153846153,248.79748518921534L84.76923076923077,248.9103292628864L87,249.02317333655745L89.23076923076924,248.79748518921534L91.46153846153845,248.51537500503767L93.6923076923077,248.54358602345545L95.92307692307692,248.62821907870872L98.15384615384616,248.88211824446864L100.38461538461539,249.1360174102285L102.61538461538463,249.3899165759884L104.84615384615384,250.01055898117923L107.07692307692308,250.65941240478784L109.3076923076923,250.9133115705477L111.53846153846155,251.36468786523193L113.76923076923077,251.42110990206746L116,251.47753193890298L118.23076923076923,251.5339539757385L120.46153846153847,251.11078869947204L122.6923076923077,250.77225647845887L124.92307692307693,250.54656833111676L127.15384615384615,250.29266916535687L129.3846153846154,250.12340305485031L131.6153846153846,249.9541369443437L133.84615384615384,249.7848708338371L136.07692307692307,249.92592592592592L138.30769230769232,250.01055898117923L140.53846153846155,249.7848708338371L142.76923076923077,249.53097166807723L145,249.58739370491273L147.23076923076923,249.6438157417483L149.46153846153845,249.7002377785838L151.6923076923077,249.53097166807723L153.92307692307693,249.7002377785838L156.15384615384616,249.92592592592592L158.38461538461536,250.29266916535687L160.6153846153846,250.49014629428123L162.84615384615384,250.6876234232056L165.07692307692307,250.88510055212993L167.3076923076923,250.71583444162337L169.53846153846155,250.12340305485031L171.76923076923077,249.75665981541934L174,249.10780639181073L176.23076923076923,248.37431991294886L178.46153846153848,247.64083343408697L180.6923076923077,246.90734695522508L182.9230769230769,246.79450288155402L185.15384615384613,246.8227138999718L187.3846153846154,246.7380808447185L189.6153846153846,246.8227138999718L191.84615384615384,246.85092491838958L194.07692307692307,246.8791359368073L196.30769230769232,246.90734695522508L198.53846153846155,246.70986982630072L200.76923076923077,246.0892274211099L203,245.21468585015919L205.23076923076925,244.2273002055374L207.46153846153845,243.2681255793334L209.69230769230768,242.3089509531294L211.9230769230769,241.3497763269254L214.15384615384616,239.82638133236608L216.3846153846154,238.7825736509088L218.6153846153846,237.8233990247048L220.84615384615384,237.23096763793174L223.0769230769231,236.55390319590535L225.30769230769232,235.876838753879L227.53846153846155,235.19977431185268L229.76923076923075,234.46628783299076L232,233.25321404102687L234.23076923076923,231.84266312013864L236.46153846153845,230.06536895981944L238.69230769230768,228.6548180389312L240.92307692307693,227.24426711804296L243.15384615384616,225.8337161971547L245.3846153846154,224.7052754604441L247.6153846153846,223.43577963164472L249.84615384615387,222.73050417120058L252.0769230769231,221.57385241607224L254.3076923076923,220.19151251360174L256.53846153846155,218.80917261113126L258.7692307692308,217.42683270866078L261,215.3110063273284L263.2307692307692,213.19517994599605L265.46153846153845,210.48692217789062L267.6923076923077,207.97614153870953L269.9230769230769,205.26788377060413L272.15384615384613,202.5596260024987L274.38461538461536,199.85136823439325L276.61538461538464,197.8765969451497L278.84615384615387,196.52246806109702L281.0769230769231,194.6887518639423L283.3076923076923,193.02430177729417L285.53846153846155,190.9648974327973L287.7692307692308,188.90549308830046L290,186.84608874380365L292.2307692307692,182.44516987063233L294.46153846153845,176.57727803973722L296.6923076923077,170.6529641720066L298.9230769230769,163.96695280699632L301.1538461538462,156.71672107363074L303.3846153846154,149.46648934026518L305.61538461538464,142.2162576068996L307.84615384615387,134.85318179986297L310.0769230769231,128.39285858219478L312.3076923076923,121.84790230927331L314.5384615384615,115.5568452021118L316.7692307692307,110.22496272115421L319,104.89308024019668L321.2307692307692,99.56119775923908L323.46153846153845,96.23229758594282L325.6923076923077,93.01624148631761L327.9230769230769,88.72816668681737L330.15384615384613,85.11715632934349L332.38461538461536,80.34949421674118L334.6153846153846,75.58183210413891L336.84615384615387,70.81416999153667L339.0769230769231,64.52311288437507L341.3076923076923,57.16003707733847L343.53846153846155,50.55865876758148L345.7692307692308,44.267601660419935L348,40.5155362108572L350.2307692307692,36.76347076129443L352.46153846153845,33.01140531173172L354.69230769230774,30.613468746221706L356.92307692307696,28.610486438560436L359.1538461538462,26.917825333494555L361.3846153846154,26.268971909885973L363.6153846153846,24.576310804820032L365.8461538461538,22.883649699754187L368.07692307692304,21.190988594688246L370.30769230769226,19.498327489622305L372.53846153846155,18.200620642405173L374.7692307692308,18.42630878974731L377,18.68020795550718L379.2307692307692,19.89328174747105L381.46153846153845,21.10635553943499L383.6923076923077,22.319429331398833L385.9230769230769,25.140531173175358L388.15384615384613,28.243743199129483L390.3846153846154,31.036634022488215L392.61538461538464,31.177689114577028L394.84615384615387,30.246725506790753L397.0769230769231,29.31576189900451L399.3076923076923,28.384798291218267L401.53846153846155,26.24076089146818L403.7692307692308,24.3506226574779L406,24.01209043646471L408.2307692307693,25.81759561520167L410.4615384615385,27.623100793938665L412.6923076923077,31.685487446096765L414.9230769230769,35.747874098254925L417.15384615384613,38.794664087373526L419.38461538461536,40.96691250554141L421.6153846153846,41.756821021238835L423.8461538461538,43.13916092370929L426.0769230769231,43.90085842098899L428.3076923076923,42.40567444484742L430.53846153846155,40.910490468705916L432.7692307692308,40.03594889775516L435,39.89489380566638L437.2307692307692,39.64099463990645L439.46153846153845,38.76645306895576L441.6923076923077,39.07677427155119L443.9230769230769,39.387095474146584L446.1538461538462,39.69741667674201L448.3846153846154,40.48732519243941L450.61538461538464,40.85406843187039L452.84615384615387,41.53113287389673L455.0769230769231,42.913472776367186L457.3076923076923,44.0419135130778L459.5384615384615,45.17035424978839L461.7692307692307,46.29879498649894L464,47.5965018337162L466.2307692307692,49.655906178212994L468.46153846153845,52.70269616733166L470.6923076923077,54.79031153024622L472.9230769230769,56.849715874743076L475.15384615384613,58.90912021923991L477.38461538461536,60.968524563736736L479.6153846153846,65.36944343690806L481.84615384615387,70.10889453109256L484.0769230769231,74.11485914641514L486.3076923076923,78.57220005642202L488.53846153846155,83.02954096642883L490.7692307692308,87.48688187643567L493,91.94422278644258L495.2307692307692,94.68069157296573L497.46153846153845,96.76830693588039L499.69230769230774,99.70225285132793L501.92307692307696,102.69262080361098L504.1538461538462,107.00890662152901L506.3846153846154,111.32519243944706L508.6153846153846,115.64147825736507L510.8461538461538,121.19904888566474L513.0769230769231,127.40547293757305L515.3076923076923,132.65272236327732L517.5384615384615,137.25111836537297L519.7692307692308,141.17244992544227L522,145.0937814855116L524.2307692307693,149.01511304558096L526.4615384615385,152.34401321887717L528.6923076923077,155.02405996856484L530.9230769230769,157.53484060774593L533.1538461538461,159.87635513642044L535.3846153846154,162.24608068351267L537.6153846153846,164.6158062306049L539.8461538461538,166.98553177769716L542.0769230769231,169.32704630637164L544.3076923076923,172.09172611131262L546.5384615384615,173.3330109216943L548.7692307692307,174.79998387941802L551,175.44883730302664L553.2307692307693,176.09769072663522L555.4615384615385,176.74654415024384" stroke="#4c78a8" stroke-width="2" opacity="1"/></g></g><path class="foreground" aria-hidden="true" d="" display="none"/></g><g transform="translate(0,0)"><path class="background" aria-hidden="true" d="M0,0h580v280h-580Z"/><g><g class="mark-line role-mark marks" clip-path="url(#clip2)" role="graphics-object" aria-roledescription="line mark container"><path aria-label="variable: MD; index: 0; value: −0.276766391974" role="graphics-symbol" aria-roledescription="line mark" d="M0,227.9121581273139L2.230769230769231,229.37519407619732L4.461538461538462,230.73372745730325L6.6923076923076925,232.1549623790756L8.923076923076923,232.92828138062822L11.153846153846155,233.84790397706917L13.384615384615385,234.851128627732L15.615384615384617,236.167860981727L17.846153846153847,236.89937895616865L20.076923076923077,237.67269795772125L22.30769230769231,238.09070822883078L24.53846153846154,238.4460169592739L26.76923076923077,238.80132568971695L29,238.57142004060674L31.230769230769234,237.5472948763884L33.46153846153846,236.9202794697241L35.69230769230769,235.8961543055058L37.92307692307693,234.68392451928818L40.15384615384615,233.49259524662605L42.38461538461539,231.88325570285443L44.61538461538462,230.44112026752657L46.84615384615385,229.22889048130898L49.07692307692308,227.3060432342052L51.307692307692314,225.23689239221306L53.53846153846154,223.20954257733192L55.769230769230774,221.30759584378362L58,219.78185835423386L60.23076923076923,218.52782754090532L62.46153846153847,217.14839364624387L64.6923076923077,215.95706437358174L66.92307692307692,214.76573510091964L69.15384615384616,213.78341096381223L71.38461538461539,213.51170428759104L73.61538461538461,213.26089812492535L75.84615384615385,213.1981965842589L78.07692307692308,213.53260480114653L80.3076923076923,214.57763047892036L82.53846153846153,215.87346231935985L84.76923076923077,217.48280186313153L87,218.06801624268482L89.23076923076924,218.36062343246147L91.46153846153845,218.73683267646004L93.6923076923077,220.13716708467695L95.92307692307692,221.49570046578287L98.15384615384616,222.97963692822165L100.38461538461539,224.12916517377283L102.61538461538463,225.17419085154663L104.84615384615384,227.24334169353878L107.07692307692308,228.83178072375492L109.3076923076923,229.10348739997607L111.53846153846155,229.41699510330827L113.76923076923077,229.45879613041922L116,229.85590588797325L118.23076923076923,231.27714080974562L120.46153846153847,231.86235518929894L122.6923076923077,232.74017675862893L124.92307692307693,233.6388988415144L127.15384615384615,234.53762092439987L129.3846153846154,235.4363430072853L131.6153846153846,236.56497073928102L133.84615384615384,237.58909590349936L136.07692307692307,238.2161113101636L138.30769230769232,238.759524662606L140.53846153846155,240.05535650304552L142.76923076923077,240.68237190970981L145,241.0376806401529L147.23076923076923,241.7482981010391L149.46153846153845,242.10360683148218L151.6923076923077,242.4171145348143L153.92307692307693,242.8351248059238L156.15384615384616,242.8351248059238L158.38461538461536,243.33673713125523L160.6153846153846,243.88015048369758L162.84615384615384,243.7129463752538L165.07692307692307,243.50394123969903L167.3076923076923,243.81744894303117L169.53846153846155,243.69204586169832L171.76923076923077,244.17275767347428L174,244.27726024125164L176.23076923076923,244.7370715394721L178.46153846153848,245.51039054102475L180.6923076923077,246.97342648990804L182.9230769230769,248.16475576257017L185.15384615384613,249.46058760300969L187.3846153846154,249.77409530634182L189.6153846153846,249.85769736056372L191.84615384615384,249.92039890123013L194.07692307692307,249.4396870894542L196.30769230769232,248.45736295234684L198.53846153846155,247.93485011345993L200.76923076923077,247.2033321390183L203,247.16153111190732L205.23076923076925,247.53774035590587L207.46153846153845,247.97665114057088L209.69230769230768,248.4782634659023L211.9230769230769,248.6454675743461L214.15384615384616,248.16475576257017L216.3846153846154,247.83034754568257L218.6153846153846,246.63901827302044L220.84615384615384,245.13418129702615L223.0769230769231,243.7129463752538L225.30769230769232,242.4589155619252L227.53846153846155,240.9331780723755L229.76923076923075,239.97175444882362L232,239.09393287949362L234.23076923076923,238.55051952705125L236.46153846153845,238.36241490505193L238.69230769230768,237.83990206616505L240.92307692307693,237.0247820375015L243.15384615384616,236.18876149528248L245.3846153846154,235.14373581750866L247.6153846153846,233.84790397706917L249.84615384615387,232.88648035351727L252.0769230769231,231.92505672996538L254.3076923076923,231.04723516063535L256.53846153846155,230.35751821330467L258.7692307692308,230.08581153708346L261,229.626000238863L263.2307692307692,229.47969664397468L265.46153846153845,228.6854771288666L267.6923076923077,227.7658545324257L269.9230769230769,226.61632628687448L272.15384615384613,225.25779290576853L274.38461538461536,223.6484533619969L276.61538461538464,222.12271587244717L278.84615384615387,220.22076913889887L281.0769230769231,218.2561208646841L283.3076923076923,216.4586766989132L285.53846153846155,214.45222739758748L287.7692307692308,212.11136987937417L290,209.35250209005136L292.2307692307692,205.63221067717663L294.46153846153845,201.47300847963695L296.6923076923077,197.083900632987L298.9230769230769,191.3362594052311L301.1538461538462,184.96160277081094L303.3846153846154,178.92135435327842L305.61538461538464,173.00650901707874L307.84615384615387,167.19616624865643L310.0769230769231,161.23951988534577L312.3076923076923,154.1542457900394L314.5384615384615,147.2779768302878L316.7692307692307,141.15412635853335L319,134.7167681834468L321.2307692307692,128.46751463035943L323.46153846153845,122.38546518571596L325.6923076923077,116.21981368685061L327.9230769230769,110.7438791353159L330.15384615384613,105.28884509733668L332.38461538461536,100.52352800668815L334.6153846153846,95.98811656514984L336.84615384615387,91.30640152872327L339.0769230769231,86.06037262629883L341.3076923076923,81.00244834587365L343.53846153846155,77.40756001433174L345.7692307692308,74.89949838767465L348,71.57631673235399L350.2307692307692,68.39943867192167L352.46153846153845,65.99587961304192L354.69230769230774,65.28526215215572L356.92307692307696,63.8222262032724L359.1538461538462,60.95885584617223L361.3846153846154,57.886480353517264L363.6153846153846,55.064911023527976L365.8461538461538,52.535948883315406L368.07692307692304,50.383195987101416L370.30769230769226,46.60020303356027L372.53846153846155,43.548728054460796L374.7692307692308,42.566403917353355L377,42.94261316135197L379.2307692307692,43.84133524423745L381.46153846153845,45.5969783828974L383.6923076923077,45.95228711334049L385.9230769230769,47.331721008001914L388.15384615384613,49.04556311955097L390.3846153846154,48.75295592977429L392.61538461538464,47.54072614355667L394.84615384615387,46.80920816911502L397.0769230769231,45.7641824913412L399.3076923076923,45.137167084676946L401.53846153846155,43.84133524423745L403.7692307692308,43.674131135793615L406,44.092141406903124L408.2307692307693,43.82043473068196L410.4615384615385,43.548728054460796L412.6923076923077,43.40242445957243L414.9230769230769,43.04711572912937L417.15384615384613,42.775409052908174L419.38461538461536,41.81398542935628L421.6153846153846,39.59853099247585L423.8461538461538,38.32359966559176L426.0769230769231,35.167622118714895L428.3076923076923,31.30102711095188L430.53846153846155,26.264003344082163L432.7692307692308,21.958497551654087L435,18.175504598112973L437.2307692307692,16.775170189896087L439.46153846153845,16.587065567896797L441.6923076923077,17.360384569449458L443.9230769230769,18.530813328556064L446.1538461538462,21.18517855010149L448.3846153846154,23.421533500537414L450.61538461538464,25.03087304430911L452.84615384615387,26.514809506747895L455.0769230769231,27.162725426967672L457.3076923076923,28.834766511405686L459.5384615384615,31.008419921175197L461.7692307692307,34.24799952227396L464,38.03099247581513L466.2307692307692,42.90081213424102L468.46153846153845,47.31082049444645L470.6923076923077,50.98931088021021L472.9230769230769,54.16618894064256L475.15384615384613,57.447569568852245L477.38461538461536,61.56497073928102L479.6153846153846,66.41388988415144L481.84615384615387,70.07147975635971L484.0769230769231,73.45736295234681L486.3076923076923,77.84647079899676L488.53846153846155,81.44135913053864L490.7692307692308,84.38833154186072L493,85.83046697718859L495.2307692307692,86.33207930251996L497.46153846153845,88.21312552251283L499.69230769230774,92.45592977427442L501.92307692307696,95.67460886181775L504.1538461538462,100.25182133046698L506.3846153846154,104.99623790755999L508.6153846153846,109.92875910665232L510.8461538461538,116.19891317329513L513.0769230769231,121.77935029260716L515.3076923076923,125.66684581392568L517.5384615384615,130.3485608503523L519.7692307692308,134.7167681834468L522,137.70554162187986L524.2307692307693,141.7393407380867L526.4615384615385,144.2683028782993L528.6923076923077,147.02717066762213L530.9230769230769,149.86964051116686L533.1538461538461,151.87608981249252L535.3846153846154,153.4018273020423L537.6153846153846,156.68320793025202L539.8461538461538,158.87776185357697L542.0769230769231,160.71700704645886L544.3076923076923,162.43084915800787L546.5384615384615,164.45819897288905L548.7692307692307,166.46464827421474L551,168.42929654842948L553.2307692307693,169.725128388869L555.4615384615385,170.7701540666428" stroke="#f58518" stroke-width="2" opacity="1"/></g></g><path class="foreground" aria-hidden="true" d="" display="none"/></g><g transform="translate(0,0)"><path class="background" aria-hidden="true" d="M0,0h580v280h-580Z"/><g><g class="mark-line role-mark marks" clip-path="url(#clip3)" role="graphics-object" aria-roledescription="line mark container"><path aria-label="variable: ME; index: 0; value: −0.228444444444" role="graphics-symbol" aria-roledescription="line mark" d="M0,216.63703703703698L2.230769230769231,215.77856266862892L4.461538461538462,215.9502575423105L6.6923076923076925,215.43517292126563L8.923076923076923,216.46534216335542L11.153846153846155,218.1822909001717L13.384615384615385,219.3841550159431L15.615384615384617,220.5860191317145L17.846153846153847,222.98974736325732L20.076923076923077,225.05008584743683L22.30769230769231,226.93872945793476L24.53846153846154,227.9688987000245L26.76923076923077,228.48398332106942L29,229.34245768947756L31.230769230769234,231.05940642629386L33.46153846153846,231.5744910473387L35.69230769230769,232.08957566838362L37.92307692307693,233.29143978415502L40.15384615384615,234.83669364728968L42.38461538461539,235.86686288937943L44.61538461538462,236.7253372577876L46.84615384615385,237.06872700515083L49.07692307692308,237.24042187883245L51.307692307692314,237.24042187883245L53.53846153846154,236.89703213146922L55.769230769230774,236.2102526367427L58,236.03855776306108L60.23076923076923,236.03855776306108L62.46153846153847,235.86686288937943L64.6923076923077,236.03855776306108L66.92307692307692,236.03855776306108L69.15384615384616,236.2102526367427L71.38461538461539,236.55364238410596L73.61538461538461,236.7253372577876L75.84615384615385,236.7253372577876L78.07692307692308,236.89703213146922L80.3076923076923,236.89703213146922L82.53846153846153,237.24042187883245L84.76923076923077,237.41211675251407L87,237.92720137355897L89.23076923076924,238.6139808682855L91.46153846153845,239.12906548933037L93.6923076923077,239.30076036301202L95.92307692307692,239.30076036301202L98.15384615384616,239.9875398577385L100.38461538461539,240.67431935246503L102.61538461538463,240.67431935246503L104.84615384615384,240.3309296051018L107.07692307692308,240.15923473142016L109.3076923076923,240.15923473142016L111.53846153846155,240.84601422614668L113.76923076923077,240.67431935246503L116,240.84601422614668L118.23076923076923,241.70448859455485L120.46153846153847,242.3912680892813L122.6923076923077,242.7346578366446L124.92307692307693,242.90635271032622L127.15384615384615,242.56296296296296L129.3846153846154,242.04787834191808L131.6153846153846,241.36109884719158L133.84615384615384,240.84601422614668L136.07692307692307,240.84601422614668L138.30769230769232,240.67431935246503L140.53846153846155,240.15923473142016L142.76923076923077,240.15923473142016L145,240.3309296051018L147.23076923076923,240.84601422614668L149.46153846153845,241.01770909982827L151.6923076923077,240.67431935246503L153.92307692307693,241.01770909982827L156.15384615384616,241.36109884719158L158.38461538461536,241.01770909982827L160.6153846153846,240.84601422614668L162.84615384615384,239.9875398577385L165.07692307692307,239.12906548933037L167.3076923076923,238.95737061564876L169.53846153846155,238.44228599460388L171.76923076923077,238.27059112092226L174,238.0988962472406L176.23076923076923,237.92720137355897L178.46153846153848,237.24042187883245L180.6923076923077,236.3819475104243L182.9230769230769,235.0083885209713L185.15384615384613,233.80652440519992L187.3846153846154,233.1197449104734L189.6153846153846,232.77635516311014L191.84615384615384,232.94805003679173L194.07692307692307,233.97821927888154L196.30769230769232,234.83669364728968L198.53846153846155,236.3819475104243L200.76923076923077,237.92720137355897L203,238.0988962472406L205.23076923076925,238.44228599460388L207.46153846153845,238.27059112092226L209.69230769230768,237.75550649987736L211.9230769230769,237.75550649987736L214.15384615384616,237.41211675251407L216.3846153846154,237.58381162619574L218.6153846153846,238.27059112092226L220.84615384615384,239.12906548933037L223.0769230769231,239.8158449840569L225.30769230769232,240.50262447878342L227.53846153846155,241.18940397350994L229.76923076923075,241.70448859455485L232,241.53279372087317L234.23076923076923,241.70448859455485L236.46153846153845,241.01770909982827L238.69230769230768,240.3309296051018L240.92307692307693,239.6441501103753L243.15384615384616,238.95737061564876L245.3846153846154,238.78567574196717L247.6153846153846,238.6139808682855L249.84615384615387,238.78567574196717L252.0769230769231,239.47245523669363L254.3076923076923,239.9875398577385L256.53846153846155,240.50262447878342L258.7692307692308,241.01770909982827L261,240.15923473142016L263.2307692307692,239.6441501103753L265.46153846153845,238.0988962472406L267.6923076923077,236.7253372577876L269.9230769230769,235.1800833946529L272.15384615384613,233.63482953151825L274.38461538461536,232.08957566838362L276.61538461538464,229.34245768947756L278.84615384615387,226.08025508952662L281.0769230769231,222.64635761589403L283.3076923076923,218.6973755212166L285.53846153846155,215.26347804758402L287.7692307692308,210.9711062055433L290,205.64856512141282L292.2307692307692,202.2146676477802L294.46153846153845,199.12415992151094L296.6923076923077,196.89212656364975L298.9230769230769,192.77144959529065L301.1538461538462,187.79229825852343L303.3846153846154,183.4999264164827L305.61538461538464,180.23772381653177L307.84615384615387,176.80382634289919L310.0769230769231,172.6831493745401L312.3076923076923,166.5021339220015L314.5384615384615,162.03806720627915L316.7692307692307,157.91739023792005L319,154.65518763796908L321.2307692307692,150.01942604856512L323.46153846153845,144.18180034338977L325.6923076923077,138.68756438557762L327.9230769230769,135.25366691194506L330.15384615384613,132.33485405935738L332.38461538461536,127.35570272259012L334.6153846153846,120.65960264900663L336.84615384615387,115.33706156487614L339.0769230769231,109.1560461123375L341.3076923076923,103.31842040716215L343.53846153846155,97.65248957566838L345.7692307692308,91.98655874417466L348,84.2602894285014L350.2307692307692,77.56418935491783L352.46153846153845,70.86808928133433L354.69230769230774,65.54554819720384L356.92307692307696,60.22300711307335L359.1538461538462,54.21368653421634L361.3846153846154,48.37606082904096L363.6153846153846,45.28555310277162L365.8461538461538,42.19504537650236L368.07692307692304,40.30640176600444L370.30769230769226,35.49894530291879L372.53846153846155,31.206573460878072L374.7692307692308,28.802845229335357L377,25.54064262938434L379.2307692307692,23.995388766249736L381.46153846153845,22.450134903115007L383.6923076923077,24.682168260976226L385.9230769230769,29.489624724061848L388.15384615384613,31.206573460878072L390.3846153846154,31.206573460878072L392.61538461538464,31.893352955604627L394.84615384615387,32.580132450331114L397.0769230769231,33.953691439784194L399.3076923076923,30.34809909246996L401.53846153846155,28.459455481972018L403.7692307692308,29.146234976698572L406,30.863183713514857L408.2307692307693,32.580132450331114L410.4615384615385,33.43860681873929L412.6923076923077,32.580132450331114L414.9230769230769,33.09521707137601L417.15384615384613,33.266911945057636L419.38461538461536,31.54996320824135L421.6153846153846,29.146234976698572L423.8461538461538,24.853863134657786L426.0769230769231,20.904881039980406L428.3076923076923,17.986068187392696L430.53846153846155,16.097424576894785L432.7692307692308,14.380475840078528L435,12.320137355898964L437.2307692307692,9.573019376992846L439.46153846153845,11.118273240127575L441.6923076923077,13.178611724307139L443.9230769230769,15.067255334805019L446.1538461538462,12.663527103262178L448.3846153846154,11.97674760853575L450.61538461538464,14.037086092715189L452.84615384615387,15.582339955849918L455.0769230769231,17.470983566347797L457.3076923076923,17.986068187392696L459.5384615384615,19.53132205052736L461.7692307692307,22.27844002943342L464,22.450134903115007L466.2307692307692,21.935050282070172L468.46153846153845,24.510473387294574L470.6923076923077,26.399116997792515L472.9230769230769,28.802845229335357L475.15384615384613,32.923522197694396L477.38461538461536,37.90267353446157L479.6153846153846,42.881824871228844L481.84615384615387,49.234535197449134L484.0769230769231,53.526907039489856L486.3076923076923,57.99097375521217L488.53846153846155,65.71724307088546L490.7692307692308,70.69639440765268L493,77.04910473387297L495.2307692307692,84.08859455481974L497.46153846153845,90.95638950208486L499.69230769230774,98.85435369143978L501.92307692307696,106.58062300711308L504.1538461538462,111.55977434388032L506.3846153846154,117.05401030169243L508.6153846153846,120.83129752268825L510.8461538461538,125.81044885945549L513.0769230769231,130.10282070149623L515.3076923076923,133.7084130488104L517.5384615384615,135.59705665930832L519.7692307692308,138.17247976453277L522,142.4648516065735L524.2307692307693,146.92891832229583L526.4615384615385,150.70620554329167L528.6923076923077,154.99857738533234L530.9230769230769,157.91739023792005L533.1538461538461,161.6946774589159L535.3846153846154,164.95688005886683L537.6153846153846,165.12857493254847L539.8461538461538,165.64365955359335L542.0769230769231,167.36060829040963L544.3076923076923,167.01721854304634L546.5384615384615,168.21908265881777L548.7692307692307,167.8756929114545L551,166.84552366936475L553.2307692307693,166.84552366936475L555.4615384615385,167.70399803777286" stroke="#e45756" stroke-width="2" opacity="1"/></g></g><path class="foreground" aria-hidden="true" d="" display="none"/></g><g transform="translate(0,0)"><path class="background" aria-hidden="true" d="M0,0h580v280h-580Z"/><g><g class="mark-line role-mark marks" clip-path="url(#clip4)" role="graphics-object" aria-roledescription="line mark container"><path aria-label="variable: NJ; index: 0; value: −0.209067247766" role="graphics-symbol" aria-roledescription="line mark" d="M0,212.1156911454927L2.230769230769231,213.69192416648508L4.461538461538462,214.60715624319025L6.6923076923076925,215.82746567879713L8.923076923076923,216.81388247257937L11.153846153846155,218.00368417229606L13.384615384615385,218.90874700370452L15.615384615384617,220.3832875717295L17.846153846153847,221.03411927071983L20.076923076923077,222.29510568751363L22.30769230769231,223.42389191544999L24.53846153846154,223.69846153846157L26.76923076923077,223.38321493426312L29,223.53575361371395L31.230769230769234,223.65778455727465L33.46153846153846,224.68487833224378L35.69230769230769,225.05097116292583L37.92307692307693,225.78315682429L40.15384615384615,227.04414324108376L42.38461538461539,228.00005229897582L44.61538461538462,228.55936079029564L46.84615384615385,229.06782305513184L49.07692307692308,228.99663833805477L51.307692307692314,229.688147018232L53.53846153846154,229.37290041403355L55.769230769230774,229.78983947119923L58,230.83727173676183L60.23076923076923,232.00673494588506L62.46153846153847,233.14569041911818L64.6923076923077,234.26430740175783L66.92307692307692,235.33207815791386L69.15384615384616,236.71509551826833L71.38461538461539,237.02017287717007L73.61538461538461,236.58289532941092L75.84615384615385,239.10486816299849L78.07692307692308,238.87097552117382L80.3076923076923,238.92182174765748L82.53846153846153,240.38619307038573L84.76923076923077,241.96242609137795L87,244.11830609428344L89.23076923076924,246.08097043655118L91.46153846153845,245.38946175637392L93.6923076923077,247.34195685334495L95.92307692307692,249.4673291203603L98.15384615384616,249.84359119633908L100.38461538461539,250.04697610227356L102.61538461538463,250.38256119706543L104.84615384615384,251.12491610372632L107.07692307692308,251.83676327449697L109.3076923076923,253.0672419554006L111.53846153846155,254.20619742863371L113.76923076923077,255.2231219583061L116,256.6874932810344L118.23076923076923,257.08409384760665L120.46153846153847,257.3484942253214L122.6923076923077,257.7145870560035L124.92307692307693,258.18237233965283L127.15384615384615,257.9586489431249L129.3846153846154,257.7349255465969L131.6153846153846,257.1146015834968L133.84615384615384,256.41292365802286L136.07692307692307,256.0264923367473L138.30769230769232,255.71124573254886L140.53846153846155,254.8061829011404L142.76923076923077,254.30788988160094L145,254.0028125226992L147.23076923076923,254.49093629694195L149.46153846153845,255.27396818478974L151.6923076923077,256.24004648797853L153.92307692307693,256.6874932810344L156.15384615384616,257.61289460303624L158.38461538461536,258.3145725285102L160.6153846153846,258.1416953584659L162.84615384615384,257.3993404518051L165.07692307692307,256.9824013946394L167.3076923076923,256.6671547904409L169.53846153846155,256.7993549792983L171.76923076923077,256.4027544127261L174,256.443431393913L176.23076923076923,257.15527856468367L178.46153846153848,257.6637408295199L180.6923076923077,258.3145725285102L182.9230769230769,259.0365889445776L185.15384615384613,258.92472724631364L187.3846153846154,258.9552349822038L189.6153846153846,258.93489649161035L191.84615384615384,259.0162504539842L194.07692307692307,258.87388101983004L196.30769230769232,258.50778818914796L198.53846153846155,257.77560252778386L200.76923076923077,257.51120215006904L203,257.3078172441345L205.23076923076925,256.39258516742933L207.46153846153845,255.1417679959323L209.69230769230768,254.5417825234256L211.9230769230769,253.89095082443524L214.15384615384616,253.016395728917L216.3846153846154,251.89777874627734L218.6153846153846,250.657130820077L220.84615384615384,249.3452981767996L223.0769230769231,247.94194232585167L225.30769230769232,246.35554005956274L227.53846153846155,244.9420149633181L229.76923076923075,243.36578194232587L232,242.38953439384034L234.23076923076923,241.3929483547614L236.46153846153845,240.56923948572674L238.69230769230768,239.93874627732984L240.92307692307693,238.7387753323164L243.15384615384616,237.5896506137866L245.3846153846154,236.6134030653011L247.6153846153846,235.27106268613352L249.84615384615387,233.79652211810856L252.0769230769231,232.58638192779836L254.3076923076923,231.10167211447666L256.53846153846155,229.8101779617927L258.7692307692308,228.42716060143823L261,226.49500399506067L263.2307692307692,224.70521682283723L265.46153846153845,223.01712210358102L267.6923076923077,220.77988813830177L269.9230769230769,218.90874700370452L272.15384615384613,216.83422096317278L274.38461538461536,214.43427907314594L276.61538461538464,212.7970305803734L278.84615384615387,211.00724340814992L281.0769230769231,208.94288661291495L283.3076923076923,207.39716132781288L285.53846153846155,204.5701111353236L287.7692307692308,201.49899905571294L290,198.0923018813104L292.2307692307692,193.7398648943125L294.46153846153845,188.53321130238976L296.6923076923077,182.55369506791604L298.9230769230769,176.42164015399146L301.1538461538462,170.59466259896857L303.3846153846154,164.41176145856036L305.61538461538464,158.66613786591125L307.84615384615387,152.78831408440476L310.0769230769231,145.924073509116L312.3076923076923,139.364910292729L314.5384615384615,132.81591632163867L316.7692307692307,126.75504612479118L319,121.1416227209995L321.2307692307692,115.4061683736471L323.46153846153845,109.52834459214063L325.6923076923077,104.79964552916394L327.9230769230769,100.1624696738578L330.15384615384613,96.50154136703713L332.38461538461536,93.54229098569044L334.6153846153846,90.7152407932011L336.84615384615387,87.57294399651343L339.0769230769231,84.8475862569914L341.3076923076923,81.3493658749183L343.53846153846155,77.43420643567949L345.7692307692308,72.74618435388973L348,67.46834604488996L350.2307692307692,63.0548935861117L352.46153846153845,59.35328829810417L354.69230769230774,55.43812885886539L356.92307692307696,51.85855451441852L359.1538461538462,49.35692017142444L361.3846153846154,46.784101111353245L363.6153846153846,44.180774315391886L365.8461538461538,41.34355487760584L368.07692307692304,37.78431902375245L370.30769230769226,34.84540713299921L372.53846153846155,33.0251122248856L374.7692307692308,31.611587128640934L377,30.676016561342294L379.2307692307692,30.564154863078336L381.46153846153845,30.289585240066835L383.6923076923077,30.462462410111147L385.9230769230769,30.747201278419418L388.15384615384613,29.984507881165086L390.3846153846154,28.265905426018726L392.61538461538464,26.587979952059236L394.84615384615387,25.70325561124427L397.0769230769231,27.116780707488907L399.3076923076923,28.184551463644958L401.53846153846155,28.062520520084227L403.7692307692308,27.757443161182536L406,28.916737125009067L408.2307692307693,29.791292220527325L410.4615384615385,30.238739013583164L412.6923076923077,29.567568823999405L414.9230769230769,29.038768068569738L417.15384615384613,28.89639863441562L419.38461538461536,29.537061088109247L421.6153846153846,29.364183918064906L423.8461538461538,29.415030144548577L426.0769230769231,28.967583351492678L428.3076923076923,27.53371976465462L430.53846153846155,26.84221108447735L432.7692307692308,26.638826178542878L435,26.628656933246138L437.2307692307692,26.81170334858722L439.46153846153845,27.554058255248037L441.6923076923077,28.835383162635235L443.9230769230769,28.438782596063067L446.1538461538462,27.54388900995133L448.3846153846154,29.791292220527325L450.61538461538464,31.794633543982016L452.84615384615387,33.6149284520956L455.0769230769231,36.08605505919951L457.3076923076923,38.27244279799522L459.5384615384615,42.75707997385054L461.7692307692307,47.75017941454198L464,49.723013002106484L466.2307692307692,52.31617055277116L468.46153846153845,55.94659112370164L470.6923076923077,58.732964335003985L472.9230769230769,60.888844337909504L475.15384615384613,62.52609283068206L477.38461538461536,65.4243277402484L479.6153846153846,69.2174562359265L481.84615384615387,72.86821529745043L484.0769230769231,74.9427413379821L486.3076923076923,76.46812813249075L488.53846153846155,79.42737851383741L490.7692307692308,81.25784266724776L493,81.9086743662381L495.2307692307692,82.42730587637107L497.46153846153845,83.0883068206581L499.69230769230774,85.1221558800029L501.92307692307696,88.32546814847095L504.1538461538462,90.96947192561925L506.3846153846154,94.84395438367112L508.6153846153846,98.78962155880002L510.8461538461538,102.91833514926998L513.0769230769231,107.14874119270719L515.3076923076923,111.37914723614443L517.5384615384615,114.72482893876663L519.7692307692308,118.41626498147744L522,122.16871649596861L524.2307692307693,126.07370668991065L526.4615384615385,129.9888661291494L528.6923076923077,133.690471417157L530.9230769230769,136.74124500617418L533.1538461538461,139.74117236870777L535.3846153846154,141.71400595627222L537.6153846153846,144.01225539333188L539.8461538461538,146.20881237742427L542.0769230769231,147.81555313430667L544.3076923076923,149.15789351347425L546.5384615384615,150.6731110626861L548.7692307692307,152.01545144185368L551,153.30694559453767L553.2307692307693,153.88659257645097L555.4615384615385,154.46623955836418" stroke="#72b7b2" stroke-width="2" opacity="1"/></g></g><path class="foreground" aria-hidden="true" d="" display="none"/></g><g transform="translate(0,0)"><path class="background" aria-hidden="true" d="M0,0h580v280h-580Z"/><g><g class="mark-line role-mark marks" clip-path="url(#clip5)" role="graphics-object" aria-roledescription="line mark container"><path aria-label="variable: PA; index: 0; value: −0.278803614877" role="graphics-symbol" aria-roledescription="line mark" d="M0,228.38751013787495L2.230769230769231,228.81040435638974L4.461538461538462,229.1753678600394L6.6923076923076925,229.53453829220254L8.923076923076923,229.85895029544665L11.153846153846155,230.07329394044723L13.384615384615385,230.05591472598772L15.615384615384617,229.95743251071718L17.846153846153847,229.84736415247366L20.076923076923077,229.52874522071602L22.30769230769231,229.1985401459854L24.53846153846154,228.85095585679525L26.76923076923077,228.3643378519291L29,228.1268219209825L31.230769230769234,228.02254663422545L33.46153846153846,228.01096049125246L35.69230769230769,227.8545475611169L37.92307692307693,227.5475147723323L40.15384615384615,227.25206812652067L42.38461538461539,227.11303441084462L44.61538461538462,226.77703626462747L46.84615384615385,226.38310740354535L49.07692307692308,225.8964893986792L51.307692307692314,225.57207739543506L53.53846153846154,225.51414668057004L55.769230769230774,225.49097439462403L58,225.50256053759702L60.23076923076923,225.61842196732707L62.46153846153847,225.49676746611053L64.6923076923077,225.38090603638048L66.92307692307692,226.62062333449197L69.15384615384616,227.37372262773724L71.38461538461539,228.20213185030704L73.61538461538461,228.8915073572008L75.84615384615385,229.23909164639093L78.07692307692308,229.9168810103117L80.3076923076923,230.45563665855636L82.53846153846153,229.70833043679758L84.76923076923077,229.38971150503997L87,229.18116093152588L89.23076923076924,229.14640250260686L91.46153846153845,229.482400648824L93.6923076923077,229.6735720078786L95.92307692307692,230.03274244004172L98.15384615384616,230.41508515815084L100.38461538461539,230.774255590314L102.61538461538463,231.01177152126058L104.84615384615384,231.19135673734212L107.07692307692308,231.48101031166726L109.3076923076923,231.81700845788436L111.53846153846155,232.12404124666895L113.76923076923077,232.55852160815664L116,233.05093268450935L118.23076923076923,233.38693083072644L120.46153846153847,233.63023983315955L122.6923076923077,233.65920519059208L124.92307692307693,233.7229289769436L127.15384615384615,233.7576874058626L129.3846153846154,233.66499826207857L131.6153846153846,233.53755068937554L133.84615384615384,233.54913683234852L136.07692307692307,233.62444676167306L138.30769230769232,233.7113428339706L140.53846153846155,233.63603290464607L142.76923076923077,233.70554976248405L145,233.8735488355926L147.23076923076923,233.89672112153863L149.46153846153845,233.94885876491713L151.6923076923077,234.00099640829566L153.92307692307693,234.0820994091067L156.15384615384616,234.4180975553238L158.38461538461536,234.66140655775692L160.6153846153846,234.69616498667594L162.84615384615384,234.8989224887035L165.07692307692307,235.05533541883906L167.3076923076923,235.19436913451514L169.53846153846155,235.3739543505967L171.76923076923077,235.3971266365427L174,235.56512570965126L176.23076923076923,235.39133356505621L178.46153846153848,235.39133356505621L180.6923076923077,235.75629706870583L182.9230769230769,236.06912292897692L185.15384615384613,236.38194878924807L187.3846153846154,236.7700845788437L189.6153846153846,236.98442822384428L191.84615384615384,237.48263237168345L194.07692307692307,237.63325223033252L196.30769230769232,237.27408179816936L198.53846153846155,236.90911829451977L200.76923076923077,236.4572587185726L203,235.77367628316532L205.23076923076925,234.98581856100105L207.46153846153845,234.25589155370176L209.69230769230768,233.508585331943L211.9230769230769,232.69176225234617L214.15384615384616,232.03714517437143L216.3846153846154,231.3072181670722L218.6153846153846,230.6236357316649L220.84615384615384,229.87632950990616L223.0769230769231,228.87412814274128L225.30769230769232,227.95302977638747L227.53846153846155,227.35634341327773L229.76923076923075,226.59745104854596L232,225.78642104043564L234.23076923076923,225.25345846367742L236.46153846153845,224.6046344571892L238.69230769230768,224.04849959448498L240.92307692307693,223.38229637353723L243.15384615384616,222.60023172285946L245.3846153846154,221.76023635731664L247.6153846153846,220.92024099177382L249.84615384615387,219.66314447920288L252.0769230769231,218.25542810798282L254.3076923076923,216.87667709419534L256.53846153846155,215.48633993743482L258.7692307692308,213.96276213648474L261,212.41021897810222L263.2307692307692,210.95036496350366L265.46153846153845,209.67009616498666L267.6923076923077,208.58679179701076L269.9230769230769,207.51507357200785L272.15384615384613,206.5186652763295L274.38461538461536,205.57439462402968L276.61538461538464,204.3346773259182L278.84615384615387,202.90378866875216L281.0769230769231,200.9109720773954L283.3076923076923,198.76753562738963L285.53846153846155,196.7747190360329L287.7692307692308,194.29528443980996L290,191.584126984127L292.2307692307692,188.83241802803846L294.46153846153845,185.81422778357083L296.6923076923077,182.63383153748117L298.9230769230769,179.1753678600394L301.1538461538462,175.02173560421735L303.3846153846154,171.04189549299042L305.61538461538464,166.95778009500637L307.84615384615387,162.62456262310278L310.0769230769231,157.99589850538757L312.3076923076923,153.2224076005098L314.5384615384615,148.84284555671417L316.7692307692307,143.93032093616037L319,138.60069516857837L321.2307692307692,133.16100104275284L323.46153846153845,128.03992584868496L325.6923076923077,121.31996292434246L327.9230769230769,115.02868729000117L330.15384615384613,108.45355115282122L332.38461538461536,102.93854709767116L334.6153846153846,97.38299154211563L336.84615384615387,91.43930019696441L339.0769230769231,84.64982041478396L341.3076923076923,79.7430888657166L343.53846153846155,73.99636195110648L345.7692307692308,68.29597960838838L348,61.83091182945197L350.2307692307692,55.92777198470627L352.46153846153845,50.7429730042869L354.69230769230774,46.166446529950186L356.92307692307696,41.43350712547792L359.1538461538462,36.39353493222109L361.3846153846154,31.724319314100295L363.6153846153846,29.18695400301237L365.8461538461538,25.317182250028907L368.07692307692304,21.43582435407252L370.30769230769226,17.931016104738728L372.53846153846155,13.678901633646113L374.7692307692308,10.817124319314058L377,8.893824585795436L379.2307692307692,6.1189433437608365L381.46153846153845,5.27315490673157L383.6923076923077,4.670675472135315L385.9230769230769,4.299918896999211L388.15384615384613,5.134121191055492L390.3846153846154,6.315907774301905L392.61538461538464,7.08059321052021L394.84615384615387,8.366655080523682L397.0769230769231,9.9887150967443L399.3076923076923,10.967744177963151L401.53846153846155,11.518085969180909L403.7692307692308,12.265392190939671L406,13.30814505851004L408.2307692307693,15.625373653110831L410.4615384615385,17.369088170548046L412.6923076923077,19.373490904877787L414.9230769230769,21.551685783802625L417.15384615384613,23.666156876375855L419.38461538461536,25.62421503881362L421.6153846153846,27.64599698760278L423.8461538461538,28.723508284092226L426.0769230769231,30.496188158961846L428.3076923076923,31.434665739775248L430.53846153846155,33.33479318734793L432.7692307692308,35.64043563897577L435,38.42110995249679L437.2307692307692,41.57254084115396L439.46153846153845,44.53280037075655L441.6923076923077,47.25554396941256L443.9230769230769,50.47069864442127L446.1538461538462,53.87123160699803L448.3846153846154,57.63672807322444L450.61538461538464,61.17629475147724L452.84615384615387,62.25959911945309L455.0769230769231,63.5456609894566L457.3076923076923,67.47915652879158L459.5384615384615,71.80078785772217L461.7692307692307,75.87911018421966L464,79.90529486733868L466.2307692307692,84.55713127099986L468.46153846153845,91.01061290696329L470.6923076923077,97.19182018306105L472.9230769230769,100.56918085969178L475.15384615384613,103.15289074267177L477.38461538461536,106.28114934538293L479.6153846153846,109.79754373768971L481.84615384615387,112.74621712431932L484.0769230769231,115.89764801297648L486.3076923076923,119.10121654501214L488.53846153846155,122.25844050515583L490.7692307692308,125.83276561232766L493,128.48019928165914L495.2307692307692,130.7916348047735L497.46153846153845,133.0567257559958L499.69230769230774,135.57671185262424L501.92307692307696,138.18938709303671L504.1538461538462,141.0453713358823L506.3846153846154,143.8376317923763L508.6153846153846,147.11071718225003L510.8461538461538,149.62491020739196L513.0769230769231,152.7184103811841L515.3076923076923,156.28114934538291L517.5384615384615,159.54264859228363L519.7692307692308,162.36387440621016L522,164.634758428919L524.2307692307693,166.88826323716833L526.4615384615385,169.69210983663535L528.6923076923077,171.96878693083073L530.9230769230769,173.13898737110415L533.1538461538461,174.07746495191753L535.3846153846154,175.02752867570385L537.6153846153846,176.62062333449197L539.8461538461538,178.00516741976594L542.0769230769231,179.44184914841853L544.3076923076923,181.13921909396365L546.5384615384615,183.01617425559033L548.7692307692307,184.95106013208206L551,186.74691229289772L553.2307692307693,188.32262773722624L555.4615384615385,189.09310624493105" stroke="#54a24b" stroke-width="2" opacity="1"/></g></g><path class="foreground" aria-hidden="true" d="" display="none"/></g><g transform="translate(0,0)"><path class="background" aria-hidden="true" d="M0,0h580v280h-580Z"/><g><g class="mark-line role-mark marks" clip-path="url(#clip6)" role="graphics-object" aria-roledescription="line mark container"><path aria-label="variable: RI; index: 0; value: −0.298924009989" role="graphics-symbol" aria-roledescription="line mark" d="M0,233.08226899750267L2.230769230769231,236.07905815198006L4.461538461538462,238.57638244737785L6.6923076923076925,241.0737067427756L8.923076923076923,243.57103103817337L11.153846153846155,244.5699607563325L13.384615384615385,246.1515994767511L15.615384615384617,247.23377333809017L17.846153846153847,248.23270305624925L20.076923076923077,248.23270305624925L22.30769230769231,248.23270305624925L24.53846153846154,248.23270305624925L26.76923076923077,247.7332381971697L29,246.56782019265074L31.230769230769234,246.31808776311098L33.46153846153846,245.56889047449164L35.69230769230769,245.48564633131167L37.92307692307693,245.4024021881318L40.15384615384615,245.31915804495185L42.38461538461539,245.8186229040314L44.61538461538462,246.23484361993104L46.84615384615385,245.56889047449164L49.07692307692308,245.31915804495185L51.307692307692314,244.98618147223215L53.53846153846154,244.65320489951242L55.769230769230774,244.32022832679272L58,243.4877868949935L60.23076923076923,243.15481032227376L62.46153846153847,242.5721013200143L64.6923076923077,241.73965988821502L66.92307692307692,240.90721845641576L69.15384615384616,240.0747770246165L71.38461538461539,239.24233559281726L73.61538461538461,238.49313830419788L75.84615384615385,237.49420858603878L78.07692307692308,237.0779878701391L80.3076923076923,236.5785230110596L82.53846153846153,235.91256986562018L84.76923076923077,235.41310500654063L87,233.99795457248186L89.23076923076924,232.91578071114282L91.46153846153845,232.2498275657034L93.6923076923077,231.41738613390416L95.92307692307692,231.66711856344395L98.15384615384616,232.08333927934353L100.38461538461539,231.83360684980377L102.61538461538463,232.91578071114282L104.84615384615384,233.99795457248186L107.07692307692308,234.83039600428114L109.3076923076923,235.41310500654063L111.53846153846155,235.08012843382093L113.76923076923077,234.91364014746105L116,234.74715186110123L118.23076923076923,234.74715186110123L120.46153846153847,234.74715186110123L122.6923076923077,233.99795457248186L124.92307692307693,234.16444285884174L127.15384615384615,234.33093114520156L129.3846153846154,234.33093114520156L131.6153846153846,234.91364014746105L133.84615384615384,235.16337257700087L136.07692307692307,235.41310500654063L138.30769230769232,235.91256986562018L140.53846153846155,236.07905815198006L142.76923076923077,237.244476156499L145,237.66069687239866L147.23076923076923,237.49420858603878L149.46153846153845,237.32772029967893L151.6923076923077,237.66069687239866L153.92307692307693,238.32665001783803L156.15384615384616,237.9936734451183L158.38461538461536,237.32772029967893L160.6153846153846,236.99474372695923L162.84615384615384,237.16123201331905L165.07692307692307,237.0779878701391L167.3076923076923,236.49527886787965L169.53846153846155,235.82932572244027L171.76923076923077,235.6628374360804L174,234.66390771792126L176.23076923076923,234.24768700202168L178.46153846153848,234.66390771792126L180.6923076923077,234.83039600428114L182.9230769230769,234.996884290641L185.15384615384613,234.91364014746105L187.3846153846154,234.74715186110123L189.6153846153846,234.24768700202168L191.84615384615384,233.4984897134023L194.07692307692307,231.9168509929837L196.30769230769232,230.5849447021049L198.53846153846155,229.25303841122607L200.76923076923077,227.50491140444763L203,226.08976097038888L205.23076923076925,226.08976097038888L207.46153846153845,225.923272684029L209.69230769230768,225.923272684029L211.9230769230769,226.08976097038888L214.15384615384616,226.2562492567487L216.3846153846154,227.088690688548L218.6153846153846,226.75571411582828L220.84615384615384,224.84109882269L223.0769230769231,223.50919253181115L225.30769230769232,221.428088952313L227.53846153846155,218.68103222737543L229.76923076923075,215.85073135925796L232,213.10367463432038L234.23076923076923,211.10581519800215L236.46153846153845,210.10688547984302L238.69230769230768,208.02578190034487L240.92307692307693,207.52631704126534L243.15384615384616,207.60956118444528L245.3846153846154,207.77604947080508L247.6153846153846,207.02685218218573L249.84615384615387,207.11009632536567L252.0769230769231,206.19441075038648L254.3076923076923,205.94467832084672L256.53846153846155,202.7814008800095L258.7692307692308,199.5348792959924L261,196.28835771197527L263.2307692307692,193.54130098703774L265.46153846153845,193.04183612795816L267.6923076923077,193.12508027113807L269.9230769230769,192.12615055297897L272.15384615384613,192.95859198477822L274.38461538461536,192.37588298251876L276.61538461538464,191.79317398025927L278.84615384615387,191.0439766916399L281.0769230769231,188.29691996670238L283.3076923076923,184.71742180996551L285.53846153846155,181.80387679866809L287.7692307692308,177.0589606374123L290,173.56270662385538L292.2307692307692,170.0664526102985L294.46153846153845,166.65344273992153L296.6923076923077,162.4079914377453L298.9230769230769,158.24578427874897L301.1538461538462,153.00140325841363L303.3846153846154,149.00568438577716L305.61538461538464,145.3429420858604L307.84615384615387,141.6801997859436L310.0769230769231,137.7677250564871L312.3076923076923,132.44009989297183L314.5384615384615,126.9459864430967L316.7692307692307,123.78270900225948L319,120.86916399096206L321.2307692307692,118.4550838387442L323.46153846153845,116.04100368652632L325.6923076923077,111.21284338209061L327.9230769230769,105.136020929956L330.15384615384613,103.38789392317756L332.38461538461536,100.80732548459983L334.6153846153846,96.145653466524L336.84615384615387,89.48612201212985L339.0769230769231,82.82659055773576L341.3076923076923,75.5843501010822L343.53846153846155,71.33889879890592L345.7692307692308,63.84692591271259L348,56.43819716969914L350.2307692307692,51.36030443572363L352.46153846153845,46.61538827446785L354.69230769230774,41.870472113212045L356.92307692307696,39.040171245094555L359.1538461538462,34.62823165655842L361.3846153846154,29.88331549530267L363.6153846153846,25.055155190866962L365.8461538461538,22.557830895469145L368.07692307692304,21.642145320489917L370.30769230769226,20.726459745510756L372.53846153846155,19.81077417053159L374.7692307692308,19.144821025092163L377,18.062647163753166L379.2307692307692,18.645356166012597L381.46153846153845,17.063717445593944L383.6923076923077,14.899369722915857L385.9230769230769,15.232346295635617L388.15384615384613,16.48100844333451L390.3846153846154,18.7286003091925L392.61538461538464,21.808633606849813L394.84615384615387,23.22378404090854L397.0769230769231,24.6389344749673L399.3076923076923,26.05408490902606L401.53846153846155,27.469235343084787L403.7692307692308,28.884385777143542L406,30.21629206802237L408.2307692307693,31.548198358901164L410.4615384615385,32.880104649779994L412.6923076923077,34.21201094065885L414.9230769230769,35.54391723153764L417.15384615384613,35.294184801997844L419.38461538461536,36.45960280651684L421.6153846153846,38.207729813295295L423.8461538461538,40.62180996551315L426.0769230769231,43.61859911999047L428.3076923076923,46.61538827446785L430.53846153846155,49.6121774289452L432.7692307692308,50.94408371982399L435,51.526792722083464L437.2307692307692,51.77652515162326L439.46153846153845,53.60789630158165L441.6923076923077,54.10736116066121L443.9230769230769,54.60682601974077L446.1538461538462,55.10629087882031L448.3846153846154,56.35495302651923L450.61538461538464,59.35174218099655L452.84615384615387,61.26635747413487L455.0769230769231,60.93338090141518L457.3076923076923,63.59719348317283L459.5384615384615,66.26100606493044L461.7692307692307,68.9248186466881L464,72.00485194434535L466.2307692307692,73.66973480794388L468.46153846153845,77.41572125104055L470.6923076923077,81.07846355095731L472.9230769230769,83.40929955999526L475.15384615384613,85.74013556903319L477.38461538461536,88.0709715780711L479.6153846153846,90.65154001664885L481.84615384615387,93.89806160066594L484.0769230769231,96.89485075514332L486.3076923076923,100.64083719824L488.53846153846155,103.63762635271732L490.7692307692308,106.63441550719467L493,109.63120466167202L495.2307692307692,115.87451540016652L497.46153846153845,121.28538470686169L499.69230769230774,126.28003329765733L501.92307692307696,130.60872874301342L504.1538461538462,136.10284219288857L506.3846153846154,141.59695564276373L508.6153846153846,147.09106909263883L510.8461538461538,152.08571768343444L513.0769230769231,155.83170412653112L515.3076923076923,159.57769056962775L517.5384615384615,164.40585087406353L519.7692307692308,168.15183731716021L522,171.89782376025687L524.2307692307693,175.64381020335358L526.4615384615385,175.2275894874539L528.6923076923077,177.47518135331194L530.9230769230769,179.5562849328101L533.1538461538461,180.9714353668688L535.3846153846154,181.72063265548817L537.6153846153846,182.46982994410754L539.8461538461538,183.21902723272686L542.0769230769231,185.21688666904507L544.3076923076923,186.2990605303841L546.5384615384615,188.04718753716259L548.7692307692307,189.29584968486145L551,191.54344155071948L553.2307692307693,193.79103341657748L555.4615384615385,196.03862528243548" stroke="#eeca3b" stroke-width="2" opacity="1"/></g></g><path class="foreground" aria-hidden="true" d="" display="none"/></g><g transform="translate(0,0)"><path class="background" aria-hidden="true" d="M0,0h580v280h-580Z"/><g><g class="mark-line role-mark marks" clip-path="url(#clip7)" role="graphics-object" aria-roledescription="line mark container"><path aria-label="variable: WA; index: 0; value: −0.307731854839" role="graphics-symbol" aria-roledescription="line mark" d="M0,235.13743279569894L2.230769230769231,234.03976254480287L4.461538461538462,230.58994175627242L6.6923076923076925,228.237791218638L8.923076923076923,227.76736111111111L11.153846153846155,227.33613351254482L13.384615384615385,226.8657034050179L15.615384615384617,226.94410842293905L17.846153846153847,225.45441308243727L20.076923076923077,225.45441308243727L22.30769230769231,225.41521057347668L24.53846153846154,224.0431227598566L26.76923076923077,222.27900985663084L29,220.78931451612905L31.230769230769234,217.96673387096774L33.46153846153846,215.65378584229393L35.69230769230769,212.6743951612903L37.92307692307693,209.65580197132616L40.15384615384615,206.2451836917563L42.38461538461539,203.57941308243724L44.61538461538462,201.65849014336914L46.84615384615385,199.7375672043011L49.07692307692308,199.7375672043011L51.307692307692314,200.48241487455195L53.53846153846154,200.63922491039423L55.769230769230774,202.20732526881721L58,203.3834005376344L60.23076923076923,204.0106406810036L62.46153846153847,205.46113351254482L64.6923076923077,205.34352598566306L66.92307692307692,204.9907034050179L69.15384615384616,204.52027329749103L71.38461538461539,203.10898297491036L73.61538461538461,201.89370519713262L75.84615384615385,200.32560483870964L78.07692307692308,199.69836469534053L80.3076923076923,200.16879480286735L82.53846153846153,200.99204749103941L84.76923076923077,200.24719982078852L87,200.20799731182794L89.23076923076924,199.4239471326165L91.46153846153845,200.32560483870964L93.6923076923077,202.08971774193546L95.92307692307692,202.28573028673833L98.15384615384616,201.7368951612903L100.38461538461539,202.59935035842295L102.61538461538463,203.65781810035844L104.84615384615384,205.42193100358423L107.07692307692308,206.20598118279565L109.3076923076923,206.1667786738351L111.53846153846155,206.7548163082437L113.76923076923077,208.24451164874552L116,210.59666218637992L118.23076923076923,212.51758512544802L120.46153846153847,213.81126792114694L122.6923076923077,215.9282034050179L124.92307692307693,217.4963037634409L127.15384615384615,219.02520161290323L129.3846153846154,220.514896953405L131.6153846153846,222.23980734767025L133.84615384615384,223.80790770609318L136.07692307692307,225.49361559139783L138.30769230769232,226.63048835125448L140.53846153846155,227.6105510752688L142.76923076923077,229.60987903225805L145,231.33478942652326L147.23076923076923,231.64840949820788L149.46153846153845,232.11883960573476L151.6923076923077,233.17730734767025L153.92307692307693,233.80454749103941L156.15384615384616,236.07829301075265L158.38461538461536,237.09755824372758L160.6153846153846,237.3719758064516L162.84615384615384,238.66565860215053L165.07692307692307,239.92013888888889L167.3076923076923,239.8809363799283L169.53846153846155,240.97860663082437L171.76923076923077,241.01780913978493L174,241.09621415770607L176.23076923076923,241.60584677419354L178.46153846153848,241.17461917562727L180.6923076923077,240.82179659498203L182.9230769230769,241.13541666666666L185.15384615384613,235.68626792114694L187.3846153846154,235.52945788530465L189.6153846153846,235.37264784946237L191.84615384615384,234.51019265232972L194.07692307692307,234.9806227598566L196.30769230769232,234.39258512544802L198.53846153846155,235.2550403225806L200.76923076923077,240.15535394265234L203,239.25369623655914L205.23076923076925,238.2344310035842L207.46153846153845,239.41050627240145L209.69230769230768,240.27296146953404L211.9230769230769,241.25302419354838L214.15384615384616,240.78259408602148L216.3846153846154,241.3706317204301L218.6153846153846,242.50750448028674L220.84615384615384,243.56597222222223L223.0769230769231,244.11480734767025L225.30769230769232,243.99719982078852L227.53846153846155,243.8795922939068L229.76923076923075,244.46762992831543L232,243.33075716845875L234.23076923076923,242.86032706093187L236.46153846153845,243.2523521505376L238.69230769230768,242.50750448028674L240.92307692307693,241.25302419354838L243.15384615384616,241.13541666666666L245.3846153846154,239.72412634408605L247.6153846153846,239.09688620071682L249.84615384615387,237.25436827956992L252.0769230769231,235.92148297491036L254.3076923076923,233.53012992831538L256.53846153846155,232.90288978494624L258.7692307692308,231.7660170250896L261,231.72681451612905L263.2307692307692,230.5507392473118L265.46153846153845,230.43313172043008L267.6923076923077,229.6882840501792L269.9230769230769,229.84509408602148L272.15384615384613,228.3553987455197L274.38461538461536,225.80723566308242L276.61538461538464,222.86704749103941L278.84615384615387,220.94612455197134L281.0769230769231,218.47636648745518L283.3076923076923,216.51624103942652L285.53846153846155,214.2032930107527L287.7692307692308,211.85114247311827L290,210.51825716845875L292.2307692307692,208.08770161290323L294.46153846153845,205.50033602150538L296.6923076923077,201.22726254480287L298.9230769230769,195.26848118279565L301.1538461538462,188.95687724014334L303.3846153846154,181.58680555555557L305.61538461538464,175.54961917562727L307.84615384615387,169.47323028673833L310.0769230769231,162.8088037634409L312.3076923076923,156.96762992831538L314.5384615384615,152.2633288530466L316.7692307692307,144.77564964157705L319,137.79760304659496L321.2307692307692,128.82022849462362L323.46153846153845,120.50929659498205L325.6923076923077,113.1784274193548L327.9230769230769,105.57314068100358L330.15384615384613,95.41969086021507L332.38461538461536,89.22569444444441L334.6153846153846,84.75660842293907L336.84615384615387,80.99316756272401L339.0769230769231,77.22972670250894L341.3076923076923,72.9566532258064L343.53846153846155,67.27228942652327L345.7692307692308,64.29289874551966L348,60.56866039426518L350.2307692307692,56.295586917562744L352.46153846153845,51.74809587813618L354.69230769230774,47.43581989247312L356.92307692307696,43.86839157706086L359.1538461538462,42.41789874551967L361.3846153846154,38.7328629032258L363.6153846153846,36.027889784946204L365.8461538461538,34.420586917562716L368.07692307692304,32.813284050179156L370.30769230769226,31.205981182795668L372.53846153846155,29.245855734766995L374.7692307692308,26.61928763440858L377,24.42394713261649L379.2307692307692,21.87578405017916L381.46153846153845,20.50369623655908L383.6923076923077,19.131608422939035L385.9230769230769,17.759520609318958L388.15384615384613,15.289762544802837L390.3846153846154,31.245183691756257L392.61538461538464,32.46046146953407L394.84615384615387,33.67573924731176L397.0769230769231,32.695676523297486L399.3076923076923,31.715613799283176L401.53846153846155,30.73555107526884L403.7692307692308,27.87376792114695L406,11.134296594982045L408.2307692307693,15.603382616487398L410.4615384615385,18.03393817204299L412.6923076923077,20.464493727598555L414.9230769230769,22.895049283154087L417.15384615384613,25.325604838709648L419.38461538461536,31.715613799283176L421.6153846153846,33.04849910394263L423.8461538461538,30.26512096774192L426.0769230769231,27.952172939068063L428.3076923076923,26.423275089605752L430.53846153846155,24.894377240143317L432.7692307692308,23.365479390681006L435,25.05118727598574L437.2307692307692,28.61861559139784L439.46153846153845,31.59800627240144L441.6923076923077,35.204637096774256L443.9230769230769,39.55611559139784L446.1538461538462,43.90759408602152L448.3846153846154,48.25907258064513L450.61538461538464,48.572692652329756L452.84615384615387,51.0816532258065L455.0769230769231,55.2371191756272L457.3076923076923,58.88295250896054L459.5384615384615,64.76332885304659L461.7692307692307,70.64370519713262L464,76.52408154121866L466.2307692307692,85.1486335125448L468.46153846153845,90.7545922939068L470.6923076923077,96.79177867383511L472.9230769230769,104.86749551971322L475.15384615384613,109.53259408602146L477.38461538461536,114.19769265232975L479.6153846153846,118.86279121863797L481.84615384615387,120.11727150537631L484.0769230769231,121.33254928315408L486.3076923076923,122.6654345878136L488.53846153846155,123.33187724014331L490.7692307692308,125.6840277777778L493,128.03617831541214L495.2307692307692,130.3883288530466L497.46153846153845,134.11256720430106L499.69230769230774,139.36570340501788L501.92307692307696,142.69791666666663L504.1538461538462,146.03012992831538L506.3846153846154,147.32381272401435L508.6153846153846,148.61749551971326L510.8461538461538,149.9111783154122L513.0769230769231,150.49921594982078L515.3076923076923,150.49921594982078L517.5384615384615,150.49921594982078L519.7692307692308,154.57627688172042L522,158.33971774193546L524.2307692307693,162.10315860215053L526.4615384615385,165.86659946236557L528.6923076923077,171.3157482078853L530.9230769230769,177.58814964157705L533.1538461538461,184.25257616487454L535.3846153846154,186.29110663082437L537.6153846153846,190.60338261648747L539.8461538461538,194.91565860215053L542.0769230769231,199.2279345878136L544.3076923076923,202.83456541218635L546.5384615384615,205.85315860215053L548.7692307692307,208.71494175627242L551,214.0072804659498L553.2307692307693,216.63384856630822L555.4615384615385,219.26041666666663" stroke="#b279a2" stroke-width="2" opacity="1"/></g></g><path class="foreground" aria-hidden="true" d="" display="none"/></g></g><g class="mark-group role-legend" role="graphics-symbol" aria-roledescription="legend" aria-label="Symbol legend for stroke color with 7 values: CT, MD, ME, NJ, PA, RI, WA"><g transform="translate(598,0)"><path class="background" aria-hidden="true" d="M0,0h33v89h-33Z" pointer-events="none"/><g><g class="mark-group role-legend-entry"><g transform="translate(0,0)"><path class="background" aria-hidden="true" d="M0,0h0v0h0Z" pointer-events="none"/><g><g class="mark-group role-scope" role="graphics-object" aria-roledescription="group mark container"><g transform="translate(0,0)"><path class="background" aria-hidden="true" d="M0,0h32.189971923828125v11h-32.189971923828125Z" pointer-events="none" opacity="1"/><g><g class="mark-symbol role-legend-symbol" pointer-events="none"><path transform="translate(6,6)" d="M-5,0L5,0" stroke="#4c78a8" stroke-width="1.5" opacity="1"/></g><g class="mark-text role-legend-label" pointer-events="none"><text text-anchor="start" transform="translate(16,9)" font-family="IBM Plex Serif, serif" font-size="10px" fill="#262730" opacity="1">CT</text></g></g><path class="foreground" aria-hidden="true" d="" pointer-events="none" display="none"/></g><g transform="translate(0,13)"><path class="background" aria-hidden="true" d="M0,0h32.189971923828125v11h-32.189971923828125Z" pointer-events="none" opacity="1"/><g><g class="mark-symbol role-legend-symbol" pointer-events="none"><path transform="translate(6,6)" d="M-5,0L5,0" stroke="#f58518" stroke-width="1.5" opacity="1"/></g><g class="mark-text role-legend-label" pointer-events="none"><text text-anchor="start" transform="translate(16,9)" font-family="IBM Plex Serif, serif" font-size="10px" fill="#262730" opacity="1">MD</text></g></g><path class="foreground" aria-hidden="true" d="" pointer-events="none" display="none"/></g><g transform="translate(0,26)"><path class="background" aria-hidden="true" d="M0,0h32.189971923828125v11h-32.189971923828125Z" pointer-events="none" opacity="1"/><g><g class="mark-symbol role-legend-symbol" pointer-events="none"><path transform="translate(6,6)" d="M-5,0L5,0" stroke="#e45756" stroke-width="1.5" opacity="1"/></g><g class="mark-text role-legend-label" pointer-events="none"><text text-anchor="start" transform="translate(16,9)" font-family="IBM Plex Serif, serif" font-size="10px" fill="#262730" opacity="1">ME</text></g></g><path class="foreground" aria-hidden="true" d="" pointer-events="none" display="none"/></g><g transform="translate(0,39)"><path class="background" aria-hidden="true" d="M0,0h32.189971923828125v11h-32.189971923828125Z" pointer-events="none" opacity="1"/><g><g class="mark-symbol role-legend-symbol" pointer-events="none"><path transform="translate(6,6)" d="M-5,0L5,0" stroke="#72b7b2" stroke-width="1.5" opacity="1"/></g><g class="mark-text role-legend-label" pointer-events="none"><text text-anchor="start" transform="translate(16,9)" font-family="IBM Plex Serif, serif" font-size="10px" fill="#262730" opacity="1">NJ</text></g></g><path class="foreground" aria-hidden="true" d="" pointer-events="none" display="none"/></g><g transform="translate(0,52)"><path class="background" aria-hidden="true" d="M0,0h32.189971923828125v11h-32.189971923828125Z" pointer-events="none" opacity="1"/><g><g class="mark-symbol role-legend-symbol" pointer-events="none"><path transform="translate(6,6)" d="M-5,0L5,0" stroke="#54a24b" stroke-width="1.5" opacity="1"/></g><g class="mark-text role-legend-label" pointer-events="none"><text text-anchor="start" transform="translate(16,9)" font-family="IBM Plex Serif, serif" font-size="10px" fill="#262730" opacity="1">PA</text></g></g><path class="foreground" aria-hidden="true" d="" pointer-events="none" display="none"/></g><g transform="translate(0,65)"><path class="background" aria-hidden="true" d="M0,0h32.189971923828125v11h-32.189971923828125Z" pointer-events="none" opacity="1"/><g><g class="mark-symbol role-legend-symbol" pointer-events="none"><path transform="translate(6,6)" d="M-5,0L5,0" stroke="#eeca3b" stroke-width="1.5" opacity="1"/></g><g class="mark-text role-legend-label" pointer-events="none"><text text-anchor="start" transform="translate(16,9)" font-family="IBM Plex Serif, serif" font-size="10px" fill="#262730" opacity="1">RI</text></g></g><path class="foreground" aria-hidden="true" d="" pointer-events="none" display="none"/></g><g transform="translate(0,78)"><path class="background" aria-hidden="true" d="M0,0h32.189971923828125v11h-32.189971923828125Z" pointer-events="none" opacity="1"/><g><g class="mark-symbol role-legend-symbol" pointer-events="none"><path transform="translate(6,6)" d="M-5,0L5,0" stroke="#b279a2" stroke-width="1.5" opacity="1"/></g><g class="mark-text role-legend-label" pointer-events="none"><text text-anchor="start" transform="translate(16,9)" font-family="IBM Plex Serif, serif" font-size="10px" fill="#262730" opacity="1">WA</text></g></g><path class="foreground" aria-hidden="true" d="" pointer-events="none" display="none"/></g></g></g><path class="foreground" aria-hidden="true" d="" pointer-events="none" display="none"/></g></g></g><path class="foreground" aria-hidden="true" d="" pointer-events="none" display="none"/></g></g></g><path class="foreground" aria-hidden="true" d="" display="none"/></g></g></g><defs><clipPath id="clip1"><rect x="0" y="0" width="580" height="280"/></clipPath><clipPath id="clip2"><rect x="0" y="0" width="580" height="280"/></clipPath><clipPath id="clip3"><rect x="0" y="0" width="580" height="280"/></clipPath><clipPath id="clip4"><rect x="0" y="0" width="580" height="280"/></clipPath><clipPath id="clip5"><rect x="0" y="0" width="580" height="280"/></clipPath><clipPath id="clip6"><rect x="0" y="0" width="580" height="280"/></clipPath><clipPath id="clip7"><rect x="0" y="0" width="580" height="280"/></clipPath></defs></svg>