<svg xmlns="http://www.w3.org/2000/svg" xmlns:xlink="http://www.w3.org/1999/xlink" version="1.1" class="marks" width="660" height="300" viewBox="0 0 660 300"><rect width="660" height="300" fill="#ffffff"/><g fill="none" stroke-miterlimit="10" transform="translate(28,5)"><g class="mark-group role-frame root" role="graphics-object" aria-roledescription="group mark container"><g transform="translate(0,0)"><path class="background" aria-hidden="true" d="M0.5,0.5h580v270h-580Z" stroke="#ddd"/><g><g class="mark-group role-axis" aria-hidden="true"><g transform="translate(0.5,270.5)"><path class="background" aria-hidden="true" d="M0,0h0v0h0Z" pointer-events="none"/><g><g class="mark-rule role-axis-grid" pointer-events="none"><line transform="translate(0,-270)" x2="0" y2="270" stroke="rgba(38, 39, 48, 0.2)" stroke-width="1" opacity="1"/><line transform="translate(45,-270)" x2="0" y2="270" stroke="rgba(38, 39, 48, 0.2)" stroke-width="1" opacity="1"/><line transform="translate(89,-270)" x2="0" y2="270" stroke="rgba(38, 39, 48, 0.2)" stroke-width="1" opacity="1"/><line transform="translate(134,-270)" x2="0" y2="270" stroke="rgba(38, 39, 48, 0.2)" stroke-width="1" opacity="1"/><line transform="translate(178,-270)" x2="0" y2="270" stroke="rgba(38, 39, 48, 0.2)" stroke-width="1" opacity="1"/><line transform="translate(223,-270)" x2="0" y2="270" stroke="rgba(38, 39, 48, 0.2)" stroke-width="1" opacity="1"/><line transform="translate(268,-270)" x2="0" y2="270" stroke="rgba(38, 39, 48, 0.2)" stroke-width="1" opacity="1"/><line transform="translate(312,-270)" x2="0" y2="270" stroke="rgba(38, 39, 48, 0.2)" stroke-width="1" opacity="1"/><line transform="translate(357,-270)" x2="0" y2="270" stroke="rgba(38, 39, 48, 0.2)" stroke-width="1" opacity="1"/><line transform="translate(402,-270)" x2="0" y2="270" stroke="rgba(38, 39, 48, 0.2)" stroke-width="1" opacity="1"/><line transform="translate(446,-270)" x2="0" y2="270" stroke="rgba(38, 39, 48, 0.2)" stroke-width="1" opacity="1"/><line transform="translate(491,-270)" x2="0" y2="270" stroke="rgba(38, 39, 48, 0.2)" stroke-width="1" opacity="1"/><line transform="translate(535,-270)" x2="0" y2="270" stroke="rgba(38, 39, 48, 0.2)" stroke-width="1" opacity="1"/><line transform="translate(580,-270)" x2="0" y2="270" stroke="rgba(38, 39, 48, 0.2)" stroke-width="1" opacity="1"/></g></g><path class="foreground" aria-hidden="true" d="" pointer-events="none" display="none"/></g></g><g class="mark-group role-axis" aria-hidden="true"><g transform="translate(0.5,0.5)"><path class="background" aria-hidden="true" d="M0,0h0v0h0Z" pointer-events="none"/><g><g class="mark-rule role-axis-grid" pointer-events="none"><line transform="translate(0,270)" x2="580" y2="0" stroke="rgba(38, 39, 48, 0.2)" stroke-width="1" opacity="1"/><line transform="translate(0,245)" x2="580" y2="0" stroke="rgba(38, 39, 48, 0.2)" stroke-width="1" opacity="1"/><line transform="translate(0,221)" x2="580" y2="0" stroke="rgba(38, 39, 48, 0.2)" stroke-width="1" opacity="1"/><line transform="translate(0,196)" x2="580" y2="0" stroke="rgba(38, 39, 48, 0.2)" stroke-width="1" opacity="1"/><line transform="translate(0,172)" x2="580" y2="0" stroke="rgba(38, 39, 48, 0.2)" stroke-width="1" opacity="1"/><line transform="translate(0,147)" x2="580" y2="0" stroke="rgba(38, 39, 48, 0.2)" stroke-width="1" opacity="1"/><line transform="translate(0,123)" x2="580" y2="0" stroke="rgba(38, 39, 48, 0.2)" stroke-width="1" opacity="1"/><line transform="translate(0,98)" x2="580" y2="0" stroke="rgba(38, 39, 48, 0.2)" stroke-width="1" opacity="1"/><line transform="translate(0,74)" x2="580" y2="0" stroke="rgba(38, 39, 48, 0.2)" stroke-width="1" opacity="1"/><line transform="translate(0,49)" x2="580" y2="0" stroke="rgba(38, 39, 48, 0.2)" stroke-width="1" opacity="1"/><line transform="translate(0,25)" x2="580" y2="0" stroke="rgba(38, 39, 48, 0.2)" stroke-width="1" opacity="1"/><line transform="translate(0,0)" x2="580" y2="0" stroke="rgba(38, 39, 48, 0.2)" stroke-width="1" opacity="1"/></g></g><path class="foreground" aria-hidden="true" d="" pointer-events="none" display="none"/></g></g><g class="mark-group role-axis" role="graphics-symbol" aria-roledescription="axis" aria-label="X-axis for a linear scale with values from 0 to 260"><g transform="translate(0.5,270.5)"><path class="background" aria-hidden="true" d="M0,0h0v0h0Z" pointer-events="none"/><g><g class="mark-rule role-axis-tick" pointer-events="none"><line transform="translate(0,0)" x2="0" y2="5" stroke="#888" stroke-width="1" opacity="1"/><line transform="translate(45,0)" x2="0" y2="5" stroke="#888" stroke-width="1" opacity="1"/><line transform="translate(89,0)" x2="0" y2="5" stroke="#888" stroke-width="1" opacity="1"/><line transform="translate(134,0)" x2="0" y2="5" stroke="#888" stroke-width="1" opacity="1"/><line transform="translate(178,0)" x2="0" y2="5" stroke="#888" stroke-width="1" opacity="1"/><line transform="translate(223,0)" x2="0" y2="5" stroke="#888" stroke-width="1" opacity="1"/><line transform="translate(268,0)" x2="0" y2="5" stroke="#888" stroke-width="1" opacity="1"/><line transform="translate(312,0)" x2="0" y2="5" stroke="#888" stroke-width="1" opacity="1"/><line transform="translate(357,0)" x2="0" y2="5" stroke="#888" stroke-width="1" opacity="1"/><line transform="translate(402,0)" x2="0" y2="5" stroke="#888" stroke-width="1" opacity="1"/><line transform="translate(446,0)" x2="0" y2="5" stroke="#888" stroke-width="1" opacity="1"/><line transform="translate(491,0)" x2="0" y2="5" stroke="#888" stroke-width="1" opacity="1"/><line transform="translate(535,0)" x2="0" y2="5" stroke="#888" stroke-width="1" opacity="1"/><line transform="translate(580,0)" x2="0" y2="5" stroke="#888" stroke-width="1" opacity="1"/></g><g class="mark-text role-axis-label" pointer-events="none"><text text-anchor="start" transform="translate(0,15)" font-family="IBM Plex Serif, serif" font-size="10px" fill="#262730" opacity="1">0</text><text text-anchor="middle" transform="translate(44.61538461538462,15)" font-family="IBM Plex Serif, serif" font-size="10px" fill="#262730" opacity="1">20</text><text text-anchor="middle" transform="translate(89.23076923076924,15)" font-family="IBM Plex Serif, serif" font-size="10px" fill="#262730" opacity="1">40</text><text text-anchor="middle" transform="translate(133.84615384615384,15)" font-family="IBM Plex Serif, serif" font-size="10px" fill="#262730" opacity="1">60</text><text text-anchor="middle" transform="translate(178.46153846153848,15)" font-family="IBM Plex Serif, serif" font-size="10px" fill="#262730" opacity="1">80</text><text text-anchor="middle" transform="translate(223.0769230769231,15)" font-family="IBM Plex Serif, serif" font-size="10px" fill="#262730" opacity="1">100</text><text text-anchor="middle" transform="translate(267.6923076923077,15)" font-family="IBM Plex Serif, serif" font-size="10px" fill="#262730" opacity="1">120</text><text text-anchor="middle" transform="translate(312.3076923076923,15)" font-family="IBM Plex Serif, serif" font-size="10px" fill="#262730" opacity="1">140</text><text text-anchor="middle" transform="translate(356.92307692307696,15)" font-family="IBM Plex Serif, serif" font-size="10px" fill="#262730" opacity="1">160</text><text text-anchor="middle" transform="translate(401.53846153846155,15)" font-family="IBM Plex Serif, serif" font-size="10px" fill="#262730" opacity="1">180</text><text text-anchor="middle" transform="translate(446.1538461538462,15)" font-family="IBM Plex Serif, serif" font-size="10px" fill="#262730" opacity="1">200</text><text text-anchor="middle" transform="translate(490.7692307692308,15)" font-family="IBM Plex Serif, serif" font-size="10px" fill="#262730" opacity="1">220</text><text text-anchor="middle" transform="translate(535.3846153846154,15)" font-family="IBM Plex Serif, serif" font-size="10px" fill="#262730" opacity="1">240</text><text text-anchor="end" transform="translate(580,15)" font-family="IBM Plex Serif, serif" font-size="10px" fill="#262730" opacity="1">260</text></g><g class="mark-rule role-axis-domain" pointer-events="none"><line transform="translate(0,0)" x2="580" y2="0" stroke="#888" stroke-width="1" opacity="1"/></g></g><path class="foreground" aria-hidden="true" d="" pointer-events="none" display="none"/></g></g><g class="mark-group role-axis" role="graphics-symbol" aria-roledescription="axis" aria-label="Y-axis for a linear scale with values from −0.8 to 1.4"><g transform="translate(0.5,0.5)"><path class="background" aria-hidden="true" d="M0,0h0v0h0Z" pointer-events="none"/><g><g class="mark-rule role-axis-tick" pointer-events="none"><line transform="translate(0,270)" x2="-5" y2="0" stroke="#888" stroke-width="1" opacity="1"/><line transform="translate(0,245)" x2="-5" y2="0" stroke="#888" stroke-width="1" opacity="1"/><line transform="translate(0,221)" x2="-5" y2="0" stroke="#888" stroke-width="1" opacity="1"/><line transform="translate(0,196)" x2="-5" y2="0" stroke="#888" stroke-width="1" opacity="1"/><line transform="translate(0,172)" x2="-5" y2="0" stroke="#888" stroke-width="1" opacity="1"/><line transform="translate(0,147)" x2="-5" y2="0" stroke="#888" stroke-width="1" opacity="1"/><line transform="translate(0,123)" x2="-5" y2="0" stroke="#888" stroke-width="1" opacity="1"/><line transform="translate(0,98)" x2="-5" y2="0" stroke="#888" stroke-width="1" opacity="1"/><line transform="translate(0,74)" x2="-5" y2="0" stroke="#888" stroke-width="1" opacity="1"/><line transform="translate(0,49)" x2="-5" y2="0" stroke="#888" stroke-width="1" opacity="1"/><line transform="translate(0,25)" x2="-5" y2="0" stroke="#888" stroke-width="1" opacity="1"/><line transform="translate(0,0)" x2="-5" y2="0" stroke="#888" stroke-width="1" opacity="1"/></g><g class="mark-text role-axis-label" pointer-events="none"><text text-anchor="end" transform="translate(-7,273)" font-family="IBM Plex Serif, serif" font-size="10px" fill="#262730" opacity="1">−0.8</text><text text-anchor="end" transform="translate(-7,248.45454545454544)" font-family="IBM Plex Serif, serif" font-size="10px" fill="#262730" opacity="1">−0.6</text><text text-anchor="end" transform="translate(-7,223.9090909090909)" font-family="IBM Plex Serif, serif" font-size="10px" fill="#262730" opacity="1">−0.4</text><text text-anchor="end" transform="translate(-7,199.36363636363637)" font-family="IBM Plex Serif, serif" font-size="10px" fill="#262730" opacity="1">−0.2</text><text text-anchor="end" transform="translate(-7,174.8181818181818)" font-family="IBM Plex Serif, serif" font-size="10px" fill="#262730" opacity="1">0.0</text><text text-anchor="end" transform="translate(-7,150.27272727272725)" font-family="IBM Plex Serif, serif" font-size="10px" fill="#262730" opacity="1">0.2</text><text text-anchor="end" transform="translate(-7,125.7272727272727)" font-family="IBM Plex Serif, serif" font-size="10px" fill="#262730" opacity="1">0.4</text><text text-anchor="end" transform="translate(-7,101.18181818181822)" font-family="IBM Plex Serif, serif" font-size="10px" fill="#262730" opacity="1">0.6</text><text text-anchor="end" transform="translate(-7,76.63636363636363)" font-family="IBM Plex Serif, serif" font-size="10px" fill="#262730" opacity="1">0.8</text><text text-anchor="end" transform="translate(-7,52.09090909090911)" font-family="IBM Plex Serif, serif" font-size="10px" fill="#262730" opacity="1">1.0</text><text text-anchor="end" transform="translate(-7,27.545454545454554)" font-family="IBM Plex Serif, serif" font-size="10px" fill="#262730" opacity="1">1.2</text><text text-anchor="end" transform="translate(-7,3)" font-family="IBM Plex Serif, serif" font-size="10px" fill="#262730" opacity="1">1.4</text></g><g class="mark-rule role-axis-domain" pointer-events="none"><line transform="translate(0,270)" x2="0" y2="-270" stroke="#888" stroke-width="1" opacity="1"/></g></g><path class="foreground" aria-hidden="true" d="" pointer-events="none" display="none"/></g></g><g class="mark-group role-scope pathgroup" role="graphics-object" aria-roledescription="group mark container"><g transform="translate(0,0)"><path class="background" aria-hidden="true" d="M0,0h580v270h-580Z"/><g><g class="mark-line role-mark marks" clip-path="url(#clip54)" role="graphics-object" aria-roledescription="line mark container"><path aria-label="variable: IA; index: 0; value: −0.785034941191" role="graphics-symbol" aria-roledescription="line mark" d="M0,268.1633791461264L2.230769230769231,265.95215661430683L4.461538461538462,264.81806680962666L6.6923076923076925,262.74238407137136L8.923076923076923,260.78391946922375L11.153846153846155,260.0313978896747L13.384615384615385,258.188444192742L15.615384615384617,257.24432252697136L17.846153846153847,254.20751780988982L20.076923076923077,251.08695722816393L22.30769230769231,248.75777446286892L24.53846153846154,247.8256339473926L26.76923076923077,243.7692028090512L29,243.01190968782714L31.230769230769234,243.53042712957583L33.46153846153846,241.65656166608875L35.69230769230769,239.39976299896475L37.92307692307693,239.1901166204587L40.15384615384615,236.58711356337727L42.38461538461539,235.73348875461878L44.61538461538462,235.84831487789626L46.84615384615385,236.2447085385683L49.07692307692308,235.30062006410154L51.307692307692314,234.76056045640553L53.53846153846154,234.3087361136858L55.769230769230774,232.3318306566624L58,231.59993503308775L60.23076923076923,231.97526173332776L62.46153846153847,231.16011661477384L64.6923076923077,230.37700299601926L66.92307692307692,230.93623510039828L69.15384615384616,228.86447903553028L71.38461538461539,228.618023767211L73.61538461538461,227.66334076132347L75.84615384615385,228.46030117193527L78.07692307692308,227.63615541179317L80.3076923076923,229.46671789989296L82.53846153846153,230.14167679211087L84.76923076923077,231.85192323445878L87,231.78009461133527L89.23076923076924,232.10986023361878L91.46153846153845,230.714291287858L93.6923076923077,229.17292951396956L95.92307692307692,225.48633028866243L98.15384615384616,227.62756001528498L100.38461538461539,225.15766061331672L102.61538461538463,224.2857904115457L104.84615384615384,222.25391925700973L107.07692307692308,221.72657131954713L109.3076923076923,220.90553467571797L111.53846153846155,220.08483591938432L113.76923076923077,220.18100472654052L116,219.85382384679824L118.23076923076923,218.48914552566296L120.46153846153847,217.26361378336625L122.6923076923077,217.07027203583075L124.92307692307693,211.31584149978835L127.15384615384615,209.32501144159662L129.3846153846154,209.01965168662977L131.6153846153846,207.29511257401114L133.84615384615384,205.54658116061483L136.07692307692307,204.64650337412402L138.30769230769232,202.75614503799383L140.53846153846155,202.52461601462264L142.76923076923077,202.1484830112836L145,202.12684273400012L147.23076923076923,200.64289808673965L149.46153846153845,201.56195899995484L151.6923076923077,200.16931737867407L153.92307692307693,202.43351626404413L156.15384615384616,204.80086394121736L158.38461538461536,204.738628961795L160.6153846153846,205.40315862532537L162.84615384615384,205.2178990839489L165.07692307692307,207.73944529035708L167.3076923076923,209.07443026116155L169.53846153846155,210.1210714972034L171.76923076923077,209.58436426285513L174,208.5488734892038L176.23076923076923,206.36686527368934L178.46153846153848,207.7590151129392L180.6923076923077,208.82421885342717L182.9230769230769,207.9223673158867L185.15384615384613,207.8883795995652L187.3846153846154,205.53512260321327L189.6153846153846,204.1055080739682L191.84615384615384,201.49303731610584L194.07692307692307,201.2025463623467L196.30769230769232,198.81226286909833L198.53846153846155,196.64181333614027L200.76923076923077,195.83368798978537L203,193.82408249969905L205.23076923076925,191.65088749963567L207.46153846153845,192.28927972737742L209.69230769230768,189.76644570499477L211.9230769230769,187.97715957140267L214.15384615384616,188.8639404873712L216.3846153846154,187.52470579662264L218.6153846153846,187.2788463065122L220.84615384615384,185.18214476721988L223.0769230769231,186.41695007740248L225.30769230769232,186.25588772838432L227.53846153846155,185.51579807583465L229.76923076923075,182.6708183811798L232,180.89535829750974L234.23076923076923,181.85078511279957L236.46153846153845,180.13255728494286L238.69230769230768,173.4156917284373L240.92307692307693,166.62583357166642L243.15384615384616,158.0538118059553L245.3846153846154,149.90495901444646L247.6153846153846,140.43441662064302L249.84615384615387,129.88543588104056L252.0769230769231,121.07071858356043L254.3076923076923,126.42985451507451L256.53846153846155,131.71211664397956L258.7692307692308,138.8072045820218L261,141.42238832065087L263.2307692307692,147.16105068597747L265.46153846153845,150.24919825092303L267.6923076923077,155.0320523041749L269.9230769230769,148.27131204358776L272.15384615384613,143.79051284431267L274.38461538461536,138.5189766752821L276.61538461538464,134.47739662311372L278.84615384615387,127.3069813924462L281.0769230769231,120.6701037551353L283.3076923076923,113.82509308737374L285.53846153846155,108.69245395573685L287.7692307692308,102.17971884629317L290,97.16189377346674L292.2307692307692,93.4444099381263L294.46153846153845,85.35873184100944L296.6923076923077,76.37220241564286L298.9230769230769,69.53862330759706L301.1538461538462,58.9945773386999L303.3846153846154,52.87332374592842L305.61538461538464,49.467349422205345L307.84615384615387,40.70367587796427L310.0769230769231,33.80133367825777L312.3076923076923,31.954205289625992L314.5384615384615,29.41685005489449L316.7692307692307,31.024566224070476L319,31.481797499784815L321.2307692307692,35.43239945133765L323.46153846153845,33.12492892407231L325.6923076923077,36.87545196732825L327.9230769230769,41.34095367380423L330.15384615384613,44.46968813228903L332.38461538461536,50.47849234554775L334.6153846153846,56.248279926624356L336.84615384615387,61.34820751033316L339.0769230769231,64.63405578838648L341.3076923076923,62.79150021648119L343.53846153846155,66.95749257445428L345.7692307692308,67.24998687363963L348,70.60581885097814L350.2307692307692,71.59018716363482L352.46153846153845,74.89325644104711L354.69230769230774,76.56630579596968L356.92307692307696,76.11610083766008L359.1538461538462,74.94680300674895L361.3846153846154,79.50965383460054L363.6153846153846,85.95262836138868L365.8461538461538,90.81442030496959L368.07692307692304,93.15171183557109L370.30769230769226,96.50746684179532L372.53846153846155,104.37417286757398L374.7692307692308,112.91782288704626L377,116.99334581150099L379.2307692307692,124.2057265918051L381.46153846153845,122.95995561935489L383.6923076923077,120.66401864116443L385.9230769230769,126.7496920898477L388.15384615384613,129.81819245882667L390.3846153846154,131.28911444410193L392.61538461538464,136.9874884145883L394.84615384615387,138.8969115717066L397.0769230769231,145.29435556429326L399.3076923076923,149.14665425617392L401.53846153846155,148.3922512263097L403.7692307692308,147.28136006452698L406,144.25851380316126L408.2307692307693,142.5563579801025L410.4615384615385,143.669947313274L412.6923076923077,139.0015360792987L414.9230769230769,136.1071682831962L417.15384615384613,132.71304978103976L419.38461538461536,134.02710038669497L421.6153846153846,129.8976254276081L423.8461538461538,130.8317328582091L426.0769230769231,130.84201979300758L428.3076923076923,132.53814299801275L430.53846153846155,133.64034117236943L432.7692307692308,138.67830678602965L435,138.93532756412458L437.2307692307692,146.1505583146545L439.46153846153845,146.53147617049575L441.6923076923077,150.35223375723888L443.9230769230769,150.396160035081L446.1538461538462,152.7913682153417L448.3846153846154,157.05086622303386L450.61538461538464,162.4625742146639L452.84615384615387,161.8970483684708L455.0769230769231,161.88891342881192L457.3076923076923,160.70516647599985L459.5384615384615,167.22275581753706L461.7692307692307,167.39651319433798L464,168.452035350785L466.2307692307692,169.38772069488172L468.46153846153845,172.1760777384384L470.6923076923077,174.8693809706655L472.9230769230769,175.8471178688741L475.15384615384613,174.878061251196L477.38461538461536,165.30714021213436L479.6153846153846,167.20000748107194L481.84615384615387,169.36168174559117L484.0769230769231,169.4823609746906L486.3076923076923,172.20312636860976L488.53846153846155,176.73570848770467L490.7692307692308,178.6168410722106L493,190.94046819896505L495.2307692307692,190.77262973519913L497.46153846153845,190.6642267941368L499.69230769230774,192.3245201470072L501.92307692307696,195.1859225659937L504.1538461538462,197.03476908658394L506.3846153846154,200.3491785459385L508.6153846153846,200.36867516813356L510.8461538461538,201.18154316916196L513.0769230769231,204.6849250765155L515.3076923076923,208.7286332938207L517.5384615384615,210.39652880162376L519.7692307692308,213.80271241781762L522,217.98079827842602L524.2307692307693,220.44693057257294L526.4615384615385,222.67723969692562L528.6923076923077,221.12902669601772L530.9230769230769,221.25766455815165L533.1538461538461,220.22513635732818L535.3846153846154,220.42104250167705L537.6153846153846,219.466731541932L539.8461538461538,216.4444130562018L542.0769230769231,217.40795412219018L544.3076923076923,219.9989828784738L546.5384615384615,220.9653218289823L548.7692307692307,221.4952749452289L551,223.0719781574058L553.2307692307693,224.12001304516752L555.4615384615385,225.22307091748422" stroke="#4c78a8" stroke-width="2" opacity="1"/></g></g><path class="foreground" aria-hidden="true" d="" display="none"/></g><g transform="translate(0,0)"><path class="background" aria-hidden="true" d="M0,0h580v270h-580Z"/><g><g class="mark-line role-mark marks" clip-path="url(#clip55)" role="graphics-object" aria-roledescription="line mark container"><path aria-label="variable: MN; index: 0; value: −0.602998283723" role="graphics-symbol" aria-roledescription="line mark" d="M0,245.8225166386722L2.230769230769231,245.35686830344633L4.461538461538462,243.50434190971464L6.6923076923076925,244.46066988642292L8.923076923076923,244.71296522545364L11.153846153846155,246.4231521389373L13.384615384615385,246.6213582979661L15.615384615384617,245.46960542845972L17.846153846153847,246.7248813467112L20.076923076923077,245.27871447800464L22.30769230769231,244.04548918888852L24.53846153846154,241.8718057534217L26.76923076923077,241.89218307176583L29,241.9193893781856L31.230769230769234,241.3639366535614L33.46153846153846,240.8250748149169L35.69230769230769,238.443867359593L37.92307692307693,236.73050463918938L40.15384615384615,236.26386945171873L42.38461538461539,236.12677314487263L44.61538461538462,236.57236350480312L46.84615384615385,235.8232079748019L49.07692307692308,236.69846948085743L51.307692307692314,236.21872628560803L53.53846153846154,234.17126081045316L55.769230769230774,232.9298240771325L58,230.91072465062246L60.23076923076923,228.29924652786573L62.46153846153847,226.05047166047265L64.6923076923077,226.0241935496032L66.92307692307692,223.3985571573769L69.15384615384616,222.78028086669465L71.38461538461539,221.45820900286964L73.61538461538461,220.0632731065303L75.84615384615385,218.46097069007988L78.07692307692308,219.07917345737445L80.3076923076923,217.95068641059692L82.53846153846153,217.7059565882211L84.76923076923077,217.1582869444007L87,217.64875863843278L89.23076923076924,215.3460226632247L91.46153846153845,216.88910517879782L93.6923076923077,215.03464067403715L95.92307692307692,215.25370285790467L98.15384615384616,214.85060827204302L100.38461538461539,217.02963435661943L102.61538461538463,215.5395420411964L104.84615384615384,214.97901452032815L107.07692307692308,215.09834899818216L109.3076923076923,216.1694156189342L111.53846153846155,217.01538318324856L113.76923076923077,219.22626629631753L116,217.31945828440107L118.23076923076923,219.26918552399553L120.46153846153847,219.79825677755463L122.6923076923077,219.91649338624208L124.92307692307693,219.8193487604467L127.15384615384615,217.20198710830422L129.3846153846154,216.82526670422993L131.6153846153846,216.43897331067353L133.84615384615384,215.11838193898993L136.07692307692307,215.0092613960887L138.30769230769232,213.5128516049792L140.53846153846155,214.4026353457935L142.76923076923077,214.4794676565108L145,213.6596099925325L147.23076923076923,214.57186050415868L149.46153846153845,213.01052604273013L151.6923076923077,214.34144353094717L153.92307692307693,215.7506115544067L156.15384615384616,216.00995557603207L158.38461538461536,215.74284856235678L160.6153846153846,216.25518992873185L162.84615384615384,216.27259494681394L165.07692307692307,216.96319001686686L167.3076923076923,217.94960109423036L169.53846153846155,218.96962856833227L171.76923076923077,219.52144257036235L174,220.84557792861065L176.23076923076923,220.3532046813607L178.46153846153848,219.73880285809614L180.6923076923077,221.7287378772221L182.9230769230769,219.60002371565L185.15384615384613,216.495078151052L187.3846153846154,213.20029307409092L189.6153846153846,212.7869271157158L191.84615384615384,211.94267391464695L194.07692307692307,214.9203877283476L196.30769230769232,213.59931068595645L198.53846153846155,212.54374254548227L200.76923076923077,212.80039317897376L203,211.32919274820114L205.23076923076925,209.8112093821013L207.46153846153845,209.11004773825505L209.69230769230768,208.1737958887183L211.9230769230769,207.2903293601669L214.15384615384616,207.20826380194754L216.3846153846154,206.85349137762663L218.6153846153846,206.7839766035528L220.84615384615384,204.62651977117076L223.0769230769231,204.2218102048505L225.30769230769232,203.962122110341L227.53846153846155,202.54744592760915L229.76923076923075,200.23541714955888L232,199.3937359504857L234.23076923076923,202.6540028747636L236.46153846153845,203.09308103593398L238.69230769230768,200.4720793933104L240.92307692307693,199.886103902784L243.15384615384616,197.8779346916238L245.3846153846154,194.29820027574792L247.6153846153846,190.22466319098027L249.84615384615387,180.56775820484285L252.0769230769231,180.0399957577527L254.3076923076923,177.43563958634041L256.53846153846155,174.98735878397176L258.7692307692308,173.6046986647742L261,175.07504334398897L263.2307692307692,170.62059871625118L265.46153846153845,171.18275913320082L267.6923076923077,165.55635421029396L269.9230769230769,161.92141903543404L272.15384615384613,158.44378087363197L274.38461538461536,155.75183611319642L276.61538461538464,148.81403689049384L278.84615384615387,144.65518746924548L281.0769230769231,138.45551449564078L283.3076923076923,134.80718547961746L285.53846153846155,127.0797164012572L287.7692307692308,121.31098296761817L290,115.46641176845988L292.2307692307692,109.52476204011381L294.46153846153845,100.6199199952712L296.6923076923077,87.54843501800204L298.9230769230769,81.28070422773925L301.1538461538462,73.4392199853141L303.3846153846154,68.11568401942856L305.61538461538464,63.82970462566393L307.84615384615387,55.91565219711479L310.0769230769231,47.768673044648125L312.3076923076923,42.42783111822633L314.5384615384615,33.42036959549485L316.7692307692307,27.613545169437426L319,24.077756788609708L321.2307692307692,21.099416606882315L323.46153846153845,19.668284265321553L325.6923076923077,16.35635241416203L327.9230769230769,15.381778580229813L330.15384615384613,26.585831237086946L332.38461538461536,24.420040134040548L334.6153846153846,27.01892935043186L336.84615384615387,26.766154570453487L339.0769230769231,28.189900309105205L341.3076923076923,31.143663113313927L343.53846153846155,37.75432127176307L345.7692307692308,22.60451008567818L348,30.317887858155107L350.2307692307692,26.016823940940288L352.46153846153845,24.602893461222358L354.69230769230774,25.709744019365207L356.92307692307696,27.383515129467575L359.1538461538462,28.080839075490314L361.3846153846154,31.5233286448528L363.6153846153846,30.578037881290356L365.8461538461538,34.69775523835056L368.07692307692304,35.09928370370803L370.30769230769226,41.96272770069872L372.53846153846155,48.0834987214622L374.7692307692308,49.50500810681228L377,56.121099309605974L379.2307692307692,66.4240052420381L381.46153846153845,71.11214387522148L383.6923076923077,76.85229233381945L385.9230769230769,84.35499570474187L388.15384615384613,88.32193020723858L390.3846153846154,92.11309042653545L392.61538461538464,95.47156811126176L394.84615384615387,105.9685735786506L397.0769230769231,107.96442301282002L399.3076923076923,113.8864439137295L401.53846153846155,122.46306188479835L403.7692307692308,120.77234488979822L406,124.69248332786404L408.2307692307693,130.00924448703702L410.4615384615385,131.27724021287636L412.6923076923077,132.39717542411273L414.9230769230769,131.01606837858793L417.15384615384613,135.98962547082837L419.38461538461536,138.0980662169096L421.6153846153846,139.7417674933593L423.8461538461538,142.33212734991616L426.0769230769231,136.46220628207533L428.3076923076923,138.12570499914847L430.53846153846155,138.51475868534845L432.7692307692308,138.70517125314822L435,141.4182588600592L437.2307692307692,146.22821985515685L439.46153846153845,147.7830609161985L441.6923076923077,152.41361498347402L443.9230769230769,155.0454152568988L446.1538461538462,158.54261467690168L448.3846153846154,159.06520581437644L450.61538461538464,163.58141449879597L452.84615384615387,166.70941357019328L455.0769230769231,171.2422080554779L457.3076923076923,173.566150261785L459.5384615384615,174.339687854378L461.7692307692307,176.2246323298922L464,178.16448092136233L466.2307692307692,179.4895746664962L468.46153846153845,183.30187479584853L470.6923076923077,186.50164929901078L472.9230769230769,187.24629440381327L475.15384615384613,190.00981979655327L477.38461538461536,193.685137823796L479.6153846153846,195.7041882569355L481.84615384615387,198.03584139755534L484.0769230769231,199.3609460459053L486.3076923076923,199.49185842643743L488.53846153846155,200.99276392744648L490.7692307692308,202.08764887301928L493,203.12115961791895L495.2307692307692,203.72983968120775L497.46153846153845,205.4336415956861L499.69230769230774,206.99173991049298L501.92307692307696,206.5040970642502L504.1538461538462,208.1267282482841L506.3846153846154,209.7235986086182L508.6153846153846,210.55711357407083L510.8461538461538,210.86159165779623L513.0769230769231,213.9853224234212L515.3076923076923,214.74680006454042L517.5384615384615,216.27452944418516L519.7692307692308,217.22556934444643L522,216.95173466789606L524.2307692307693,216.8943376206444L526.4615384615385,219.17994962117618L528.6923076923077,218.6260830471525L530.9230769230769,217.95105731067756L533.1538461538461,220.40159794608317L535.3846153846154,218.38484217353482L537.6153846153846,218.08815916135833L539.8461538461538,218.2145539467618L542.0769230769231,219.76437314643417L544.3076923076923,217.93949393604308L546.5384615384615,217.37242267067427L548.7692307692307,216.58723998449548L551,217.44170649734164L553.2307692307693,218.26998117884276L555.4615384615385,219.43660094364037" stroke="#f58518" stroke-width="2" opacity="1"/></g></g><path class="foreground" aria-hidden="true" d="" display="none"/></g><g transform="translate(0,0)"><path class="background" aria-hidden="true" d="M0,0h580v270h-580Z"/><g><g class="mark-line role-mark marks" clip-path="url(#clip56)" role="graphics-object" aria-roledescription="line mark container"><path aria-label="variable: MT; index: 0; value: −0.791890104567" role="graphics-symbol" aria-roledescription="line mark" d="M0,269.0046946514218L2.230769230769231,264.231303447727L4.461538461538462,264.27213152345104L6.6923076923076925,261.4439114801343L8.923076923076923,258.3515287652044L11.153846153846155,255.65843741326128L13.384615384615385,251.15482485803037L15.615384615384617,248.43897637465557L17.846153846153847,247.8075185403196L20.076923076923077,248.0402196044741L22.30769230769231,245.7572505671595L24.53846153846154,242.06644885304925L26.76923076923077,242.9736838032355L29,241.5337064479797L31.230769230769234,236.378854150487L33.46153846153846,234.10438115410398L35.69230769230769,233.29215442670514L37.92307692307693,230.54860055879604L40.15384615384615,228.57991066549627L42.38461538461539,229.43276021952272L44.61538461538462,228.92323027296004L46.84615384615385,228.60107097561834L49.07692307692308,227.80032026815806L51.307692307692314,228.6571816238227L53.53846153846154,224.87057383357396L55.769230769230774,223.29753085282428L58,223.85261892152442L60.23076923076923,225.02691094275644L62.46153846153847,224.34312071310333L64.6923076923077,222.89821355212877L66.92307692307692,223.76969997118746L69.15384615384616,222.4794086433976L71.38461538461539,221.0156322492474L73.61538461538461,221.86795004981425L75.84615384615385,222.1444411051356L78.07692307692308,221.8191683758543L80.3076923076923,219.65230047540285L82.53846153846153,221.38391157552832L84.76923076923077,221.33245222989686L87,219.9557067789125L89.23076923076924,219.56981896015463L91.46153846153845,218.25075588581473L93.6923076923077,216.3164488419187L95.92307692307692,213.90186473086885L98.15384615384616,213.7848347668304L100.38461538461539,214.03728467587263L102.61538461538463,212.2655622732272L104.84615384615384,211.0322310750797L107.07692307692308,210.97295440462096L109.3076923076923,211.16292072635167L111.53846153846155,211.3528272829906L113.76923076923077,209.3671352648105L116,207.38197137297576L118.23076923076923,206.012567348258L120.46153846153847,207.1828709403865L122.6923076923077,208.99184148185967L124.92307692307693,209.09070057772703L127.15384615384615,211.6026741651474L129.3846153846154,212.57756242246285L131.6153846153846,214.08321744957752L133.84615384615384,215.3061255355431L136.07692307692307,213.26843197374254L138.30769230769232,213.3595883028002L140.53846153846155,210.7322081896438L142.76923076923077,207.2341788832545L145,205.11953802351232L147.23076923076923,203.866570987725L149.46153846153845,201.1161848262995L151.6923076923077,200.25556447679614L153.92307692307693,199.9226713803526L156.15384615384616,201.33119713184925L158.38461538461536,201.54404359691125L160.6153846153846,202.27781669739323L162.84615384615384,203.09297035825384L165.07692307692307,203.9770632688792L167.3076923076923,204.73255831057284L169.53846153846155,206.03010063341654L171.76923076923077,207.55160509552746L174,208.03912508335787L176.23076923076923,211.2090670343107L178.46153846153848,210.18516334607892L180.6923076923077,210.57715854967148L182.9230769230769,211.3407243886785L185.15384615384613,209.73324588272666L187.3846153846154,207.84421294815257L189.6153846153846,205.9242101991914L191.84615384615384,203.61318199081114L194.07692307692307,204.92462054427102L196.30769230769232,202.7763346312624L198.53846153846155,200.37546400318016L200.76923076923077,197.83152014141245L203,194.78416435868422L205.23076923076925,190.91261850855105L207.46153846153845,189.0682796801284L209.69230769230768,185.30181755042886L211.9230769230769,182.83641676101783L214.15384615384616,181.13360195546488L216.3846153846154,179.27171257946299L218.6153846153846,176.49033663984608L220.84615384615384,171.89266249778242L223.0769230769231,167.1850248138289L225.30769230769232,162.0195465005567L227.53846153846155,157.30235370903205L229.76923076923075,152.10042234490348L232,147.31433250721747L234.23076923076923,142.4759357876978L236.46153846153845,139.96394791415514L238.69230769230768,139.89462019132216L240.92307692307693,138.0013320661215L243.15384615384616,137.13826184687227L245.3846153846154,137.65376485877124L247.6153846153846,133.59369438175722L249.84615384615387,127.16827192491043L252.0769230769231,124.37426651821096L254.3076923076923,121.9933483070326L256.53846153846155,117.70249140470543L258.7692307692308,113.56584278087523L261,108.30064798812522L263.2307692307692,110.6734226761735L265.46153846153845,112.37521406089171L267.6923076923077,108.0709084103051L269.9230769230769,98.51044389787184L272.15384615384613,97.37757169605682L274.38461538461536,96.64612024158528L276.61538461538464,93.34408991474734L278.84615384615387,86.2241194762938L281.0769230769231,89.58685531421804L283.3076923076923,89.84534995931014L285.53846153846155,93.23828658515558L287.7692307692308,83.23331981264617L290,73.15754450177839L292.2307692307692,74.38448284966991L294.46153846153845,74.70119880374213L296.6923076923077,69.52426918167531L298.9230769230769,69.15017213776648L301.1538461538462,72.25209980870774L303.3846153846154,72.87418513788401L305.61538461538464,78.74743610556548L307.84615384615387,75.30677401399485L310.0769230769231,68.7677125752104L312.3076923076923,66.92708066794614L314.5384615384615,63.19762217632908L316.7692307692307,56.83522661312529L319,55.811056404023745L321.2307692307692,53.31541542010841L323.46153846153845,52.05778845159099L325.6923076923077,54.93030503577733L327.9230769230769,51.53541430151164L330.15384615384613,49.20726423816083L332.38461538461536,56.60028733053432L334.6153846153846,67.67833517425069L336.84615384615387,72.08365650920068L339.0769230769231,74.83973361782506L341.3076923076923,75.95276368804053L343.53846153846155,80.82432365330669L345.7692307692308,82.87406217337235L348,78.27533239934213L350.2307692307692,79.85441323802537L352.46153846153845,80.65611446464887L354.69230769230774,80.93275150869005L356.92307692307696,78.98125104080798L359.1538461538462,81.40940501427548L361.3846153846154,80.29968502298829L363.6153846153846,79.35904430943613L365.8461538461538,80.7753611882186L368.07692307692304,82.65158568946403L370.30769230769226,90.58038424012433L372.53846153846155,101.53956557801104L374.7692307692308,107.4212234908352L377,113.48430045472024L379.2307692307692,125.45761971586079L381.46153846153845,130.04133511997452L383.6923076923077,135.04498752640202L385.9230769230769,131.2992408875965L388.15384615384613,131.56463844854957L390.3846153846154,131.75090452192717L392.61538461538464,138.1843291440718L394.84615384615387,140.88774192836587L397.0769230769231,145.39878880868028L399.3076923076923,146.07576142317413L401.53846153846155,153.11252240931296L403.7692307692308,154.79299415677133L406,158.75273299792303L408.2307692307693,155.99895714736766L410.4615384615385,157.42424405547234L412.6923076923077,152.15838076410344L414.9230769230769,151.12848722738093L417.15384615384613,152.70706260194498L419.38461538461536,147.50341049893464L421.6153846153846,149.3165959617076L423.8461538461538,146.3591308209213L426.0769230769231,143.75415091348776L428.3076923076923,148.6844364599035L430.53846153846155,152.37594217882625L432.7692307692308,151.85575390241925L435,160.98595103603722L437.2307692307692,164.4417862451416L439.46153846153845,171.85722379940734L441.6923076923077,174.38144019184563L443.9230769230769,176.9126018446938L446.1538461538462,176.90511117825153L448.3846153846154,179.30052986583928L450.61538461538464,185.4272745770856L452.84615384615387,187.5379301255988L455.0769230769231,189.65798520875842L457.3076923076923,192.80147114553887L459.5384615384615,181.14872698645988L461.7692307692307,180.29820335806085L464,182.6471490537351L466.2307692307692,172.04130469347993L468.46153846153845,168.374144428937L470.6923076923077,169.79187716175872L472.9230769230769,166.2220841627302L475.15384615384613,181.95090445297558L477.38461538461536,187.22253334409177L479.6153846153846,187.1234405027599L481.84615384615387,195.68433647567215L484.0769230769231,181.86996858349278L486.3076923076923,182.37136419663324L488.53846153846155,189.27591637446338L490.7692307692308,190.23670852895674L493,189.87161484964417L495.2307692307692,190.8736297306074L497.46153846153845,196.19542595992368L499.69230769230774,218.03373959092923L501.92307692307696,219.22352590346927L504.1538461538462,217.82445801995902L506.3846153846154,219.01284257589833L508.6153846153846,220.19225852148926L510.8461538461538,219.89626572237202L513.0769230769231,218.9826705483882L515.3076923076923,221.12533690605912L517.5384615384615,220.9915733296575L519.7692307692308,222.26280852085884L522,223.04581201353332L524.2307692307693,222.94043541001423L526.4615384615385,224.251557819314L528.6923076923077,223.14666692854715L530.9230769230769,223.77362387012496L533.1538461538461,225.40586884821738L535.3846153846154,225.52005709023263L537.6153846153846,226.21846521570507L539.8461538461538,226.84587935708407L542.0769230769231,226.9762413178758L544.3076923076923,222.52350099888548L546.5384615384615,225.49018023111148L548.7692307692307,225.76103790558298L551,226.55764192543688L553.2307692307693,226.84910695098503L555.4615384615385,227.53983272808435" stroke="#e45756" stroke-width="2" opacity="1"/></g></g><path class="foreground" aria-hidden="true" d="" display="none"/></g><g transform="translate(0,0)"><path class="background" aria-hidden="true" d="M0,0h580v270h-580Z"/><g><g class="mark-line role-mark marks" clip-path="url(#clip57)" role="graphics-object" aria-roledescription="line mark container"><path aria-label="variable: NE; index: 0; value: −0.635541803435" role="graphics-symbol" aria-roledescription="line mark" d="M0,249.81649405796227L2.230769230769231,250.22683566400696L4.461538461538462,251.58095371444622L6.6923076923076925,251.99655810219377L8.923076923076923,251.07160259825793L11.153846153846155,250.19753183871995L13.384615384615385,249.10213933895142L15.615384615384617,248.4996065427262L17.846153846153847,247.16800932098838L20.076923076923077,247.304055474495L22.30769230769231,246.82683685310442L24.53846153846154,245.33157540359392L26.76923076923077,244.66091706018736L29,244.3531891170483L31.230769230769234,242.51777763130792L33.46153846153846,242.14313883562468L35.69230769230769,243.26298821886442L37.92307692307693,243.044858838866L40.15384615384615,242.1186453836633L42.38461538461539,240.9453329733998L44.61538461538462,240.2982642608006L46.84615384615385,238.46425890583302L49.07692307692308,237.7757037271769L51.307692307692314,237.50759685801344L53.53846153846154,235.32711509610306L55.769230769230774,233.5610025296015L58,231.80736341130805L60.23076923076923,230.72016172778896L62.46153846153847,229.6620168532127L64.6923076923077,227.83613084751738L66.92307692307692,227.1014792290596L69.15384615384616,224.5041970751442L71.38461538461539,222.95282893269126L73.61538461538461,221.08230599055523L75.84615384615385,220.00211231114162L78.07692307692308,219.45229762153818L80.3076923076923,219.04150324193824L82.53846153846153,218.84959174494787L84.76923076923077,219.5633175936557L87,219.0538763574905L89.23076923076924,218.71153883972002L91.46153846153845,218.29439959982147L93.6923076923077,217.87050463699856L95.92307692307692,218.31049823095867L98.15384615384616,218.19363108308215L100.38461538461539,218.01998591244254L102.61538461538463,217.06598815004557L104.84615384615384,216.40832296913356L107.07692307692308,215.91373296613995L109.3076923076923,215.63621860990872L111.53846153846155,216.13216432027187L113.76923076923077,216.72351308525376L116,216.88605062336936L118.23076923076923,217.06135666484667L120.46153846153847,216.75866799232327L122.6923076923077,217.6442851711747L124.92307692307693,218.23598204834954L127.15384615384615,217.59534414397135L129.3846153846154,216.46114428438693L131.6153846153846,215.45123265866286L133.84615384615384,213.6355829905337L136.07692307692307,212.86499011919292L138.30769230769232,211.67175886812498L140.53846153846155,210.24636118755606L142.76923076923077,208.98393741232385L145,207.79264742793197L147.23076923076923,206.38086108089573L149.46153846153845,205.02601197499294L151.6923076923077,203.6314088287384L153.92307692307693,204.01679581700708L156.15384615384616,203.43793332075393L158.38461538461536,202.78104096323665L160.6153846153846,203.6740187540948L162.84615384615384,203.45369887597437L165.07692307692307,204.05915757406643L167.3076923076923,205.0213501556289L169.53846153846155,205.55630062771317L171.76923076923077,204.8228761491956L174,206.60004282683875L176.23076923076923,206.5268075529575L178.46153846153848,205.6116374904262L180.6923076923077,203.5598168136222L182.9230769230769,201.45250392687896L185.15384615384613,199.27067850244129L187.3846153846154,197.2004327385596L189.6153846153846,195.45424885837866L191.84615384615384,193.61819812146177L194.07692307692307,190.9766362722673L196.30769230769232,188.88609110299834L198.53846153846155,186.9386250875676L200.76923076923077,186.80819798084224L203,187.22568076476944L205.23076923076925,186.4333991321334L207.46153846153845,185.30275727479244L209.69230769230768,185.88394227643846L211.9230769230769,185.29089401193897L214.15384615384616,184.9572494512144L216.3846153846154,185.53330963375294L218.6153846153846,186.75732636123868L220.84615384615384,186.60449118673176L223.0769230769231,188.75101759694647L225.30769230769232,187.32396966001738L227.53846153846155,187.75919700338093L229.76923076923075,188.32889524421887L232,187.97412171044968L234.23076923076923,186.50674294361013L236.46153846153845,183.66505114885211L238.69230769230768,182.3710668929493L240.92307692307693,178.69585031080697L243.15384615384616,176.1312412421852L245.3846153846154,173.33068104979367L247.6153846153846,170.35906134472083L249.84615384615387,168.50645418889079L252.0769230769231,166.00951765972889L254.3076923076923,163.74316552210556L256.53846153846155,163.8035288816706L258.7692307692308,161.64509935172816L261,159.90689079641203L263.2307692307692,159.15342339652358L265.46153846153845,157.4684768129677L267.6923076923077,155.27366822243164L269.9230769230769,151.89546329673348L272.15384615384613,146.57553133937915L274.38461538461536,141.63935085083648L276.61538461538464,136.48449592829482L278.84615384615387,132.14442467429456L281.0769230769231,129.23531861592795L283.3076923076923,123.76420304977601L285.53846153846155,118.44462824121415L287.7692307692308,109.81476995868486L290,104.84862023434626L292.2307692307692,98.93576454554648L294.46153846153845,91.71782165197688L296.6923076923077,83.19499155897637L298.9230769230769,78.77818743511241L301.1538461538462,70.86827176415936L303.3846153846154,69.12394191480088L305.61538461538464,65.04236261199792L307.84615384615387,62.076213652079325L310.0769230769231,58.12797317797559L312.3076923076923,56.63163955779802L314.5384615384615,52.84307331547357L316.7692307692307,51.85774381375477L319,48.66096629011291L321.2307692307692,48.08592605177836L323.46153846153845,47.59252348888855L325.6923076923077,47.004835229137655L327.9230769230769,50.08745439085056L330.15384615384613,48.666863648447624L332.38461538461536,54.83008159445636L334.6153846153846,64.51827688271783L336.84615384615387,65.21353734998266L339.0769230769231,65.87135412480681L341.3076923076923,66.09387324732164L343.53846153846155,58.862593682376556L345.7692307692308,56.05317525784907L348,51.130146282888944L350.2307692307692,47.88911973471291L352.46153846153845,49.35627303409245L354.69230769230774,49.67908251858054L356.92307692307696,52.57689077344425L359.1538461538462,61.09303126081811L361.3846153846154,70.72451479619393L363.6153846153846,73.57087171007424L365.8461538461538,79.4316363767455L368.07692307692304,79.51637208446526L370.30769230769226,82.75553136744277L372.53846153846155,85.57652191613273L374.7692307692308,94.05982744401092L377,99.19193209283368L379.2307692307692,109.14951373693016L381.46153846153845,111.27608002947542L383.6923076923077,116.9408098051993L385.9230769230769,118.4131933862047L388.15384615384613,125.37348188765618L390.3846153846154,128.7304705126801L392.61538461538464,124.49160963122522L394.84615384615387,125.15224081581977L397.0769230769231,132.2057505551522L399.3076923076923,134.73215049737374L401.53846153846155,137.94726224620774L403.7692307692308,139.3901926587601L406,139.6319275165312L408.2307692307693,146.5538355411984L410.4615384615385,139.48906593437636L412.6923076923077,132.66645608303782L414.9230769230769,131.29143964684155L417.15384615384613,129.46583259288397L419.38461538461536,132.06644109130553L421.6153846153846,131.69838819258837L423.8461538461538,130.42975417261448L426.0769230769231,120.32258184538888L428.3076923076923,138.07167770083782L430.53846153846155,138.08567846223826L432.7692307692308,135.54458365233216L435,137.129983796108L437.2307692307692,137.88270005346098L439.46153846153845,139.1237565337097L441.6923076923077,160.59459512884274L443.9230769230769,140.40430489533438L446.1538461538462,142.00003105913135L448.3846153846154,149.27656128682617L450.61538461538464,153.09197621523222L452.84615384615387,155.92932332159228L455.0769230769231,158.08204317128389L457.3076923076923,163.64654488789046L459.5384615384615,168.52695386178542L461.7692307692307,171.66704454910249L464,172.40586754275245L466.2307692307692,172.35040175537173L468.46153846153845,175.9360011829487L470.6923076923077,179.1079311389792L472.9230769230769,180.8673476119981L475.15384615384613,185.00664396262428L477.38461538461536,186.34245448083476L479.6153846153846,188.19135864199637L481.84615384615387,190.78879327297656L484.0769230769231,192.94571960377124L486.3076923076923,192.2519931444691L488.53846153846155,193.1451947134375L490.7692307692308,192.47706245088176L493,193.90938379581067L495.2307692307692,195.73571055312527L497.46153846153845,197.831622352013L499.69230769230774,198.47507732968813L501.92307692307696,203.6545320985576L504.1538461538462,204.12189997894217L506.3846153846154,205.67933666024675L508.6153846153846,205.56968266338862L510.8461538461538,204.9535008542817L513.0769230769231,206.8329005682005L515.3076923076923,206.17133075093395L517.5384615384615,205.86532627604046L519.7692307692308,204.75990110054698L522,205.85751615340334L524.2307692307693,207.892195423222L526.4615384615385,210.21405572011747L528.6923076923077,211.33613673469185L530.9230769230769,214.04643427264935L533.1538461538461,214.49064761443142L535.3846153846154,216.42517804882368L537.6153846153846,216.18711104777967L539.8461538461538,215.82961796864367L542.0769230769231,215.4009647843987L544.3076923076923,215.4658378007835L546.5384615384615,215.68215922203L548.7692307692307,217.6979104262272L551,217.556695961374L553.2307692307693,218.22587781483784L555.4615384615385,217.48234654037316" stroke="#72b7b2" stroke-width="2" opacity="1"/></g></g><path class="foreground" aria-hidden="true" d="" display="none"/></g><g transform="translate(0,0)"><path class="background" aria-hidden="true" d="M0,0h580v270h-580Z"/><g><g class="mark-line role-mark marks" clip-path="url(#clip58)" role="graphics-object" aria-roledescription="line mark container"><path aria-label="variable: WY; index: 0; value: −0.588077265844" role="graphics-symbol" aria-roledescription="line mark" d="M0,243.9913008081081L2.230769230769231,241.73948567317973L4.461538461538462,239.72646312835835L6.6923076923076925,238.25896883532147L8.923076923076923,236.62792561080417L11.153846153846155,234.34930168268954L13.384615384615385,232.27491432072657L15.615384615384617,233.7452084037461L17.846153846153847,231.80326525951145L20.076923076923077,230.8022064303499L22.30769230769231,228.28271901984158L24.53846153846154,226.9817084158715L26.76923076923077,224.8449573398159L29,225.55871139281626L31.230769230769234,224.9266169169427L33.46153846153846,228.31572354788756L35.69230769230769,226.15711754594506L37.92307692307693,224.48157070043212L40.15384615384615,223.5857266088386L42.38461538461539,221.5241234936692L44.61538461538462,222.87631473593086L46.84615384615385,221.2605541930906L49.07692307692308,221.0550255953261L51.307692307692314,219.34428585537296L53.53846153846154,218.00095433786126L55.769230769230774,217.052035190893L58,215.38716525975042L60.23076923076923,215.87660865085326L62.46153846153847,214.45309522348336L64.6923076923077,212.6462203604204L66.92307692307692,211.4215744212158L69.15384615384616,210.17466586294452L71.38461538461539,209.0468561420393L73.61538461538461,209.556254651224L75.84615384615385,209.61109106943942L78.07692307692308,208.87101370885873L80.3076923076923,208.4094426019172L82.53846153846153,209.21198448467763L84.76923076923077,209.24201936496496L87,208.8116670266815L89.23076923076924,210.53116650765563L91.46153846153845,211.86086357810527L93.6923076923077,212.1692584087811L95.92307692307692,213.45617506901127L98.15384615384616,213.60336400792536L100.38461538461539,213.21484512124053L102.61538461538463,212.51088536197517L104.84615384615384,215.53998220924575L107.07692307692308,217.02055695779737L109.3076923076923,215.44065453507886L111.53846153846155,214.83284731572374L113.76923076923077,216.3020818497404L116,215.15720430884022L118.23076923076923,213.74487890329098L120.46153846153847,215.17634888543253L122.6923076923077,214.86471269778067L124.92307692307693,213.5858302108335L127.15384615384615,213.19137198665513L129.3846153846154,215.40448214178429L131.6153846153846,215.3755745216075L133.84615384615384,215.03697312058824L136.07692307692307,214.96535879095651L138.30769230769232,218.7623661338483L140.53846153846155,218.2036984167719L142.76923076923077,217.79018753811832L145,217.88850875813065L147.23076923076923,217.69924105915058L149.46153846153845,217.36875894846278L151.6923076923077,217.5741637964135L153.92307692307693,219.60772780751012L156.15384615384616,218.9361526209557L158.38461538461536,218.23821120432038L160.6153846153846,218.14895917647428L162.84615384615384,217.70765587614466L165.07692307692307,216.96746779190698L167.3076923076923,219.17942769280265L169.53846153846155,218.44132944946793L171.76923076923077,216.04145217982926L174,216.27684072826986L176.23076923076923,214.35385741804765L178.46153846153848,213.4378205855053L180.6923076923077,211.65724463213448L182.9230769230769,213.3131200136215L185.15384615384613,211.79469352992328L187.3846153846154,209.84447035564543L189.6153846153846,210.4039316016323L191.84615384615384,208.6174105878536L194.07692307692307,207.68292903469654L196.30769230769232,205.34085480190964L198.53846153846155,203.90935511787356L200.76923076923077,203.0992273095728L203,202.531150513234L205.23076923076925,201.75167509218252L207.46153846153845,200.02003702780638L209.69230769230768,198.09391346952256L211.9230769230769,196.46414849582317L214.15384615384616,194.9044604174736L216.3846153846154,192.6808770403219L218.6153846153846,190.493654647071L220.84615384615384,190.1885024971057L223.0769230769231,187.1555440468328L225.30769230769232,185.16355210647723L227.53846153846155,182.90879499236308L229.76923076923075,180.69758236787075L232,179.44422575948428L234.23076923076923,177.94082700243595L236.46153846153845,177.65728120314L238.69230769230768,176.02079669168364L240.92307692307693,175.1355523711044L243.15384615384616,173.97362182204688L245.3846153846154,171.47001060154483L247.6153846153846,171.3120152139635L249.84615384615387,168.49297965525685L252.0769230769231,164.33687543574018L254.3076923076923,160.44765914786694L256.53846153846155,157.3420551764056L258.7692307692308,153.75207320498805L261,147.70560198562399L263.2307692307692,147.3595637692834L265.46153846153845,143.74389519974358L267.6923076923077,143.60696008604728L269.9230769230769,139.28110656915987L272.15384615384613,135.99630311888055L274.38461538461536,132.94352308163005L276.61538461538464,137.39223441682697L278.84615384615387,132.5295191313196L281.0769230769231,124.51734987385584L283.3076923076923,130.49096719238972L285.53846153846155,125.89072947569606L287.7692307692308,123.75760189732944L290,115.98846156690405L292.2307692307692,111.71717892291773L294.46153846153845,104.02062551647671L296.6923076923077,111.29737426876136L298.9230769230769,104.81593573794311L301.1538461538462,99.89388207173775L303.3846153846154,85.94307950633346L305.61538461538464,89.57256441129046L307.84615384615387,86.72231394735707L310.0769230769231,87.84803821184695L312.3076923076923,84.11753351295381L314.5384615384615,69.22562161160785L316.7692307692307,66.0200902833833L319,79.25802117167996L321.2307692307692,75.48686179850027L323.46153846153845,54.451296108535715L325.6923076923077,59.833568411747166L327.9230769230769,46.412439949357214L330.15384615384613,57.2483032341516L332.38461538461536,51.92972916496201L334.6153846153846,47.464747517712034L336.84615384615387,43.22453233499697L339.0769230769231,65.21392236325723L341.3076923076923,56.89496926928565L343.53846153846155,69.99629273437127L345.7692307692308,57.40201343381568L348,59.24059332170571L350.2307692307692,62.92440100284661L352.46153846153845,67.16975550519413L354.69230769230774,44.678683333596354L356.92307692307696,53.89869753873722L359.1538461538462,42.44044320152172L361.3846153846154,67.14574078493112L363.6153846153846,53.814187898117645L365.8461538461538,56.08795951918193L368.07692307692304,57.31429071823445L370.30769230769226,84.50556135376526L372.53846153846155,85.24824279486967L374.7692307692308,103.74063151754638L377,89.69647857535824L379.2307692307692,110.54834277183119L381.46153846153845,112.3125511678086L383.6923076923077,114.12873168252398L385.9230769230769,116.8482088588391L388.15384615384613,108.76507123826127L390.3846153846154,108.57898539379498L392.61538461538464,129.0792694728029L394.84615384615387,129.7828785188762L397.0769230769231,129.6127338737385L399.3076923076923,129.98610126396582L401.53846153846155,109.25309663858366L403.7692307692308,130.1296925463268L406,133.0602018344477L408.2307692307693,112.50362245020771L410.4615384615385,114.50444956000625L412.6923076923077,117.86981235057792L414.9230769230769,120.48066426227624L417.15384615384613,147.57206714700447L419.38461538461536,129.14396831999798L421.6153846153846,128.4420652831978L423.8461538461538,138.55388567765385L426.0769230769231,137.86800596848127L428.3076923076923,136.7054344259474L430.53846153846155,136.00571138269217L432.7692307692308,135.38370152328656L435,132.80979105928296L437.2307692307692,133.47341058474746L439.46153846153845,154.68690838370227L441.6923076923077,155.0193171065241L443.9230769230769,155.45280141574483L446.1538461538462,155.5107546805526L448.3846153846154,154.85394948049958L450.61538461538464,164.65411770046836L452.84615384615387,165.4516685742455L455.0769230769231,166.58325352739743L457.3076923076923,152.59548095699537L459.5384615384615,153.98354729741118L461.7692307692307,155.43729430742366L464,157.89389894698016L466.2307692307692,165.40061200574726L468.46153846153845,166.2833997556545L470.6923076923077,167.86179926314597L472.9230769230769,187.48818202417175L475.15384615384613,189.36526468093513L477.38461538461536,190.46075386564252L479.6153846153846,191.69505995728719L481.84615384615387,193.73208131615715L484.0769230769231,194.7235214493165L486.3076923076923,195.21739668905627L488.53846153846155,195.5686076441642L490.7692307692308,196.0184452011493L493,196.5624958366567L495.2307692307692,196.92943964282026L497.46153846153845,206.00944345263576L499.69230769230774,206.63221103833905L501.92307692307696,207.36925703284268L504.1538461538462,207.63793322502994L506.3846153846154,208.07997262075833L508.6153846153846,208.37767000083693L510.8461538461538,208.5267069835726L513.0769230769231,216.16178474178807L515.3076923076923,215.91935829172203L517.5384615384615,215.58185988574388L519.7692307692308,215.2317579029135L522,215.13660792511996L524.2307692307693,214.78234189329729L526.4615384615385,215.09548196149342L528.6923076923077,221.5407401669799L530.9230769230769,221.7634804934138L533.1538461538461,221.85885250707145L535.3846153846154,221.8829235246101L537.6153846153846,222.14330894619775L539.8461538461538,222.47776201155298L542.0769230769231,221.99898756447675L544.3076923076923,221.80486274421756L546.5384615384615,221.55514516317743L548.7692307692307,221.34133499915197L551,221.56684661785863L553.2307692307693,221.91847386443828L555.4615384615385,222.25823156533545" stroke="#54a24b" stroke-width="2" opacity="1"/></g></g><path class="foreground" aria-hidden="true" d="" display="none"/></g></g><g class="mark-group role-legend" role="graphics-symbol" aria-roledescription="legend" aria-label="Symbol legend for stroke color with 5 values: IA, MN, MT, NE, WY"><g transform="translate(598,0)"><path class="background" aria-hidden="true" d="M0,0h33v63h-33Z" pointer-events="none"/><g><g class="mark-group role-legend-entry"><g transform="translate(0,0)"><path class="background" aria-hidden="true" d="M0,0h0v0h0Z" pointer-events="none"/><g><g class="mark-group role-scope" role="graphics-object" aria-roledescription="group mark container"><g transform="translate(0,0)"><path class="background" aria-hidden="true" d="M0,0h32.11997985839844v11h-32.11997985839844Z" pointer-events="none" opacity="1"/><g><g class="mark-symbol role-legend-symbol" pointer-events="none"><path transform="translate(6,6)" d="M-5,0L5,0" stroke="#4c78a8" stroke-width="1.5" opacity="1"/></g><g class="mark-text role-legend-label" pointer-events="none"><text text-anchor="start" transform="translate(16,9)" font-family="IBM Plex Serif, serif" font-size="10px" fill="#262730" opacity="1">IA</text></g></g><path class="foreground" aria-hidden="true" d="" pointer-events="none" display="none"/></g><g transform="translate(0,13)"><path class="background" aria-hidden="true" d="M0,0h32.11997985839844v11h-32.11997985839844Z" pointer-events="none" opacity="1"/><g><g class="mark-symbol role-legend-symbol" pointer-events="none"><path transform="translate(6,6)" d="M-5,0L5,0" stroke="#f58518" stroke-width="1.5" opacity="1"/></g><g class="mark-text role-legend-label" pointer-events="none"><text text-anchor="start" transform="translate(16,9)" font-family="IBM Plex Serif, serif" font-size="10px" fill="#262730" opacity="1">MN</text></g></g><path class="foreground" aria-hidden="true" d="" pointer-events="none" display="none"/></g><g transform="translate(0,26)"><path class="background" aria-hidden="true" d="M0,0h32.11997985839844v11h-32.11997985839844Z" pointer-events="none" opacity="1"/><g><g class="mark-symbol role-legend-symbol" pointer-events="none"><path transform="translate(6,6)" d="M-5,0L5,0" stroke="#e45756" stroke-width="1.5" opacity="1"/></g><g class="mark-text role-legend-label" pointer-events="none"><text text-anchor="start" transform="translate(16,9)" font-family="IBM Plex Serif, serif" font-size="10px" fill="#262730" opacity="1">MT</text></g></g><path class="foreground" aria-hidden="true" d="" pointer-events="none" display="none"/></g><g transform="translate(0,39)"><path class="background" aria-hidden="true" d="M0,0h32.11997985839844v11h-32.11997985839844Z" pointer-events="none" opacity="1"/><g><g class="mark-symbol role-legend-symbol" pointer-events="none"><path transform="translate(6,6)" d="M-5,0L5,0" stroke="#72b7b2" stroke-width="1.5" opacity="1"/></g><g class="mark-text role-legend-label" pointer-events="none"><text text-anchor="start" transform="translate(16,9)" font-family="IBM Plex Serif, serif" font-size="10px" fill="#262730" opacity="1">NE</text></g></g><path class="foreground" aria-hidden="true" d="" pointer-events="none" display="none"/></g><g transform="translate(0,52)"><path class="background" aria-hidden="true" d="M0,0h32.11997985839844v11h-32.11997985839844Z" pointer-events="none" opacity="1"/><g><g class="mark-symbol role-legend-symbol" pointer-events="none"><path transform="translate(6,6)" d="M-5,0L5,0" stroke="#54a24b" stroke-width="1.5" opacity="1"/></g><g class="mark-text role-legend-label" pointer-events="none"><text text-anchor="start" transform="translate(16,9)" font-family="IBM Plex Serif, serif" font-size="10px" fill="#262730" opacity="1">WY</text></g></g><path class="foreground" aria-hidden="true" d="" pointer-events="none" display="none"/></g></g></g><path class="foreground" aria-hidden="true" d="" pointer-events="none" display="none"/></g></g></g><path class="foreground" aria-hidden="true" d="" pointer-events="none" display="none"/></g></g></g><path class="foreground" aria-hidden="true" d="" display="none"/></g></g></g><defs><clipPath id="clip54"><rect x="0" y="0" width="580" height="270"/></clipPath><clipPath id="clip55"><rect x="0" y="0" width="580" height="270"/></clipPath><clipPath id="clip56"><rect x="0" y="0" width="580" height="270"/></clipPath><clipPath id="clip57"><rect x="0" y="0" width="580" height="270"/></clipPath><clipPath id="clip58"><rect x="0" y="0" width="580" height="270"/></clipPath></defs></svg>