<svg xmlns="http://www.w3.org/2000/svg" xmlns:xlink="http://www.w3.org/1999/xlink" version="1.1" class="marks" width="660" height="300" viewBox="0 0 660 300"><rect width="660" height="300" fill="#ffffff"/><g fill="none" stroke-miterlimit="10" transform="translate(26,0)"><g class="mark-group role-frame root" role="graphics-object" aria-roledescription="group mark container"><g transform="translate(0,0)"><path class="background" aria-hidden="true" d="M0.5,0.5h582v275h-582Z" stroke="#ddd"/><g><g class="mark-group role-axis" aria-hidden="true"><g transform="translate(0.5,275.5)"><path class="background" aria-hidden="true" d="M0,0h0v0h0Z" pointer-events="none"/><g><g class="mark-rule role-axis-grid" pointer-events="none"><line transform="translate(0,-275)" x2="0" y2="275" stroke="rgba(38, 39, 48, 0.2)" stroke-width="1" opacity="1"/><line transform="translate(45,-275)" x2="0" y2="275" stroke="rgba(38, 39, 48, 0.2)" stroke-width="1" opacity="1"/><line transform="translate(90,-275)" x2="0" y2="275" stroke="rgba(38, 39, 48, 0.2)" stroke-width="1" opacity="1"/><line transform="translate(134,-275)" x2="0" y2="275" stroke="rgba(38, 39, 48, 0.2)" stroke-width="1" opacity="1"/><line transform="translate(179,-275)" x2="0" y2="275" stroke="rgba(38, 39, 48, 0.2)" stroke-width="1" opacity="1"/><line transform="translate(224,-275)" x2="0" y2="275" stroke="rgba(38, 39, 48, 0.2)" stroke-width="1" opacity="1"/><line transform="translate(269,-275)" x2="0" y2="275" stroke="rgba(38, 39, 48, 0.2)" stroke-width="1" opacity="1"/><line transform="translate(313,-275)" x2="0" y2="275" stroke="rgba(38, 39, 48, 0.2)" stroke-width="1" opacity="1"/><line transform="translate(358,-275)" x2="0" y2="275" stroke="rgba(38, 39, 48, 0.2)" stroke-width="1" opacity="1"/><line transform="translate(403,-275)" x2="0" y2="275" stroke="rgba(38, 39, 48, 0.2)" stroke-width="1" opacity="1"/><line transform="translate(448,-275)" x2="0" y2="275" stroke="rgba(38, 39, 48, 0.2)" stroke-width="1" opacity="1"/><line transform="translate(492,-275)" x2="0" y2="275" stroke="rgba(38, 39, 48, 0.2)" stroke-width="1" opacity="1"/><line transform="translate(537,-275)" x2="0" y2="275" stroke="rgba(38, 39, 48, 0.2)" stroke-width="1" opacity="1"/><line transform="translate(582,-275)" x2="0" y2="275" stroke="rgba(38, 39, 48, 0.2)" stroke-width="1" opacity="1"/></g></g><path class="foreground" aria-hidden="true" d="" pointer-events="none" display="none"/></g></g><g class="mark-group role-axis" aria-hidden="true"><g transform="translate(0.5,0.5)"><path class="background" aria-hidden="true" d="M0,0h0v0h0Z" pointer-events="none"/><g><g class="mark-rule role-axis-grid" pointer-events="none"><line transform="translate(0,275)" x2="582" y2="0" stroke="rgba(38, 39, 48, 0.2)" stroke-width="1" opacity="1"/><line transform="translate(0,225)" x2="582" y2="0" stroke="rgba(38, 39, 48, 0.2)" stroke-width="1" opacity="1"/><line transform="translate(0,175)" x2="582" y2="0" stroke="rgba(38, 39, 48, 0.2)" stroke-width="1" opacity="1"/><line transform="translate(0,125)" x2="582" y2="0" stroke="rgba(38, 39, 48, 0.2)" stroke-width="1" opacity="1"/><line transform="translate(0,75)" x2="582" y2="0" stroke="rgba(38, 39, 48, 0.2)" stroke-width="1" opacity="1"/><line transform="translate(0,25)" x2="582" y2="0" stroke="rgba(38, 39, 48, 0.2)" stroke-width="1" opacity="1"/></g></g><path class="foreground" aria-hidden="true" d="" pointer-events="none" display="none"/></g></g><g class="mark-group role-axis" role="graphics-symbol" aria-roledescription="axis" aria-label="X-axis for a linear scale with values from 0 to 260"><g transform="translate(0.5,275.5)"><path class="background" aria-hidden="true" d="M0,0h0v0h0Z" pointer-events="none"/><g><g class="mark-rule role-axis-tick" pointer-events="none"><line transform="translate(0,0)" x2="0" y2="5" stroke="#888" stroke-width="1" opacity="1"/><line transform="translate(45,0)" x2="0" y2="5" stroke="#888" stroke-width="1" opacity="1"/><line transform="translate(90,0)" x2="0" y2="5" stroke="#888" stroke-width="1" opacity="1"/><line transform="translate(134,0)" x2="0" y2="5" stroke="#888" stroke-width="1" opacity="1"/><line transform="translate(179,0)" x2="0" y2="5" stroke="#888" stroke-width="1" opacity="1"/><line transform="translate(224,0)" x2="0" y2="5" stroke="#888" stroke-width="1" opacity="1"/><line transform="translate(269,0)" x2="0" y2="5" stroke="#888" stroke-width="1" opacity="1"/><line transform="translate(313,0)" x2="0" y2="5" stroke="#888" stroke-width="1" opacity="1"/><line transform="translate(358,0)" x2="0" y2="5" stroke="#888" stroke-width="1" opacity="1"/><line transform="translate(403,0)" x2="0" y2="5" stroke="#888" stroke-width="1" opacity="1"/><line transform="translate(448,0)" x2="0" y2="5" stroke="#888" stroke-width="1" opacity="1"/><line transform="translate(492,0)" x2="0" y2="5" stroke="#888" stroke-width="1" opacity="1"/><line transform="translate(537,0)" x2="0" y2="5" stroke="#888" stroke-width="1" opacity="1"/><line transform="translate(582,0)" x2="0" y2="5" stroke="#888" stroke-width="1" opacity="1"/></g><g class="mark-text role-axis-label" pointer-events="none"><text text-anchor="start" transform="translate(0,15)" font-family="IBM Plex Serif, serif" font-size="10px" fill="#262730" opacity="1">0</text><text text-anchor="middle" transform="translate(44.769230769230774,15)" font-family="IBM Plex Serif, serif" font-size="10px" fill="#262730" opacity="1">20</text><text text-anchor="middle" transform="translate(89.53846153846155,15)" font-family="IBM Plex Serif, serif" font-size="10px" fill="#262730" opacity="1">40</text><text text-anchor="middle" transform="translate(134.30769230769232,15)" font-family="IBM Plex Serif, serif" font-size="10px" fill="#262730" opacity="1">60</text><text text-anchor="middle" transform="translate(179.0769230769231,15)" font-family="IBM Plex Serif, serif" font-size="10px" fill="#262730" opacity="1">80</text><text text-anchor="middle" transform="translate(223.84615384615387,15)" font-family="IBM Plex Serif, serif" font-size="10px" fill="#262730" opacity="1">100</text><text text-anchor="middle" transform="translate(268.61538461538464,15)" font-family="IBM Plex Serif, serif" font-size="10px" fill="#262730" opacity="1">120</text><text text-anchor="middle" transform="translate(313.38461538461536,15)" font-family="IBM Plex Serif, serif" font-size="10px" fill="#262730" opacity="1">140</text><text text-anchor="middle" transform="translate(358.1538461538462,15)" font-family="IBM Plex Serif, serif" font-size="10px" fill="#262730" opacity="1">160</text><text text-anchor="middle" transform="translate(402.9230769230769,15)" font-family="IBM Plex Serif, serif" font-size="10px" fill="#262730" opacity="1">180</text><text text-anchor="middle" transform="translate(447.69230769230774,15)" font-family="IBM Plex Serif, serif" font-size="10px" fill="#262730" opacity="1">200</text><text text-anchor="middle" transform="translate(492.46153846153845,15)" font-family="IBM Plex Serif, serif" font-size="10px" fill="#262730" opacity="1">220</text><text text-anchor="middle" transform="translate(537.2307692307693,15)" font-family="IBM Plex Serif, serif" font-size="10px" fill="#262730" opacity="1">240</text><text text-anchor="end" transform="translate(582,15)" font-family="IBM Plex Serif, serif" font-size="10px" fill="#262730" opacity="1">260</text></g><g class="mark-rule role-axis-domain" pointer-events="none"><line transform="translate(0,0)" x2="582" y2="0" stroke="#888" stroke-width="1" opacity="1"/></g></g><path class="foreground" aria-hidden="true" d="" pointer-events="none" display="none"/></g></g><g class="mark-group role-axis" role="graphics-symbol" aria-roledescription="axis" aria-label="Y-axis for a linear scale with values from −0.4 to 0.7"><g transform="translate(0.5,0.5)"><path class="background" aria-hidden="true" d="M0,0h0v0h0Z" pointer-events="none"/><g><g class="mark-rule role-axis-tick" pointer-events="none"><line transform="translate(0,275)" x2="-5" y2="0" stroke="#888" stroke-width="1" opacity="1"/><line transform="translate(0,225)" x2="-5" y2="0" stroke="#888" stroke-width="1" opacity="1"/><line transform="translate(0,175)" x2="-5" y2="0" stroke="#888" stroke-width="1" opacity="1"/><line transform="translate(0,125)" x2="-5" y2="0" stroke="#888" stroke-width="1" opacity="1"/><line transform="translate(0,75)" x2="-5" y2="0" stroke="#888" stroke-width="1" opacity="1"/><line transform="translate(0,25)" x2="-5" y2="0" stroke="#888" stroke-width="1" opacity="1"/></g><g class="mark-text role-axis-label" pointer-events="none"><text text-anchor="end" transform="translate(-7,278)" font-family="IBM Plex Serif, serif" font-size="10px" fill="#262730" opacity="1">−0.4</text><text text-anchor="end" transform="translate(-7,227.99999999999997)" font-family="IBM Plex Serif, serif" font-size="10px" fill="#262730" opacity="1">−0.2</text><text text-anchor="end" transform="translate(-7,178)" font-family="IBM Plex Serif, serif" font-size="10px" fill="#262730" opacity="1">0.0</text><text text-anchor="end" transform="translate(-7,127.99999999999999)" font-family="IBM Plex Serif, serif" font-size="10px" fill="#262730" opacity="1">0.2</text><text text-anchor="end" transform="translate(-7,78)" font-family="IBM Plex Serif, serif" font-size="10px" fill="#262730" opacity="1">0.4</text><text text-anchor="end" transform="translate(-7,28.000000000000007)" font-family="IBM Plex Serif, serif" font-size="10px" fill="#262730" opacity="1">0.6</text></g><g class="mark-rule role-axis-domain" pointer-events="none"><line transform="translate(0,275)" x2="0" y2="-275" stroke="#888" stroke-width="1" opacity="1"/></g></g><path class="foreground" aria-hidden="true" d="" pointer-events="none" display="none"/></g></g><g class="mark-group role-scope pathgroup" role="graphics-object" aria-roledescription="group mark container"><g transform="translate(0,0)"><path class="background" aria-hidden="true" d="M0,0h582v275h-582Z"/><g><g class="mark-line role-mark marks" clip-path="url(#clip43)" role="graphics-object" aria-roledescription="line mark container"><path aria-label="variable: NM; index: 0; value: −0.277955921053" role="graphics-symbol" aria-roledescription="line mark" d="M0,244.48898026315808L2.2384615384615385,244.81792763157898L4.476923076923077,244.7356907894737L6.7153846153846155,244.77680921052635L8.953846153846154,244.57121710526317L11.192307692307693,244.16003289473687L13.430769230769231,243.9133223684211L15.66923076923077,242.80312500000002L17.907692307692308,241.69292763157898L20.146153846153847,240.82944078947372L22.384615384615387,239.30805921052632L24.623076923076926,237.21101973684213L26.861538461538462,235.44292763157898L29.1,233.880427631579L31.33846153846154,233.05805921052635L33.57692307692308,232.4001644736842L35.815384615384616,231.7833881578948L38.05384615384616,231.7011513157895L40.292307692307695,232.07121710526317L42.53076923076923,232.81134868421054L44.769230769230774,233.5103618421053L47.00769230769231,233.34588815789476L49.24615384615385,233.46924342105268L51.48461538461539,233.67483552631583L53.723076923076924,234.1682565789474L55.96153846153847,234.86726973684213L58.2,234.66167763157895L60.43846153846154,234.41496710526317L62.67692307692308,235.2373355263158L64.91538461538462,235.68963815789476L67.15384615384616,236.05970394736846L69.3923076923077,236.63536184210525L71.63076923076923,237.33437500000002L73.86923076923077,238.48569078947372L76.10769230769232,239.59588815789476L78.34615384615384,240.4182565789474L80.58461538461539,241.15838815789476L82.82307692307693,241.9807565789474L85.06153846153846,242.2685855263158L87.3,242.5152960526316L89.53846153846155,242.67976973684213L91.77692307692307,242.6386513157895L94.01538461538462,243.41990131578953L96.25384615384615,243.8310855263158L98.4923076923077,244.11891447368424L100.73076923076923,244.69457236842106L102.96923076923078,245.18799342105265L105.20769230769231,245.5169407894737L107.44615384615385,246.46266447368424L109.68461538461538,247.49062500000005L111.92307692307693,249.7110197368421L114.16153846153846,252.17812500000002L116.4,254.02845394736846L118.63846153846154,255.87878289473687L120.87692307692308,257.97582236842106L123.11538461538461,259.90838815789476L125.35384615384616,260.8541118421053L127.59230769230768,261.10082236842106L129.83076923076925,260.8129934210526L132.06923076923076,260.8541118421053L134.30769230769232,260.771875L136.54615384615386,260.89523026315794L138.7846153846154,260.56628289473684L141.02307692307693,260.56628289473684L143.26153846153846,260.27845394736846L145.5,260.4018092105264L147.73846153846154,260.36069078947367L149.97692307692307,260.4018092105264L152.21538461538464,260.4018092105264L154.45384615384614,260.56628289473684L156.69230769230768,260.31957236842106L158.93076923076922,260.11398026315794L161.16923076923078,259.9495065789474L163.40769230769232,259.990625L165.64615384615385,260.2373355263158L167.88461538461536,260.442927631579L170.12307692307692,260.8129934210526L172.36153846153846,261.553125L174.6,262.005427631579L176.83846153846153,262.0465460526316L179.0769230769231,262.005427631579L181.31538461538463,261.79983552631586L183.55384615384614,261.3475328947369L185.79230769230767,260.93634868421054L188.03076923076924,260.4018092105264L190.26923076923077,260.52516447368424L192.5076923076923,260.4018092105264L194.74615384615385,260.2373355263158L196.9846153846154,260.15509868421054L199.22307692307692,259.9495065789474L201.46153846153845,259.49720394736846L203.7,258.96266447368424L205.93846153846155,258.14029605263164L208.1769230769231,257.56463815789476L210.41538461538462,256.61891447368424L212.65384615384613,255.59095394736843L214.8923076923077,254.7274671052632L217.13076923076923,253.49391447368424L219.36923076923077,252.5070723684211L221.6076923076923,251.15016447368424L223.84615384615387,249.34095394736846L226.08461538461538,247.90180921052632L228.3230769230769,246.70937500000002L230.56153846153845,245.47582236842106L232.8,244.8590460526316L235.03846153846155,243.37878289473684L237.27692307692308,242.1041118421053L239.5153846153846,240.66496710526317L241.75384615384615,238.89687500000002L243.9923076923077,236.7998355263158L246.23076923076923,234.49720394736843L248.46923076923076,231.20773026315794L250.70769230769233,228.8639802631579L252.94615384615386,226.27351973684213L255.18461538461537,223.76529605263158L257.4230769230769,220.02351973684213L259.6615384615385,215.25378289473684L261.90000000000003,210.8952302631579L264.1384615384615,206.70115131578947L266.37692307692305,202.13700657894736L268.61538461538464,197.61398026315788L270.8538461538462,193.2965460526316L273.0923076923077,189.59588815789476L275.33076923076925,186.38865131578947L277.5692307692308,182.56463815789473L279.8076923076923,178.69950657894736L282.04615384615386,175.41003289473687L284.2846153846154,172.2439144736842L286.5230769230769,169.44786184210528L288.76153846153846,165.87055921052632L291,162.91003289473687L293.23846153846154,161.22417763157898L295.4769230769231,160.23733552631583L297.7153846153846,156.61891447368424L299.95384615384614,153.6995065789474L302.19230769230774,151.5202302631579L304.4307692307693,149.91661184210525L306.66923076923075,147.07944078947372L308.9076923076923,134.1271381578948L311.1461538461538,120.59917763157895L313.38461538461536,108.4692434210527L315.6230769230769,96.01036184210524L317.86153846153843,81.49555921052631L320.1,67.30970394736846L322.33846153846156,53.37055921052633L324.5769230769231,48.92976973684209L326.81538461538463,44.11891447368424L329.05384615384617,39.14358552631583L331.2923076923077,34.78503289473685L333.5307692307692,32.07121710526321L335.7692307692307,30.87878289473686L338.0076923076923,27.8360197368421L340.24615384615385,26.60246710526315L342.4846153846154,25.039967105263162L344.7230769230769,23.271875000000048L346.96153846153845,20.516940789473743L349.2,18.04983552631578L351.4384615384615,15.130427631578916L353.67692307692306,15.130427631578916L355.91538461538465,12.704440789473646L358.1538461538462,12.046546052631674L360.3923076923077,12.992269736842074L362.63076923076926,14.266940789473658L364.86923076923074,14.349177631578955L367.1076923076923,15.089309210526313L369.3461538461538,16.775164473684224L371.58461538461535,19.85904605263156L373.82307692307694,22.326151315789524L376.0615384615385,25.57450657894736L378.3,28.206085526315793L380.53846153846155,29.97417763157891L382.7769230769231,30.632072368421063L385.0153846153846,33.01694078947367L387.25384615384615,35.648519736842104L389.4923076923077,37.91003289473685L391.7307692307693,39.102467105263194L393.9692307692308,40.78832236842102L396.2076923076923,45.51694078947369L398.44615384615383,51.35575657894736L400.68461538461537,53.90509868421056L402.9230769230769,54.23404605263159L405.16153846153844,54.398519736842154L407.4,55.09753289473685L409.63846153846157,55.42648026315788L411.8769230769231,54.72746710526315L414.11538461538464,58.30476973684208L416.3538461538462,60.031743421052624L418.5923076923077,63.52680921052632L420.83076923076925,66.24062499999998L423.0692307692307,69.53009868421054L425.30769230769226,72.86069078947368L427.54615384615386,76.47911184210527L429.7846153846154,75.08108552631582L432.0230769230769,76.47911184210527L434.26153846153846,76.43799342105267L436.5,77.46595394736839L438.73846153846154,77.87713815789472L440.9769230769231,79.15180921052634L443.2153846153846,80.50871710526312L445.45384615384614,83.14029605263161L447.69230769230774,86.01858552631579L449.9307692307693,89.84259868421051L452.16923076923075,92.80312500000004L454.4076923076923,96.79161184210527L456.6461538461538,98.72417763157897L458.88461538461536,100.61562500000005L461.1230769230769,100.82121710526322L463.36153846153843,108.09917763157894L465.6,115.33601973684208L467.83846153846156,118.70773026315791L470.0769230769231,119.4889802631579L472.31538461538463,123.10740131578946L474.55384615384617,126.64358552631582L476.7923076923077,129.89194078947375L479.0307692307692,128.08273026315788L481.2692307692307,126.35575657894735L483.5076923076923,129.19292763157895L485.74615384615385,133.71595394736846L487.9846153846154,138.28009868421054L490.2230769230769,144.1189144736842L492.46153846153845,149.42319078947372L494.7,152.54819078947372L496.9384615384615,155.87878289473687L499.17692307692306,160.93634868421057L501.41538461538465,164.92483552631583L503.6538461538462,167.96759868421054L505.8923076923077,169.24226973684213L508.13076923076926,172.4495065789474L510.36923076923074,177.0136513157895L512.6076923076923,181.53667763157898L514.8461538461538,184.78503289473684L517.0846153846154,188.85575657894742L519.323076923077,192.43305921052635L521.5615384615385,196.01036184210528L523.8000000000001,198.60082236842106L526.0384615384615,200.65674342105265L528.276923076923,202.26036184210525L530.5153846153846,203.4527960526316L532.7538461538461,204.6452302631579L534.9923076923077,206.24884868421051L537.2307692307693,208.3870065789474L539.4692307692308,210.4840460526316L541.7076923076924,212.53996710526317L543.9461538461538,215.04819078947372L546.1846153846154,217.59753289473684L548.4230769230769,219.90016447368424L550.6615384615385,222.6962171052632L552.9,224.46430921052635L555.1384615384616,227.71266447368424L557.376923076923,228.65838815789476" stroke="#4c78a8" stroke-width="2" opacity="1"/></g></g><path class="foreground" aria-hidden="true" d="" display="none"/></g><g transform="translate(0,0)"><path class="background" aria-hidden="true" d="M0,0h582v275h-582Z"/><g><g class="mark-line role-mark marks" clip-path="url(#clip44)" role="graphics-object" aria-roledescription="line mark container"><path aria-label="variable: OH; index: 0; value: −0.321266443562" role="graphics-symbol" aria-roledescription="line mark" d="M0,255.3166108904386L2.2384615384615385,254.53470115409874L4.476923076923077,253.6276858599443L6.7153846153846155,252.61120320270226L8.953846153846154,252.36099208707344L11.192307692307693,251.04738373002218L13.430769230769231,250.05435836487032L15.66923076923077,248.75638820254588L17.907692307692308,247.4584180402214L20.146153846153847,245.98842773590215L22.384615384615387,244.13530166077624L24.623076923076926,242.09451724892878L26.861538461538462,241.21877834422793L29.1,239.90516998717663L31.33846153846154,238.8339536483908L33.57692307692308,237.78619460169512L35.815384615384616,237.09811403371594L38.05384615384616,236.34748068682947L40.292307692307695,235.47956087949206L42.53076923076923,234.5725455853376L44.769230769230774,233.94701779626558L47.00769230769231,233.39186188346414L49.24615384615385,232.7585149970287L51.48461538461539,232.21899727895408L53.723076923076924,231.9844243580521L55.96153846153847,231.90623338441807L58.2,231.55437400306508L60.43846153846154,231.18687642698524L62.67692307692308,231.17123823225845L64.91538461538462,231.60910768460886L67.15384615384616,232.0860726237763L69.3923076923077,232.12516811059328L71.63076923076923,232.3284646420417L73.86923076923077,233.18074625465235L76.10769230769232,234.0095705751728L78.34615384615384,234.76020392205922L80.58461538461539,235.30754073749722L82.82307692307693,235.8392393582085L85.06153846153846,236.7227973602727L87.3,237.48124980452255L89.53846153846155,237.73928001751477L91.77692307692307,238.28661683295277L94.01538461538462,238.4429987802208L96.25384615384615,238.6541144090326L98.4923076923077,238.896506427298L100.73076923076923,239.1858130297438L102.96923076923078,239.51421511900662L105.20769230769231,239.78788352672564L107.44615384615385,240.05373283708127L109.68461538461538,240.75745159978732L111.92307692307693,241.4768085572201L114.16153846153846,242.07105995683855L116.4,242.90770337472242L118.63846153846154,243.94764332405467L120.87692307692308,244.97194507866013L123.11538461538461,246.15262878053355L125.35384615384616,247.11437775623182L127.59230769230768,247.68517186376002L129.83076923076925,248.06830763456665L132.06923076923076,248.07612673193003L134.30769230769232,248.13867951083725L136.54615384615386,248.35761423701246L138.7846153846154,248.40452882119283L141.02307692307693,248.60000625527786L143.26153846153846,248.95186563663086L145.5,249.52265974415909L147.73846153846154,250.10127294905075L149.97692307692307,250.71116254339597L152.21538461538464,251.39924311137517L154.45384615384614,252.10296187408125L156.69230769230768,252.46264035279765L158.93076923076922,252.93178619460167L161.16923076923078,253.53385669158348L163.40769230769232,254.24539455165294L165.64615384615385,254.68326400400338L167.88461538461536,254.80055046445435L170.12307692307692,254.96475150908574L172.36153846153846,255.34788727989238L174.6,255.69192756388202L176.83846153846153,255.81703312169637L179.0769230769231,256.1376161135958L181.31538461538463,256.70059112376066L183.55384615384614,257.3182998154693L185.79230769230767,257.88909392299746L188.03076923076924,258.34260157007475L190.26923076923077,258.7491946329715L192.5076923076923,259.0541394301442L194.74615384615385,258.74137553560814L196.9846153846154,258.1471241359897L199.22307692307692,257.45122447064705L201.46153846153845,256.8335157789384L203.7,256.08288243205203L205.93846153846155,255.1993244299878L208.1769230769231,254.66762580927653L210.41538461538462,254.0655553122947L212.65384615384613,253.6355049573077L214.8923076923077,253.82316329402929L217.13076923076923,253.00215807087227L219.36923076923077,252.02477090044724L221.6076923076923,250.74243893284955L223.84615384615387,249.2880868232571L226.08461538461538,248.03703124511304L228.3230769230769,246.52794545397677L230.56153846153845,244.24476902386385L232.8,242.37600475401115L235.03846153846155,240.5932505551559L237.27692307692308,239.2014512244706L239.5153846153846,237.36396334407152L241.75384615384615,235.66721921621365L243.9923076923077,234.0252087698996L246.23076923076923,232.4222938104025L248.46923076923076,230.8193788509054L250.70769230769233,229.17736840459133L252.94615384615386,227.20695586901445L255.18461538461537,225.15053326244018L257.4230769230769,222.99246239014167L259.6615384615385,221.1080599255622L261.90000000000003,219.13764738998526L264.1384615384615,217.30015950958622L266.37692307692305,215.0795358583805L268.61538461538464,213.17949519907418L270.8538461538462,210.9745097425953L273.0923076923077,208.54277046257778L275.33076923076925,205.81390548275107L277.5692307692308,202.5611609795765L279.8076923076923,198.6203359084227L282.04615384615386,195.13301848434617L284.2846153846154,190.91852500547336L286.5230769230769,186.68839333187378L288.76153846153846,182.6068245081788L291,177.92318518750196L293.23846153846154,172.3638069621243L295.4769230769231,166.21017733712821L297.7153846153846,159.18862790479469L299.95384615384614,151.76830450692773L302.19230769230774,145.42701654521002L304.4307692307693,138.2647233603353L306.66923076923075,131.3135458042724L308.9076923076923,124.63603665592848L311.1461538461538,117.59102993150475L313.38461538461536,111.05426453570205L315.6230769230769,104.75989115816472L317.86153846153843,97.2926531761174L320.1,90.38839020423488L322.33846153846156,82.5223782566541L324.5769230769231,74.93003471679232L326.81538461538463,68.66693772870862L329.05384615384617,62.21618240390335L331.2923076923077,56.6489850811623L333.5307692307692,51.96534576048545L335.7692307692307,46.07756544584498L338.0076923076923,40.393081662652904L340.24615384615385,34.90407531354589L342.4846153846154,28.828636662183744L344.7230769230769,23.613298720795704L346.96153846153845,18.914021205392146L349.2,14.558783973978151L351.4384615384615,12.697838801488789L353.67692307692306,11.41550683389121L355.91538461538465,10.938541894723697L358.1538461538462,11.290401276076764L360.3923076923077,11.368592249710765L362.63076923076926,11.618803365339533L364.86923076923074,11.626622462702976L367.1076923076923,10.860350921089726L369.3461538461538,10.234823132017745L371.58461538461535,9.953335626935297L373.82307692307694,9.05413943014422L376.0615384615385,9.484189785131258L378.3,10.203546742564065L380.53846153846155,11.38423044443759L382.7769230769231,13.565758608826247L385.0153846153846,16.646482970006044L387.25384615384615,19.766302818002778L389.4923076923077,23.417821286710698L391.7307692307693,26.9285960028775L393.9692307692308,31.025803021299257L396.2076923076923,34.51312044537582L398.44615384615383,38.4148500297126L400.68461538461537,41.44084070934857L402.9230769230769,43.372157758108465L405.16153846153844,45.81953523285274L407.4,48.04797798142187L409.63846153846157,49.041003346573746L411.8769230769231,50.03402871172556L414.11538461538464,51.56657179495206L416.3538461538462,52.614330841647664L418.5923076923077,53.443155162168125L420.83076923076925,53.99049197760613L423.0692307692307,54.694210740312144L425.30769230769226,56.15638194726806L427.54615384615386,58.5099302536516L429.7846153846154,59.25274450317462L432.0230769230769,59.260563600538L434.26153846153846,61.98942858036473L436.5,65.39855503080726L438.73846153846154,68.49491758671383L440.9769230769231,71.55218465580339L443.2153846153846,73.68679823601165L445.45384615384614,75.75885903731279L447.69230769230774,80.05936258718299L449.9307692307693,82.3347199199325L452.16923076923075,85.20432865230043L454.4076923076923,87.99574641103435L456.6461538461538,90.99046070121669L458.88461538461536,95.0798486222751L461.1230769230769,99.9667844744003L463.36153846153843,105.38541894723679L465.6,111.07772182779222L467.83846153846156,116.38688893754109L470.0769230769231,121.2503674975761L472.31538461538463,125.76198667625812L474.55384615384617,130.1719575892159L476.7923076923077,134.94942607825357L479.0307692307692,139.26556782285056L481.2692307692307,143.30022206236515L483.5076923076923,147.02211240734368L485.74615384615385,151.43990241766494L487.9846153846154,155.95152159634694L490.2230769230769,160.14255778312955L492.46153846153845,163.86444812810814L494.7,167.48469020736246L496.9384615384615,171.46461076533325L499.17692307692306,175.48362681012105L501.41538461538465,179.056954305195L503.6538461538462,182.10640227692116L505.8923076923077,185.00728739874268L508.13076923076926,187.5641322365746L510.36923076923074,190.0740624902261L512.6076923076923,193.03750039095488L514.8461538461538,196.22769211522223L517.0846153846154,199.22240640540454L519.323076923077,201.9278140931411L521.5615384615385,204.3204578863416L523.8000000000001,206.26741312982827L526.0384615384615,208.01107184186657L528.276923076923,210.0362180589873L530.5153846153846,211.65477121321115L532.7538461538461,213.2264097832546L534.9923076923077,215.21246051355828L537.2307692307693,217.2297876333156L539.4692307692308,219.1845619741657L541.7076923076924,221.41300472273483L543.9461538461538,222.92209051387104L546.1846153846154,224.70484471272636L548.4230769230769,226.71435273512023L550.6615384615385,228.69258436806052L552.9,231.16341913489504L555.1384615384616,233.36840459137395L557.376923076923,235.9408876239327" stroke="#f58518" stroke-width="2" opacity="1"/></g></g><path class="foreground" aria-hidden="true" d="" display="none"/></g><g transform="translate(0,0)"><path class="background" aria-hidden="true" d="M0,0h582v275h-582Z"/><g><g class="mark-line role-mark marks" clip-path="url(#clip45)" role="graphics-object" aria-roledescription="line mark container"><path aria-label="variable: OR; index: 0; value: −0.286672576832" role="graphics-symbol" aria-roledescription="line mark" d="M0,246.6681442080379L2.2384615384615385,246.1510047281324L4.476923076923077,247.33303782505908L6.7153846153846155,245.559988179669L8.953846153846154,243.78693853427896L11.192307692307693,242.01388888888886L13.430769230769231,239.64982269503545L15.66923076923077,236.54698581560282L17.907692307692308,236.8424940898345L20.146153846153847,235.43882978723403L22.384615384615387,232.85313238770686L24.623076923076926,230.26743498817964L26.861538461538462,227.68173758865245L29.1,223.02748226950354L31.33846153846154,219.77689125295507L33.57692307692308,218.37322695035462L35.815384615384616,216.37854609929076L38.05384615384616,213.8667257683215L40.292307692307695,211.35490543735227L42.53076923076923,208.84308510638297L44.769230769230774,209.80348699763593L47.00769230769231,209.6557328605201L49.24615384615385,207.88268321513002L51.48461538461539,207.4394208037825L53.723076923076924,208.10431442080375L55.96153846153847,208.76920803782505L58.2,209.43410165484633L60.43846153846154,209.13859338061465L62.67692307692308,209.6557328605201L64.91538461538462,209.3602245862884L67.15384615384616,209.06471631205673L69.3923076923077,210.91164302600473L71.63076923076923,212.7585697399527L73.86923076923077,214.60549645390068L76.10769230769232,216.23079196217492L78.34615384615384,217.04343971631207L80.58461538461539,217.5605791962175L82.82307692307693,217.48670212765953L85.06153846153846,217.78221040189123L87.3,218.0777186761229L89.53846153846155,218.37322695035462L91.77692307692307,218.44710401891254L94.01538461538462,217.33894799054372L96.25384615384615,218.44710401891254L98.4923076923077,218.29934988179667L100.73076923076923,216.82180851063828L102.96923076923078,215.3442671394799L105.20769230769231,213.8667257683215L107.44615384615385,214.45774231678485L109.68461538461538,215.93528368794327L111.92307692307693,216.67405437352247L114.16153846153846,220.88504728132386L116.4,224.65277777777774L118.63846153846154,228.42050827423165L120.87692307692308,232.1882387706856L123.11538461538461,236.8424940898345L125.35384615384616,241.27511820330966L127.59230769230768,245.92937352245858L129.83076923076925,246.2248817966903L132.06923076923076,246.74202127659575L134.30769230769232,247.2591607565012L136.54615384615386,247.7763002364066L138.7846153846154,248.29343971631204L141.02307692307693,249.9187352245863L143.26153846153846,249.9926122931442L145.5,252.7999408983451L147.73846153846154,254.20360520094562L149.97692307692307,255.6072695035461L152.21538461538464,257.01093380614657L154.45384615384614,256.19828605200945L156.69230769230768,254.64686761229314L158.93076923076922,254.05585106382978L161.16923076923078,251.9134160756501L163.40769230769232,250.87913711583923L165.64615384615385,249.84485815602835L167.88461538461536,248.81057919621747L170.12307692307692,249.69710401891254L172.36153846153846,249.54934988179667L174.6,247.70242316784868L176.83846153846153,249.0322104018912L179.0769230769231,250.21424349881795L181.31538461538463,251.39627659574467L183.55384615384614,252.57830969267135L185.79230769230767,250.0664893617021L188.03076923076924,248.07180851063828L190.26923076923077,246.8897754137116L192.5076923076923,243.71306146572104L194.74615384615385,239.72369976359337L196.9846153846154,235.7343380614657L199.22307692307692,231.74497635933804L201.46153846153845,230.1196808510638L203.7,230.78457446808508L205.93846153846155,232.11436170212767L208.1769230769231,232.70537825059102L210.41538461538462,234.40455082742315L212.65384615384613,236.1037234042553L214.8923076923077,237.80289598108746L217.13076923076923,238.3200354609929L219.36923076923077,237.9506501182033L221.6076923076923,235.95596926713947L223.84615384615387,234.6261820330969L226.08461538461538,231.9666075650118L228.3230769230769,229.3070330969267L230.56153846153845,226.6474586288416L232.8,223.98788416075647L235.03846153846155,221.62381796690303L237.27692307692308,221.25443262411346L239.5153846153846,221.10667848699762L241.75384615384615,222.73197399527186L243.9923076923077,224.35726950354606L246.23076923076923,225.98256501182033L248.46923076923076,229.82417257683213L250.70769230769233,231.81885342789596L252.94615384615386,233.22251773049643L255.18461538461537,233.59190307328606L257.4230769230769,233.07476359338062L259.6615384615385,232.55762411347519L261.90000000000003,232.04048463356972L264.1384615384615,228.6421394799054L266.37692307692305,226.278073286052L268.61538461538464,224.57890070921982L270.8538461538462,221.5499408983451L273.0923076923077,220.51566193853427L275.33076923076925,219.4813829787234L277.5692307692308,218.44710401891254L279.8076923076923,216.96956264775412L282.04615384615386,215.3442671394799L284.2846153846154,213.05407801418437L286.5230769230769,206.62677304964535L288.76153846153846,202.56353427895982L291,198.50029550827423L293.23846153846154,194.4370567375886L295.4769230769231,188.2313829787234L297.7153846153846,180.84367612293144L299.95384615384614,172.86495271867614L302.19230769230774,171.38741134751774L304.4307692307693,164.73847517730496L306.66923076923075,158.08953900709218L308.9076923076923,151.44060283687944L311.1461538461538,144.4222813238771L313.38461538461536,136.44355791962175L315.6230769230769,126.17464539007089L317.86153846153843,114.72369976359336L320.1,107.18823877068563L322.33846153846156,99.65277777777774L324.5769230769231,92.11731678486998L326.81538461538463,86.28102836879435L329.05384615384617,79.70596926713947L331.2923076923077,76.15986997635932L333.5307692307692,73.57417257683217L335.7692307692307,65.37381796690306L338.0076923076923,57.17346335697398L340.24615384615385,48.97310874704494L342.4846153846154,42.17641843971632L344.7230769230769,35.45360520094569L346.96153846153845,28.95242316784872L349.2,21.78634751773056L351.4384615384615,19.79166666666665L353.67692307692306,17.79698581560286L355.91538461538465,15.802304964539038L358.1538461538462,12.994976359338093L360.3923076923077,14.25088652482277L362.63076923076926,12.62559101654849L364.86923076923074,13.438238770685615L367.1076923076923,11.295803782505953L369.3461538461538,9.15336879432626L371.58461538461535,7.010933806146599L373.82307692307694,8.562352245862867L376.0615384615385,9.227245862884152L378.3,10.852541371158491L380.53846153846155,13.142730496453995L382.7769230769231,15.950059101654817L385.0153846153846,17.649231678486988L387.25384615384615,19.34840425531925L389.4923076923077,19.79166666666665L391.7307692307693,21.269208037825056L393.9692307692308,24.298167848699766L396.2076923076923,28.5091607565012L398.44615384615383,32.72015366430257L400.68461538461537,38.03930260047287L402.9230769230769,43.35845153664299L405.16153846153844,45.72251773049647L407.4,46.387411347517755L409.63846153846157,47.20005910165485L411.8769230769231,47.643321513002405L414.11538461538464,48.086583924349924L416.3538461538462,48.52984633569736L418.5923076923077,48.97310874704494L420.83076923076925,52.149822695035425L423.0692307692307,54.36613475177304L425.30769230769226,57.17346335697398L427.54615384615386,56.730200945626464L429.7846153846154,58.65100472813239L432.0230769230769,60.57180851063829L434.26153846153846,62.49261229314416L436.5,67.4423758865248L438.73846153846154,74.31294326241134L440.9769230769231,78.74556737588651L443.2153846153846,85.09899527186764L445.45384615384614,91.00916075650117L447.69230769230774,96.91932624113474L449.9307692307693,102.82949172576832L452.16923076923075,105.4151891252955L454.4076923076923,110.43882978723406L456.6461538461538,116.57062647754134L458.88461538461536,122.40691489361701L461.1230769230769,128.0215721040189L463.36153846153843,133.63622931442077L465.6,139.25088652482268L467.83846153846156,143.6096335697399L470.0769230769231,146.63859338061465L472.31538461538463,150.9973404255319L474.55384615384617,154.2479314420804L476.7923076923077,155.8732269503546L479.0307692307692,157.49852245862883L481.2692307692307,159.12381796690306L483.5076923076923,160.8229905437352L485.74615384615385,164.29521276595744L487.9846153846154,166.43764775413712L490.2230769230769,168.94946808510636L492.46153846153845,173.1604609929078L494.7,177.37145390070916L496.9384615384615,181.58244680851064L499.17692307692306,188.37913711583926L501.41538461538465,191.92523640661938L503.6538461538462,196.2101063829787L505.8923076923077,199.97783687943263L508.13076923076926,202.71128841607563L510.36923076923074,205.4447399527187L512.6076923076923,208.1781914893617L514.8461538461538,209.50797872340425L517.0846153846154,210.3945035460993L519.323076923077,211.9459219858156L521.5615384615385,214.6793735224586L523.8000000000001,216.15691489361703L526.0384615384615,217.6344562647754L528.276923076923,219.1119976359338L530.5153846153846,221.69769503546098L532.7538461538461,224.65277777777774L534.9923076923077,226.79521276595744L537.2307692307693,228.12499999999997L539.4692307692308,230.26743498817964L541.7076923076924,232.40986997635932L543.9461538461538,234.552304964539L546.1846153846154,236.99024822695034L548.4230769230769,237.50738770685578L550.6615384615385,239.4281914893617L552.9,241.42287234042553L555.1384615384616,242.826536643026L557.376923076923,244.23020094562645" stroke="#e45756" stroke-width="2" opacity="1"/></g></g><path class="foreground" aria-hidden="true" d="" display="none"/></g></g><g class="mark-group role-legend" role="graphics-symbol" aria-roledescription="legend" aria-label="Symbol legend for stroke color with 3 values: NM, OH, OR"><g transform="translate(600,0)"><path class="background" aria-hidden="true" d="M0,0h33v37h-33Z" pointer-events="none"/><g><g class="mark-group role-legend-entry"><g transform="translate(0,0)"><path class="background" aria-hidden="true" d="M0,0h0v0h0Z" pointer-events="none"/><g><g class="mark-group role-scope" role="graphics-object" aria-roledescription="group mark container"><g transform="translate(0,0)"><path class="background" aria-hidden="true" d="M0,0h32.11328125v11h-32.11328125Z" pointer-events="none" opacity="1"/><g><g class="mark-symbol role-legend-symbol" pointer-events="none"><path transform="translate(6,6)" d="M-5,0L5,0" stroke="#4c78a8" stroke-width="1.5" opacity="1"/></g><g class="mark-text role-legend-label" pointer-events="none"><text text-anchor="start" transform="translate(16,9)" font-family="IBM Plex Serif, serif" font-size="10px" fill="#262730" opacity="1">NM</text></g></g><path class="foreground" aria-hidden="true" d="" pointer-events="none" display="none"/></g><g transform="translate(0,13)"><path class="background" aria-hidden="true" d="M0,0h32.11328125v11h-32.11328125Z" pointer-events="none" opacity="1"/><g><g class="mark-symbol role-legend-symbol" pointer-events="none"><path transform="translate(6,6)" d="M-5,0L5,0" stroke="#f58518" stroke-width="1.5" opacity="1"/></g><g class="mark-text role-legend-label" pointer-events="none"><text text-anchor="start" transform="translate(16,9)" font-family="IBM Plex Serif, serif" font-size="10px" fill="#262730" opacity="1">OH</text></g></g><path class="foreground" aria-hidden="true" d="" pointer-events="none" display="none"/></g><g transform="translate(0,26)"><path class="background" aria-hidden="true" d="M0,0h32.11328125v11h-32.11328125Z" pointer-events="none" opacity="1"/><g><g class="mark-symbol role-legend-symbol" pointer-events="none"><path transform="translate(6,6)" d="M-5,0L5,0" stroke="#e45756" stroke-width="1.5" opacity="1"/></g><g class="mark-text role-legend-label" pointer-events="none"><text text-anchor="start" transform="translate(16,9)" font-family="IBM Plex Serif, serif" font-size="10px" fill="#262730" opacity="1">OR</text></g></g><path class="foreground" aria-hidden="true" d="" pointer-events="none" display="none"/></g></g></g><path class="foreground" aria-hidden="true" d="" pointer-events="none" display="none"/></g></g></g><path class="foreground" aria-hidden="true" d="" pointer-events="none" display="none"/></g></g></g><path class="foreground" aria-hidden="true" d="" display="none"/></g></g></g><defs><clipPath id="clip43"><rect x="0" y="0" width="582" height="275"/></clipPath><clipPath id="clip44"><rect x="0" y="0" width="582" height="275"/></clipPath><clipPath id="clip45"><rect x="0" y="0" width="582" height="275"/></clipPath></defs></svg>