<svg xmlns="http://www.w3.org/2000/svg" xmlns:xlink="http://www.w3.org/1999/xlink" version="1.1" class="marks" width="660" height="300" viewBox="0 0 660 300"><rect width="660" height="300" fill="#ffffff"/><g fill="none" stroke-miterlimit="10" transform="translate(26,5)"><g class="mark-group role-frame root" role="graphics-object" aria-roledescription="group mark container"><g transform="translate(0,0)"><path class="background" aria-hidden="true" d="M0.5,0.5h585v270h-585Z" stroke="#ddd"/><g><g class="mark-group role-axis" aria-hidden="true"><g transform="translate(0.5,270.5)"><path class="background" aria-hidden="true" d="M0,0h0v0h0Z" pointer-events="none"/><g><g class="mark-rule role-axis-grid" pointer-events="none"><line transform="translate(0,-270)" x2="0" y2="270" stroke="rgba(38, 39, 48, 0.2)" stroke-width="1" opacity="1"/><line transform="translate(45,-270)" x2="0" y2="270" stroke="rgba(38, 39, 48, 0.2)" stroke-width="1" opacity="1"/><line transform="translate(90,-270)" x2="0" y2="270" stroke="rgba(38, 39, 48, 0.2)" stroke-width="1" opacity="1"/><line transform="translate(135,-270)" x2="0" y2="270" stroke="rgba(38, 39, 48, 0.2)" stroke-width="1" opacity="1"/><line transform="translate(180,-270)" x2="0" y2="270" stroke="rgba(38, 39, 48, 0.2)" stroke-width="1" opacity="1"/><line transform="translate(225,-270)" x2="0" y2="270" stroke="rgba(38, 39, 48, 0.2)" stroke-width="1" opacity="1"/><line transform="translate(270,-270)" x2="0" y2="270" stroke="rgba(38, 39, 48, 0.2)" stroke-width="1" opacity="1"/><line transform="translate(315,-270)" x2="0" y2="270" stroke="rgba(38, 39, 48, 0.2)" stroke-width="1" opacity="1"/><line transform="translate(360,-270)" x2="0" y2="270" stroke="rgba(38, 39, 48, 0.2)" stroke-width="1" opacity="1"/><line transform="translate(405,-270)" x2="0" y2="270" stroke="rgba(38, 39, 48, 0.2)" stroke-width="1" opacity="1"/><line transform="translate(450,-270)" x2="0" y2="270" stroke="rgba(38, 39, 48, 0.2)" stroke-width="1" opacity="1"/><line transform="translate(495,-270)" x2="0" y2="270" stroke="rgba(38, 39, 48, 0.2)" stroke-width="1" opacity="1"/><line transform="translate(540,-270)" x2="0" y2="270" stroke="rgba(38, 39, 48, 0.2)" stroke-width="1" opacity="1"/><line transform="translate(585,-270)" x2="0" y2="270" stroke="rgba(38, 39, 48, 0.2)" stroke-width="1" opacity="1"/></g></g><path class="foreground" aria-hidden="true" d="" pointer-events="none" display="none"/></g></g><g class="mark-group role-axis" aria-hidden="true"><g transform="translate(0.5,0.5)"><path class="background" aria-hidden="true" d="M0,0h0v0h0Z" pointer-events="none"/><g><g class="mark-rule role-axis-grid" pointer-events="none"><line transform="translate(0,270)" x2="585" y2="0" stroke="rgba(38, 39, 48, 0.2)" stroke-width="1" opacity="1"/><line transform="translate(0,225)" x2="585" y2="0" stroke="rgba(38, 39, 48, 0.2)" stroke-width="1" opacity="1"/><line transform="translate(0,180)" x2="585" y2="0" stroke="rgba(38, 39, 48, 0.2)" stroke-width="1" opacity="1"/><line transform="translate(0,135)" x2="585" y2="0" stroke="rgba(38, 39, 48, 0.2)" stroke-width="1" opacity="1"/><line transform="translate(0,90)" x2="585" y2="0" stroke="rgba(38, 39, 48, 0.2)" stroke-width="1" opacity="1"/><line transform="translate(0,45)" x2="585" y2="0" stroke="rgba(38, 39, 48, 0.2)" stroke-width="1" opacity="1"/><line transform="translate(0,0)" x2="585" y2="0" stroke="rgba(38, 39, 48, 0.2)" stroke-width="1" opacity="1"/></g></g><path class="foreground" aria-hidden="true" d="" pointer-events="none" display="none"/></g></g><g class="mark-group role-axis" role="graphics-symbol" aria-roledescription="axis" aria-label="X-axis for a linear scale with values from 0 to 260"><g transform="translate(0.5,270.5)"><path class="background" aria-hidden="true" d="M0,0h0v0h0Z" pointer-events="none"/><g><g class="mark-rule role-axis-tick" pointer-events="none"><line transform="translate(0,0)" x2="0" y2="5" stroke="#888" stroke-width="1" opacity="1"/><line transform="translate(45,0)" x2="0" y2="5" stroke="#888" stroke-width="1" opacity="1"/><line transform="translate(90,0)" x2="0" y2="5" stroke="#888" stroke-width="1" opacity="1"/><line transform="translate(135,0)" x2="0" y2="5" stroke="#888" stroke-width="1" opacity="1"/><line transform="translate(180,0)" x2="0" y2="5" stroke="#888" stroke-width="1" opacity="1"/><line transform="translate(225,0)" x2="0" y2="5" stroke="#888" stroke-width="1" opacity="1"/><line transform="translate(270,0)" x2="0" y2="5" stroke="#888" stroke-width="1" opacity="1"/><line transform="translate(315,0)" x2="0" y2="5" stroke="#888" stroke-width="1" opacity="1"/><line transform="translate(360,0)" x2="0" y2="5" stroke="#888" stroke-width="1" opacity="1"/><line transform="translate(405,0)" x2="0" y2="5" stroke="#888" stroke-width="1" opacity="1"/><line transform="translate(450,0)" x2="0" y2="5" stroke="#888" stroke-width="1" opacity="1"/><line transform="translate(495,0)" x2="0" y2="5" stroke="#888" stroke-width="1" opacity="1"/><line transform="translate(540,0)" x2="0" y2="5" stroke="#888" stroke-width="1" opacity="1"/><line transform="translate(585,0)" x2="0" y2="5" stroke="#888" stroke-width="1" opacity="1"/></g><g class="mark-text role-axis-label" pointer-events="none"><text text-anchor="start" transform="translate(0,15)" font-family="IBM Plex Serif, serif" font-size="10px" fill="#262730" opacity="1">0</text><text text-anchor="middle" transform="translate(45,15)" font-family="IBM Plex Serif, serif" font-size="10px" fill="#262730" opacity="1">20</text><text text-anchor="middle" transform="translate(90,15)" font-family="IBM Plex Serif, serif" font-size="10px" fill="#262730" opacity="1">40</text><text text-anchor="middle" transform="translate(135,15)" font-family="IBM Plex Serif, serif" font-size="10px" fill="#262730" opacity="1">60</text><text text-anchor="middle" transform="translate(180,15)" font-family="IBM Plex Serif, serif" font-size="10px" fill="#262730" opacity="1">80</text><text text-anchor="middle" transform="translate(225,15)" font-family="IBM Plex Serif, serif" font-size="10px" fill="#262730" opacity="1">100</text><text text-anchor="middle" transform="translate(270,15)" font-family="IBM Plex Serif, serif" font-size="10px" fill="#262730" opacity="1">120</text><text text-anchor="middle" transform="translate(315,15)" font-family="IBM Plex Serif, serif" font-size="10px" fill="#262730" opacity="1">140</text><text text-anchor="middle" transform="translate(360,15)" font-family="IBM Plex Serif, serif" font-size="10px" fill="#262730" opacity="1">160</text><text text-anchor="middle" transform="translate(405,15)" font-family="IBM Plex Serif, serif" font-size="10px" fill="#262730" opacity="1">180</text><text text-anchor="middle" transform="translate(450,15)" font-family="IBM Plex Serif, serif" font-size="10px" fill="#262730" opacity="1">200</text><text text-anchor="middle" transform="translate(495,15)" font-family="IBM Plex Serif, serif" font-size="10px" fill="#262730" opacity="1">220</text><text text-anchor="middle" transform="translate(540,15)" font-family="IBM Plex Serif, serif" font-size="10px" fill="#262730" opacity="1">240</text><text text-anchor="end" transform="translate(585,15)" font-family="IBM Plex Serif, serif" font-size="10px" fill="#262730" opacity="1">260</text></g><g class="mark-rule role-axis-domain" pointer-events="none"><line transform="translate(0,0)" x2="585" y2="0" stroke="#888" stroke-width="1" opacity="1"/></g></g><path class="foreground" aria-hidden="true" d="" pointer-events="none" display="none"/></g></g><g class="mark-group role-axis" role="graphics-symbol" aria-roledescription="axis" aria-label="Y-axis for a linear scale with values from −0.4 to 0.8"><g transform="translate(0.5,0.5)"><path class="background" aria-hidden="true" d="M0,0h0v0h0Z" pointer-events="none"/><g><g class="mark-rule role-axis-tick" pointer-events="none"><line transform="translate(0,270)" x2="-5" y2="0" stroke="#888" stroke-width="1" opacity="1"/><line transform="translate(0,225)" x2="-5" y2="0" stroke="#888" stroke-width="1" opacity="1"/><line transform="translate(0,180)" x2="-5" y2="0" stroke="#888" stroke-width="1" opacity="1"/><line transform="translate(0,135)" x2="-5" y2="0" stroke="#888" stroke-width="1" opacity="1"/><line transform="translate(0,90)" x2="-5" y2="0" stroke="#888" stroke-width="1" opacity="1"/><line transform="translate(0,45)" x2="-5" y2="0" stroke="#888" stroke-width="1" opacity="1"/><line transform="translate(0,0)" x2="-5" y2="0" stroke="#888" stroke-width="1" opacity="1"/></g><g class="mark-text role-axis-label" pointer-events="none"><text text-anchor="end" transform="translate(-7,273)" font-family="IBM Plex Serif, serif" font-size="10px" fill="#262730" opacity="1">−0.4</text><text text-anchor="end" transform="translate(-7,228)" font-family="IBM Plex Serif, serif" font-size="10px" fill="#262730" opacity="1">−0.2</text><text text-anchor="end" transform="translate(-7,183.00000000000003)" font-family="IBM Plex Serif, serif" font-size="10px" fill="#262730" opacity="1">0.0</text><text text-anchor="end" transform="translate(-7,138)" font-family="IBM Plex Serif, serif" font-size="10px" fill="#262730" opacity="1">0.2</text><text text-anchor="end" transform="translate(-7,93.00000000000001)" font-family="IBM Plex Serif, serif" font-size="10px" fill="#262730" opacity="1">0.4</text><text text-anchor="end" transform="translate(-7,48.00000000000002)" font-family="IBM Plex Serif, serif" font-size="10px" fill="#262730" opacity="1">0.6</text><text text-anchor="end" transform="translate(-7,3)" font-family="IBM Plex Serif, serif" font-size="10px" fill="#262730" opacity="1">0.8</text></g><g class="mark-rule role-axis-domain" pointer-events="none"><line transform="translate(0,270)" x2="0" y2="-270" stroke="#888" stroke-width="1" opacity="1"/></g></g><path class="foreground" aria-hidden="true" d="" pointer-events="none" display="none"/></g></g><g class="mark-group role-scope pathgroup" role="graphics-object" aria-roledescription="group mark container"><g transform="translate(0,0)"><path class="background" aria-hidden="true" d="M0,0h585v270h-585Z"/><g><g class="mark-line role-mark marks" clip-path="url(#clip46)" role="graphics-object" aria-roledescription="line mark container"><path aria-label="variable: NC; index: 0; value: −0.272961101805" role="graphics-symbol" aria-roledescription="line mark" d="M0,241.41624790619773L2.25,241.19639865996652L4.5,240.57872696817424L6.75,239.98199329983254L9,239.3643216080402L11.25,237.9091289782245L13.5,237.0611390284757L15.75,236.08752093802346L18,234.81030150753773L20.25,233.81574539363484L22.5,232.26633165829148L24.75,230.999581239531L27,230.39237855946402L29.25,229.13609715242885L31.5,227.58668341708545L33.75,226.53978224455614L36,225.13693467336685L38.25,224.498324958124L40.5,224.02721943048581L42.75,223.54564489112232L45,222.8128140703518L47.25,222.86515912897823L49.5,222.29983249581244L51.75,222.27889447236183L54,222.13232830820772L56.25,221.5565326633166L58.5,220.6876046901173L60.75,220.0071189279732L63,218.3948911222781L65.25,217.86097152428812L67.5,217.36892797319936L69.75,217.54690117252935L72,217.84003350083754L74.25,219.01256281407038L76.5,219.82914572864323L78.75,221.1273031825796L81,222.09045226130655L83.25,223.20016750418762L85.5,223.43048576214406L87.75,223.77596314907876L90,223.2106365159129L92.25,223.67127303182582L94.5,224.77051926298157L96.75,225.57663316582915L99,226.35134003350086L101.25,227.36683417085428L103.5,229.1989112227806L105.75,230.570351758794L108,231.57537688442213L110.25,232.21398659966502L112.5,232.7060301507538L114.75,233.06197654941374L117,233.43886097152432L119.25,233.81574539363484L121.5,234.15075376884423L123.75,234.42294807370186L126,234.391541038526L128.25,235.07202680067005L130.5,235.54313232830825L132.75,235.86767169179234L135,235.66876046901174L137.25,235.9304857621441L139.5,236.49581239530988L141.75,238.0242881072027L144,239.071189279732L146.25,239.2282244556114L148.5,240.6310720268007L150.74999999999997,241.5418760469012L153,243.1959798994975L155.25,244.4417922948074L157.5,243.83458961474037L159.74999999999997,243.10175879396988L162,243.27973199329983L164.25,242.8714405360134L166.5,242.86097152428815L168.74999999999997,241.50000000000003L171,240.56825795644895L173.25,240.54731993299836L175.5,240.9032663316583L177.74999999999997,241.25921273031827L180,241.13358458961477L182.25,240.52638190954775L184.5,240.6310720268007L186.75,240.74623115577893L189,240.80904522613068L191.25,240.72529313232832L193.5,240.7357621440536L195.75,240.40075376884423L198,240.10762144053604L200.25,239.98199329983254L202.5,239.51088777219434L204.75,239.05025125628143L207,238.6628978224456L209.25,238.4744556113903L211.5,238.40117252931327L213.75,238.5058626465662L216,237.73115577889448L218.25,237.071608040201L220.5,236.31783919597993L222.75,235.14530988274709L225,233.6377721943049L227.25,232.45477386934675L229.5,230.999581239531L231.75,229.55485762144056L234,228.6126465661642L236.25,227.31448911222782L238.5,226.38274706867674L240.75,225.5138190954774L243,224.40410385259634L245.25,223.535175879397L247.5,223.18969849246233L249.75,222.142797319933L252,221.4413735343384L254.25,220.76088777219434L256.5,220.41541038525966L258.75,219.97571189279736L261,219.77680067001677L263.25,219.24288107202682L265.5,219.12772194304858L267.75,219.39991624790622L270,219.65117252931324L272.25,219.49413735343384L274.5,219.47319932998326L276.75,219.7453936348409L279,220.23743718592965L281.25,220.6457286432161L283.5,220.71901172529314L285.75,220.59338358458962L288,220.9597989949749L290.25,220.83417085427138L292.5,220.57244556113903L294.75,220.3316582914573L297,219.7558626465662L299.25,219.12772194304858L301.49999999999994,218.22738693467338L303.75,215.4845058626466L306,213.0871021775545L308.25,210.49078726968176L310.5,207.82118927973198L312.75,204.98408710217757L315,201.93760469011727L317.25,199.22613065326635L319.49999999999994,197.676716917923L321.75,195.9493299832496L324,194.106783919598L326.25,192.25376884422113L328.5,189.9191792294808L330.75,187.05067001675044L333,184.19262981574542L335.25,182.00460636515916L337.49999999999994,179.38735343383587L339.75,176.1000837520938L342,172.27889447236183L344.25,169.04396984924625L346.5,166.65703517587943L348.75,163.6210217755444L351,159.67420435510888L353.25,156.2089614740369L355.49999999999994,153.0054438860972L357.75,150.13693467336685L360,146.57747068676719L362.25,142.37939698492465L364.5,138.7885259631491L366.75,135.05108877721946L369,130.80067001675044L371.25,127.35636515912903L373.5,124.07956448911224L375.75000000000006,120.28978224455612L378,116.40577889447239L380.25,112.63693467336688L382.5,109.39154103852597L384.75,106.57537688442216L387,104.18844221105526L389.25,101.42462311557793L391.5,98.63986599664996L393.75000000000006,96.2110552763819L396,93.70896147403685L398.25,91.41624790619767L400.5,89.5632328308208L402.75,85.63735343383586L405,81.71147403685093L407.25,77.77512562814071L409.5,74.67629815745397L411.75000000000006,70.18509212730318L414,65.69388609715249L416.25,60.9200167504188L418.5,56.177554438860994L420.75,51.53978224455617L423,47.31030150753773L425.25,41.51046901172531L427.5,36.40159128978224L429.75000000000006,31.292713567839222L432,27.18886097152432L434.25,25.115996649916273L436.5,22.938442211055357L438.75,21.273869346733715L441,20.666666666666778L443.25,20.352596314907878L445.5,20.813232830820844L447.74999999999994,20.561976549413732L450,19.640703517587955L452.25,19.441792294807424L454.5,20.059463986599656L456.75,22.26842546063651L459,25.660385259631546L461.25,29.889865996649956L463.5,34.90452261306537L465.74999999999994,40.75670016750419L468,46.77638190954778L470.25,52.14698492462314L472.5,56.70100502512565L474.75,61.18174204355115L477,66.03936348408715L479.25,71.61934673366838L481.5,77.07370184254606L483.74999999999994,82.37102177554443L486,88.93509212730324L488.25,95.20603015075379L490.5,101.571189279732L492.75,107.06742043551094L495,111.4120603015076L497.25,115.641541038526L499.5,120.26884422110557L501.74999999999994,124.11097152428815L504,128.4556113902848L506.25,133.11432160804026L508.5,137.00879396984928L510.75,140.85092127303187L513,144.9233668341709L515.25,149.09003350083754L517.5,153.44514237855947L519.75,156.9731993299833L522,160.04061976549417L524.25,163.9246231155779L526.5,168.0389447236181L528.75,171.61934673366835L531,175.53475711892798L533.25,179.6700167504188L535.5,184.1088777219431L537.75,188.23366834170858L540,191.5314070351759L542.25,194.6092964824121L544.5,197.04857621440536L546.75,199.64489112227807L549,201.84338358458965L551.25,204.21984924623118L553.5,206.39740368509214L555.75,208.89949748743723L558,211.3597152428811L560.25,213.819932998325" stroke="#4c78a8" stroke-width="2" opacity="1"/></g></g><path class="foreground" aria-hidden="true" d="" display="none"/></g><g transform="translate(0,0)"><path class="background" aria-hidden="true" d="M0,0h585v270h-585Z"/><g><g class="mark-line role-mark marks" clip-path="url(#clip47)" role="graphics-object" aria-roledescription="line mark container"><path aria-label="variable: VA; index: 0; value: −0.317591645038" role="graphics-symbol" aria-roledescription="line mark" d="M0,251.45812013348166L2.25,250.98537263626253L4.5,251.48592880978865L6.75,251.6388765294772L9,252.00038932146828L11.25,252.18114571746383L13.5,252.18114571746383L15.75,251.08270300333706L18,250.13720800889877L20.25,247.52319243604003L22.5,244.57547274749723L24.75,241.05767519466073L27,236.2467741935484L29.25,233.11829810901003L31.5,231.58882091212462L33.75,229.11384872080092L36,226.81963292547275L38.25,224.7895995550612L40.5,222.82908787541712L42.75,222.42586206896553L45,221.56379310344826L47.25,220.50706340378196L49.5,219.33909899888766L51.75,218.24065628476086L54,217.75400444938822L56.25,217.92085650723027L58.5,217.33687430478312L60.75,215.8769187986652L63,213.19338153503895L65.25,211.2606785317019L67.5,210.0927141268076L69.75,209.32797552836485L72,209.3557842046719L74.25,209.28626251390438L76.5,209.828531701891L78.75,210.4681312569522L81,210.57936596218022L83.25,210.05100111234708L85.5,210.02319243604006L87.75,209.63387096774193L90,208.99427141268077L92.25,208.46590656284764L94.5,208.78570634037823L96.75,210.05100111234708L99,211.06601779755286L101.25,210.88526140155733L103.5,211.1077308120134L105.75,212.19226918798665L108,212.7484427141268L110.25,213.27680756395998L112.5,213.16557285873196L114.75,214.08325917686318L117,215.71006674082315L119.25,216.11329254727474L121.5,216.75289210233595L123.75,217.85133481646275L126,218.86635150166853L128.25,220.14555061179087L130.5,221.98092324805341L132.75,222.71785317018913L135,223.62163515016687L137.25,224.24733036707454L139.5,226.12441601779759L141.75,226.9030589543938L144,227.51484983314793L146.25,227.51484983314793L148.5,227.5565628476085L150.74999999999997,227.653893214683L153,227.9458843159066L155.25,227.77903225806452L157.5,228.3630144605117L159.74999999999997,228.83576195773082L162,228.57157953281424L164.25,230.00372636262514L166.5,230.9909343715239L168.74999999999997,231.75567296996664L171,232.2562291434928L173.25,232.88192436040046L175.5,234.28626251390435L177.74999999999997,236.71952169076752L180,237.20617352614016L182.25,238.22119021134594L184.5,238.3741379310345L186.75,239.4169632925473L189,240.96034482758623L191.25,241.14110122358179L193.5,240.8630144605117L195.75,241.36357063403784L198,242.3507786429366L200.25,243.81073414905453L202.5,243.56045606229145L204.75,243.67169076751946L207,244.63109010011127L209.25,245.67391546162406L211.5,245.92419354838708L213.75,245.79905450500559L216,245.31240266963295L218.25,245.75734149054506L220.5,244.43642936596217L222.75,244.1583426028921L225,243.14332591768633L227.25,242.62886540600667L229.5,241.975361512792L231.75,241.41918798665185L234,240.40417130144607L236.25,240.34855394883203L238.5,239.29182424916573L240.75,238.7495550611791L243,238.0543381535039L245.25,237.3869299221357L247.5,237.2895995550612L249.75,238.1516685205784L252,238.10995550611793L254.25,236.71952169076752L256.5,236.58047830923252L258.75,236.77513904338156L261,236.67780867630702L263.25,235.62107897664072L265.5,233.61885428253618L267.75,232.81240266963295L270,233.18781979977754L272.25,232.45088987764183L274.5,231.79738598442714L276.75,231.33854282536154L279,231.5749165739711L281.25,232.3396551724138L283.5,232.7150723025584L285.75,232.96535038932146L288,233.0765850945495L290.25,232.57602892102335L292.5,231.49149054505006L294.75,230.15667408231369L297,228.0988320355951L299.25,224.98426028921025L301.49999999999994,221.5220800889878L303.75,218.19894327030033L306,214.7228587319244L308.25,212.02541713014463L310.5,209.10550611790882L312.75,206.07436040044496L315,203.23787541713017L317.25,199.67836484983317L319.49999999999994,196.70283648498332L321.75,193.99149054505008L324,191.41918798665182L326.25,188.98592880978867L328.5,187.53987764182423L330.75,186.42753058954395L333,185.9825917686318L335.25,184.82853170189105L337.49999999999994,183.7439933259177L339.75,181.5332035595106L342,179.50317018909902L344.25,175.8741379310345L346.5,171.54988876529478L348.75,168.0459955506118L351,164.41696329254728L353.25,160.70450500556177L355.49999999999994,155.96312569521692L357.75,152.80684093437154L360,150.56824249165743L362.25,148.13498331479425L364.5,145.38192436040046L366.75,141.75289210233595L369,138.06824249165743L371.25,135.49593993325922L373.5,130.2818131256953L375.75000000000006,124.122191323693L378,119.75622914349283L380.25,114.91751946607343L382.5,110.8296440489433L384.75,106.4914905450501L387,103.00150166852058L389.25,100.4709121245829L391.5,103.18225806451615L393.75000000000006,99.88692992213572L396,97.41195773081206L398.25,96.45255839822029L400.5,96.10494994438268L402.75,94.85355951056737L405,93.17113459399337L407.25,85.77402669632927L409.5,84.09160177975531L411.75000000000006,81.76957730812018L414,77.93197997775307L416.25,74.3724694104561L418.5,71.41084538375978L420.75,68.60216907675202L423,65.54321468298109L425.25,62.512068965517244L427.5,58.95255839822024L429.75000000000006,55.657230255839906L432,51.18003337041164L434.25,46.28570634037821L436.5,41.39137931034481L438.75,37.678921023359344L441,33.73008898776425L443.25,31.004838709677486L445.5,28.835761957730874L447.74999999999994,27.626084538376016L450,27.653893214683034L452.25,27.181145717463895L454.5,27.347997775305867L456.75,28.891379310344906L459,31.463681868743056L461.25,33.896941045606276L463.5,36.56657397107901L465.74999999999994,39.4586763070078L468,43.0598998887653L470.25,47.59271412680759L472.5,50.79071190211349L474.75,55.03153503893222L477,58.93865406006679L479.25,63.04043381535044L481.5,67.68448275862073L483.74999999999994,73.8858175750835L486,79.08604004449393L488.25,83.5771412680757L490.5,87.2200778642937L492.75,91.78070077864294L495,95.34021134593998L497.25,98.3018353726363L499.5,100.54043381535043L501.74999999999994,103.66890989988882L504,108.45200222469413L506.25,112.73453837597332L508.5,116.15500556173531L510.75,121.50817575083434L513,127.02819799777537L515.25,133.3129588431591L517.5,138.86078976640718L519.75,144.1166295884316L522,148.39916573971078L524.25,154.60050055617356L526.5,160.1205228031146L528.75,165.098275862069L531,169.17224694104561L533.25,172.3424360400445L535.5,175.943659621802L537.75,180.67113459399337L540,183.3129588431591L542.25,186.3719132369299L544.5,189.50038932146833L546.75,192.54543937708567L549,196.38303670745273L551.25,199.3307563959956L553.5,201.2217463848721L555.75,204.8229699666296L558,207.74288097886543L560.25,210.4681312569522" stroke="#f58518" stroke-width="2" opacity="1"/></g></g><path class="foreground" aria-hidden="true" d="" display="none"/></g></g><g class="mark-group role-legend" role="graphics-symbol" aria-roledescription="legend" aria-label="Symbol legend for stroke color with 2 values: NC, VA"><g transform="translate(603,0)"><path class="background" aria-hidden="true" d="M0,0h30v24h-30Z" pointer-events="none"/><g><g class="mark-group role-legend-entry"><g transform="translate(0,0)"><path class="background" aria-hidden="true" d="M0,0h0v0h0Z" pointer-events="none"/><g><g class="mark-group role-scope" role="graphics-object" aria-roledescription="group mark container"><g transform="translate(0,0)"><path class="background" aria-hidden="true" d="M0,0h29.8916015625v11h-29.8916015625Z" pointer-events="none" opacity="1"/><g><g class="mark-symbol role-legend-symbol" pointer-events="none"><path transform="translate(6,6)" d="M-5,0L5,0" stroke="#4c78a8" stroke-width="1.5" opacity="1"/></g><g class="mark-text role-legend-label" pointer-events="none"><text text-anchor="start" transform="translate(16,9)" font-family="IBM Plex Serif, serif" font-size="10px" fill="#262730" opacity="1">NC</text></g></g><path class="foreground" aria-hidden="true" d="" pointer-events="none" display="none"/></g><g transform="translate(0,13)"><path class="background" aria-hidden="true" d="M0,0h29.8916015625v11h-29.8916015625Z" pointer-events="none" opacity="1"/><g><g class="mark-symbol role-legend-symbol" pointer-events="none"><path transform="translate(6,6)" d="M-5,0L5,0" stroke="#f58518" stroke-width="1.5" opacity="1"/></g><g class="mark-text role-legend-label" pointer-events="none"><text text-anchor="start" transform="translate(16,9)" font-family="IBM Plex Serif, serif" font-size="10px" fill="#262730" opacity="1">VA</text></g></g><path class="foreground" aria-hidden="true" d="" pointer-events="none" display="none"/></g></g></g><path class="foreground" aria-hidden="true" d="" pointer-events="none" display="none"/></g></g></g><path class="foreground" aria-hidden="true" d="" pointer-events="none" display="none"/></g></g></g><path class="foreground" aria-hidden="true" d="" display="none"/></g></g></g><defs><clipPath id="clip46"><rect x="0" y="0" width="585" height="270"/></clipPath><clipPath id="clip47"><rect x="0" y="0" width="585" height="270"/></clipPath></defs></svg>