<svg xmlns="http://www.w3.org/2000/svg" xmlns:xlink="http://www.w3.org/1999/xlink" version="1.1" class="marks" width="660" height="300" viewBox="0 0 660 300"><rect width="660" height="300" fill="#ffffff"/><g fill="none" stroke-miterlimit="10" transform="translate(28,5)"><g class="mark-group role-frame root" role="graphics-object" aria-roledescription="group mark container"><g transform="translate(0,0)"><path class="background" aria-hidden="true" d="M0.5,0.5h583v270h-583Z" stroke="#ddd"/><g><g class="mark-group role-axis" aria-hidden="true"><g transform="translate(0.5,270.5)"><path class="background" aria-hidden="true" d="M0,0h0v0h0Z" pointer-events="none"/><g><g class="mark-rule role-axis-grid" pointer-events="none"><line transform="translate(0,-270)" x2="0" y2="270" stroke="rgba(38, 39, 48, 0.2)" stroke-width="1" opacity="1"/><line transform="translate(45,-270)" x2="0" y2="270" stroke="rgba(38, 39, 48, 0.2)" stroke-width="1" opacity="1"/><line transform="translate(90,-270)" x2="0" y2="270" stroke="rgba(38, 39, 48, 0.2)" stroke-width="1" opacity="1"/><line transform="translate(135,-270)" x2="0" y2="270" stroke="rgba(38, 39, 48, 0.2)" stroke-width="1" opacity="1"/><line transform="translate(179,-270)" x2="0" y2="270" stroke="rgba(38, 39, 48, 0.2)" stroke-width="1" opacity="1"/><line transform="translate(224,-270)" x2="0" y2="270" stroke="rgba(38, 39, 48, 0.2)" stroke-width="1" opacity="1"/><line transform="translate(269,-270)" x2="0" y2="270" stroke="rgba(38, 39, 48, 0.2)" stroke-width="1" opacity="1"/><line transform="translate(314,-270)" x2="0" y2="270" stroke="rgba(38, 39, 48, 0.2)" stroke-width="1" opacity="1"/><line transform="translate(359,-270)" x2="0" y2="270" stroke="rgba(38, 39, 48, 0.2)" stroke-width="1" opacity="1"/><line transform="translate(404,-270)" x2="0" y2="270" stroke="rgba(38, 39, 48, 0.2)" stroke-width="1" opacity="1"/><line transform="translate(448,-270)" x2="0" y2="270" stroke="rgba(38, 39, 48, 0.2)" stroke-width="1" opacity="1"/><line transform="translate(493,-270)" x2="0" y2="270" stroke="rgba(38, 39, 48, 0.2)" stroke-width="1" opacity="1"/><line transform="translate(538,-270)" x2="0" y2="270" stroke="rgba(38, 39, 48, 0.2)" stroke-width="1" opacity="1"/><line transform="translate(583,-270)" x2="0" y2="270" stroke="rgba(38, 39, 48, 0.2)" stroke-width="1" opacity="1"/></g></g><path class="foreground" aria-hidden="true" d="" pointer-events="none" display="none"/></g></g><g class="mark-group role-axis" aria-hidden="true"><g transform="translate(0.5,0.5)"><path class="background" aria-hidden="true" d="M0,0h0v0h0Z" pointer-events="none"/><g><g class="mark-rule role-axis-grid" pointer-events="none"><line transform="translate(0,270)" x2="583" y2="0" stroke="rgba(38, 39, 48, 0.2)" stroke-width="1" opacity="1"/><line transform="translate(0,245)" x2="583" y2="0" stroke="rgba(38, 39, 48, 0.2)" stroke-width="1" opacity="1"/><line transform="translate(0,221)" x2="583" y2="0" stroke="rgba(38, 39, 48, 0.2)" stroke-width="1" opacity="1"/><line transform="translate(0,196)" x2="583" y2="0" stroke="rgba(38, 39, 48, 0.2)" stroke-width="1" opacity="1"/><line transform="translate(0,172)" x2="583" y2="0" stroke="rgba(38, 39, 48, 0.2)" stroke-width="1" opacity="1"/><line transform="translate(0,147)" x2="583" y2="0" stroke="rgba(38, 39, 48, 0.2)" stroke-width="1" opacity="1"/><line transform="translate(0,123)" x2="583" y2="0" stroke="rgba(38, 39, 48, 0.2)" stroke-width="1" opacity="1"/><line transform="translate(0,98)" x2="583" y2="0" stroke="rgba(38, 39, 48, 0.2)" stroke-width="1" opacity="1"/><line transform="translate(0,74)" x2="583" y2="0" stroke="rgba(38, 39, 48, 0.2)" stroke-width="1" opacity="1"/><line transform="translate(0,49)" x2="583" y2="0" stroke="rgba(38, 39, 48, 0.2)" stroke-width="1" opacity="1"/><line transform="translate(0,25)" x2="583" y2="0" stroke="rgba(38, 39, 48, 0.2)" stroke-width="1" opacity="1"/><line transform="translate(0,0)" x2="583" y2="0" stroke="rgba(38, 39, 48, 0.2)" stroke-width="1" opacity="1"/></g></g><path class="foreground" aria-hidden="true" d="" pointer-events="none" display="none"/></g></g><g class="mark-group role-axis" role="graphics-symbol" aria-roledescription="axis" aria-label="X-axis for a linear scale with values from 0 to 260"><g transform="translate(0.5,270.5)"><path class="background" aria-hidden="true" d="M0,0h0v0h0Z" pointer-events="none"/><g><g class="mark-rule role-axis-tick" pointer-events="none"><line transform="translate(0,0)" x2="0" y2="5" stroke="#888" stroke-width="1" opacity="1"/><line transform="translate(45,0)" x2="0" y2="5" stroke="#888" stroke-width="1" opacity="1"/><line transform="translate(90,0)" x2="0" y2="5" stroke="#888" stroke-width="1" opacity="1"/><line transform="translate(135,0)" x2="0" y2="5" stroke="#888" stroke-width="1" opacity="1"/><line transform="translate(179,0)" x2="0" y2="5" stroke="#888" stroke-width="1" opacity="1"/><line transform="translate(224,0)" x2="0" y2="5" stroke="#888" stroke-width="1" opacity="1"/><line transform="translate(269,0)" x2="0" y2="5" stroke="#888" stroke-width="1" opacity="1"/><line transform="translate(314,0)" x2="0" y2="5" stroke="#888" stroke-width="1" opacity="1"/><line transform="translate(359,0)" x2="0" y2="5" stroke="#888" stroke-width="1" opacity="1"/><line transform="translate(404,0)" x2="0" y2="5" stroke="#888" stroke-width="1" opacity="1"/><line transform="translate(448,0)" x2="0" y2="5" stroke="#888" stroke-width="1" opacity="1"/><line transform="translate(493,0)" x2="0" y2="5" stroke="#888" stroke-width="1" opacity="1"/><line transform="translate(538,0)" x2="0" y2="5" stroke="#888" stroke-width="1" opacity="1"/><line transform="translate(583,0)" x2="0" y2="5" stroke="#888" stroke-width="1" opacity="1"/></g><g class="mark-text role-axis-label" pointer-events="none"><text text-anchor="start" transform="translate(0,15)" font-family="IBM Plex Serif, serif" font-size="10px" fill="#262730" opacity="1">0</text><text text-anchor="middle" transform="translate(44.84615384615385,15)" font-family="IBM Plex Serif, serif" font-size="10px" fill="#262730" opacity="1">20</text><text text-anchor="middle" transform="translate(89.6923076923077,15)" font-family="IBM Plex Serif, serif" font-size="10px" fill="#262730" opacity="1">40</text><text text-anchor="middle" transform="translate(134.53846153846155,15)" font-family="IBM Plex Serif, serif" font-size="10px" fill="#262730" opacity="1">60</text><text text-anchor="middle" transform="translate(179.3846153846154,15)" font-family="IBM Plex Serif, serif" font-size="10px" fill="#262730" opacity="1">80</text><text text-anchor="middle" transform="translate(224.23076923076925,15)" font-family="IBM Plex Serif, serif" font-size="10px" fill="#262730" opacity="1">100</text><text text-anchor="middle" transform="translate(269.0769230769231,15)" font-family="IBM Plex Serif, serif" font-size="10px" fill="#262730" opacity="1">120</text><text text-anchor="middle" transform="translate(313.9230769230769,15)" font-family="IBM Plex Serif, serif" font-size="10px" fill="#262730" opacity="1">140</text><text text-anchor="middle" transform="translate(358.7692307692308,15)" font-family="IBM Plex Serif, serif" font-size="10px" fill="#262730" opacity="1">160</text><text text-anchor="middle" transform="translate(403.6153846153846,15)" font-family="IBM Plex Serif, serif" font-size="10px" fill="#262730" opacity="1">180</text><text text-anchor="middle" transform="translate(448.4615384615385,15)" font-family="IBM Plex Serif, serif" font-size="10px" fill="#262730" opacity="1">200</text><text text-anchor="middle" transform="translate(493.3076923076923,15)" font-family="IBM Plex Serif, serif" font-size="10px" fill="#262730" opacity="1">220</text><text text-anchor="middle" transform="translate(538.1538461538462,15)" font-family="IBM Plex Serif, serif" font-size="10px" fill="#262730" opacity="1">240</text><text text-anchor="end" transform="translate(583,15)" font-family="IBM Plex Serif, serif" font-size="10px" fill="#262730" opacity="1">260</text></g><g class="mark-rule role-axis-domain" pointer-events="none"><line transform="translate(0,0)" x2="583" y2="0" stroke="#888" stroke-width="1" opacity="1"/></g></g><path class="foreground" aria-hidden="true" d="" pointer-events="none" display="none"/></g></g><g class="mark-group role-axis" role="graphics-symbol" aria-roledescription="axis" aria-label="Y-axis for a linear scale with values from −0.8 to 1.4"><g transform="translate(0.5,0.5)"><path class="background" aria-hidden="true" d="M0,0h0v0h0Z" pointer-events="none"/><g><g class="mark-rule role-axis-tick" pointer-events="none"><line transform="translate(0,270)" x2="-5" y2="0" stroke="#888" stroke-width="1" opacity="1"/><line transform="translate(0,245)" x2="-5" y2="0" stroke="#888" stroke-width="1" opacity="1"/><line transform="translate(0,221)" x2="-5" y2="0" stroke="#888" stroke-width="1" opacity="1"/><line transform="translate(0,196)" x2="-5" y2="0" stroke="#888" stroke-width="1" opacity="1"/><line transform="translate(0,172)" x2="-5" y2="0" stroke="#888" stroke-width="1" opacity="1"/><line transform="translate(0,147)" x2="-5" y2="0" stroke="#888" stroke-width="1" opacity="1"/><line transform="translate(0,123)" x2="-5" y2="0" stroke="#888" stroke-width="1" opacity="1"/><line transform="translate(0,98)" x2="-5" y2="0" stroke="#888" stroke-width="1" opacity="1"/><line transform="translate(0,74)" x2="-5" y2="0" stroke="#888" stroke-width="1" opacity="1"/><line transform="translate(0,49)" x2="-5" y2="0" stroke="#888" stroke-width="1" opacity="1"/><line transform="translate(0,25)" x2="-5" y2="0" stroke="#888" stroke-width="1" opacity="1"/><line transform="translate(0,0)" x2="-5" y2="0" stroke="#888" stroke-width="1" opacity="1"/></g><g class="mark-text role-axis-label" pointer-events="none"><text text-anchor="end" transform="translate(-7,273)" font-family="IBM Plex Serif, serif" font-size="10px" fill="#262730" opacity="1">−0.8</text><text text-anchor="end" transform="translate(-7,248.45454545454544)" font-family="IBM Plex Serif, serif" font-size="10px" fill="#262730" opacity="1">−0.6</text><text text-anchor="end" transform="translate(-7,223.9090909090909)" font-family="IBM Plex Serif, serif" font-size="10px" fill="#262730" opacity="1">−0.4</text><text text-anchor="end" transform="translate(-7,199.36363636363637)" font-family="IBM Plex Serif, serif" font-size="10px" fill="#262730" opacity="1">−0.2</text><text text-anchor="end" transform="translate(-7,174.8181818181818)" font-family="IBM Plex Serif, serif" font-size="10px" fill="#262730" opacity="1">0.0</text><text text-anchor="end" transform="translate(-7,150.27272727272725)" font-family="IBM Plex Serif, serif" font-size="10px" fill="#262730" opacity="1">0.2</text><text text-anchor="end" transform="translate(-7,125.7272727272727)" font-family="IBM Plex Serif, serif" font-size="10px" fill="#262730" opacity="1">0.4</text><text text-anchor="end" transform="translate(-7,101.18181818181822)" font-family="IBM Plex Serif, serif" font-size="10px" fill="#262730" opacity="1">0.6</text><text text-anchor="end" transform="translate(-7,76.63636363636363)" font-family="IBM Plex Serif, serif" font-size="10px" fill="#262730" opacity="1">0.8</text><text text-anchor="end" transform="translate(-7,52.09090909090911)" font-family="IBM Plex Serif, serif" font-size="10px" fill="#262730" opacity="1">1.0</text><text text-anchor="end" transform="translate(-7,27.545454545454554)" font-family="IBM Plex Serif, serif" font-size="10px" fill="#262730" opacity="1">1.2</text><text text-anchor="end" transform="translate(-7,3)" font-family="IBM Plex Serif, serif" font-size="10px" fill="#262730" opacity="1">1.4</text></g><g class="mark-rule role-axis-domain" pointer-events="none"><line transform="translate(0,270)" x2="0" y2="-270" stroke="#888" stroke-width="1" opacity="1"/></g></g><path class="foreground" aria-hidden="true" d="" pointer-events="none" display="none"/></g></g><g class="mark-group role-scope pathgroup" role="graphics-object" aria-roledescription="group mark container"><g transform="translate(0,0)"><path class="background" aria-hidden="true" d="M0,0h583v270h-583Z"/><g><g class="mark-line role-mark marks" clip-path="url(#clip59)" role="graphics-object" aria-roledescription="line mark container"><path aria-label="variable: CO; index: 0; value: −0.670581550486" role="graphics-symbol" aria-roledescription="line mark" d="M0,254.11682665056674L2.2423076923076923,253.0266671827327L4.484615384615385,252.38340819553406L6.726923076923077,251.4281540363928L8.96923076923077,250.79341979348644L11.211538461538462,250.78199571963108L13.453846153846154,249.4438795061927L15.696153846153846,247.8416273113809L17.93846153846154,246.24197389497456L20.180769230769233,242.92676738996875L22.423076923076923,240.6426819344684L24.665384615384617,238.4453973823332L26.907692307692308,235.3290639271405L29.150000000000002,233.28507846710318L31.392307692307693,231.72603931089364L33.63461538461539,229.4801113091216L35.87692307692308,228.57145311858886L38.11923076923077,227.0362073710217L40.361538461538466,225.586646328639L42.603846153846156,224.74989665584258L44.84615384615385,224.38379169078493L47.088461538461544,223.56799294186698L49.330769230769235,222.41666129226869L51.573076923076925,222.0118893478918L53.815384615384616,221.36680106320927L56.057692307692314,220.9079607749533L58.300000000000004,220.50808963872595L60.542307692307695,219.4514916350923L62.784615384615385,219.0206048554551L65.02692307692308,220.01131855383167L67.26923076923077,219.49657078982216L69.51153846153846,219.66320335367323L71.75384615384615,220.32896558900393L73.99615384615385,221.89389624114L76.23846153846154,222.73058486569664L78.48076923076923,224.3565122033506L80.72307692307693,225.0466568320459L82.96538461538461,226.73503172483268L85.20769230769231,227.47347734668062L87.45,228.00322271140953L89.6923076923077,228.33276876918137L91.93461538461538,229.06696107406486L94.17692307692309,228.77265783821508L96.41923076923077,228.18765264792555L98.66153846153847,228.09497953570607L100.90384615384615,228.06530474564067L103.14615384615385,228.08754961707547L105.38846153846154,228.78144797933638L107.63076923076923,229.7354489151889L109.87307692307692,230.71016324114484L112.11538461538463,232.008988586278L114.3576923076923,232.8032522193828L116.60000000000001,233.43961318999197L118.84230769230768,233.86295104265324L121.08461538461539,234.00382206583248L123.32692307692308,233.54199034360553L125.56923076923077,233.24960822663556L127.81153846153846,232.8026728948418L130.05384615384617,232.29061922852048L132.29615384615386,231.93293261569133L134.53846153846155,231.40750649496235L136.78076923076924,230.84733841200466L139.02307692307693,230.78007851186402L141.26538461538462,230.0786655965969L143.5076923076923,229.7270482903125L145.75,229.29083572680375L147.9923076923077,229.20453579388024L150.23461538461538,228.5881624230874L152.47692307692307,228.3240537942219L154.71923076923076,228.49492718490046L156.96153846153845,228.80903375560172L159.20384615384614,228.64405893371173L161.44615384615386,228.97407665642672L163.68846153846155,229.1153704602301L165.93076923076922,229.31415695422163L168.1730769230769,229.0554029827016L170.41538461538462,227.90393228953408L172.65769230769232,226.86988292017767L174.9,226.20656438178935L177.14230769230767,225.24579565015395L179.3846153846154,223.70696509006768L181.62692307692308,222.09544984253435L183.86923076923077,220.58643697393074L186.11153846153846,219.36197129717192L188.35384615384618,218.33380577230898L190.59615384615384,217.10898438968078L192.83846153846153,216.01590040277426L195.08076923076922,215.64757759637126L197.32307692307694,215.3337999071258L199.56538461538463,215.78375058584407L201.8076923076923,216.45472807894427L204.04999999999998,217.16629553680602L206.2923076923077,217.6388279815362L208.5346153846154,218.12226168944247L210.77692307692308,218.30636239986154L213.01923076923075,218.1911511007211L215.26153846153846,217.97218068170983L217.50384615384615,216.9367556790658L219.74615384615385,215.8073222624025L221.98846153846154,214.23845246813568L224.23076923076925,212.59949759237477L226.47307692307692,210.77884522457074L228.7153846153846,209.44515115423593L230.9576923076923,207.8209265592286L233.20000000000002,205.14796385188245L235.4423076923077,203.4094217539096L237.68461538461537,201.92180913369174L239.92692307692306,199.57686132867616L242.16923076923078,197.57014166056564L244.41153846153847,195.53763000145196L246.65384615384616,193.34027446920484L248.89615384615382,192.95805940802268L251.13846153846154,190.30076068079308L253.38076923076923,187.52695843642186L255.62307692307692,185.59426745032863L257.8653846153846,182.96045568387467L260.10769230769233,180.00845779377357L262.35,177.13156622014864L264.5923076923077,174.3172885065285L266.83461538461535,171.7096243750442L269.0769230769231,168.32264029536853L271.3192307692308,164.6225865185502L273.5615384615385,161.01292737280608L275.80384615384617,157.7162016458377L278.04615384615386,153.91235854439807L280.28846153846155,149.1912835925816L282.53076923076924,144.37318858450698L284.7730769230769,139.38959350208353L287.0153846153846,134.30465364930023L289.2576923076923,128.87184779575142L291.5,123.45324157710921L293.7423076923077,117.55168863777753L295.9846153846154,112.51142766697457L298.2269230769231,108.43691693655819L300.46923076923076,104.03444026790338L302.7115384615385,98.98128378640469L304.95384615384614,94.50732265219293L307.19615384615383,89.58743864428129L309.4384615384615,85.42249224275803L311.6807692307692,81.7546087030105L313.9230769230769,76.74548536572046L316.1653846153846,70.81617133979654L318.4076923076923,68.84837709379417L320.65000000000003,65.55248240706123L322.8923076923077,64.98862488439121L325.1346153846154,66.1271442155729L327.3769230769231,65.21995406395467L329.61923076923074,65.61513462246133L331.86153846153843,67.99292006573849L334.1038461538461,68.78250033925019L336.3461538461538,71.67160984148735L338.58846153846156,71.63644862024582L340.83076923076925,68.88373531344202L343.07307692307694,66.65374937846985L345.31538461538463,63.54097604751582L347.5576923076923,57.67845523272758L349.8,56.190128779478286L352.04230769230765,53.60544046055951L354.28461538461534,53.982802046354934L356.5269230769231,55.39151837151833L358.7692307692308,58.98644816631869L361.01153846153846,51.177135143235994L363.25384615384615,54.100185062393656L365.49615384615385,51.80315356754956L367.73846153846154,53.86330196124395L369.9807692307692,51.20798574256652L372.2230769230769,53.57497239505083L374.46538461538466,51.64664005473138L376.70769230769235,65.81154368446788L378.95,71.51960812686666L381.1923076923077,77.98430660507537L383.43461538461537,78.00416570679526L385.67692307692306,84.54941182565068L387.91923076923075,87.43576726209714L390.16153846153844,96.77342792581683L392.4038461538462,98.63871004658978L394.6461538461539,100.84141158496848L396.88846153846157,104.24277913322028L399.13076923076926,111.79158911975603L401.3730769230769,115.35994364449066L403.6153846153846,117.45640646869141L405.8576923076923,116.14768779788781L408.09999999999997,119.65716949847088L410.3423076923077,122.19108152499712L412.5846153846154,120.28720142464324L414.8269230769231,117.73050846653312L417.0692307692308,116.29520166171297L419.3115384615385,115.40638909920138L421.55384615384617,114.8415643210018L423.79615384615386,114.61301978674716L426.0384615384615,115.26160107315181L428.28076923076924,117.48510425272869L430.5230769230769,117.66364259982527L432.7653846153846,119.52494757148531L435.0076923076923,121.60025485859862L437.25,124.95328300890391L439.4923076923077,128.10630543401822L441.7346153846154,130.90194368618774L443.9769230769231,133.0214622725318L446.21923076923076,136.41992721936953L448.4615384615385,138.21618719148472L450.70384615384614,140.06771198414086L452.94615384615383,143.52277266991192L455.1884615384615,146.16313541786525L457.4307692307692,149.46964458454332L459.6730769230769,152.2938351278053L461.9153846153846,155.12279144434208L464.1576923076923,156.8755664315775L466.40000000000003,158.52580693735896L468.6423076923077,159.5680869617497L470.8846153846154,160.1305292202795L473.1269230769231,160.38794027924655L475.36923076923074,160.5697114360379L477.61153846153843,160.55208126069945L479.8538461538461,161.08654066880712L482.0961538461538,162.20278592366637L484.33846153846156,163.05610179242328L486.58076923076925,166.06330650012058L488.82307692307694,167.78692736748752L491.06538461538463,168.6246095646718L493.3076923076923,169.96931935955624L495.55,171.68920732811745L497.79230769230765,172.4361059956507L500.03461538461534,172.67874034298913L502.2769230769231,171.62877469193893L504.5192307692308,172.33076106887634L506.76153846153846,174.10131458799623L509.00384615384615,174.34287411540075L511.24615384615385,174.83192872586963L513.4884615384615,175.51487633014307L515.7307692307692,177.06401899365505L517.9730769230769,179.5235480476233L520.2153846153847,178.72044205262833L522.4576923076924,178.682857308333L524.7,179.777226540208L526.9423076923077,180.37974722819877L529.1846153846154,180.68106658103866L531.4269230769231,179.966296640102L533.6692307692307,180.13742770509745L535.9115384615384,182.29838555629067L538.1538461538462,183.0420042206715L540.3961538461539,184.14038574076733L542.6384615384616,184.8390308966958L544.8807692307693,184.79299995924933L547.123076923077,185.6290957262266L549.3653846153846,185.58883989814402L551.6076923076923,185.45034152178448L553.85,185.0053471215978L556.0923076923077,184.88550434287998L558.3346153846154,185.0421513132295" stroke="#4c78a8" stroke-width="2" opacity="1"/></g></g><path class="foreground" aria-hidden="true" d="" display="none"/></g><g transform="translate(0,0)"><path class="background" aria-hidden="true" d="M0,0h583v270h-583Z"/><g><g class="mark-line role-mark marks" clip-path="url(#clip60)" role="graphics-object" aria-roledescription="line mark container"><path aria-label="variable: IL; index: 0; value: −0.705902667154" role="graphics-symbol" aria-roledescription="line mark" d="M0,258.45169096895137L2.2423076923076923,260.67213267152886L4.484615384615385,262.0428048939903L6.726923076923077,262.7228066642424L8.96923076923077,265.1510710058932L11.211538461538462,264.52473525491484L13.453846153846154,264.288317688544L15.696153846153846,264.01832268427813L17.93846153846154,264.9043407395431L20.180769230769233,265.28655857857484L22.423076923076923,262.96542115177294L24.665384615384617,262.36964844396493L26.907692307692308,260.3772032665184L29.150000000000002,260.5365317920545L31.392307692307693,261.5062253776745L33.63461538461539,261.5581480637714L35.87692307692308,261.2060374117921L38.11923076923077,260.23131638719343L40.361538461538466,260.8884305206465L42.603846153846156,261.07995699631505L44.84615384615385,260.13871469008933L47.088461538461544,257.82800656579076L49.330769230769235,258.97315970007605L51.573076923076925,256.9186764109528L53.815384615384616,255.10317899286795L56.057692307692314,253.8399218794587L58.300000000000004,252.0971994089598L60.542307692307695,252.50380752230683L62.784615384615385,250.39149657406787L65.02692307692308,249.89394864990447L67.26923076923077,249.40062228725955L69.51153846153846,249.70111043546476L71.75384615384615,248.18572407943756L73.99615384615385,247.575635596339L76.23846153846154,246.37562860147617L78.48076923076923,245.03728587713226L80.72307692307693,245.40453644975753L82.96538461538461,244.97712880711623L85.20769230769231,243.14563167828592L87.45,243.8793349263858L89.6923076923077,241.8706920747309L91.93461538461538,242.4185563804458L94.17692307692309,241.2833366777287L96.41923076923077,238.98273161350997L98.66153846153847,240.79476291939L100.90384615384615,241.93069379262042L103.14615384615385,239.93197715345687L105.38846153846154,239.11095441551072L107.63076923076923,238.57980497453758L109.87307692307692,237.550393881157L112.11538461538463,235.67103277375887L114.3576923076923,235.7699980637659L116.60000000000001,236.31732639155055L118.84230769230768,235.5552421424041L121.08461538461539,235.70827607651648L123.32692307692308,234.78835772079813L125.56923076923077,233.77409425379795L127.81153846153846,231.25928973674297L130.05384615384617,233.27099319745216L132.29615384615386,233.35948718088048L134.53846153846155,233.89473029758585L136.78076923076924,232.51776706587412L139.02307692307693,230.97328769953145L141.26538461538462,231.6141349984227L143.5076923076923,230.33534741020833L145.75,228.3745676417696L147.9923076923077,227.10450845129557L150.23461538461538,227.6314802604277L152.47692307692307,227.57226876330057L154.71923076923076,229.5098358341344L156.96153846153845,229.12697419978986L159.20384615384614,229.89967440212465L161.44615384615386,228.8284397534485L163.68846153846155,229.92612451424364L165.93076923076922,230.64358795226303L168.1730769230769,230.58087176217828L170.41538461538462,227.77778960425204L172.65769230769232,229.01447400513095L174.9,228.24667568389722L177.14230769230767,231.21121762428552L179.3846153846154,231.14735249896978L181.62692307692308,229.2723779012642L183.86923076923077,228.63038298617414L186.11153846153846,228.1247702264018L188.35384615384618,229.64734705218297L190.59615384615384,226.0351079040766L192.83846153846153,226.73808068137402L195.08076923076922,227.10342081004578L197.32307692307694,226.99218313264163L199.56538461538463,226.4846904082095L201.8076923076923,225.38209286797084L204.04999999999998,223.47642734507158L206.2923076923077,224.78496305190154L208.5346153846154,222.95391496765274L210.77692307692308,223.46302192002668L213.01923076923075,221.904240929316L215.26153846153846,221.72731475045452L217.50384615384615,221.03398008931495L219.74615384615385,221.2380559102665L221.98846153846154,219.07156694676092L224.23076923076925,219.02300318177075L226.47307692307692,217.23809330514814L228.7153846153846,217.34092907228765L230.9576923076923,216.88695957981568L233.20000000000002,213.9186158847798L235.4423076923077,213.16867364367778L237.68461538461537,210.85984204948588L239.92692307692306,206.88886734215464L242.16923076923078,204.66642850156924L244.41153846153847,203.2557409358556L246.65384615384616,196.52612983946943L248.89615384615382,194.01086032773551L251.13846153846154,190.6976146099811L253.38076923076923,187.9343076932892L255.62307692307692,187.6535314985138L257.8653846153846,180.94906183220235L260.10769230769233,178.55700027521766L262.35,175.235200095685L264.5923076923077,172.90917977053851L266.83461538461535,171.32993878025584L269.0769230769231,165.77512573009025L271.3192307692308,160.7201360013941L273.5615384615385,157.99901661196614L275.80384615384617,154.18327157553443L278.04615384615386,149.32756476691583L280.28846153846155,143.21546129953109L282.53076923076924,138.48181844370006L284.7730769230769,133.35361266540693L287.0153846153846,126.99054861752727L289.2576923076923,119.47300040671524L291.5,113.04556167824964L293.7423076923077,106.60053628610365L295.9846153846154,97.55684349650282L298.2269230769231,85.34292364124676L300.46923076923076,81.96434642235727L302.7115384615385,76.47609298290564L304.95384615384614,66.29713804921859L307.19615384615383,59.7387988053314L309.4384615384615,49.77851435015868L311.6807692307692,44.86201607174346L313.9230769230769,44.52275119998341L316.1653846153846,34.50243042400787L318.4076923076923,29.092348578122127L320.65000000000003,31.639968161066907L322.8923076923077,29.905689040592375L325.1346153846154,27.276291129435602L327.3769230769231,26.806669149180138L329.61923076923074,25.80440667324553L331.86153846153843,26.981284679758495L334.1038461538461,31.53603240324213L336.3461538461538,33.6961892676767L338.58846153846156,38.833083942302146L340.83076923076925,35.92196493848684L343.07307692307694,37.79398991455087L345.31538461538463,34.79262263148472L347.5576923076923,33.267291026381706L349.8,31.598590503169174L352.04230769230765,29.66481122938469L354.28461538461534,30.166136068113737L356.5269230769231,30.073478473736422L358.7692307692308,33.696761133981624L361.01153846153846,30.76484650715111L363.25384615384615,37.96670426483577L365.49615384615385,36.19282651021655L367.73846153846154,41.42401998046005L369.9807692307692,41.347471456894986L372.2230769230769,42.69372401001837L374.46538461538466,46.43127732155266L376.70769230769235,50.69892909396707L378.95,52.12560910967156L381.1923076923077,56.510428783923075L383.43461538461537,61.214124217419034L385.67692307692306,64.96949441565134L387.91923076923075,67.0975242311625L390.16153846153844,68.09283669235658L392.4038461538462,71.75961640586712L394.6461538461539,77.86655333258342L396.88846153846157,81.46584089613216L399.13076923076926,89.0743823999004L401.3730769230769,87.04303712468898L403.6153846153846,88.31751535869721L405.8576923076923,88.46752461168221L408.09999999999997,88.40792060658646L410.3423076923077,89.18774108854203L412.5846153846154,90.95070264780958L414.8269230769231,92.994111394327L417.0692307692308,91.79517601073374L419.3115384615385,92.31995873028056L421.55384615384617,92.14346998498534L423.79615384615386,93.41361556844524L426.0384615384615,93.2126774128146L428.28076923076924,94.74805779673815L430.5230769230769,94.68799784565878L432.7653846153846,96.71821872228529L435.0076923076923,97.86641909549611L437.25,100.0479865117995L439.4923076923077,104.30356830356193L441.7346153846154,111.16502480360583L443.9769230769231,115.79599364453063L446.21923076923076,115.46672594120476L448.4615384615385,118.76702212761018L450.70384615384614,121.28936831811556L452.94615384615383,126.94791586616267L455.1884615384615,127.76505854223241L457.4307692307692,131.41680825673072L459.6730769230769,134.5450690164463L461.9153846153846,138.55409642661652L464.1576923076923,141.29530819329L466.40000000000003,143.77027209249997L468.6423076923077,141.11399497231278L470.8846153846154,144.97117172520674L473.1269230769231,148.44713639005826L475.36923076923074,153.8418156228159L477.61153846153843,158.2225033824032L479.8538461538461,158.75977274489333L482.0961538461538,163.91796333177334L484.33846153846156,166.7660775811758L486.58076923076925,169.7842329202093L488.82307692307694,174.11708390671305L491.06538461538463,175.28300108229703L493.3076923076923,176.3833399504684L495.55,174.9038028481805L497.79230769230765,176.99506397520042L500.03461538461534,177.96542669981955L502.2769230769231,181.59094476133646L504.5192307692308,181.57951069914446L506.76153846153846,186.10303143806422L509.00384615384615,188.4279643646589L511.24615384615385,193.88310933892922L513.4884615384615,193.7210015678223L515.7307692307692,194.56613228233437L517.9730769230769,198.14431713939223L520.2153846153847,200.4145316617874L522.4576923076924,201.08676281401267L524.7,202.81572790406375L526.9423076923077,202.9446819423944L529.1846153846154,202.48576424944946L531.4269230769231,204.38816168814643L533.6692307692307,205.22772024638084L535.9115384615384,207.8941850844861L538.1538461538462,208.48037854452932L540.3961538461539,211.61172504017597L542.6384615384616,213.4343692385356L544.8807692307693,214.54390027748602L547.123076923077,215.8896908343788L549.3653846153846,216.71822167857016L551.6076923076923,217.33655319201054L553.85,218.89518957320152L556.0923076923077,218.33799077818267L558.3346153846154,219.57033128828778" stroke="#f58518" stroke-width="2" opacity="1"/></g></g><path class="foreground" aria-hidden="true" d="" display="none"/></g><g transform="translate(0,0)"><path class="background" aria-hidden="true" d="M0,0h583v270h-583Z"/><g><g class="mark-line role-mark marks" clip-path="url(#clip61)" role="graphics-object" aria-roledescription="line mark container"><path aria-label="variable: IN; index: 0; value: −0.782774402124" role="graphics-symbol" aria-roledescription="line mark" d="M0,267.8859493515918L2.2423076923076923,267.7584652994778L4.484615384615385,267.2970442634983L6.726923076923077,265.877414514392L8.96923076923077,263.92714930847455L11.211538461538462,261.76575854583206L13.453846153846154,262.060694508408L15.696153846153846,260.7565582915982L17.93846153846154,258.71086383940406L20.180769230769233,257.4791075641498L22.423076923076923,254.59727274267615L24.665384615384617,253.95110598835058L26.907692307692308,251.99235346022056L29.150000000000002,250.18409914994987L31.392307692307693,247.39340399624535L33.63461538461539,245.43278664161235L35.87692307692308,246.47554932072296L38.11923076923077,246.44910878726577L40.361538461538466,244.9131704353914L42.603846153846156,243.39129501482907L44.84615384615385,241.4575590350249L47.088461538461544,237.17369427843894L49.330769230769235,236.13580818788782L51.573076923076925,235.3491181000411L53.815384615384616,235.7796620549327L56.057692307692314,234.29719870720623L58.300000000000004,232.89028276720973L60.542307692307695,231.04910520474368L62.784615384615385,232.2350118137316L65.02692307692308,230.41523113236013L67.26923076923077,231.3068221197068L69.51153846153846,227.73457144994396L71.75384615384615,227.40556149043934L73.99615384615385,227.7228383817552L76.23846153846154,223.36614975039672L78.48076923076923,226.92085996537642L80.72307692307693,226.33210176988982L82.96538461538461,225.68676002095296L85.20769230769231,226.09253173727208L87.45,224.78142626784808L89.6923076923077,223.30707521381873L91.93461538461538,221.7649514239713L94.17692307692309,223.60624898954038L96.41923076923077,223.51836172643914L98.66153846153847,223.6608609822161L100.90384615384615,225.2787997142844L103.14615384615385,225.88032292997565L105.38846153846154,226.74907153591732L107.63076923076923,228.6761482625601L109.87307692307692,230.23612159550038L112.11538461538463,230.93892543058737L114.3576923076923,232.08229596257019L116.60000000000001,233.89640231402507L118.84230769230768,233.6362269064143L121.08461538461539,233.17241261591806L123.32692307692308,230.7760931939309L125.56923076923077,228.90190142208561L127.81153846153846,227.6492482171874L130.05384615384617,226.04232500637696L132.29615384615386,224.3695219158938L134.53846153846155,222.89923731944327L136.78076923076924,224.6883829982084L139.02307692307693,223.47334950885715L141.26538461538462,222.97610959005073L143.5076923076923,222.37080488038524L145.75,221.968096017667L147.9923076923077,223.27906557104595L150.23461538461538,225.2446222244324L152.47692307692307,225.68004063925014L154.71923076923076,225.13493271664177L156.96153846153845,226.88966728555013L159.20384615384614,226.77574234500625L161.44615384615386,228.2586595957368L163.68846153846155,228.03705022651604L165.93076923076922,229.09459245030706L168.1730769230769,228.10909020753022L170.41538461538462,229.00751900369718L172.65769230769232,228.93481822669628L174.9,228.78769080642186L177.14230769230767,229.08844870239213L179.3846153846154,228.81512137512505L181.62692307692308,230.28209892267554L183.86923076923077,230.5101386230401L186.11153846153846,229.54376021616343L188.35384615384618,228.595259566743L190.59615384615384,229.1966559137808L192.83846153846153,229.21319064557622L195.08076923076922,228.59057913387832L197.32307692307694,226.2757154056752L199.56538461538463,223.94524743317032L201.8076923076923,223.33845476322173L204.04999999999998,223.4439346376026L206.2923076923077,222.39882880081103L208.5346153846154,219.41369882814055L210.77692307692308,219.07683842031437L213.01923076923075,218.0447533076401L215.26153846153846,215.39190164790537L217.50384615384615,212.46212417826106L219.74615384615385,211.37606419744333L221.98846153846154,209.36275149177402L224.23076923076925,206.82171278046204L226.47307692307692,205.94830345045486L228.7153846153846,203.19027350631455L230.9576923076923,201.09792142140566L233.20000000000002,196.71659665105517L235.4423076923077,192.8437817494434L237.68461538461537,189.62699673539674L239.92692307692306,183.0408054098091L242.16923076923078,175.5943809249897L244.41153846153847,171.3163483040189L246.65384615384616,169.57535380133137L248.89615384615382,164.87823219553906L251.13846153846154,162.1191523199192L253.38076923076923,160.11162458735765L255.62307692307692,162.8034641002416L257.8653846153846,161.79507973953227L260.10769230769233,161.36843237092705L262.35,161.28985140148066L264.5923076923077,162.09080044438622L266.83461538461535,163.98054986380828L269.0769230769231,160.87662321528362L271.3192307692308,158.93081381314576L273.5615384615385,157.7127663597511L275.80384615384617,157.52683283557974L278.04615384615386,153.70504341002174L280.28846153846155,149.70301743165678L282.53076923076924,148.99782819888134L284.7730769230769,145.41890702520982L287.0153846153846,144.03317021802422L289.2576923076923,139.74813902666045L291.5,138.5968791819318L293.7423076923077,133.46691643844142L295.9846153846154,126.0909717052624L298.2269230769231,117.8627559834337L300.46923076923076,111.72498477691808L302.7115384615385,107.85945123924604L304.95384615384614,101.82092651536966L307.19615384615383,95.11321338589065L309.4384615384615,89.82894264597391L311.6807692307692,83.44997533813593L313.9230769230769,77.62286965024181L316.1653846153846,74.25893555377753L318.4076923076923,68.88427477626405L320.65000000000003,64.87754836017345L322.8923076923077,65.67915205236228L325.1346153846154,62.04242148856372L327.3769230769231,61.32327711507074L329.61923076923074,57.15437431542437L331.86153846153843,56.550335402997355L334.1038461538461,56.950236458443676L336.3461538461538,56.59815448604787L338.58846153846156,55.38419164183651L340.83076923076925,53.378812678522266L343.07307692307694,51.35282869185091L345.31538461538463,49.3513132785983L347.5576923076923,48.60029132746096L349.8,48.309005289436314L352.04230769230765,46.814030498418596L354.28461538461534,45.69655406131211L356.5269230769231,45.24999160491469L358.7692307692308,45.024444673346025L361.01153846153846,45.97818702762493L363.25384615384615,46.70420789028603L365.49615384615385,48.43800138767194L367.73846153846154,51.01178253013089L369.9807692307692,53.72969027640644L372.2230769230769,55.980786651833654L374.46538461538466,54.72314728335192L376.70769230769235,58.795589413778224L378.95,69.82315698302719L381.1923076923077,71.13375989794399L383.43461538461537,72.48995201600678L385.67692307692306,74.33730667466084L387.91923076923075,75.07487132080466L390.16153846153844,77.50733470265455L392.4038461538462,78.68235851356036L394.6461538461539,82.29002753267626L396.88846153846157,84.36217656567453L399.13076923076926,86.19143539078935L401.3730769230769,87.5958919395081L403.6153846153846,89.03144583212543L405.8576923076923,88.69149011078954L408.09999999999997,87.84759012122751L410.3423076923077,89.39741769890952L412.5846153846154,85.44158548572584L414.8269230769231,85.26992330969566L417.0692307692308,84.87290541860973L419.3115384615385,83.14693837425958L421.55384615384617,86.11186296669818L423.79615384615386,86.11990172424707L426.0384615384615,84.72962444144997L428.28076923076924,85.23038268876529L430.5230769230769,85.20563127692466L432.7653846153846,87.98415334086523L435.0076923076923,89.44737882392683L437.25,93.591681108598L439.4923076923077,96.8084086256232L441.7346153846154,101.02000354561848L443.9769230769231,104.98661551839378L446.21923076923076,110.6392927486497L448.4615384615385,114.26764597451373L450.70384615384614,115.90160582673684L452.94615384615383,121.25513657041037L455.1884615384615,124.7569778663612L457.4307692307692,127.49653039958415L459.6730769230769,132.0199453216187L461.9153846153846,135.63610984414382L464.1576923076923,137.6556806606987L466.40000000000003,141.08224874881174L468.6423076923077,144.40152682863234L470.8846153846154,148.01916096684118L473.1269230769231,151.03745104036085L475.36923076923074,154.51271811313956L477.61153846153843,157.8709914791001L479.8538461538461,161.85351301709431L482.0961538461538,164.53318779157593L484.33846153846156,168.9018771443577L486.58076923076925,171.3831435925252L488.82307692307694,161.62529261480353L491.06538461538463,164.242535194648L493.3076923076923,167.11723017197244L495.55,169.01391948172275L497.79230769230765,170.7049456006008L500.03461538461534,173.42840677245064L502.2769230769231,175.89779868325425L504.5192307692308,195.1163126029L506.76153846153846,197.439071196521L509.00384615384615,201.2449090306375L511.24615384615385,203.60929547334777L513.4884615384615,206.8753531490677L515.7307692307692,209.1265183749639L517.9730769230769,212.2597287110627L520.2153846153847,214.90190996875182L522.4576923076924,216.78841146641162L524.7,218.03928018176387L526.9423076923077,219.2250215763233L529.1846153846154,219.88420903225193L531.4269230769231,220.97289922360096L533.6692307692307,221.5721526690175L535.9115384615384,222.95644939315702L538.1538461538462,223.9149825658501L540.3961538461539,225.91956439131812L542.6384615384616,228.71455575178325L544.8807692307693,229.29714075567503L547.123076923077,230.40264173188248L549.3653846153846,230.9831142150279L551.6076923076923,232.07949277383202L553.85,233.10509394370246L556.0923076923077,233.77574307365367L558.3346153846154,234.97146407650425" stroke="#e45756" stroke-width="2" opacity="1"/></g></g><path class="foreground" aria-hidden="true" d="" display="none"/></g><g transform="translate(0,0)"><path class="background" aria-hidden="true" d="M0,0h583v270h-583Z"/><g><g class="mark-line role-mark marks" clip-path="url(#clip62)" role="graphics-object" aria-roledescription="line mark container"><path aria-label="variable: KS; index: 0; value: −0.627452153424" role="graphics-symbol" aria-roledescription="line mark" d="M0,248.82367337478226L2.2423076923076923,248.2250225810187L4.484615384615385,245.7102938177567L6.726923076923077,245.13261900509485L8.96923076923077,244.554944192433L11.211538461538462,242.9500431892633L13.453846153846154,242.8375087462158L15.696153846153846,241.36705371900808L17.93846153846154,241.16069240171274L20.180769230769233,239.81731006168386L22.423076923076923,239.7702495636053L24.665384615384617,239.72318906552667L26.907692307692308,237.29488936442667L29.150000000000002,237.02774881197405L31.392307692307693,235.62548408869264L33.63461538461539,235.55192982975578L35.87692307692308,235.48139141143415L38.11923076923077,235.4062203166301L40.361538461538466,235.33104922182608L42.603846153846156,224.2731345779246L44.84615384615385,224.29660524675938L47.088461538461544,224.5334233470403L49.330769230769235,224.51496223822318L51.573076923076925,225.099662048557L53.815384615384616,225.02236127242912L56.057692307692314,224.9450604963012L58.300000000000004,230.43329786606574L60.542307692307695,229.2654707355417L62.784615384615385,222.20433574957917L65.02692307692308,220.89330526067923L67.26923076923077,217.48168406689746L69.51153846153846,215.24227118767084L71.75384615384615,213.00285830844425L73.99615384615385,219.9228874997995L76.23846153846154,220.62912760399274L78.48076923076923,220.08618014754896L80.72307692307693,221.58337527237376L82.96538461538461,221.29182724479577L85.20769230769231,223.14292715438427L87.45,224.99402706397274L89.6923076923077,229.83157971230824L91.93461538461538,230.09508535764198L94.17692307692309,223.24567140245452L96.41923076923077,223.47571977199775L98.66153846153847,223.13851454865429L100.90384615384615,223.31123303465253L103.14615384615385,223.48395152065078L105.38846153846154,229.33155683355338L107.63076923076923,228.96744367619667L109.87307692307692,224.62131199854636L112.11538461538463,224.84254155311137L114.3576923076923,224.41957661155078L116.60000000000001,224.4928187079095L118.84230769230768,224.56606080426818L121.08461538461539,228.96593113660134L123.32692307692308,230.0026068204186L125.56923076923077,227.69627944259145L127.81153846153846,228.53507952860858L130.05384615384617,224.7540615182781L132.29615384615386,224.65263032792808L134.53846153846155,224.5511991375781L136.78076923076924,230.14246316051958L139.02307692307693,228.5737836664691L141.26538461538462,219.33629274901344L143.5076923076923,217.3437990183245L145.75,213.28421152656853L147.9923076923077,212.19457432401768L150.23461538461538,211.1049371214668L152.47692307692307,219.22453478871134L154.71923076923076,219.14851427672286L156.96153846153845,212.66445230771672L159.20384615384614,213.0693926323237L161.44615384615386,226.33367183453254L163.68846153846155,229.06663995425836L165.93076923076922,231.79960807398422L168.1730769230769,228.6561694480651L170.41538461538462,229.44470578873577L172.65769230769232,220.54392460869735L174.9,221.15276824795083L177.14230769230767,220.461451716005L179.3846153846154,218.54838741057102L181.62692307692308,216.63532310513705L183.86923076923077,221.22374468435217L186.11153846153846,220.5734249122725L188.35384615384618,218.405522049038L190.59615384615384,217.89765307822447L192.83846153846153,211.79577718919577L195.08076923076922,211.03552811532361L197.32307692307694,210.27527904145143L199.56538461538463,214.61961119506265L201.8076923076923,213.83652341439816L204.04999999999998,209.16963239104274L206.2923076923077,208.69282590538785L208.5346153846154,207.46817500081156L210.77692307692308,207.23618023677128L213.01923076923075,207.00418547273094L215.26153846153846,205.4463131833443L217.50384615384615,204.64338177448835L219.74615384615385,207.94214659038946L221.98846153846154,207.53536138433336L224.23076923076925,201.2411736039464L226.47307692307692,199.75300686681615L228.7153846153846,198.2648401296859L230.9576923076923,198.79414076145542L233.20000000000002,198.4095077511525L235.4423076923077,188.4950372910611L237.68461538461537,186.88667853949264L239.92692307692306,190.14358181715036L242.16923076923078,190.03838147039022L244.41153846153847,189.9331811236301L246.65384615384616,196.73506792677924L248.89615384615382,197.01287993880837L251.13846153846154,212.82924685755512L253.38076923076923,214.04058514130244L255.62307692307692,213.74777010962418L257.8653846153846,213.88337771481397L260.10769230769233,214.01898532000382L262.35,195.29157059745333L264.5923076923077,194.06128210575943L266.83461538461535,194.28378809706211L269.0769230769231,191.5449942558583L271.3192307692308,182.44995777229633L273.5615384615385,178.1615543801945L275.80384615384617,173.87315098809265L278.04615384615386,173.94063622896147L280.28846153846155,170.57755553864888L282.53076923076924,157.58196648259508L284.7730769230769,154.72783726275378L287.0153846153846,140.6413929011398L289.2576923076923,137.69333300038727L291.5,134.7452730996348L293.7423076923077,138.8392849032489L295.9846153846154,136.14963905365627L298.2269230769231,118.83749340774249L300.46923076923076,113.08466983589724L302.7115384615385,111.22241145221598L304.95384615384614,105.2046761757002L307.19615384615383,99.18694089918438L309.4384615384615,106.0358816965266L311.6807692307692,104.86304707683652L313.9230769230769,82.30159597557035L316.1653846153846,80.66957649764213L318.4076923076923,75.07314000787771L320.65000000000003,77.51846872575139L322.8923076923077,79.96379744362503L325.1346153846154,76.95066198354948L327.3769230769231,73.88159059976228L329.61923076923074,69.75372586212502L331.86153846153843,69.28386950221626L334.1038461538461,87.56285069170733L336.3461538461538,89.58567757685081L338.58846153846156,91.60850446199434L340.83076923076925,92.44465848566577L343.07307692307694,92.61596181485527L345.31538461538463,69.2565934695812L347.5576923076923,83.9346018646211L349.8,57.96922469677012L352.04230769230765,51.95653528030499L354.28461538461534,45.943845863839826L356.5269230769231,63.34965780929924L358.7692307692308,65.50842429279109L361.01153846153846,48.93001910614437L363.25384615384615,46.85123643379304L365.49615384615385,52.920740862707L367.73846153846154,55.81283528382057L369.9807692307692,58.704929704934045L372.2230769230769,79.93591366159376L374.46538461538466,81.08332394012898L376.70769230769235,70.34431550137424L378.95,74.40694627449045L381.1923076923077,91.79724408873156L383.43461538461537,96.39821254129893L385.67692307692306,100.9991809938663L387.91923076923075,97.01099740926011L390.16153846153844,97.62643228583481L392.4038461538462,91.10360226513477L394.6461538461539,89.29943545877326L396.88846153846157,98.36906432047644L399.13076923076926,96.09337315738367L401.3730769230769,93.8176819942909L403.6153846153846,128.90129219039042L405.8576923076923,131.00805323579308L408.09999999999997,97.29056268232226L410.3423076923077,100.71009927650941L412.5846153846154,86.95374554354866L414.8269230769231,87.93129223528851L417.0692307692308,88.90883892702837L419.3115384615385,95.33955201788191L421.55384615384617,91.69112611223228L423.79615384615386,93.35980537997855L426.0384615384615,91.0036280940709L428.28076923076924,90.04925563044894L430.5230769230769,89.131433428927L432.7653846153846,88.21361122740507L435.0076923076923,90.0321843476855L437.25,91.26563420839264L439.4923076923077,85.29929785323594L441.7346153846154,86.08254066234764L443.9769230769231,89.59824636111846L446.21923076923076,92.7722298952832L448.4615384615385,95.94621342944792L450.70384615384614,114.93057316171696L452.94615384615383,117.38444230310195L455.1884615384615,124.77367018810308L457.4307692307692,128.22511553874094L459.6730769230769,144.81021554373794L461.9153846153846,145.58616141698084L464.1576923076923,146.36210729022372L466.40000000000003,144.4193420085888L468.6423076923077,142.6985180369979L470.8846153846154,141.09178876851257L473.1269230769231,141.92500134523817L475.36923076923074,143.4132547915028L477.61153846153843,145.94344605850787L479.8538461538461,148.47363732551298L482.0961538461538,161.05623049312834L484.33846153846156,165.75192343318238L486.58076923076925,163.89955530101548L488.82307692307694,166.07172290567246L491.06538461538463,149.31890030305473L493.3076923076923,149.90661568178174L495.55,150.4943310605088L497.79230769230765,149.9709367999193L500.03461538461534,150.87517788138993L502.2769230769231,149.71363922105905L504.5192307692308,151.41859554145026L506.76153846153846,175.08406680475713L509.00384615384615,177.73903547188917L511.24615384615385,180.3940041390212L513.4884615384615,190.26983835730198L515.7307692307692,191.21598649154274L517.9730769230769,193.96255511341877L520.2153846153847,195.503426057682L522.4576923076924,189.91189509173884L524.7,190.5012522405241L526.9423076923077,191.09060938930938L529.1846153846154,199.03989665435486L531.4269230769231,199.798381603889L533.6692307692307,205.7946981281963L535.9115384615384,206.92148680031636L538.1538461538462,216.96096779985226L540.3961538461539,218.42612995500025L542.6384615384616,219.89129211014824L544.8807692307693,227.96233926842604L547.123076923077,229.74433577994415L549.3653846153846,229.9631341924544L551.6076923076923,231.57165039077438L553.85,236.1287451797382L556.0923076923077,237.25629260808773L558.3346153846154,238.38384003643728" stroke="#72b7b2" stroke-width="2" opacity="1"/></g></g><path class="foreground" aria-hidden="true" d="" display="none"/></g><g transform="translate(0,0)"><path class="background" aria-hidden="true" d="M0,0h583v270h-583Z"/><g><g class="mark-line role-mark marks" clip-path="url(#clip63)" role="graphics-object" aria-roledescription="line mark container"><path aria-label="variable: MI; index: 0; value: −0.764698002854" role="graphics-symbol" aria-roledescription="line mark" d="M0,265.66748216840705L2.2423076923076923,264.32273370310793L4.484615384615385,263.77137808847556L6.726923076923077,264.2923870586136L8.96923076923077,264.12512889958106L11.211538461538462,265.2698423691628L13.453846153846154,264.9085971264481L15.696153846153846,263.77274335324614L17.93846153846154,263.6719900983156L20.180769230769233,262.50817929801457L22.423076923076923,260.4868846855103L24.665384615384617,260.01993356391927L26.907692307692308,258.48102611614576L29.150000000000002,259.4150418240621L31.392307692307693,258.94389607189356L33.63461538461539,255.86713094199334L35.87692307692308,255.26332053559005L38.11923076923077,255.52711291526285L40.361538461538466,254.60945244423482L42.603846153846156,253.1800169952508L44.84615384615385,252.14167718869732L47.088461538461544,251.3672018575227L49.330769230769235,251.93929300796793L51.573076923076925,251.41625637063555L53.815384615384616,252.09964681738396L56.057692307692314,251.70532802806105L58.300000000000004,252.93041038664785L60.542307692307695,252.31070668280222L62.784615384615385,252.25161093083085L65.02692307692308,247.57541038223297L67.26923076923077,247.06675135356724L69.51153846153846,246.26987232544496L71.75384615384615,246.17758595605065L73.99615384615385,246.3512695209593L76.23846153846154,246.51959002710177L78.48076923076923,245.4205926953349L80.72307692307693,244.75463966930076L82.96538461538461,243.74211806809194L85.20769230769231,244.0526695919247L87.45,243.7009119546954L89.6923076923077,247.0801287150236L91.93461538461538,246.63439558030785L94.17692307692309,246.84261514892418L96.41923076923077,247.25692007942985L98.66153846153847,247.46860711023456L100.90384615384615,245.4787586291598L103.14615384615385,244.80326085651188L105.38846153846154,246.1910719450075L107.63076923076923,245.5787722010436L109.87307692307692,244.9467400067327L112.11538461538463,244.71353046823182L114.3576923076923,245.5365416475305L116.60000000000001,245.16561186683728L118.84230769230768,245.41662560720096L121.08461538461539,243.9707568363002L123.32692307692308,243.42746461325825L125.56923076923077,243.50584860611934L127.81153846153846,243.20949526482107L130.05384615384617,242.37811448267857L132.29615384615386,244.0635418591888L134.53846153846155,241.27153450603726L136.78076923076924,243.09441100858254L139.02307692307693,243.2906967122207L141.26538461538462,242.5416091401859L143.5076923076923,242.70547482164434L145.75,242.32053529293876L147.9923076923077,240.89284580284075L150.23461538461538,243.28672183107597L152.47692307692307,242.84566910802255L154.71923076923076,243.37081252813L156.96153846153845,239.39755149020894L159.20384615384614,237.7572148312812L161.44615384615386,237.04024375573644L163.68846153846155,236.58116470658203L165.93076923076922,236.27227209288793L168.1730769230769,237.00967082860765L170.41538461538462,236.09065544484204L172.65769230769232,240.13875433726653L174.9,239.86332348369126L177.14230769230767,240.80385006171224L179.3846153846154,241.0894462718891L181.62692307692308,241.7227843579301L183.86923076923077,241.97522060923637L186.11153846153846,241.94340932033663L188.35384615384618,241.6929764023849L190.59615384615384,242.4539930668356L192.83846153846153,241.45128829426505L195.08076923076922,240.84046042666176L197.32307692307694,240.54926381350333L199.56538461538463,240.4544852195446L201.8076923076923,239.66893264030486L204.04999999999998,239.30980135725144L206.2923076923077,236.11846467164307L208.5346153846154,235.41166935760904L210.77692307692308,234.82375354915942L213.01923076923075,234.31357671468876L215.26153846153846,232.92292323140558L217.50384615384615,232.20345672968338L219.74615384615385,228.41088872179958L221.98846153846154,225.86032298436584L224.23076923076925,225.02609686587058L226.47307692307692,223.83974669161722L228.7153846153846,223.26800338337688L230.9576923076923,221.7734000147192L233.20000000000002,220.2753398702589L235.4423076923077,218.67003193375666L237.68461538461537,214.69112031146474L239.92692307692306,212.65472687415493L242.16923076923078,212.66039272459523L244.41153846153847,211.47980483804244L246.65384615384616,206.0000633057608L248.89615384615382,205.209280925793L251.13846153846154,202.64863564155428L253.38076923076923,200.60055139641662L255.62307692307692,199.61333327854618L257.8653846153846,196.25176674771566L260.10769230769233,195.74055622256597L262.35,191.60098121679684L264.5923076923077,189.30055027063958L266.83461538461535,187.5425387763052L269.0769230769231,185.5007290254258L271.3192307692308,176.6193318759262L273.5615384615385,173.7473771676678L275.80384615384617,171.09378086207863L278.04615384615386,165.6843048300166L280.28846153846155,160.39700261127166L282.53076923076924,155.8888925365936L284.7730769230769,149.86840430126517L287.0153846153846,143.52215253949552L289.2576923076923,138.04830664729528L291.5,135.0414138245803L293.7423076923077,122.87748769276448L295.9846153846154,111.75841550181539L298.2269230769231,104.59609829881477L300.46923076923076,100.70050728524373L302.7115384615385,89.25600486343166L304.95384615384614,84.7722167106637L307.19615384615383,80.90912885278885L309.4384615384615,70.31242616796355L311.6807692307692,65.0727498486304L313.9230769230769,58.3395881528147L316.1653846153846,46.16190405989897L318.4076923076923,48.50056294384645L320.65000000000003,44.77143142736869L322.8923076923077,43.356392586863336L325.1346153846154,38.2007853685063L327.3769230769231,34.008066727518L329.61923076923074,35.0136687083589L331.86153846153843,44.49607836655155L334.1038461538461,36.60973690005428L336.3461538461538,34.80271772176697L338.58846153846156,33.755241289450396L340.83076923076925,29.164492116395326L343.07307692307694,23.058203388609552L345.31538461538463,22.343434547526332L347.5576923076923,7.466364586382315L349.8,10.991493041975719L352.04230769230765,4.90526971291671L354.28461538461534,4.5976919807453145L356.5269230769231,5.153960534893269L358.7692307692308,5.08630430155511L361.01153846153846,7.303505722307103L363.25384615384615,9.191725554430137L365.49615384615385,12.725705749131626L367.73846153846154,13.360646010865317L369.9807692307692,15.435923123757023L372.2230769230769,18.60784528455275L374.46538461538466,24.04333917616759L376.70769230769235,25.593562624529984L378.95,30.186118250548187L381.1923076923077,34.13968712847298L383.43461538461537,38.332969846310206L385.67692307692306,40.87149130845963L387.91923076923075,48.147471874136386L390.16153846153844,50.31793531646272L392.4038461538462,52.90526017680832L394.6461538461539,67.5511885206641L396.88846153846157,72.92141463013982L399.13076923076926,70.14006016784916L401.3730769230769,71.54856774102059L403.6153846153846,79.86975510580268L405.8576923076923,80.2390226135889L408.09999999999997,84.16753349952255L410.3423076923077,85.23455365754572L412.5846153846154,86.14268151664437L414.8269230769231,79.38840235783542L417.0692307692308,73.37167106409413L419.3115384615385,76.89484320334073L421.55384615384617,76.3944934169362L423.79615384615386,77.03944961441621L426.0384615384615,64.74049325962064L428.28076923076924,61.288441903041104L430.5230769230769,73.28901246959803L432.7653846153846,81.58348905305695L435.0076923076923,87.99412073025911L437.25,93.5763234436442L439.4923076923077,98.920910675649L441.7346153846154,103.61960859842343L443.9769230769231,106.22478760746571L446.21923076923076,113.55638256808547L448.4615384615385,113.75237605129765L450.70384615384614,119.02020142382561L452.94615384615383,129.1355495855185L455.1884615384615,131.8718161780044L457.4307692307692,135.12325494317597L459.6730769230769,137.25708110466326L461.9153846153846,132.30829847107478L464.1576923076923,134.06212566549058L466.40000000000003,134.5730469221924L468.6423076923077,134.92976921697996L470.8846153846154,138.91194775123697L473.1269230769231,146.19229269339286L475.36923076923074,148.15585057418315L477.61153846153843,156.71212840983065L479.8538461538461,157.99565772346185L482.0961538461538,163.03966117292444L484.33846153846156,164.8666801876783L486.58076923076925,165.8505280584143L488.82307692307694,167.06682470672965L491.06538461538463,167.7339975353169L493.3076923076923,169.22152151055369L495.55,169.9344932080512L497.79230769230765,171.3176229416644L500.03461538461534,172.64464037270758L502.2769230769231,174.9500590842946L504.5192307692308,178.96034020001667L506.76153846153846,178.98574473001818L509.00384615384615,180.97838878968594L511.24615384615385,182.1421659915329L513.4884615384615,185.9193225647786L515.7307692307692,190.9056611553839L517.9730769230769,192.0709088541699L520.2153846153847,193.2290799076486L522.4576923076924,192.86965291395927L524.7,194.84185520584901L526.9423076923077,195.26122621575306L529.1846153846154,195.16250097786155L531.4269230769231,195.21311912566526L533.6692307692307,195.81533395708976L535.9115384615384,199.77383588213968L538.1538461538462,200.4833386384587L540.3961538461539,200.23012932327822L542.6384615384616,200.06335164275174L544.8807692307693,196.71979308660326L547.123076923077,197.12609644739604L549.3653846153846,196.53994500487872L551.6076923076923,196.8694300987366L553.85,196.08282196374574L556.0923076923077,196.3560317843311L558.3346153846154,195.80176670616942" stroke="#54a24b" stroke-width="2" opacity="1"/></g></g><path class="foreground" aria-hidden="true" d="" display="none"/></g></g><g class="mark-group role-legend" role="graphics-symbol" aria-roledescription="legend" aria-label="Symbol legend for stroke color with 5 values: CO, IL, IN, KS, MI"><g transform="translate(601,0)"><path class="background" aria-hidden="true" d="M0,0h30v63h-30Z" pointer-events="none"/><g><g class="mark-group role-legend-entry"><g transform="translate(0,0)"><path class="background" aria-hidden="true" d="M0,0h0v0h0Z" pointer-events="none"/><g><g class="mark-group role-scope" role="graphics-object" aria-roledescription="group mark container"><g transform="translate(0,0)"><path class="background" aria-hidden="true" d="M0,0h29.8916015625v11h-29.8916015625Z" pointer-events="none" opacity="1"/><g><g class="mark-symbol role-legend-symbol" pointer-events="none"><path transform="translate(6,6)" d="M-5,0L5,0" stroke="#4c78a8" stroke-width="1.5" opacity="1"/></g><g class="mark-text role-legend-label" pointer-events="none"><text text-anchor="start" transform="translate(16,9)" font-family="IBM Plex Serif, serif" font-size="10px" fill="#262730" opacity="1">CO</text></g></g><path class="foreground" aria-hidden="true" d="" pointer-events="none" display="none"/></g><g transform="translate(0,13)"><path class="background" aria-hidden="true" d="M0,0h29.8916015625v11h-29.8916015625Z" pointer-events="none" opacity="1"/><g><g class="mark-symbol role-legend-symbol" pointer-events="none"><path transform="translate(6,6)" d="M-5,0L5,0" stroke="#f58518" stroke-width="1.5" opacity="1"/></g><g class="mark-text role-legend-label" pointer-events="none"><text text-anchor="start" transform="translate(16,9)" font-family="IBM Plex Serif, serif" font-size="10px" fill="#262730" opacity="1">IL</text></g></g><path class="foreground" aria-hidden="true" d="" pointer-events="none" display="none"/></g><g transform="translate(0,26)"><path class="background" aria-hidden="true" d="M0,0h29.8916015625v11h-29.8916015625Z" pointer-events="none" opacity="1"/><g><g class="mark-symbol role-legend-symbol" pointer-events="none"><path transform="translate(6,6)" d="M-5,0L5,0" stroke="#e45756" stroke-width="1.5" opacity="1"/></g><g class="mark-text role-legend-label" pointer-events="none"><text text-anchor="start" transform="translate(16,9)" font-family="IBM Plex Serif, serif" font-size="10px" fill="#262730" opacity="1">IN</text></g></g><path class="foreground" aria-hidden="true" d="" pointer-events="none" display="none"/></g><g transform="translate(0,39)"><path class="background" aria-hidden="true" d="M0,0h29.8916015625v11h-29.8916015625Z" pointer-events="none" opacity="1"/><g><g class="mark-symbol role-legend-symbol" pointer-events="none"><path transform="translate(6,6)" d="M-5,0L5,0" stroke="#72b7b2" stroke-width="1.5" opacity="1"/></g><g class="mark-text role-legend-label" pointer-events="none"><text text-anchor="start" transform="translate(16,9)" font-family="IBM Plex Serif, serif" font-size="10px" fill="#262730" opacity="1">KS</text></g></g><path class="foreground" aria-hidden="true" d="" pointer-events="none" display="none"/></g><g transform="translate(0,52)"><path class="background" aria-hidden="true" d="M0,0h29.8916015625v11h-29.8916015625Z" pointer-events="none" opacity="1"/><g><g class="mark-symbol role-legend-symbol" pointer-events="none"><path transform="translate(6,6)" d="M-5,0L5,0" stroke="#54a24b" stroke-width="1.5" opacity="1"/></g><g class="mark-text role-legend-label" pointer-events="none"><text text-anchor="start" transform="translate(16,9)" font-family="IBM Plex Serif, serif" font-size="10px" fill="#262730" opacity="1">MI</text></g></g><path class="foreground" aria-hidden="true" d="" pointer-events="none" display="none"/></g></g></g><path class="foreground" aria-hidden="true" d="" pointer-events="none" display="none"/></g></g></g><path class="foreground" aria-hidden="true" d="" pointer-events="none" display="none"/></g></g></g><path class="foreground" aria-hidden="true" d="" display="none"/></g></g></g><defs><clipPath id="clip59"><rect x="0" y="0" width="583" height="270"/></clipPath><clipPath id="clip60"><rect x="0" y="0" width="583" height="270"/></clipPath><clipPath id="clip61"><rect x="0" y="0" width="583" height="270"/></clipPath><clipPath id="clip62"><rect x="0" y="0" width="583" height="270"/></clipPath><clipPath id="clip63"><rect x="0" y="0" width="583" height="270"/></clipPath></defs></svg>