<svg xmlns="http://www.w3.org/2000/svg" xmlns:xlink="http://www.w3.org/1999/xlink" version="1.1" class="marks" width="660" height="300" viewBox="0 0 660 300"><rect width="660" height="300" fill="#ffffff"/><g fill="none" stroke-miterlimit="10" transform="translate(28,0)"><g class="mark-group role-frame root" role="graphics-object" aria-roledescription="group mark container"><g transform="translate(0,0)"><path class="background" aria-hidden="true" d="M0.5,0.5h580v275h-580Z" stroke="#ddd"/><g><g class="mark-group role-axis" aria-hidden="true"><g transform="translate(0.5,275.5)"><path class="background" aria-hidden="true" d="M0,0h0v0h0Z" pointer-events="none"/><g><g class="mark-rule role-axis-grid" pointer-events="none"><line transform="translate(0,-275)" x2="0" y2="275" stroke="rgba(38, 39, 48, 0.2)" stroke-width="1" opacity="1"/><line transform="translate(45,-275)" x2="0" y2="275" stroke="rgba(38, 39, 48, 0.2)" stroke-width="1" opacity="1"/><line transform="translate(89,-275)" x2="0" y2="275" stroke="rgba(38, 39, 48, 0.2)" stroke-width="1" opacity="1"/><line transform="translate(134,-275)" x2="0" y2="275" stroke="rgba(38, 39, 48, 0.2)" stroke-width="1" opacity="1"/><line transform="translate(178,-275)" x2="0" y2="275" stroke="rgba(38, 39, 48, 0.2)" stroke-width="1" opacity="1"/><line transform="translate(223,-275)" x2="0" y2="275" stroke="rgba(38, 39, 48, 0.2)" stroke-width="1" opacity="1"/><line transform="translate(268,-275)" x2="0" y2="275" stroke="rgba(38, 39, 48, 0.2)" stroke-width="1" opacity="1"/><line transform="translate(312,-275)" x2="0" y2="275" stroke="rgba(38, 39, 48, 0.2)" stroke-width="1" opacity="1"/><line transform="translate(357,-275)" x2="0" y2="275" stroke="rgba(38, 39, 48, 0.2)" stroke-width="1" opacity="1"/><line transform="translate(402,-275)" x2="0" y2="275" stroke="rgba(38, 39, 48, 0.2)" stroke-width="1" opacity="1"/><line transform="translate(446,-275)" x2="0" y2="275" stroke="rgba(38, 39, 48, 0.2)" stroke-width="1" opacity="1"/><line transform="translate(491,-275)" x2="0" y2="275" stroke="rgba(38, 39, 48, 0.2)" stroke-width="1" opacity="1"/><line transform="translate(535,-275)" x2="0" y2="275" stroke="rgba(38, 39, 48, 0.2)" stroke-width="1" opacity="1"/><line transform="translate(580,-275)" x2="0" y2="275" stroke="rgba(38, 39, 48, 0.2)" stroke-width="1" opacity="1"/></g></g><path class="foreground" aria-hidden="true" d="" pointer-events="none" display="none"/></g></g><g class="mark-group role-axis" aria-hidden="true"><g transform="translate(0.5,0.5)"><path class="background" aria-hidden="true" d="M0,0h0v0h0Z" pointer-events="none"/><g><g class="mark-rule role-axis-grid" pointer-events="none"><line transform="translate(0,275)" x2="580" y2="0" stroke="rgba(38, 39, 48, 0.2)" stroke-width="1" opacity="1"/><line transform="translate(0,218)" x2="580" y2="0" stroke="rgba(38, 39, 48, 0.2)" stroke-width="1" opacity="1"/><line transform="translate(0,160)" x2="580" y2="0" stroke="rgba(38, 39, 48, 0.2)" stroke-width="1" opacity="1"/><line transform="translate(0,103)" x2="580" y2="0" stroke="rgba(38, 39, 48, 0.2)" stroke-width="1" opacity="1"/><line transform="translate(0,46)" x2="580" y2="0" stroke="rgba(38, 39, 48, 0.2)" stroke-width="1" opacity="1"/></g></g><path class="foreground" aria-hidden="true" d="" pointer-events="none" display="none"/></g></g><g class="mark-group role-axis" role="graphics-symbol" aria-roledescription="axis" aria-label="X-axis for a linear scale with values from 0 to 260"><g transform="translate(0.5,275.5)"><path class="background" aria-hidden="true" d="M0,0h0v0h0Z" pointer-events="none"/><g><g class="mark-rule role-axis-tick" pointer-events="none"><line transform="translate(0,0)" x2="0" y2="5" stroke="#888" stroke-width="1" opacity="1"/><line transform="translate(45,0)" x2="0" y2="5" stroke="#888" stroke-width="1" opacity="1"/><line transform="translate(89,0)" x2="0" y2="5" stroke="#888" stroke-width="1" opacity="1"/><line transform="translate(134,0)" x2="0" y2="5" stroke="#888" stroke-width="1" opacity="1"/><line transform="translate(178,0)" x2="0" y2="5" stroke="#888" stroke-width="1" opacity="1"/><line transform="translate(223,0)" x2="0" y2="5" stroke="#888" stroke-width="1" opacity="1"/><line transform="translate(268,0)" x2="0" y2="5" stroke="#888" stroke-width="1" opacity="1"/><line transform="translate(312,0)" x2="0" y2="5" stroke="#888" stroke-width="1" opacity="1"/><line transform="translate(357,0)" x2="0" y2="5" stroke="#888" stroke-width="1" opacity="1"/><line transform="translate(402,0)" x2="0" y2="5" stroke="#888" stroke-width="1" opacity="1"/><line transform="translate(446,0)" x2="0" y2="5" stroke="#888" stroke-width="1" opacity="1"/><line transform="translate(491,0)" x2="0" y2="5" stroke="#888" stroke-width="1" opacity="1"/><line transform="translate(535,0)" x2="0" y2="5" stroke="#888" stroke-width="1" opacity="1"/><line transform="translate(580,0)" x2="0" y2="5" stroke="#888" stroke-width="1" opacity="1"/></g><g class="mark-text role-axis-label" pointer-events="none"><text text-anchor="start" transform="translate(0,15)" font-family="IBM Plex Serif, serif" font-size="10px" fill="#262730" opacity="1">0</text><text text-anchor="middle" transform="translate(44.61538461538462,15)" font-family="IBM Plex Serif, serif" font-size="10px" fill="#262730" opacity="1">20</text><text text-anchor="middle" transform="translate(89.23076923076924,15)" font-family="IBM Plex Serif, serif" font-size="10px" fill="#262730" opacity="1">40</text><text text-anchor="middle" transform="translate(133.84615384615384,15)" font-family="IBM Plex Serif, serif" font-size="10px" fill="#262730" opacity="1">60</text><text text-anchor="middle" transform="translate(178.46153846153848,15)" font-family="IBM Plex Serif, serif" font-size="10px" fill="#262730" opacity="1">80</text><text text-anchor="middle" transform="translate(223.0769230769231,15)" font-family="IBM Plex Serif, serif" font-size="10px" fill="#262730" opacity="1">100</text><text text-anchor="middle" transform="translate(267.6923076923077,15)" font-family="IBM Plex Serif, serif" font-size="10px" fill="#262730" opacity="1">120</text><text text-anchor="middle" transform="translate(312.3076923076923,15)" font-family="IBM Plex Serif, serif" font-size="10px" fill="#262730" opacity="1">140</text><text text-anchor="middle" transform="translate(356.92307692307696,15)" font-family="IBM Plex Serif, serif" font-size="10px" fill="#262730" opacity="1">160</text><text text-anchor="middle" transform="translate(401.53846153846155,15)" font-family="IBM Plex Serif, serif" font-size="10px" fill="#262730" opacity="1">180</text><text text-anchor="middle" transform="translate(446.1538461538462,15)" font-family="IBM Plex Serif, serif" font-size="10px" fill="#262730" opacity="1">200</text><text text-anchor="middle" transform="translate(490.7692307692308,15)" font-family="IBM Plex Serif, serif" font-size="10px" fill="#262730" opacity="1">220</text><text text-anchor="middle" transform="translate(535.3846153846154,15)" font-family="IBM Plex Serif, serif" font-size="10px" fill="#262730" opacity="1">240</text><text text-anchor="end" transform="translate(580,15)" font-family="IBM Plex Serif, serif" font-size="10px" fill="#262730" opacity="1">260</text></g><g class="mark-rule role-axis-domain" pointer-events="none"><line transform="translate(0,0)" x2="580" y2="0" stroke="#888" stroke-width="1" opacity="1"/></g></g><path class="foreground" aria-hidden="true" d="" pointer-events="none" display="none"/></g></g><g class="mark-group role-axis" role="graphics-symbol" aria-roledescription="axis" aria-label="Y-axis for a linear scale with values from −1.0 to 1.4"><g transform="translate(0.5,0.5)"><path class="background" aria-hidden="true" d="M0,0h0v0h0Z" pointer-events="none"/><g><g class="mark-rule role-axis-tick" pointer-events="none"><line transform="translate(0,275)" x2="-5" y2="0" stroke="#888" stroke-width="1" opacity="1"/><line transform="translate(0,218)" x2="-5" y2="0" stroke="#888" stroke-width="1" opacity="1"/><line transform="translate(0,160)" x2="-5" y2="0" stroke="#888" stroke-width="1" opacity="1"/><line transform="translate(0,103)" x2="-5" y2="0" stroke="#888" stroke-width="1" opacity="1"/><line transform="translate(0,46)" x2="-5" y2="0" stroke="#888" stroke-width="1" opacity="1"/></g><g class="mark-text role-axis-label" pointer-events="none"><text text-anchor="end" transform="translate(-7,278)" font-family="IBM Plex Serif, serif" font-size="10px" fill="#262730" opacity="1">−1.0</text><text text-anchor="end" transform="translate(-7,220.70833333333331)" font-family="IBM Plex Serif, serif" font-size="10px" fill="#262730" opacity="1">−0.5</text><text text-anchor="end" transform="translate(-7,163.41666666666666)" font-family="IBM Plex Serif, serif" font-size="10px" fill="#262730" opacity="1">0.0</text><text text-anchor="end" transform="translate(-7,106.125)" font-family="IBM Plex Serif, serif" font-size="10px" fill="#262730" opacity="1">0.5</text><text text-anchor="end" transform="translate(-7,48.83333333333332)" font-family="IBM Plex Serif, serif" font-size="10px" fill="#262730" opacity="1">1.0</text></g><g class="mark-rule role-axis-domain" pointer-events="none"><line transform="translate(0,275)" x2="0" y2="-275" stroke="#888" stroke-width="1" opacity="1"/></g></g><path class="foreground" aria-hidden="true" d="" pointer-events="none" display="none"/></g></g><g class="mark-group role-scope pathgroup" role="graphics-object" aria-roledescription="group mark container"><g transform="translate(0,0)"><path class="background" aria-hidden="true" d="M0,0h580v275h-580Z"/><g><g class="mark-line role-mark marks" clip-path="url(#clip64)" role="graphics-object" aria-roledescription="line mark container"><path aria-label="variable: AR; index: 0; value: −0.621672642472" role="graphics-symbol" aria-roledescription="line mark" d="M0,231.64999028329365L2.230769230769231,234.35324900949573L4.461538461538462,235.47950287836576L6.6923076923076925,236.62424889401544L8.923076923076923,237.5696665975343L11.153846153846155,238.99691901234578L13.384615384615385,239.42665742190792L15.615384615384617,236.20980918579934L17.846153846153847,237.09157960116664L20.076923076923077,236.010638372649L22.30769230769231,234.4974656517918L24.53846153846154,234.0711056851945L26.76923076923077,233.8064760973727L29,231.56331853870972L31.230769230769234,230.23071799204791L33.46153846153846,229.1611298156425L35.69230769230769,227.11668800110678L37.92307692307693,226.6750828072799L40.15384615384615,227.77609150857086L42.38461538461539,231.37053682051356L44.61538461538462,229.41548296342037L46.84615384615385,229.92178994813733L49.07692307692308,231.55855062521604L51.307692307692314,232.5827995536186L53.53846153846154,232.34296805844428L55.769230769230774,233.38230378486784L58,232.65740686480066L60.23076923076923,229.9070837896447L62.46153846153847,230.26964535867205L64.6923076923077,230.40956716081158L66.92307692307692,228.81659950005056L69.15384615384616,228.1533796954594L71.38461538461539,228.62979743261886L73.61538461538461,226.81331563716924L75.84615384615385,225.86108701850242L78.07692307692308,222.50007315015154L80.3076923076923,221.31385841058093L82.53846153846153,222.8117274444592L84.76923076923077,222.74629541476088L87,219.2441198070029L89.23076923076924,219.08011992362893L91.46153846153845,218.4097001644717L93.6923076923077,221.74826381513122L95.92307692307692,221.22305571155906L98.15384615384616,221.85529738196246L100.38461538461539,219.65371333923366L102.61538461538463,225.0634035043451L104.84615384615384,227.9941035306484L107.07692307692308,228.45633604228235L109.3076923076923,229.03734141223978L111.53846153846155,230.64719801397516L113.76923076923077,229.36182009089504L116,230.09395374456918L118.23076923076923,226.97463838969807L120.46153846153847,225.63715167444082L122.6923076923077,223.86909620194555L124.92307692307693,220.82370210515157L127.15384615384615,220.47284434653466L129.3846153846154,219.55687744954076L131.6153846153846,218.4159018227503L133.84615384615384,218.14185562897813L136.07692307692307,217.06080557413338L138.30769230769232,216.23530779003684L140.53846153846155,214.1139613759813L142.76923076923077,212.74995625414428L145,213.54647825602854L147.23076923076923,214.29963861749135L149.46153846153845,213.6501004862987L151.6923076923077,212.88744681025142L153.92307692307693,212.65988446629473L156.15384615384616,212.84799090063345L158.38461538461536,214.1836073925999L160.6153846153846,214.92115963465992L162.84615384615384,213.7002533889072L165.07692307692307,215.04231015354256L167.3076923076923,213.04148529342356L169.53846153846155,212.08196317889673L171.76923076923077,186.7532007695326L174,183.85980904636762L176.23076923076923,188.06908147004057L178.46153846153848,190.15361622611448L180.6923076923077,186.78864063836696L182.9230769230769,181.91835683028853L185.15384615384613,176.19107955581606L187.3846153846154,188.94815493073162L189.6153846153846,188.62353837775916L191.84615384615384,183.8871551387758L194.07692307692307,184.16491543696017L196.30769230769232,181.26463179373314L198.53846153846155,176.86001434975026L200.76923076923077,179.34080435357984L203,182.75582367580787L205.23076923076925,182.76428428127437L207.46153846153845,186.90871146924212L209.69230769230768,187.5646591965228L211.9230769230769,187.4136859939056L214.15384615384616,184.64742641901518L216.3846153846154,185.91532220760826L218.6153846153846,182.1070082157565L220.84615384615384,179.74660054006506L223.0769230769231,178.9151490308427L225.30769230769232,173.84358993848272L227.53846153846155,171.349771877702L229.76923076923075,166.55336522006945L232,164.21648964480514L234.23076923076923,165.2292736322417L236.46153846153845,167.28087525389975L238.69230769230768,164.3198916962507L240.92307692307693,166.71703662148644L243.15384615384616,164.5553148380207L245.3846153846154,163.5569760618903L247.6153846153846,162.35962783673705L249.84615384615387,164.68503276854446L252.0769230769231,164.4650101243307L254.3076923076923,165.52660449985322L256.53846153846155,164.7911671798681L258.7692307692308,164.11146880525882L261,159.7441550295788L263.2307692307692,162.2664637856622L265.46153846153845,163.0115076316146L267.6923076923077,162.93735904395388L269.9230769230769,162.18586026165738L272.15384615384613,162.09585898046234L274.38461538461536,163.3351807416176L276.61538461538464,152.3821162084289L278.84615384615387,153.72348062362266L281.0769230769231,155.53332016359283L283.3076923076923,156.6920264147198L285.53846153846155,155.79044058239967L287.7692307692308,157.46773330583724L290,155.5426835669691L292.2307692307692,146.42741009104157L294.46153846153845,142.74427902521404L296.6923076923077,143.50309088872837L298.9230769230769,143.13733839517573L301.1538461538462,144.52691744972748L303.3846153846154,143.7540720793935L305.61538461538464,135.25223819780228L307.84615384615387,125.76841640428117L310.0769230769231,123.34905861255993L312.3076923076923,122.23439219959107L314.5384615384615,118.97965286939323L316.7692307692307,115.6922241504018L319,115.05806552736895L321.2307692307692,112.35570967780708L323.46153846153845,109.64801392647962L325.6923076923077,109.5870725353355L327.9230769230769,107.60064849151397L330.15384615384613,107.93430831719647L332.38461538461536,110.46357065317008L334.6153846153846,111.91493860096878L336.84615384615387,112.90248178474411L339.0769230769231,107.84174944292133L341.3076923076923,109.06745098227563L343.53846153846155,111.72533379863651L345.7692307692308,112.30966708432324L348,108.99481413729697L350.2307692307692,108.29303139770325L352.46153846153845,101.77081550028869L354.69230769230774,96.426330990655L356.92307692307696,90.903311278176L359.1538461538462,92.7760585167284L361.3846153846154,94.02530959449466L363.6153846153846,91.73554149408757L365.8461538461538,91.69565363614869L368.07692307692304,93.01772275863502L370.30769230769226,92.74348860937774L372.53846153846155,92.10167266218451L374.7692307692308,85.30578460378369L377,88.78661946478805L379.2307692307692,92.16345631580207L381.46153846153845,94.06963057873541L383.6923076923077,91.4215237757832L385.9230769230769,87.70326676218347L388.15384615384613,83.79984531815305L390.3846153846154,87.57214816915635L392.61538461538464,84.89069488629215L394.84615384615387,83.81508725463274L397.0769230769231,88.94529404576599L399.3076923076923,88.2252421569584L401.53846153846155,83.77392784898973L403.7692307692308,79.4957930413068L406,78.7702848487562L408.2307692307693,74.04928175209521L410.4615384615385,72.02060515723547L412.6923076923077,68.89846626205123L414.9230769230769,66.2297193163628L417.15384615384613,62.26467661735331L419.38461538461536,60.86367385573134L421.6153846153846,55.242615093346274L423.8461538461538,54.98208345810292L426.0769230769231,50.34728578414786L428.3076923076923,48.91171959697419L430.53846153846155,45.189271981784316L432.7692307692308,42.478553472669574L435,45.052468491926824L437.2307692307692,49.79203819606677L439.46153846153845,52.138578824045176L441.6923076923077,53.97991359679977L443.9230769230769,60.764230363605044L446.1538461538462,62.53941135776749L448.3846153846154,66.2085356749144L450.61538461538464,69.8721081183087L452.84615384615387,73.7086770004115L455.0769230769231,75.97637198122015L457.3076923076923,77.54656168641993L459.5384615384615,83.22083381149395L461.7692307692307,84.45577634436437L464,86.71836758324334L466.2307692307692,86.44632796862462L468.46153846153845,92.5805609504604L470.6923076923077,98.49028696995627L472.9230769230769,102.92358930157789L475.15384615384613,109.82305086768864L477.38461538461536,114.71211216293916L479.6153846153846,117.6054662095055L481.84615384615387,122.64162290753707L484.0769230769231,116.79975761324752L486.3076923076923,120.76942830211891L488.53846153846155,126.463810263613L490.7692307692308,133.36436522765013L493,134.82508494530623L495.2307692307692,135.16704207632364L497.46153846153845,136.11905894651855L499.69230769230774,137.12668472301766L501.92307692307696,142.8607118022478L504.1538461538462,146.00333727417137L506.3846153846154,143.86482683488842L508.6153846153846,145.341271948632L510.8461538461538,150.06084425777195L513.0769230769231,152.9155769377674L515.3076923076923,154.23018362218255L517.5384615384615,158.35592963779604L519.7692307692308,159.58582635087095L522,165.20998874882096L524.2307692307693,166.36855862796665L526.4615384615385,165.37575592703666L528.6923076923077,168.7131998546223L530.9230769230769,170.34413914609257L533.1538461538461,171.0973609494017L535.3846153846154,176.45978179928647L537.6153846153846,180.76504048476798L539.8461538461538,202.75939594881078L542.0769230769231,207.50515326109576L544.3076923076923,214.287209788169L546.5384615384615,216.5447603891986L548.7692307692307,218.71763080383784L551,223.51374467988504L553.2307692307693,226.02708587435166L555.4615384615385,210.5600241216364" stroke="#4c78a8" stroke-width="2" opacity="1"/></g></g><path class="foreground" aria-hidden="true" d="" display="none"/></g><g transform="translate(0,0)"><path class="background" aria-hidden="true" d="M0,0h580v275h-580Z"/><g><g class="mark-line role-mark marks" clip-path="url(#clip65)" role="graphics-object" aria-roledescription="line mark container"><path aria-label="variable: OK; index: 0; value: −0.918545665329" role="graphics-symbol" aria-roledescription="line mark" d="M0,265.6666908189761L2.230769230769231,264.309618675574L4.461538461538462,263.06239873977967L6.6923076923076925,261.28959858109243L8.923076923076923,259.4013160090707L11.153846153846155,256.77635780242736L13.384615384615385,251.18621321249623L15.615384615384617,244.61951363853052L17.846153846153847,241.57931987843398L20.076923076923077,238.22075903003315L22.30769230769231,240.39991040344333L24.53846153846154,238.87250818998993L26.76923076923077,237.52314566762325L29,228.52790282951315L31.230769230769234,226.25021208308172L33.46153846153846,223.38850651591724L35.69230769230769,220.12963207703868L37.92307692307693,220.19159658463713L40.15384615384615,219.25251414493056L42.38461538461539,218.38806422512727L44.61538461538462,214.89776277759375L46.84615384615385,212.42727520104424L49.07692307692308,213.20253790552522L51.307692307692314,211.97906896881005L53.53846153846154,216.88875002079985L55.769230769230774,216.39390560967732L58,215.5305724754507L60.23076923076923,217.28382065183652L62.46153846153847,214.30910153840892L64.6923076923077,210.43336453913278L66.92307692307692,209.83245781312596L69.15384615384616,207.04954616561378L71.38461538461539,205.25514427018197L73.61538461538461,204.63885811573476L75.84615384615385,208.52717968907638L78.07692307692308,210.43089579088246L80.3076923076923,208.76940689120627L82.53846153846153,207.61120631312428L84.76923076923077,207.74404245214743L87,207.96710685069058L89.23076923076924,207.4536330518709L91.46153846153845,207.98269526817788L93.6923076923077,210.89838651473886L95.92307692307692,206.47821484517576L98.15384615384616,208.83092336132538L100.38461538461539,209.23411693861857L102.61538461538463,209.76003778434247L104.84615384615384,210.68865217680883L107.07692307692308,210.35077537692794L109.3076923076923,208.25893895035145L111.53846153846155,209.15121883256592L113.76923076923077,209.02189332966557L116,209.9510877268964L118.23076923076923,209.50811866265477L120.46153846153847,208.81347730393006L122.6923076923077,210.5270970971376L124.92307692307693,212.14549998542856L127.15384615384615,211.13276960725088L129.3846153846154,208.41127943333612L131.6153846153846,209.9096773198602L133.84615384615384,209.20095404228607L136.07692307692307,208.75154130941576L138.30769230769232,210.25973816090107L140.53846153846155,209.26959534510405L142.76923076923077,211.42990738663687L145,210.6050285699849L147.23076923076923,210.900758532471L149.46153846153845,211.2148145766186L151.6923076923077,211.9984163191813L153.92307692307693,210.91991200709964L156.15384615384616,212.52215111826646L158.38461538461536,213.81983756062832L160.6153846153846,212.18165130028177L162.84615384615384,214.61815951957894L165.07692307692307,214.26150896408083L167.3076923076923,213.9213844052353L169.53846153846155,210.53754410334778L171.76923076923077,211.67137369034745L174,211.9024293541558L176.23076923076923,212.10335706755853L178.46153846153848,212.7226852689243L180.6923076923077,212.70031568769429L182.9230769230769,211.9632912319206L185.15384615384613,206.5821627780037L187.3846153846154,208.80682028426918L189.6153846153846,207.18570125563886L191.84615384615384,207.00387084324143L194.07692307692307,205.1638820755367L196.30769230769232,205.78154151548648L198.53846153846155,205.33155227189073L200.76923076923077,206.03575638439946L203,203.03263661443185L205.23076923076925,205.0200976036377L207.46153846153845,206.41843504919032L209.69230769230768,207.52063871792058L211.9230769230769,206.40587436422263L214.15384615384616,206.16499747962578L216.3846153846154,205.499984354968L218.6153846153846,201.07695624640198L220.84615384615384,200.4630045973049L223.0769230769231,198.02097808602252L225.30769230769232,195.90098905706995L227.53846153846155,194.87533500162542L229.76923076923075,193.24721489137966L232,191.94325436725606L234.23076923076923,189.48200338870674L236.46153846153845,187.92577955138856L238.69230769230768,186.99409374210992L240.92307692307693,184.1370948029228L243.15384615384616,184.05258318460164L245.3846153846154,184.59534435713286L247.6153846153846,181.389637402857L249.84615384615387,180.0732735565333L252.0769230769231,181.71942939364254L254.3076923076923,177.9832079364428L256.53846153846155,178.175549311273L258.7692307692308,176.63169991864896L261,175.2971251917727L263.2307692307692,176.79111720304564L265.46153846153845,175.19319673660172L267.6923076923077,174.7788693665757L269.9230769230769,175.2392414687976L272.15384615384613,173.14576895734638L274.38461538461536,173.27684038289945L276.61538461538464,172.7968270862085L278.84615384615387,170.40618952763958L281.0769230769231,166.35649867332515L283.3076923076923,165.4978168166533L285.53846153846155,165.2070124324986L287.7692307692308,166.6505677497734L290,162.74024665949477L292.2307692307692,159.42138736860056L294.46153846153845,154.9176118506139L296.6923076923077,150.14954048310292L298.9230769230769,146.7892083986859L301.1538461538462,142.72470104951734L303.3846153846154,133.18129168114217L305.61538461538464,129.47493267916903L307.84615384615387,126.01438190699352L310.0769230769231,120.72495728595555L312.3076923076923,110.83710807628783L314.5384615384615,119.147731406908L316.7692307692307,112.56064118590972L319,109.37481633415649L321.2307692307692,110.01684126271707L323.46153846153845,109.69336464809672L325.6923076923077,108.45312013666943L327.9230769230769,111.41384429455785L330.15384615384613,113.26224848155258L332.38461538461536,112.27508562809275L334.6153846153846,108.64434826121382L336.84615384615387,103.40934802847818L339.0769230769231,101.10219269603317L341.3076923076923,94.94105639643746L343.53846153846155,85.75870256700169L345.7692307692308,79.04565105574945L348,76.25816412520555L350.2307692307692,80.69562519466109L352.46153846153845,82.7173999027071L354.69230769230774,83.69008985079971L356.92307692307696,85.29960426341584L359.1538461538462,91.00862028799217L361.3846153846154,91.91049119504831L363.6153846153846,91.77779662967822L365.8461538461538,87.97259972122481L368.07692307692304,86.55476315030673L370.30769230769226,86.05237717503267L372.53846153846155,82.36182018887256L374.7692307692308,77.42524201337193L377,77.95522675131943L379.2307692307692,81.16624368227377L381.46153846153845,80.93369571575448L383.6923076923077,78.91348631686756L385.9230769230769,77.25213299754749L388.15384615384613,71.48774295413952L390.3846153846154,75.9853285382685L392.61538461538464,69.76255633439797L394.84615384615387,77.36960247026425L397.0769230769231,79.27942634461562L399.3076923076923,83.561602284921L401.53846153846155,85.28942959649562L403.7692307692308,78.16728849220127L406,78.46823762046789L408.2307692307693,75.70453969807383L410.4615384615385,73.23036056019758L412.6923076923077,68.87756640414844L414.9230769230769,62.17860487129862L417.15384615384613,58.26378795263672L419.38461538461536,58.92102668759291L421.6153846153846,53.394887398285285L423.8461538461538,51.743064432083465L426.0769230769231,45.35509119689759L428.3076923076923,46.317104910332695L430.53846153846155,47.044155261031015L432.7692307692308,46.446603162928504L435,43.508139906323365L437.2307692307692,45.94830186708116L439.46153846153845,47.86456517303335L441.6923076923077,50.27281775364158L443.9230769230769,47.979903161125115L446.1538461538462,47.33447110609552L448.3846153846154,50.21142745202579L450.61538461538464,55.869430365278866L452.84615384615387,62.91057918790357L455.0769230769231,63.035781587436986L457.3076923076923,66.2896314180135L459.5384615384615,67.83568917500472L461.7692307692307,68.59546693392232L464,69.55273288240896L466.2307692307692,74.78514609132263L468.46153846153845,79.278551595438L470.6923076923077,89.20755935795151L472.9230769230769,90.73103986547898L475.15384615384613,97.24581409714973L477.38461538461536,101.85832160262987L479.6153846153846,105.3599587708928L481.84615384615387,112.50719660909436L484.0769230769231,120.88539369665212L486.3076923076923,123.04658030372582L488.53846153846155,132.37767339101867L490.7692307692308,131.52309392994812L493,132.03818711162816L495.2307692307692,135.5540322219929L497.46153846153845,138.07902430241705L499.69230769230774,139.86594801707636L501.92307692307696,142.17486376555826L504.1538461538462,147.23227972476602L506.3846153846154,151.61518240449487L508.6153846153846,156.21153517398906L510.8461538461538,155.79751627873077L513.0769230769231,161.62395005405222L515.3076923076923,167.93713515677953L517.5384615384615,170.9359493918279L519.7692307692308,172.55860510665502L522,176.5637589220873L524.2307692307693,177.68067415328062L526.4615384615385,177.55937883841395L528.6923076923077,182.58602628536886L530.9230769230769,182.9217959711297L533.1538461538461,184.79043417776046L535.3846153846154,188.03375156121263L537.6153846153846,187.18394368929992L539.8461538461538,188.10676962361597L542.0769230769231,188.1884831619513L544.3076923076923,188.8162015364975L546.5384615384615,197.71321704044942L548.7692307692307,208.58288935381665L551,212.81251072034266L553.2307692307693,222.70036702237266L555.4615384615385,229.948158246519" stroke="#f58518" stroke-width="2" opacity="1"/></g></g><path class="foreground" aria-hidden="true" d="" display="none"/></g><g transform="translate(0,0)"><path class="background" aria-hidden="true" d="M0,0h580v275h-580Z"/><g><g class="mark-line role-mark marks" clip-path="url(#clip66)" role="graphics-object" aria-roledescription="line mark container"><path aria-label="variable: TN; index: 0; value: −0.425520336116" role="graphics-symbol" aria-roledescription="line mark" d="M0,209.17420517998806L2.230769230769231,207.921734620664L4.461538461538462,206.76258064484742L6.6923076923076925,205.93138357217654L8.923076923076923,205.0534810325836L11.153846153846155,205.08639104772885L13.384615384615385,204.36870086801548L15.615384615384617,202.85717076990903L17.846153846153847,201.57535846806866L20.076923076923077,200.44219680446676L22.30769230769231,198.75711671320738L24.53846153846154,197.74410768075998L26.76923076923077,196.41337049093784L29,195.3690020317124L31.230769230769234,194.71125668648594L33.46153846153846,193.68354716319968L35.69230769230769,192.09582423810403L37.92307692307693,190.70687609947788L40.15384615384615,189.86388531259027L42.38461538461539,188.99187858239642L44.61538461538462,187.73424740857936L46.84615384615385,186.89766786055236L49.07692307692308,185.7466934448201L51.307692307692314,185.98903982104255L53.53846153846154,185.79614382279757L55.769230769230774,185.9556377413193L58,185.85827069800715L60.23076923076923,187.18579886524245L62.46153846153847,186.5142540585442L64.6923076923077,187.64180142587597L66.92307692307692,186.84844540694445L69.15384615384616,187.86768837813662L71.38461538461539,187.75999475651275L73.61538461538461,187.38743190601278L75.84615384615385,186.20851013430484L78.07692307692308,186.8500987012805L80.3076923076923,185.49842096885789L82.53846153846153,186.20172091232698L84.76923076923077,186.09478266732887L87,185.8952224041904L89.23076923076924,186.87856410317494L91.46153846153845,186.63018322855746L93.6923076923077,187.68724676403872L95.92307692307692,189.69225052368864L98.15384615384616,193.6198151320465L100.38461538461539,194.4350077063008L102.61538461538463,201.12115320333697L104.84615384615384,196.54710258782364L107.07692307692308,196.6344508990502L109.3076923076923,197.99336544983223L111.53846153846155,197.47874658871916L113.76923076923077,198.9860391661996L116,200.78134142310287L118.23076923076923,205.62811498198462L120.46153846153847,205.76969788240606L122.6923076923077,205.24417936107974L124.92307692307693,208.4480561604121L127.15384615384615,211.4099377497039L129.3846153846154,213.64918571412798L131.6153846153846,212.07807682690833L133.84615384615384,214.5560521371969L136.07692307692307,214.1068997083805L138.30769230769232,210.6467422623755L140.53846153846155,209.68570670796692L142.76923076923077,211.17802543107678L145,213.28762285744483L147.23076923076923,213.29482291603884L149.46153846153845,213.44720036807468L151.6923076923077,213.78868216935933L153.92307692307693,213.74662590408934L156.15384615384616,210.66375043430065L158.38461538461536,211.19191527562347L160.6153846153846,211.52964688661794L162.84615384615384,212.17418023782267L165.07692307692307,216.58108043499166L167.3076923076923,216.5045843166876L169.53846153846155,214.34246644238752L171.76923076923077,216.2725236357815L174,217.76597087939092L176.23076923076923,220.5941380985074L178.46153846153848,222.55452388251987L180.6923076923077,225.65728623250976L182.9230769230769,223.99552297824962L185.15384615384613,221.59576932887086L187.3846153846154,223.4489704089014L189.6153846153846,225.76656385227093L191.84615384615384,226.53403077400074L194.07692307692307,224.65392548139883L196.30769230769232,226.06170579886918L198.53846153846155,225.01130261260403L200.76923076923077,223.8551934916033L203,221.82370013994375L205.23076923076925,217.76868594005177L207.46153846153845,220.42253119175658L209.69230769230768,218.58381508759996L211.9230769230769,221.0694053515644L214.15384615384616,218.8924628795636L216.3846153846154,215.03770599775177L218.6153846153846,212.95118953099416L220.84615384615384,212.67470374976705L223.0769230769231,210.3053814360493L225.30769230769232,209.93286625163958L227.53846153846155,210.4871723367959L229.76923076923075,214.51310727830239L232,206.6433870905542L234.23076923076923,203.84436980447543L236.46153846153845,201.6836727834091L238.69230769230768,203.404268473942L240.92307692307693,201.61755591902192L243.15384615384616,205.15728224896577L245.3846153846154,196.31566358434446L247.6153846153846,193.95912421731077L249.84615384615387,194.58479028962824L252.0769230769231,193.48204753015924L254.3076923076923,187.32480386265945L256.53846153846155,188.20530606500958L258.7692307692308,192.72769338241065L261,189.49381807230858L263.2307692307692,185.98450807899778L265.46153846153845,186.03031584423744L267.6923076923077,181.56297499638816L269.9230769230769,181.21362639491215L272.15384615384613,179.3545934575865L274.38461538461536,180.47706322804478L276.61538461538464,179.99506119185028L278.84615384615387,172.59618415384494L281.0769230769231,169.55580001002292L283.3076923076923,169.62957423001563L285.53846153846155,168.35243003407146L287.7692307692308,167.55549839908358L290,167.81434672887997L292.2307692307692,164.92968944908242L294.46153846153845,163.35117340698213L296.6923076923077,159.0794829409756L298.9230769230769,155.5257618619457L301.1538461538462,152.19016131712073L303.3846153846154,150.57047169262538L305.61538461538464,148.431116136189L307.84615384615387,144.5272311081395L310.0769230769231,140.4465966654684L312.3076923076923,139.30105086070265L314.5384615384615,133.66152081132222L316.7692307692307,130.380914506883L319,132.07605356190413L321.2307692307692,127.96818931515871L323.46153846153845,123.66151740499723L325.6923076923077,120.49429017937956L327.9230769230769,119.88992863966428L330.15384615384613,119.97395741952113L332.38461538461536,121.95719268104594L334.6153846153846,117.93021566900646L336.84615384615387,120.23660394724196L339.0769230769231,117.53777685058915L341.3076923076923,118.12948510344309L343.53846153846155,117.2694952842861L345.7692307692308,115.08809052475186L348,108.90274793310951L350.2307692307692,104.72675090741392L352.46153846153845,98.80931802173892L354.69230769230774,97.9518131324607L356.92307692307696,91.17971684971751L359.1538461538462,88.01631289161287L361.3846153846154,86.91554062721563L363.6153846153846,83.46522629407669L365.8461538461538,80.08593589173843L368.07692307692304,79.668844485676L370.30769230769226,75.75560601442746L372.53846153846155,74.77984060231014L374.7692307692308,72.90172250848148L377,64.69459351296189L379.2307692307692,63.634389554786836L381.46153846153845,67.56865427258538L383.6923076923077,64.48227478141466L385.9230769230769,61.861794007833595L388.15384615384613,58.60346522109158L390.3846153846154,54.57659522501932L392.61538461538464,56.97843831321952L394.84615384615387,68.57842251530819L397.0769230769231,64.47347339139844L399.3076923076923,63.39269116620152L401.53846153846155,61.51654009454314L403.7692307692308,60.25736941138693L406,56.36718574375781L408.2307692307693,50.64247863737473L410.4615384615385,47.5067994340494L412.6923076923077,44.40731763920761L414.9230769230769,41.35114906931432L417.15384615384613,32.410632527734236L419.38461538461536,32.38256009555243L421.6153846153846,29.17986005244611L423.8461538461538,29.22915295958993L426.0769230769231,22.71677310417427L428.3076923076923,20.83271725667882L430.53846153846155,26.614171811506303L432.7692307692308,33.322782826475084L435,35.402551399244594L437.2307692307692,35.20048119273984L439.46153846153845,40.25848174487217L441.6923076923077,50.438076574878686L443.9230769230769,58.95264885022512L446.1538461538462,62.35831572381009L448.3846153846154,68.83987833438589L450.61538461538464,79.54213434966397L452.84615384615387,79.8047954774376L455.0769230769231,85.57326403114611L457.3076923076923,89.66982136960075L459.5384615384615,95.28716311482508L461.7692307692307,100.48394934138825L464,102.63699303855468L466.2307692307692,99.25294782779615L468.46153846153845,102.23203801164046L470.6923076923077,111.88228358381117L472.9230769230769,118.28954516134876L475.15384615384613,123.36387583854196L477.38461538461536,127.60327824073289L479.6153846153846,129.1297037391326L481.84615384615387,131.2060333214176L484.0769230769231,133.94345460921105L486.3076923076923,136.67911660245719L488.53846153846155,130.980732594393L490.7692307692308,137.50883300225206L493,143.79483014325885L495.2307692307692,146.63864737474623L497.46153846153845,151.45609074215307L499.69230769230774,156.63205846525182L501.92307692307696,165.74819907269926L504.1538461538462,175.46888546453746L506.3846153846154,179.99811896184116L508.6153846153846,181.90936233473778L510.8461538461538,185.66925954813422L513.0769230769231,189.49156355416153L515.3076923076923,194.87462787092593L517.5384615384615,197.08312792890558L519.7692307692308,205.39586318571594L522,201.15417876656258L524.2307692307693,200.77559990238873L526.4615384615385,200.04313703121525L528.6923076923077,199.19427957081652L530.9230769230769,197.39369289529068L533.1538461538461,197.5811468370704L535.3846153846154,195.67536290994698L537.6153846153846,200.12413165032197L539.8461538461538,200.96238800583342L542.0769230769231,202.79228063524369L544.3076923076923,205.87939363983926L546.5384615384615,209.26145180816576L548.7692307692307,211.39168020616046L551,216.11578505521652L553.2307692307693,219.84285869735865L555.4615384615385,222.27226717632126" stroke="#e45756" stroke-width="2" opacity="1"/></g></g><path class="foreground" aria-hidden="true" d="" display="none"/></g><g transform="translate(0,0)"><path class="background" aria-hidden="true" d="M0,0h580v275h-580Z"/><g><g class="mark-line role-mark marks" clip-path="url(#clip67)" role="graphics-object" aria-roledescription="line mark container"><path aria-label="variable: WA; index: 0; value: −0.733318191023" role="graphics-symbol" aria-roledescription="line mark" d="M0,244.44270938803405L2.230769230769231,242.66185535884532L4.461538461538462,240.26232878253725L6.6923076923076925,237.60661917677388L8.923076923076923,236.95918604521304L11.153846153846155,236.00576902066973L13.384615384615385,235.6253446649379L15.615384615384617,234.28038563961286L17.846153846153847,232.07686133280464L20.076923076923077,229.92742975605927L22.30769230769231,228.7287377553986L24.53846153846154,227.1325845953666L26.76923076923077,225.40933859751962L29,227.52406161856115L31.230769230769234,226.1493827098314L33.46153846153846,224.12459452724272L35.69230769230769,222.9952905044525L37.92307692307693,221.9754834248877L40.15384615384615,219.16960143959028L42.38461538461539,218.8632423127949L44.61538461538462,213.58013056658882L46.84615384615385,211.56941617335605L49.07692307692308,211.76801739672393L51.307692307692314,210.526409096702L53.53846153846154,209.40645507623165L55.769230769230774,210.01401542965L58,209.6553680392438L60.23076923076923,208.93026141998314L62.46153846153847,207.5781330274812L64.6923076923077,206.39845799912348L66.92307692307692,206.20075251183954L69.15384615384616,206.61589033702467L71.38461538461539,203.5668693275108L73.61538461538461,203.20836513267366L75.84615384615385,203.9032119556148L78.07692307692308,204.65110714468995L80.3076923076923,204.38994322203936L82.53846153846153,202.91931008726576L84.76923076923077,200.77081245462242L87,201.8607796645805L89.23076923076924,201.68858816552577L91.46153846153845,201.52874342555302L93.6923076923077,201.9509787752614L95.92307692307692,201.35114095478153L98.15384615384616,202.70065830245537L100.38461538461539,203.01105646317293L102.61538461538463,203.60393646904006L104.84615384615384,202.76196368141922L107.07692307692308,203.42847914233838L109.3076923076923,203.05215729241053L111.53846153846155,202.5706039803565L113.76923076923077,202.60076691909367L116,203.81421833576707L118.23076923076923,204.50248262365434L120.46153846153847,205.60885006786506L122.6923076923077,205.93311614481593L124.92307692307693,207.21326548869555L127.15384615384615,207.73885721570818L129.3846153846154,208.13045581715403L131.6153846153846,208.1882163509007L133.84615384615384,208.95142879086333L136.07692307692307,209.82748724252656L138.30769230769232,209.88978874429375L140.53846153846155,209.90281430576167L142.76923076923077,210.68606262681007L145,211.48053425303547L147.23076923076923,212.37657223345064L149.46153846153845,212.14445008515935L151.6923076923077,212.26605073847034L153.92307692307693,213.25944785435775L156.15384615384616,213.5129522020068L158.38461538461536,213.2847922938493L160.6153846153846,213.49106849528988L162.84615384615384,214.29926543271142L165.07692307692307,214.35243285250115L167.3076923076923,213.00016714083924L169.53846153846155,212.56074920876125L171.76923076923077,214.24323594855332L174,213.73630934565688L176.23076923076923,213.65236281622455L178.46153846153848,213.07657010096932L180.6923076923077,214.8254444315585L182.9230769230769,220.61682027176533L185.15384615384613,212.69912483911875L187.3846153846154,211.24585756500946L189.6153846153846,207.8238582220538L191.84615384615384,211.69262384839493L194.07692307692307,210.28174797123708L196.30769230769232,208.71199010927052L198.53846153846155,214.07577474320055L200.76923076923077,217.68089381604514L203,210.84604233589437L205.23076923076925,211.66808256677217L207.46153846153845,211.74984733019832L209.69230769230768,215.91121476980885L211.9230769230769,214.56958557483944L214.15384615384616,215.29934563989283L216.3846153846154,217.9589037904729L218.6153846153846,218.5328749139644L220.84615384615384,216.3367351745979L223.0769230769231,216.58948900961323L225.30769230769232,217.59361802064922L227.53846153846155,216.88206626638927L229.76923076923075,219.9610159541514L232,214.8127007996588L234.23076923076923,213.09642668625276L236.46153846153845,213.592708600865L238.69230769230768,214.14834647518157L240.92307692307693,212.20298390928247L243.15384615384616,209.39462673749216L245.3846153846154,214.1203996792554L247.6153846153846,211.50716885682073L249.84615384615387,201.0811685233086L252.0769230769231,205.59962311921413L254.3076923076923,202.27097073054628L256.53846153846155,198.72859781526714L258.7692307692308,201.60232783588168L261,201.52366020602284L263.2307692307692,204.2074089390303L265.46153846153845,201.3676508073883L267.6923076923077,196.36520908150436L269.9230769230769,195.6612902291959L272.15384615384613,194.142882617519L274.38461538461536,193.18157579584576L276.61538461538464,194.31302814994103L278.84615384615387,188.96317918093237L281.0769230769231,185.37672407400856L283.3076923076923,185.2621950804995L285.53846153846155,183.1795162129313L287.7692307692308,180.3100517158381L290,187.58981943184594L292.2307692307692,185.72491943720323L294.46153846153845,182.74573745519442L296.6923076923077,181.58491314481967L298.9230769230769,178.0665161221175L301.1538461538462,165.85185904419316L303.3846153846154,160.44007850778218L305.61538461538464,157.1661768439337L307.84615384615387,148.8761771109542L310.0769230769231,148.77413843671002L312.3076923076923,134.8521508458911L314.5384615384615,135.66874528675882L316.7692307692307,129.01613241314956L319,126.6387555100091L321.2307692307692,124.87618164044933L323.46153846153845,130.83313704756253L325.6923076923077,121.18606336155842L327.9230769230769,108.7844393555118L330.15384615384613,103.82270394499871L332.38461538461536,96.3806846369025L334.6153846153846,95.00715037315456L336.84615384615387,86.54533026052636L339.0769230769231,80.67381747268638L341.3076923076923,76.588473242659L343.53846153846155,69.33301367020616L345.7692307692308,69.2607584048695L348,63.264392734227236L350.2307692307692,61.463969492427125L352.46153846153845,60.80449555095222L354.69230769230774,60.431310422104396L356.92307692307696,64.05391447256176L359.1538461538462,61.43246048790013L361.3846153846154,61.1795083178298L363.6153846153846,89.86888566517742L365.8461538461538,92.71110405711825L368.07692307692304,91.91229212926697L370.30769230769226,91.26331895136201L372.53846153846155,88.13483986762584L374.7692307692308,83.94440715221346L377,74.94297631255142L379.2307692307692,52.1849753555362L381.46153846153845,59.94288915617827L383.6923076923077,59.44990807497999L385.9230769230769,59.166301887934566L388.15384615384613,57.716358080794656L390.3846153846154,84.88730811674633L392.61538461538464,71.85386342934804L394.84615384615387,82.76416868819274L397.0769230769231,81.03934389156304L399.3076923076923,80.25927036219093L401.53846153846155,79.91650308951299L403.7692307692308,72.03445524786446L406,59.03004331824541L408.2307692307693,61.5850537537149L410.4615384615385,56.66534936887507L412.6923076923077,57.42524664385636L414.9230769230769,58.079802590756785L417.15384615384613,57.84756103863422L419.38461538461536,58.03043254375969L421.6153846153846,66.01780313224035L423.8461538461538,62.70147702730738L426.0769230769231,69.40132380655079L428.3076923076923,61.26398254446263L430.53846153846155,60.23284041583895L432.7692307692308,59.29365307268377L435,64.33471888670593L437.2307692307692,67.7850061986655L439.46153846153845,70.42523903047427L441.6923076923077,74.22930439319569L443.9230769230769,69.49938542124087L446.1538461538462,70.92926830612627L448.3846153846154,72.16523619865572L450.61538461538464,72.6858801488866L452.84615384615387,77.65800587676354L455.0769230769231,90.10225751282404L457.3076923076923,77.51397693840825L459.5384615384615,77.76351677741883L461.7692307692307,79.57234225505475L464,81.51049877315207L466.2307692307692,100.16898363202694L468.46153846153845,100.79429758507021L470.6923076923077,94.87635812322253L472.9230769230769,107.11456618185136L475.15384615384613,109.92817829315881L477.38461538461536,111.2523133009851L479.6153846153846,112.7373399811438L481.84615384615387,110.49959599590525L484.0769230769231,115.29081573673093L486.3076923076923,116.31346121697369L488.53846153846155,117.04060321935734L490.7692307692308,117.9726873234736L493,118.73331260428691L495.2307692307692,119.56223232285801L497.46153846153845,123.02249286597528L499.69230769230774,122.29938393097952L501.92307692307696,126.31173238530315L504.1538461538462,127.25349544885643L506.3846153846154,127.01054310110891L508.6153846153846,127.3782291038351L510.8461538461538,127.82354402028828L513.0769230769231,128.33692628469726L515.3076923076923,135.7796726106277L517.5384615384615,135.62291528337485L519.7692307692308,144.37597123790107L522,149.60929588193673L524.2307692307693,150.76923393711803L526.4615384615385,152.00738598512834L528.6923076923077,150.92619603525006L530.9230769230769,160.29116531239936L533.1538461538461,149.33118402257134L535.3846153846154,146.9709094481039L537.6153846153846,157.88931278673988L539.8461538461538,159.0845283204463L542.0769230769231,160.36265561374762L544.3076923076923,166.37699706624312L546.5384615384615,166.15217260038546L548.7692307692307,170.54328646021386L551,176.78323811746301L553.2307692307693,180.86766614573952L555.4615384615385,181.6685171061584" stroke="#72b7b2" stroke-width="2" opacity="1"/></g></g><path class="foreground" aria-hidden="true" d="" display="none"/></g><g transform="translate(0,0)"><path class="background" aria-hidden="true" d="M0,0h580v275h-580Z"/><g><g class="mark-line role-mark marks" clip-path="url(#clip68)" role="graphics-object" aria-roledescription="line mark container"><path aria-label="variable: WV; index: 0; value: −0.880231095901" role="graphics-symbol" aria-roledescription="line mark" d="M0,261.2764797386748L2.230769230769231,257.5600953487669L4.461538461538462,255.87311413014405L6.6923076923076925,255.8644026400682L8.923076923076923,253.29210526177582L11.153846153846155,249.879171621917L13.384615384615385,248.81655684548218L15.615384615384617,244.11114940211533L17.846153846153847,240.63588294398528L20.076923076923077,237.03962597972472L22.30769230769231,235.33902668252045L24.53846153846154,232.72452980271706L26.76923076923077,229.60439129952906L29,226.78963899050515L31.230769230769234,224.94871534040342L33.46153846153846,223.6686739629729L35.69230769230769,220.99527703496665L37.92307692307693,221.37352873248952L40.15384615384615,221.14278927025936L42.38461538461539,220.3622631706735L44.61538461538462,221.12314452058163L46.84615384615385,221.98841186107776L49.07692307692308,219.46790268541614L51.307692307692314,219.58059758941357L53.53846153846154,219.68011993615548L55.769230769230774,219.22691646346374L58,218.40789006519856L60.23076923076923,217.5199570112378L62.46153846153847,214.59888452877144L64.6923076923077,214.43138521667657L66.92307692307692,213.2828671040278L69.15384615384616,212.79809908111298L71.38461538461539,210.0182707081574L73.61538461538461,209.27781914681407L75.84615384615385,212.8620374828021L78.07692307692308,211.52091276432247L80.3076923076923,211.9264826569964L82.53846153846153,211.9702568561318L84.76923076923077,211.26643715519572L87,209.64087192278038L89.23076923076924,211.40786471026232L91.46153846153845,211.6811442578325L93.6923076923077,210.17350239743882L95.92307692307692,210.05857933244957L98.15384615384616,208.35454820276766L100.38461538461539,207.8435393230424L102.61538461538463,209.94278828849383L104.84615384615384,210.51818294518588L107.07692307692308,211.51296463430896L109.3076923076923,213.95702131515313L111.53846153846155,212.00634718905513L113.76923076923077,212.23393506638286L116,213.50200773193953L118.23076923076923,214.87416906602172L120.46153846153847,214.8261194959431L122.6923076923077,215.57632405608533L124.92307692307693,216.56649155623185L127.15384615384615,214.3185652377273L129.3846153846154,213.67901273427486L131.6153846153846,213.65632291990445L133.84615384615384,214.25321703118476L136.07692307692307,212.52885675828134L138.30769230769232,211.896910346821L140.53846153846155,210.61051509678168L142.76923076923077,211.26335155628198L145,208.7614213554256L147.23076923076923,208.0408896508962L149.46153846153845,205.40795719909988L151.6923076923077,202.1789665416079L153.92307692307693,202.10484040272712L156.15384615384616,202.72635944634334L158.38461538461536,203.9324365307157L160.6153846153846,202.61852209694294L162.84615384615384,200.81430572706265L165.07692307692307,201.1938019798856L167.3076923076923,200.29956705711552L169.53846153846155,199.78421936164133L171.76923076923077,198.66335501700857L174,199.0661900617789L176.23076923076923,197.99915003183176L178.46153846153848,197.75725866703885L180.6923076923077,198.19719033069228L182.9230769230769,199.28708643923468L185.15384615384613,199.38651401426134L187.3846153846154,200.75621029133455L189.6153846153846,201.64212715688137L191.84615384615384,200.98535536414116L194.07692307692307,204.01094989747875L196.30769230769232,204.94837219100907L198.53846153846155,205.35058509246633L200.76923076923077,204.77864588645244L203,203.79545724824018L205.23076923076925,204.2088111189123L207.46153846153845,206.0750238046559L209.69230769230768,205.6348298082512L211.9230769230769,204.11419944346585L214.15384615384616,205.76039981493147L216.3846153846154,206.12443914547023L218.6153846153846,207.41626940644127L220.84615384615384,209.07112882026897L223.0769230769231,208.0434240421149L225.30769230769232,206.5293392669013L227.53846153846155,206.55439983958428L229.76923076923075,205.05335127825333L232,204.70083576431705L234.23076923076923,204.31674086721532L236.46153846153845,203.38634669308928L238.69230769230768,200.41109956819722L240.92307692307693,201.45171561947302L243.15384615384616,201.11875414512824L245.3846153846154,200.37810488070997L247.6153846153846,199.8329367149363L249.84615384615387,198.5644461517645L252.0769230769231,198.00380360751714L254.3076923076923,195.95301587860817L256.53846153846155,194.87470005792653L258.7692307692308,192.6577835423632L261,192.61936477257805L263.2307692307692,191.51735263433707L265.46153846153845,188.4075357675993L267.6923076923077,186.66536864884185L269.9230769230769,187.0985035825224L272.15384615384613,185.62210914606132L274.38461538461536,184.10808032795805L276.61538461538464,180.46633554821403L278.84615384615387,179.10226681989326L281.0769230769231,176.88463503281915L283.3076923076923,174.07207244452536L285.53846153846155,173.07135896083523L287.7692307692308,170.61600042273852L290,171.24299563866785L292.2307692307692,163.0548709780075L294.46153846153845,161.50037008372638L296.6923076923077,159.16641287576252L298.9230769230769,157.252617894922L301.1538461538462,152.27926079561703L303.3846153846154,151.96720338991568L305.61538461538464,145.59201741272528L307.84615384615387,151.00340217302931L310.0769230769231,147.3363965583576L312.3076923076923,140.4026215150606L314.5384615384615,136.49927137833572L316.7692307692307,134.02110335837475L319,130.04232020777187L321.2307692307692,126.72420158160354L323.46153846153845,124.46257692144614L325.6923076923077,125.58671018863984L327.9230769230769,121.49037681164184L330.15384615384613,118.38130134746929L332.38461538461536,120.12280352189931L334.6153846153846,122.64001131509835L336.84615384615387,115.76698311475117L339.0769230769231,114.39694062169139L341.3076923076923,109.54323505164572L343.53846153846155,106.12126129348519L345.7692307692308,104.00198207562259L348,98.52672533270882L350.2307692307692,87.99106151038701L352.46153846153845,86.7960269605803L354.69230769230774,85.35197620123257L356.92307692307696,79.81128010512185L359.1538461538462,78.13808322697098L361.3846153846154,73.8917249583316L363.6153846153846,69.1735586210801L365.8461538461538,69.60143495683324L368.07692307692304,70.73775349508168L370.30769230769226,64.53641615342633L372.53846153846155,59.66794774255648L374.7692307692308,61.736039731375186L377,54.33533255048243L379.2307692307692,54.457237163328365L381.46153846153845,55.453766836919286L383.6923076923077,53.02861299246181L385.9230769230769,55.10830348583545L388.15384615384613,49.88221611212473L390.3846153846154,49.219361798726055L392.61538461538464,49.053225420791954L394.84615384615387,45.76862656555198L397.0769230769231,49.714761867775756L399.3076923076923,51.21353306867196L401.53846153846155,44.262740651196786L403.7692307692308,45.877264572217584L406,44.168882811464385L408.2307692307693,49.13965729825919L410.4615384615385,46.646590133418314L412.6923076923077,46.58348131530756L414.9230769230769,45.89699675306556L417.15384615384613,42.72603405136204L419.38461538461536,34.4812545225612L421.6153846153846,32.66636117659046L423.8461538461538,27.50010986110239L426.0769230769231,27.255664014365887L428.3076923076923,28.16832088477779L430.53846153846155,23.377969487165885L432.7692307692308,27.388627221825146L435,33.568094455405245L437.2307692307692,36.21101344363308L439.46153846153845,44.920555776350525L441.6923076923077,46.50513271046995L443.9230769230769,47.56654304677805L446.1538461538462,53.077773080842135L448.3846153846154,58.69134753083748L450.61538461538464,66.89301686943764L452.84615384615387,74.31302801924427L455.0769230769231,79.98532427686659L457.3076923076923,88.42204664724837L459.5384615384615,94.7285748558618L461.7692307692307,95.88597681636801L464,97.11032993169445L466.2307692307692,97.81289754705769L468.46153846153845,101.62077122245984L470.6923076923077,97.41621388592006L472.9230769230769,94.61373695031261L475.15384615384613,99.75460410566731L477.38461538461536,106.30154561875617L479.6153846153846,111.20456398270608L481.84615384615387,116.4918186596488L484.0769230769231,118.62569106545378L486.3076923076923,128.4688184227937L488.53846153846155,130.12507452917274L490.7692307692308,129.99940188531784L493,131.63209166781004L495.2307692307692,135.9470500692187L497.46153846153845,133.14638470771663L499.69230769230774,138.98870884137864L501.92307692307696,146.92127190236022L504.1538461538462,150.62951530974323L506.3846153846154,157.34639068977577L508.6153846153846,158.11083664209698L510.8461538461538,159.25337581825093L513.0769230769231,164.07060735085685L515.3076923076923,171.44331777120524L517.5384615384615,177.4394223209677L519.7692307692308,175.92926126150024L522,172.99018952507345L524.2307692307693,174.83700085862964L526.4615384615385,174.13389594052117L528.6923076923077,173.4304284678673L530.9230769230769,174.544811003035L533.1538461538461,176.42463960937013L535.3846153846154,182.70213026265958L537.6153846153846,182.563861295052L539.8461538461538,184.27117311961806L542.0769230769231,187.22949701115857L544.3076923076923,190.50899798728503L546.5384615384615,192.8709817754728L548.7692307692307,196.24013978641295L551,196.07428640702636L553.2307692307693,197.23338466208563L555.4615384615385,202.9013269132962" stroke="#54a24b" stroke-width="2" opacity="1"/></g></g><path class="foreground" aria-hidden="true" d="" display="none"/></g></g><g class="mark-group role-legend" role="graphics-symbol" aria-roledescription="legend" aria-label="Symbol legend for stroke color with 5 values: AR, OK, TN, WA, WV"><g transform="translate(598,0)"><path class="background" aria-hidden="true" d="M0,0h33v63h-33Z" pointer-events="none"/><g><g class="mark-group role-legend-entry"><g transform="translate(0,0)"><path class="background" aria-hidden="true" d="M0,0h0v0h0Z" pointer-events="none"/><g><g class="mark-group role-scope" role="graphics-object" aria-roledescription="group mark container"><g transform="translate(0,0)"><path class="background" aria-hidden="true" d="M0,0h32.41998291015625v11h-32.41998291015625Z" pointer-events="none" opacity="1"/><g><g class="mark-symbol role-legend-symbol" pointer-events="none"><path transform="translate(6,6)" d="M-5,0L5,0" stroke="#4c78a8" stroke-width="1.5" opacity="1"/></g><g class="mark-text role-legend-label" pointer-events="none"><text text-anchor="start" transform="translate(16,9)" font-family="IBM Plex Serif, serif" font-size="10px" fill="#262730" opacity="1">AR</text></g></g><path class="foreground" aria-hidden="true" d="" pointer-events="none" display="none"/></g><g transform="translate(0,13)"><path class="background" aria-hidden="true" d="M0,0h32.41998291015625v11h-32.41998291015625Z" pointer-events="none" opacity="1"/><g><g class="mark-symbol role-legend-symbol" pointer-events="none"><path transform="translate(6,6)" d="M-5,0L5,0" stroke="#f58518" stroke-width="1.5" opacity="1"/></g><g class="mark-text role-legend-label" pointer-events="none"><text text-anchor="start" transform="translate(16,9)" font-family="IBM Plex Serif, serif" font-size="10px" fill="#262730" opacity="1">OK</text></g></g><path class="foreground" aria-hidden="true" d="" pointer-events="none" display="none"/></g><g transform="translate(0,26)"><path class="background" aria-hidden="true" d="M0,0h32.41998291015625v11h-32.41998291015625Z" pointer-events="none" opacity="1"/><g><g class="mark-symbol role-legend-symbol" pointer-events="none"><path transform="translate(6,6)" d="M-5,0L5,0" stroke="#e45756" stroke-width="1.5" opacity="1"/></g><g class="mark-text role-legend-label" pointer-events="none"><text text-anchor="start" transform="translate(16,9)" font-family="IBM Plex Serif, serif" font-size="10px" fill="#262730" opacity="1">TN</text></g></g><path class="foreground" aria-hidden="true" d="" pointer-events="none" display="none"/></g><g transform="translate(0,39)"><path class="background" aria-hidden="true" d="M0,0h32.41998291015625v11h-32.41998291015625Z" pointer-events="none" opacity="1"/><g><g class="mark-symbol role-legend-symbol" pointer-events="none"><path transform="translate(6,6)" d="M-5,0L5,0" stroke="#72b7b2" stroke-width="1.5" opacity="1"/></g><g class="mark-text role-legend-label" pointer-events="none"><text text-anchor="start" transform="translate(16,9)" font-family="IBM Plex Serif, serif" font-size="10px" fill="#262730" opacity="1">WA</text></g></g><path class="foreground" aria-hidden="true" d="" pointer-events="none" display="none"/></g><g transform="translate(0,52)"><path class="background" aria-hidden="true" d="M0,0h32.41998291015625v11h-32.41998291015625Z" pointer-events="none" opacity="1"/><g><g class="mark-symbol role-legend-symbol" pointer-events="none"><path transform="translate(6,6)" d="M-5,0L5,0" stroke="#54a24b" stroke-width="1.5" opacity="1"/></g><g class="mark-text role-legend-label" pointer-events="none"><text text-anchor="start" transform="translate(16,9)" font-family="IBM Plex Serif, serif" font-size="10px" fill="#262730" opacity="1">WV</text></g></g><path class="foreground" aria-hidden="true" d="" pointer-events="none" display="none"/></g></g></g><path class="foreground" aria-hidden="true" d="" pointer-events="none" display="none"/></g></g></g><path class="foreground" aria-hidden="true" d="" pointer-events="none" display="none"/></g></g></g><path class="foreground" aria-hidden="true" d="" display="none"/></g></g></g><defs><clipPath id="clip64"><rect x="0" y="0" width="580" height="275"/></clipPath><clipPath id="clip65"><rect x="0" y="0" width="580" height="275"/></clipPath><clipPath id="clip66"><rect x="0" y="0" width="580" height="275"/></clipPath><clipPath id="clip67"><rect x="0" y="0" width="580" height="275"/></clipPath><clipPath id="clip68"><rect x="0" y="0" width="580" height="275"/></clipPath></defs></svg>